<?xml version="1.0" encoding="UTF-8" standalone="no"?>
<!DOCTYPE svg PUBLIC "-//W3C//DTD SVG 1.1//EN" "http://www.w3.org/Graphics/SVG/1.1/DTD/svg11.dtd">
<svg width="100%" height="100%" viewBox="0 0 1875 834" version="1.1" xmlns="http://www.w3.org/2000/svg" xmlns:xlink="http://www.w3.org/1999/xlink" xml:space="preserve" xmlns:serif="http://www.serif.com/" style="fill-rule:evenodd;clip-rule:evenodd;">
    <g transform="matrix(1,0,0,1,-0.00644,-4.43865e-08)">
        <g transform="matrix(0.972715,0,0,0.972715,-26.5444,-117.313)">
            <g>
                <g>
                    <g transform="matrix(0,3.25835,-3.18959,0,1164.55,-191.696)">
                        <path d="M96.5,135.238L344.5,135.238" style="fill:none;fill-rule:nonzero;stroke:black;stroke-width:0.32px;"/>
                    </g>
                    <g transform="matrix(0,3.25835,-3.18959,0,1553.68,-589.215)">
                        <path d="M218.5,135.238L466.5,135.238" style="fill:none;fill-rule:nonzero;stroke:black;stroke-width:0.32px;"/>
                    </g>
                    <g transform="matrix(0,3.25835,-3.18959,0,1939.62,-983.476)">
                        <path d="M339.5,135.238L587.5,135.238" style="fill:none;fill-rule:nonzero;stroke:black;stroke-width:0.32px;"/>
                    </g>
                    <g transform="matrix(0,3.25835,-3.18959,0,2325.56,-1377.74)">
                        <path d="M460.5,135.238L708.5,135.238" style="fill:none;fill-rule:nonzero;stroke:black;stroke-width:0.32px;"/>
                    </g>
                    <g transform="matrix(0,-3.25835,3.18959,0,-83.067,850.978)">
                        <path d="M-24,135.238L223,135.238" style="fill:none;fill-rule:nonzero;stroke:black;stroke-width:0.32px;stroke-linecap:square;"/>
                    </g>
                    <g transform="matrix(6.2565,-3.831e-16,3.75015e-16,6.12446,499.009,70.1123)">
                        <path d="M-24,135.238L223,135.238" style="fill:none;fill-rule:nonzero;stroke:black;stroke-width:0.17px;stroke-linecap:square;"/>
                    </g>
                    <g transform="matrix(3.18959,0,0,3.25835,29.8938,86.119)">
                        <g>
                            <g transform="matrix(1,0,0,-1,100,65.2378)">
                                <rect x="0" y="0" width="464" height="44" style="fill:rgb(191,186,174);"/>
                            </g>
                            <g transform="matrix(1,0,0,-1,100,126.238)">
                                <rect x="0" y="0" width="377" height="43" style="fill:rgb(191,186,174);"/>
                            </g>
                            <g transform="matrix(1,0,0,-1,100,188.238)">
                                <rect x="0" y="0" width="335" height="44" style="fill:rgb(191,186,174);"/>
                            </g>
                            <g transform="matrix(1,0,0,-1,100,249.238)">
                                <rect x="0" y="0" width="305" height="44" style="fill:rgb(191,186,174);"/>
                            </g>
                        </g>
                    </g>
                    <g transform="matrix(1.02805,0,0,1.02805,-402.77,127.995)">
                        <g transform="matrix(30,0,0,30,1301.11,104.857)">
                            <path d="M0.078,-0.109L0.271,-0.109L0.271,-0.539C0.271,-0.55 0.271,-0.559 0.272,-0.568C0.272,-0.577 0.272,-0.584 0.273,-0.591C0.274,-0.599 0.274,-0.606 0.275,-0.612L0.273,-0.612C0.269,-0.608 0.265,-0.604 0.261,-0.601C0.254,-0.594 0.243,-0.587 0.23,-0.578L0.089,-0.485L0.089,-0.607L0.252,-0.72L0.396,-0.72L0.396,-0.109L0.553,-0.109L0.553,-0L0.078,-0L0.078,-0.109Z" style="fill-rule:nonzero;"/>
                        </g>
                        <g transform="matrix(30,0,0,30,1319.11,104.857)">
                            <path d="M0.3,0.01C0.263,0.01 0.229,0.004 0.199,-0.007C0.168,-0.018 0.142,-0.034 0.121,-0.055C0.099,-0.076 0.082,-0.1 0.071,-0.13C0.059,-0.159 0.053,-0.191 0.053,-0.227C0.053,-0.271 0.062,-0.316 0.081,-0.361C0.1,-0.406 0.127,-0.457 0.163,-0.513L0.295,-0.72L0.438,-0.72L0.279,-0.479C0.262,-0.454 0.249,-0.435 0.24,-0.421C0.23,-0.406 0.222,-0.395 0.217,-0.388C0.211,-0.379 0.207,-0.374 0.205,-0.371L0.215,-0.371C0.223,-0.384 0.233,-0.396 0.245,-0.407C0.256,-0.416 0.269,-0.424 0.286,-0.431C0.302,-0.438 0.322,-0.442 0.345,-0.442C0.375,-0.442 0.403,-0.437 0.428,-0.426C0.452,-0.415 0.474,-0.4 0.492,-0.381C0.509,-0.362 0.523,-0.338 0.533,-0.312C0.543,-0.285 0.548,-0.254 0.548,-0.221C0.548,-0.186 0.542,-0.155 0.53,-0.127C0.518,-0.098 0.501,-0.074 0.48,-0.054C0.458,-0.033 0.432,-0.017 0.402,-0.007C0.371,0.005 0.337,0.01 0.3,0.01ZM0.178,-0.221C0.178,-0.183 0.189,-0.153 0.212,-0.13C0.234,-0.107 0.263,-0.096 0.3,-0.096C0.337,-0.096 0.366,-0.107 0.389,-0.13C0.412,-0.153 0.423,-0.183 0.423,-0.221C0.423,-0.259 0.412,-0.289 0.389,-0.312C0.366,-0.334 0.337,-0.345 0.3,-0.345C0.264,-0.345 0.235,-0.334 0.212,-0.311C0.189,-0.288 0.178,-0.258 0.178,-0.221Z" style="fill-rule:nonzero;"/>
                        </g>
                        <g transform="matrix(30,0,0,30,1337.11,104.857)">
                            <path d="M0.532,-0.519C0.532,-0.494 0.529,-0.47 0.523,-0.447C0.516,-0.424 0.506,-0.401 0.493,-0.378C0.479,-0.355 0.461,-0.332 0.44,-0.309C0.419,-0.286 0.393,-0.262 0.364,-0.237L0.26,-0.151C0.244,-0.14 0.23,-0.131 0.217,-0.124C0.21,-0.12 0.203,-0.117 0.196,-0.114L0.196,-0.11C0.205,-0.111 0.215,-0.111 0.226,-0.112C0.235,-0.112 0.279,-0.113 0.29,-0.113L0.541,-0.113L0.541,-0L0.058,-0L0.058,-0.132L0.288,-0.319C0.33,-0.354 0.36,-0.386 0.379,-0.417C0.397,-0.447 0.406,-0.479 0.406,-0.513C0.406,-0.546 0.396,-0.572 0.377,-0.591C0.358,-0.61 0.331,-0.62 0.298,-0.62C0.262,-0.62 0.233,-0.611 0.212,-0.592C0.191,-0.573 0.18,-0.549 0.18,-0.518L0.053,-0.518C0.054,-0.55 0.06,-0.579 0.072,-0.605C0.084,-0.631 0.101,-0.653 0.122,-0.672C0.143,-0.69 0.169,-0.704 0.2,-0.715C0.23,-0.725 0.263,-0.73 0.3,-0.73C0.335,-0.73 0.366,-0.725 0.395,-0.715C0.424,-0.705 0.448,-0.691 0.469,-0.672C0.489,-0.653 0.505,-0.631 0.516,-0.606C0.527,-0.58 0.532,-0.551 0.532,-0.519Z" style="fill-rule:nonzero;"/>
                        </g>
                        <g transform="matrix(30,0,0,30,1355.11,104.857)">
                            <path d="M0.39,-0.151L0.26,0.16L0.15,0.16L0.23,-0.151L0.39,-0.151Z" style="fill-rule:nonzero;"/>
                        </g>
                        <g transform="matrix(30,0,0,30,1373.11,104.857)">
                            <path d="M0.18,-0.604L0.18,-0.497L0.063,-0.497L0.063,-0.72L0.54,-0.72L0.54,-0.59L0.285,-0L0.148,-0L0.387,-0.538C0.392,-0.548 0.396,-0.557 0.4,-0.565C0.404,-0.573 0.408,-0.58 0.411,-0.585C0.415,-0.591 0.419,-0.597 0.423,-0.602L0.423,-0.606C0.413,-0.605 0.403,-0.605 0.394,-0.605C0.386,-0.605 0.352,-0.604 0.345,-0.604L0.18,-0.604Z" style="fill-rule:nonzero;"/>
                        </g>
                        <g transform="matrix(30,0,0,30,1391.11,104.857)">
                            <path d="M0.3,-0.329C0.263,-0.329 0.234,-0.318 0.212,-0.297C0.19,-0.276 0.179,-0.247 0.179,-0.211C0.179,-0.176 0.19,-0.148 0.212,-0.125C0.234,-0.102 0.263,-0.091 0.3,-0.091C0.337,-0.091 0.367,-0.102 0.389,-0.125C0.411,-0.148 0.422,-0.176 0.422,-0.211C0.422,-0.247 0.411,-0.276 0.389,-0.297C0.367,-0.318 0.337,-0.329 0.3,-0.329ZM0.3,-0.635C0.266,-0.635 0.239,-0.626 0.219,-0.607C0.198,-0.588 0.188,-0.564 0.188,-0.533C0.188,-0.501 0.198,-0.474 0.219,-0.453C0.239,-0.432 0.266,-0.421 0.3,-0.421C0.334,-0.421 0.361,-0.432 0.382,-0.453C0.402,-0.474 0.412,-0.5 0.412,-0.533C0.412,-0.564 0.402,-0.588 0.382,-0.607C0.361,-0.626 0.334,-0.635 0.3,-0.635ZM0.3,-0.73C0.335,-0.73 0.367,-0.725 0.396,-0.717C0.425,-0.708 0.449,-0.695 0.47,-0.678C0.49,-0.661 0.505,-0.641 0.517,-0.618C0.528,-0.595 0.533,-0.568 0.533,-0.539C0.533,-0.518 0.53,-0.499 0.523,-0.481C0.516,-0.462 0.507,-0.446 0.495,-0.432C0.482,-0.417 0.468,-0.405 0.451,-0.396C0.434,-0.387 0.414,-0.381 0.393,-0.378L0.393,-0.374C0.44,-0.367 0.478,-0.347 0.506,-0.316C0.534,-0.285 0.548,-0.246 0.548,-0.2C0.548,-0.169 0.542,-0.14 0.531,-0.114C0.519,-0.088 0.502,-0.066 0.481,-0.048C0.459,-0.029 0.433,-0.015 0.403,-0.005C0.372,0.005 0.338,0.01 0.3,0.01C0.262,0.01 0.228,0.005 0.198,-0.005C0.167,-0.015 0.141,-0.029 0.12,-0.048C0.099,-0.066 0.082,-0.088 0.071,-0.114C0.059,-0.139 0.053,-0.168 0.053,-0.199C0.053,-0.245 0.067,-0.284 0.095,-0.316C0.123,-0.347 0.16,-0.367 0.207,-0.374L0.207,-0.378C0.186,-0.381 0.167,-0.387 0.15,-0.396C0.133,-0.405 0.118,-0.417 0.106,-0.432C0.094,-0.446 0.085,-0.462 0.078,-0.481C0.071,-0.499 0.068,-0.518 0.068,-0.539C0.068,-0.568 0.074,-0.595 0.085,-0.618C0.096,-0.641 0.111,-0.661 0.131,-0.678C0.151,-0.695 0.175,-0.708 0.204,-0.717C0.233,-0.725 0.265,-0.73 0.3,-0.73Z" style="fill-rule:nonzero;"/>
                        </g>
                        <g transform="matrix(30,0,0,30,1409.11,104.857)">
                            <path d="M0.253,-0.405C0.253,-0.42 0.257,-0.433 0.266,-0.443C0.275,-0.452 0.286,-0.457 0.3,-0.457C0.314,-0.457 0.325,-0.452 0.334,-0.443C0.343,-0.433 0.347,-0.42 0.347,-0.405L0.347,-0.305C0.347,-0.29 0.343,-0.277 0.334,-0.268C0.325,-0.258 0.314,-0.253 0.3,-0.253C0.286,-0.253 0.275,-0.258 0.266,-0.268C0.257,-0.277 0.253,-0.29 0.253,-0.305L0.253,-0.405ZM0.184,-0.211C0.184,-0.177 0.195,-0.15 0.216,-0.13C0.237,-0.11 0.265,-0.1 0.3,-0.1C0.335,-0.1 0.364,-0.11 0.385,-0.13C0.406,-0.15 0.417,-0.177 0.417,-0.211L0.417,-0.51C0.417,-0.544 0.406,-0.571 0.385,-0.591C0.364,-0.611 0.335,-0.621 0.3,-0.621C0.265,-0.621 0.237,-0.611 0.216,-0.591C0.195,-0.571 0.184,-0.544 0.184,-0.51L0.184,-0.211ZM0.061,-0.211L0.061,-0.51C0.061,-0.543 0.067,-0.574 0.078,-0.601C0.089,-0.628 0.105,-0.651 0.126,-0.67C0.147,-0.689 0.172,-0.704 0.202,-0.715C0.231,-0.725 0.264,-0.73 0.3,-0.73C0.336,-0.73 0.369,-0.725 0.399,-0.715C0.428,-0.704 0.453,-0.689 0.474,-0.67C0.495,-0.651 0.511,-0.628 0.522,-0.601C0.533,-0.574 0.539,-0.543 0.539,-0.51L0.539,-0.211C0.539,-0.178 0.533,-0.148 0.522,-0.121C0.511,-0.094 0.495,-0.07 0.474,-0.051C0.452,-0.032 0.427,-0.017 0.398,-0.006C0.369,0.005 0.336,0.01 0.3,0.01C0.264,0.01 0.231,0.005 0.202,-0.006C0.172,-0.016 0.147,-0.031 0.126,-0.05C0.105,-0.069 0.089,-0.093 0.078,-0.12C0.067,-0.147 0.061,-0.178 0.061,-0.211Z" style="fill-rule:nonzero;"/>
                        </g>
                    </g>
                    <g transform="matrix(1.02805,0,0,1.02805,-402.77,328.384)">
                        <g transform="matrix(30,0,0,30,1301.11,104.857)">
                            <path d="M0.078,-0.109L0.271,-0.109L0.271,-0.539C0.271,-0.55 0.271,-0.559 0.272,-0.568C0.272,-0.577 0.272,-0.584 0.273,-0.591C0.274,-0.599 0.274,-0.606 0.275,-0.612L0.273,-0.612C0.269,-0.608 0.265,-0.604 0.261,-0.601C0.254,-0.594 0.243,-0.587 0.23,-0.578L0.089,-0.485L0.089,-0.607L0.252,-0.72L0.396,-0.72L0.396,-0.109L0.553,-0.109L0.553,-0L0.078,-0L0.078,-0.109Z" style="fill-rule:nonzero;"/>
                        </g>
                        <g transform="matrix(30,0,0,30,1319.11,104.857)">
                            <path d="M0.318,-0.439C0.353,-0.438 0.384,-0.431 0.412,-0.42C0.439,-0.409 0.463,-0.393 0.482,-0.374C0.501,-0.355 0.516,-0.332 0.527,-0.305C0.537,-0.278 0.542,-0.249 0.542,-0.216C0.542,-0.182 0.536,-0.151 0.525,-0.123C0.513,-0.095 0.497,-0.071 0.476,-0.052C0.455,-0.032 0.429,-0.017 0.399,-0.006C0.369,0.005 0.335,0.01 0.298,0.01C0.263,0.01 0.232,0.006 0.203,-0.004C0.174,-0.013 0.15,-0.026 0.129,-0.043C0.108,-0.06 0.091,-0.08 0.078,-0.104C0.065,-0.128 0.058,-0.155 0.055,-0.185L0.18,-0.185C0.184,-0.158 0.197,-0.137 0.218,-0.121C0.239,-0.104 0.266,-0.096 0.298,-0.096C0.334,-0.096 0.363,-0.107 0.385,-0.129C0.406,-0.151 0.417,-0.18 0.417,-0.216C0.417,-0.252 0.406,-0.281 0.383,-0.303C0.36,-0.324 0.33,-0.335 0.293,-0.335L0.205,-0.335L0.205,-0.454L0.321,-0.563C0.328,-0.57 0.336,-0.577 0.345,-0.583C0.354,-0.589 0.362,-0.595 0.369,-0.6C0.378,-0.606 0.386,-0.611 0.394,-0.616L0.394,-0.623C0.385,-0.621 0.376,-0.62 0.366,-0.619C0.357,-0.618 0.346,-0.616 0.335,-0.616C0.324,-0.615 0.311,-0.614 0.298,-0.614L0.084,-0.614L0.084,-0.72L0.511,-0.72L0.511,-0.6L0.365,-0.472C0.353,-0.463 0.342,-0.455 0.333,-0.448C0.328,-0.445 0.323,-0.442 0.318,-0.439Z" style="fill-rule:nonzero;"/>
                        </g>
                        <g transform="matrix(30,0,0,30,1337.11,104.857)">
                            <path d="M0.532,-0.519C0.532,-0.494 0.529,-0.47 0.523,-0.447C0.516,-0.424 0.506,-0.401 0.493,-0.378C0.479,-0.355 0.461,-0.332 0.44,-0.309C0.419,-0.286 0.393,-0.262 0.364,-0.237L0.26,-0.151C0.244,-0.14 0.23,-0.131 0.217,-0.124C0.21,-0.12 0.203,-0.117 0.196,-0.114L0.196,-0.11C0.205,-0.111 0.215,-0.111 0.226,-0.112C0.235,-0.112 0.279,-0.113 0.29,-0.113L0.541,-0.113L0.541,-0L0.058,-0L0.058,-0.132L0.288,-0.319C0.33,-0.354 0.36,-0.386 0.379,-0.417C0.397,-0.447 0.406,-0.479 0.406,-0.513C0.406,-0.546 0.396,-0.572 0.377,-0.591C0.358,-0.61 0.331,-0.62 0.298,-0.62C0.262,-0.62 0.233,-0.611 0.212,-0.592C0.191,-0.573 0.18,-0.549 0.18,-0.518L0.053,-0.518C0.054,-0.55 0.06,-0.579 0.072,-0.605C0.084,-0.631 0.101,-0.653 0.122,-0.672C0.143,-0.69 0.169,-0.704 0.2,-0.715C0.23,-0.725 0.263,-0.73 0.3,-0.73C0.335,-0.73 0.366,-0.725 0.395,-0.715C0.424,-0.705 0.448,-0.691 0.469,-0.672C0.489,-0.653 0.505,-0.631 0.516,-0.606C0.527,-0.58 0.532,-0.551 0.532,-0.519Z" style="fill-rule:nonzero;"/>
                        </g>
                        <g transform="matrix(30,0,0,30,1355.11,104.857)">
                            <path d="M0.39,-0.151L0.26,0.16L0.15,0.16L0.23,-0.151L0.39,-0.151Z" style="fill-rule:nonzero;"/>
                        </g>
                        <g transform="matrix(30,0,0,30,1373.11,104.857)">
                            <path d="M0.532,-0.519C0.532,-0.494 0.529,-0.47 0.523,-0.447C0.516,-0.424 0.506,-0.401 0.493,-0.378C0.479,-0.355 0.461,-0.332 0.44,-0.309C0.419,-0.286 0.393,-0.262 0.364,-0.237L0.26,-0.151C0.244,-0.14 0.23,-0.131 0.217,-0.124C0.21,-0.12 0.203,-0.117 0.196,-0.114L0.196,-0.11C0.205,-0.111 0.215,-0.111 0.226,-0.112C0.235,-0.112 0.279,-0.113 0.29,-0.113L0.541,-0.113L0.541,-0L0.058,-0L0.058,-0.132L0.288,-0.319C0.33,-0.354 0.36,-0.386 0.379,-0.417C0.397,-0.447 0.406,-0.479 0.406,-0.513C0.406,-0.546 0.396,-0.572 0.377,-0.591C0.358,-0.61 0.331,-0.62 0.298,-0.62C0.262,-0.62 0.233,-0.611 0.212,-0.592C0.191,-0.573 0.18,-0.549 0.18,-0.518L0.053,-0.518C0.054,-0.55 0.06,-0.579 0.072,-0.605C0.084,-0.631 0.101,-0.653 0.122,-0.672C0.143,-0.69 0.169,-0.704 0.2,-0.715C0.23,-0.725 0.263,-0.73 0.3,-0.73C0.335,-0.73 0.366,-0.725 0.395,-0.715C0.424,-0.705 0.448,-0.691 0.469,-0.672C0.489,-0.653 0.505,-0.631 0.516,-0.606C0.527,-0.58 0.532,-0.551 0.532,-0.519Z" style="fill-rule:nonzero;"/>
                        </g>
                        <g transform="matrix(30,0,0,30,1391.11,104.857)">
                            <path d="M0.318,-0.439C0.353,-0.438 0.384,-0.431 0.412,-0.42C0.439,-0.409 0.463,-0.393 0.482,-0.374C0.501,-0.355 0.516,-0.332 0.527,-0.305C0.537,-0.278 0.542,-0.249 0.542,-0.216C0.542,-0.182 0.536,-0.151 0.525,-0.123C0.513,-0.095 0.497,-0.071 0.476,-0.052C0.455,-0.032 0.429,-0.017 0.399,-0.006C0.369,0.005 0.335,0.01 0.298,0.01C0.263,0.01 0.232,0.006 0.203,-0.004C0.174,-0.013 0.15,-0.026 0.129,-0.043C0.108,-0.06 0.091,-0.08 0.078,-0.104C0.065,-0.128 0.058,-0.155 0.055,-0.185L0.18,-0.185C0.184,-0.158 0.197,-0.137 0.218,-0.121C0.239,-0.104 0.266,-0.096 0.298,-0.096C0.334,-0.096 0.363,-0.107 0.385,-0.129C0.406,-0.151 0.417,-0.18 0.417,-0.216C0.417,-0.252 0.406,-0.281 0.383,-0.303C0.36,-0.324 0.33,-0.335 0.293,-0.335L0.205,-0.335L0.205,-0.454L0.321,-0.563C0.328,-0.57 0.336,-0.577 0.345,-0.583C0.354,-0.589 0.362,-0.595 0.369,-0.6C0.378,-0.606 0.386,-0.611 0.394,-0.616L0.394,-0.623C0.385,-0.621 0.376,-0.62 0.366,-0.619C0.357,-0.618 0.346,-0.616 0.335,-0.616C0.324,-0.615 0.311,-0.614 0.298,-0.614L0.084,-0.614L0.084,-0.72L0.511,-0.72L0.511,-0.6L0.365,-0.472C0.353,-0.463 0.342,-0.455 0.333,-0.448C0.328,-0.445 0.323,-0.442 0.318,-0.439Z" style="fill-rule:nonzero;"/>
                        </g>
                        <g transform="matrix(30,0,0,30,1409.11,104.857)">
                            <path d="M0.3,0.01C0.263,0.01 0.229,0.004 0.199,-0.007C0.168,-0.018 0.142,-0.034 0.121,-0.055C0.099,-0.076 0.082,-0.1 0.071,-0.13C0.059,-0.159 0.053,-0.191 0.053,-0.227C0.053,-0.271 0.062,-0.316 0.081,-0.361C0.1,-0.406 0.127,-0.457 0.163,-0.513L0.295,-0.72L0.438,-0.72L0.279,-0.479C0.262,-0.454 0.249,-0.435 0.24,-0.421C0.23,-0.406 0.222,-0.395 0.217,-0.388C0.211,-0.379 0.207,-0.374 0.205,-0.371L0.215,-0.371C0.223,-0.384 0.233,-0.396 0.245,-0.407C0.256,-0.416 0.269,-0.424 0.286,-0.431C0.302,-0.438 0.322,-0.442 0.345,-0.442C0.375,-0.442 0.403,-0.437 0.428,-0.426C0.452,-0.415 0.474,-0.4 0.492,-0.381C0.509,-0.362 0.523,-0.338 0.533,-0.312C0.543,-0.285 0.548,-0.254 0.548,-0.221C0.548,-0.186 0.542,-0.155 0.53,-0.127C0.518,-0.098 0.501,-0.074 0.48,-0.054C0.458,-0.033 0.432,-0.017 0.402,-0.007C0.371,0.005 0.337,0.01 0.3,0.01ZM0.178,-0.221C0.178,-0.183 0.189,-0.153 0.212,-0.13C0.234,-0.107 0.263,-0.096 0.3,-0.096C0.337,-0.096 0.366,-0.107 0.389,-0.13C0.412,-0.153 0.423,-0.183 0.423,-0.221C0.423,-0.259 0.412,-0.289 0.389,-0.312C0.366,-0.334 0.337,-0.345 0.3,-0.345C0.264,-0.345 0.235,-0.334 0.212,-0.311C0.189,-0.288 0.178,-0.258 0.178,-0.221Z" style="fill-rule:nonzero;"/>
                        </g>
                    </g>
                    <g transform="matrix(1.02805,0,0,1.02805,-402.77,528.618)">
                        <g transform="matrix(30,0,0,30,1301.11,104.857)">
                            <path d="M0.078,-0.109L0.271,-0.109L0.271,-0.539C0.271,-0.55 0.271,-0.559 0.272,-0.568C0.272,-0.577 0.272,-0.584 0.273,-0.591C0.274,-0.599 0.274,-0.606 0.275,-0.612L0.273,-0.612C0.269,-0.608 0.265,-0.604 0.261,-0.601C0.254,-0.594 0.243,-0.587 0.23,-0.578L0.089,-0.485L0.089,-0.607L0.252,-0.72L0.396,-0.72L0.396,-0.109L0.553,-0.109L0.553,-0L0.078,-0L0.078,-0.109Z" style="fill-rule:nonzero;"/>
                        </g>
                        <g transform="matrix(30,0,0,30,1319.11,104.857)">
                            <path d="M0.078,-0.109L0.271,-0.109L0.271,-0.539C0.271,-0.55 0.271,-0.559 0.272,-0.568C0.272,-0.577 0.272,-0.584 0.273,-0.591C0.274,-0.599 0.274,-0.606 0.275,-0.612L0.273,-0.612C0.269,-0.608 0.265,-0.604 0.261,-0.601C0.254,-0.594 0.243,-0.587 0.23,-0.578L0.089,-0.485L0.089,-0.607L0.252,-0.72L0.396,-0.72L0.396,-0.109L0.553,-0.109L0.553,-0L0.078,-0L0.078,-0.109Z" style="fill-rule:nonzero;"/>
                        </g>
                        <g transform="matrix(30,0,0,30,1337.11,104.857)">
                            <path d="M0.18,-0.604L0.18,-0.497L0.063,-0.497L0.063,-0.72L0.54,-0.72L0.54,-0.59L0.285,-0L0.148,-0L0.387,-0.538C0.392,-0.548 0.396,-0.557 0.4,-0.565C0.404,-0.573 0.408,-0.58 0.411,-0.585C0.415,-0.591 0.419,-0.597 0.423,-0.602L0.423,-0.606C0.413,-0.605 0.403,-0.605 0.394,-0.605C0.386,-0.605 0.352,-0.604 0.345,-0.604L0.18,-0.604Z" style="fill-rule:nonzero;"/>
                        </g>
                        <g transform="matrix(30,0,0,30,1355.11,104.857)">
                            <path d="M0.39,-0.151L0.26,0.16L0.15,0.16L0.23,-0.151L0.39,-0.151Z" style="fill-rule:nonzero;"/>
                        </g>
                        <g transform="matrix(30,0,0,30,1373.11,104.857)">
                            <path d="M0.349,-0.72L0.489,-0.72L0.184,-0.29L0.184,-0.252L0.393,-0.252L0.393,-0.41L0.518,-0.41L0.518,-0L0.393,-0L0.393,-0.143L0.065,-0.143L0.065,-0.319L0.349,-0.72Z" style="fill-rule:nonzero;"/>
                        </g>
                        <g transform="matrix(30,0,0,30,1391.11,104.857)">
                            <path d="M0.078,-0.109L0.271,-0.109L0.271,-0.539C0.271,-0.55 0.271,-0.559 0.272,-0.568C0.272,-0.577 0.272,-0.584 0.273,-0.591C0.274,-0.599 0.274,-0.606 0.275,-0.612L0.273,-0.612C0.269,-0.608 0.265,-0.604 0.261,-0.601C0.254,-0.594 0.243,-0.587 0.23,-0.578L0.089,-0.485L0.089,-0.607L0.252,-0.72L0.396,-0.72L0.396,-0.109L0.553,-0.109L0.553,-0L0.078,-0L0.078,-0.109Z" style="fill-rule:nonzero;"/>
                        </g>
                        <g transform="matrix(30,0,0,30,1409.11,104.857)">
                            <path d="M0.18,-0.604L0.18,-0.497L0.063,-0.497L0.063,-0.72L0.54,-0.72L0.54,-0.59L0.285,-0L0.148,-0L0.387,-0.538C0.392,-0.548 0.396,-0.557 0.4,-0.565C0.404,-0.573 0.408,-0.58 0.411,-0.585C0.415,-0.591 0.419,-0.597 0.423,-0.602L0.423,-0.606C0.413,-0.605 0.403,-0.605 0.394,-0.605C0.386,-0.605 0.352,-0.604 0.345,-0.604L0.18,-0.604Z" style="fill-rule:nonzero;"/>
                        </g>
                    </g>
                    <g transform="matrix(1.02805,0,0,1.02805,-402.77,727.532)">
                        <g transform="matrix(30,0,0,30,1301.11,104.857)">
                            <path d="M0.078,-0.109L0.271,-0.109L0.271,-0.539C0.271,-0.55 0.271,-0.559 0.272,-0.568C0.272,-0.577 0.272,-0.584 0.273,-0.591C0.274,-0.599 0.274,-0.606 0.275,-0.612L0.273,-0.612C0.269,-0.608 0.265,-0.604 0.261,-0.601C0.254,-0.594 0.243,-0.587 0.23,-0.578L0.089,-0.485L0.089,-0.607L0.252,-0.72L0.396,-0.72L0.396,-0.109L0.553,-0.109L0.553,-0L0.078,-0L0.078,-0.109Z" style="fill-rule:nonzero;"/>
                        </g>
                        <g transform="matrix(30,0,0,30,1319.11,104.857)">
                            <path d="M0.253,-0.405C0.253,-0.42 0.257,-0.433 0.266,-0.443C0.275,-0.452 0.286,-0.457 0.3,-0.457C0.314,-0.457 0.325,-0.452 0.334,-0.443C0.343,-0.433 0.347,-0.42 0.347,-0.405L0.347,-0.305C0.347,-0.29 0.343,-0.277 0.334,-0.268C0.325,-0.258 0.314,-0.253 0.3,-0.253C0.286,-0.253 0.275,-0.258 0.266,-0.268C0.257,-0.277 0.253,-0.29 0.253,-0.305L0.253,-0.405ZM0.184,-0.211C0.184,-0.177 0.195,-0.15 0.216,-0.13C0.237,-0.11 0.265,-0.1 0.3,-0.1C0.335,-0.1 0.364,-0.11 0.385,-0.13C0.406,-0.15 0.417,-0.177 0.417,-0.211L0.417,-0.51C0.417,-0.544 0.406,-0.571 0.385,-0.591C0.364,-0.611 0.335,-0.621 0.3,-0.621C0.265,-0.621 0.237,-0.611 0.216,-0.591C0.195,-0.571 0.184,-0.544 0.184,-0.51L0.184,-0.211ZM0.061,-0.211L0.061,-0.51C0.061,-0.543 0.067,-0.574 0.078,-0.601C0.089,-0.628 0.105,-0.651 0.126,-0.67C0.147,-0.689 0.172,-0.704 0.202,-0.715C0.231,-0.725 0.264,-0.73 0.3,-0.73C0.336,-0.73 0.369,-0.725 0.399,-0.715C0.428,-0.704 0.453,-0.689 0.474,-0.67C0.495,-0.651 0.511,-0.628 0.522,-0.601C0.533,-0.574 0.539,-0.543 0.539,-0.51L0.539,-0.211C0.539,-0.178 0.533,-0.148 0.522,-0.121C0.511,-0.094 0.495,-0.07 0.474,-0.051C0.452,-0.032 0.427,-0.017 0.398,-0.006C0.369,0.005 0.336,0.01 0.3,0.01C0.264,0.01 0.231,0.005 0.202,-0.006C0.172,-0.016 0.147,-0.031 0.126,-0.05C0.105,-0.069 0.089,-0.093 0.078,-0.12C0.067,-0.147 0.061,-0.178 0.061,-0.211Z" style="fill-rule:nonzero;"/>
                        </g>
                        <g transform="matrix(30,0,0,30,1337.11,104.857)">
                            <path d="M0.3,0.01C0.263,0.01 0.229,0.004 0.199,-0.007C0.168,-0.018 0.142,-0.034 0.121,-0.055C0.099,-0.076 0.082,-0.1 0.071,-0.13C0.059,-0.159 0.053,-0.191 0.053,-0.227C0.053,-0.271 0.062,-0.316 0.081,-0.361C0.1,-0.406 0.127,-0.457 0.163,-0.513L0.295,-0.72L0.438,-0.72L0.279,-0.479C0.262,-0.454 0.249,-0.435 0.24,-0.421C0.23,-0.406 0.222,-0.395 0.217,-0.388C0.211,-0.379 0.207,-0.374 0.205,-0.371L0.215,-0.371C0.223,-0.384 0.233,-0.396 0.245,-0.407C0.256,-0.416 0.269,-0.424 0.286,-0.431C0.302,-0.438 0.322,-0.442 0.345,-0.442C0.375,-0.442 0.403,-0.437 0.428,-0.426C0.452,-0.415 0.474,-0.4 0.492,-0.381C0.509,-0.362 0.523,-0.338 0.533,-0.312C0.543,-0.285 0.548,-0.254 0.548,-0.221C0.548,-0.186 0.542,-0.155 0.53,-0.127C0.518,-0.098 0.501,-0.074 0.48,-0.054C0.458,-0.033 0.432,-0.017 0.402,-0.007C0.371,0.005 0.337,0.01 0.3,0.01ZM0.178,-0.221C0.178,-0.183 0.189,-0.153 0.212,-0.13C0.234,-0.107 0.263,-0.096 0.3,-0.096C0.337,-0.096 0.366,-0.107 0.389,-0.13C0.412,-0.153 0.423,-0.183 0.423,-0.221C0.423,-0.259 0.412,-0.289 0.389,-0.312C0.366,-0.334 0.337,-0.345 0.3,-0.345C0.264,-0.345 0.235,-0.334 0.212,-0.311C0.189,-0.288 0.178,-0.258 0.178,-0.221Z" style="fill-rule:nonzero;"/>
                        </g>
                        <g transform="matrix(30,0,0,30,1355.11,104.857)">
                            <path d="M0.39,-0.151L0.26,0.16L0.15,0.16L0.23,-0.151L0.39,-0.151Z" style="fill-rule:nonzero;"/>
                        </g>
                        <g transform="matrix(30,0,0,30,1373.11,104.857)">
                            <path d="M0.3,-0.73C0.337,-0.73 0.371,-0.724 0.402,-0.713C0.433,-0.702 0.459,-0.686 0.481,-0.666C0.502,-0.645 0.519,-0.62 0.531,-0.591C0.542,-0.562 0.548,-0.529 0.548,-0.493C0.548,-0.449 0.539,-0.404 0.52,-0.359C0.501,-0.314 0.473,-0.263 0.437,-0.207L0.305,-0L0.162,-0L0.322,-0.241C0.339,-0.266 0.352,-0.285 0.361,-0.3C0.37,-0.314 0.378,-0.325 0.383,-0.332C0.389,-0.341 0.393,-0.346 0.395,-0.349L0.385,-0.349C0.377,-0.336 0.367,-0.324 0.355,-0.314C0.344,-0.305 0.331,-0.296 0.315,-0.289C0.298,-0.282 0.278,-0.278 0.255,-0.278C0.225,-0.278 0.198,-0.283 0.173,-0.294C0.148,-0.305 0.127,-0.32 0.109,-0.339C0.091,-0.358 0.077,-0.382 0.068,-0.409C0.058,-0.436 0.053,-0.466 0.053,-0.499C0.053,-0.534 0.059,-0.565 0.071,-0.594C0.083,-0.622 0.1,-0.646 0.122,-0.667C0.143,-0.687 0.169,-0.703 0.2,-0.714C0.23,-0.724 0.263,-0.73 0.3,-0.73ZM0.178,-0.499C0.178,-0.461 0.189,-0.431 0.212,-0.409C0.234,-0.386 0.263,-0.375 0.3,-0.375C0.336,-0.375 0.366,-0.386 0.389,-0.409C0.411,-0.432 0.423,-0.462 0.423,-0.499C0.423,-0.537 0.412,-0.567 0.389,-0.59C0.366,-0.613 0.337,-0.624 0.3,-0.624C0.263,-0.624 0.234,-0.613 0.212,-0.59C0.189,-0.567 0.178,-0.537 0.178,-0.499Z" style="fill-rule:nonzero;"/>
                        </g>
                        <g transform="matrix(30,0,0,30,1391.11,104.857)">
                            <path d="M0.346,-0.462C0.376,-0.462 0.403,-0.457 0.428,-0.447C0.453,-0.437 0.474,-0.423 0.492,-0.405C0.509,-0.386 0.523,-0.364 0.532,-0.338C0.541,-0.312 0.546,-0.283 0.546,-0.25L0.546,-0.209C0.546,-0.176 0.54,-0.146 0.529,-0.119C0.517,-0.092 0.501,-0.069 0.48,-0.05C0.459,-0.031 0.433,-0.016 0.403,-0.006C0.373,0.005 0.339,0.01 0.302,0.01C0.269,0.01 0.238,0.006 0.211,-0.003C0.183,-0.011 0.159,-0.023 0.138,-0.038C0.117,-0.053 0.099,-0.071 0.086,-0.093C0.073,-0.114 0.064,-0.138 0.06,-0.165L0.188,-0.165C0.194,-0.144 0.207,-0.128 0.228,-0.115C0.248,-0.102 0.273,-0.096 0.302,-0.096C0.338,-0.096 0.367,-0.106 0.388,-0.127C0.409,-0.148 0.419,-0.175 0.419,-0.209L0.419,-0.25C0.419,-0.284 0.409,-0.311 0.388,-0.332C0.367,-0.353 0.338,-0.363 0.302,-0.363C0.256,-0.363 0.223,-0.349 0.203,-0.322L0.08,-0.322L0.085,-0.72L0.516,-0.72L0.516,-0.61L0.204,-0.61L0.2,-0.387L0.205,-0.387C0.211,-0.401 0.22,-0.414 0.232,-0.425C0.243,-0.434 0.257,-0.443 0.276,-0.451C0.294,-0.458 0.317,-0.462 0.346,-0.462Z" style="fill-rule:nonzero;"/>
                        </g>
                        <g transform="matrix(30,0,0,30,1409.11,104.857)">
                            <path d="M0.078,-0.109L0.271,-0.109L0.271,-0.539C0.271,-0.55 0.271,-0.559 0.272,-0.568C0.272,-0.577 0.272,-0.584 0.273,-0.591C0.274,-0.599 0.274,-0.606 0.275,-0.612L0.273,-0.612C0.269,-0.608 0.265,-0.604 0.261,-0.601C0.254,-0.594 0.243,-0.587 0.23,-0.578L0.089,-0.485L0.089,-0.607L0.252,-0.72L0.396,-0.72L0.396,-0.109L0.553,-0.109L0.553,-0L0.078,-0L0.078,-0.109Z" style="fill-rule:nonzero;"/>
                        </g>
                    </g>
                </g>
            </g>
        </g>
        <g transform="matrix(1.90694,0,0,1.90694,-1052.69,-296.01)">
            <g transform="matrix(10.488,0,0,10.488,577.032,217.158)">
                <path d="M0.284,-0.37L0.52,-0.37L0.52,-0.205C0.52,-0.172 0.515,-0.143 0.505,-0.116C0.494,-0.089 0.48,-0.067 0.461,-0.048C0.442,-0.029 0.419,-0.015 0.392,-0.005C0.365,0.005 0.334,0.01 0.3,0.01C0.267,0.01 0.236,0.005 0.209,-0.005C0.182,-0.015 0.159,-0.029 0.14,-0.048C0.121,-0.067 0.106,-0.089 0.096,-0.116C0.085,-0.143 0.08,-0.172 0.08,-0.205L0.08,-0.515C0.08,-0.547 0.085,-0.576 0.096,-0.603C0.107,-0.63 0.122,-0.652 0.141,-0.671C0.16,-0.69 0.183,-0.704 0.21,-0.715C0.237,-0.725 0.267,-0.73 0.3,-0.73C0.361,-0.73 0.41,-0.715 0.449,-0.684C0.488,-0.653 0.513,-0.609 0.525,-0.55L0.433,-0.55C0.426,-0.581 0.411,-0.606 0.388,-0.624C0.365,-0.641 0.335,-0.65 0.3,-0.65C0.26,-0.65 0.228,-0.638 0.205,-0.614C0.182,-0.59 0.17,-0.557 0.17,-0.515L0.17,-0.205C0.17,-0.163 0.182,-0.13 0.205,-0.106C0.228,-0.082 0.26,-0.07 0.3,-0.07C0.34,-0.07 0.372,-0.082 0.395,-0.106C0.418,-0.13 0.43,-0.163 0.43,-0.205L0.43,-0.29L0.284,-0.29L0.284,-0.37Z" style="fill-rule:nonzero;"/>
            </g>
            <g transform="matrix(10.488,0,0,10.488,583.325,217.158)">
                <path d="M0.32,-0.72C0.353,-0.72 0.382,-0.715 0.409,-0.705C0.436,-0.695 0.459,-0.681 0.478,-0.662C0.497,-0.643 0.511,-0.621 0.522,-0.596C0.532,-0.57 0.537,-0.541 0.537,-0.51C0.537,-0.46 0.524,-0.418 0.499,-0.383C0.473,-0.347 0.438,-0.323 0.394,-0.31L0.547,-0L0.441,-0L0.301,-0.3L0.18,-0.3L0.18,-0L0.09,-0L0.09,-0.72L0.32,-0.72ZM0.18,-0.38L0.32,-0.38C0.358,-0.38 0.388,-0.392 0.411,-0.416C0.433,-0.439 0.444,-0.471 0.444,-0.51C0.444,-0.549 0.433,-0.581 0.41,-0.605C0.387,-0.628 0.357,-0.64 0.32,-0.64L0.18,-0.64L0.18,-0.38Z" style="fill-rule:nonzero;"/>
            </g>
            <g transform="matrix(10.488,0,0,10.488,589.617,217.158)">
                <path d="M0.095,-0L0.095,-0.72L0.52,-0.72L0.52,-0.638L0.185,-0.638L0.185,-0.412L0.485,-0.412L0.485,-0.33L0.185,-0.33L0.185,-0.082L0.52,-0.082L0.52,-0L0.095,-0Z" style="fill-rule:nonzero;"/>
            </g>
            <g transform="matrix(10.488,0,0,10.488,595.91,217.158)">
                <path d="M0.085,-0.72L0.199,-0.72L0.39,-0.237C0.395,-0.225 0.4,-0.211 0.405,-0.196C0.41,-0.18 0.414,-0.165 0.417,-0.151C0.422,-0.134 0.426,-0.117 0.43,-0.1L0.438,-0.1C0.438,-0.1 0.438,-0.103 0.437,-0.111C0.436,-0.117 0.435,-0.127 0.434,-0.139C0.433,-0.151 0.432,-0.165 0.431,-0.181C0.43,-0.196 0.429,-0.213 0.429,-0.23L0.429,-0.72L0.515,-0.72L0.515,-0L0.401,-0L0.213,-0.484C0.208,-0.499 0.202,-0.515 0.197,-0.531C0.192,-0.547 0.187,-0.562 0.184,-0.575C0.179,-0.59 0.175,-0.606 0.172,-0.621L0.164,-0.621C0.165,-0.61 0.167,-0.598 0.168,-0.585C0.169,-0.574 0.169,-0.56 0.17,-0.545C0.171,-0.529 0.171,-0.511 0.171,-0.492L0.171,-0L0.085,-0L0.085,-0.72Z" style="fill-rule:nonzero;"/>
            </g>
            <g transform="matrix(10.488,0,0,10.488,602.203,217.158)">
                <path d="M0.17,-0.205C0.17,-0.164 0.182,-0.131 0.205,-0.107C0.228,-0.082 0.26,-0.07 0.3,-0.07C0.34,-0.07 0.372,-0.082 0.395,-0.107C0.418,-0.131 0.43,-0.164 0.43,-0.205L0.43,-0.515C0.43,-0.556 0.418,-0.589 0.395,-0.614C0.372,-0.638 0.34,-0.65 0.3,-0.65C0.26,-0.65 0.228,-0.638 0.205,-0.614C0.182,-0.589 0.17,-0.556 0.17,-0.515L0.17,-0.205ZM0.08,-0.515C0.08,-0.548 0.085,-0.577 0.096,-0.604C0.106,-0.631 0.121,-0.653 0.14,-0.672C0.159,-0.691 0.182,-0.705 0.209,-0.715C0.236,-0.725 0.266,-0.73 0.3,-0.73C0.334,-0.73 0.365,-0.725 0.392,-0.715C0.419,-0.705 0.442,-0.691 0.461,-0.672C0.48,-0.653 0.494,-0.631 0.505,-0.604C0.515,-0.577 0.52,-0.548 0.52,-0.515L0.52,-0.205C0.52,-0.172 0.515,-0.143 0.505,-0.117C0.494,-0.09 0.48,-0.068 0.461,-0.049C0.442,-0.03 0.418,-0.016 0.391,-0.006C0.364,0.005 0.333,0.01 0.3,0.01C0.266,0.01 0.236,0.005 0.209,-0.005C0.182,-0.015 0.159,-0.029 0.14,-0.048C0.121,-0.067 0.106,-0.089 0.096,-0.116C0.085,-0.143 0.08,-0.172 0.08,-0.205L0.08,-0.515Z" style="fill-rule:nonzero;"/>
            </g>
            <g transform="matrix(10.488,0,0,10.488,608.496,217.158)">
                <path d="M0.301,-0.72C0.369,-0.72 0.422,-0.703 0.461,-0.669C0.5,-0.635 0.519,-0.589 0.519,-0.53C0.519,-0.487 0.507,-0.452 0.483,-0.426C0.458,-0.399 0.426,-0.383 0.386,-0.38L0.386,-0.374C0.432,-0.371 0.468,-0.355 0.494,-0.325C0.519,-0.295 0.532,-0.254 0.532,-0.203C0.532,-0.172 0.527,-0.143 0.517,-0.119C0.507,-0.094 0.493,-0.072 0.474,-0.055C0.455,-0.037 0.431,-0.023 0.404,-0.014C0.377,-0.005 0.346,-0 0.312,-0L0.09,-0L0.09,-0.72L0.301,-0.72ZM0.179,-0.082L0.302,-0.082C0.345,-0.082 0.378,-0.093 0.402,-0.115C0.425,-0.137 0.437,-0.167 0.437,-0.206C0.437,-0.245 0.425,-0.275 0.401,-0.297C0.377,-0.319 0.344,-0.33 0.302,-0.33L0.179,-0.33L0.179,-0.082ZM0.179,-0.638L0.179,-0.408L0.3,-0.408C0.338,-0.408 0.368,-0.418 0.391,-0.439C0.413,-0.459 0.424,-0.487 0.424,-0.523C0.424,-0.559 0.413,-0.587 0.391,-0.608C0.369,-0.628 0.339,-0.638 0.301,-0.638L0.179,-0.638Z" style="fill-rule:nonzero;"/>
            </g>
            <g transform="matrix(10.488,0,0,10.488,614.789,217.158)">
                <path d="M0.195,-0.72L0.195,-0.082L0.535,-0.082L0.535,-0L0.105,-0L0.105,-0.72L0.195,-0.72Z" style="fill-rule:nonzero;"/>
            </g>
            <g transform="matrix(10.488,0,0,10.488,621.081,217.158)">
                <path d="M0.095,-0L0.095,-0.72L0.52,-0.72L0.52,-0.638L0.185,-0.638L0.185,-0.412L0.485,-0.412L0.485,-0.33L0.185,-0.33L0.185,-0.082L0.52,-0.082L0.52,-0L0.095,-0Z" style="fill-rule:nonzero;"/>
            </g>
            <g transform="matrix(10.488,0,0,10.488,627.374,217.158)">
                <path d="M0.375,-0.151L0.245,0.16L0.165,0.16L0.245,-0.151L0.375,-0.151Z" style="fill-rule:nonzero;"/>
            </g>
            <g transform="matrix(10.488,0,0,10.488,639.96,217.158)">
                <path d="M0.095,-0.721L0.525,-0.721L0.525,-0.641L0.183,-0.641L0.183,-0.408L0.499,-0.408L0.499,-0.328L0.185,-0.328L0.185,-0L0.095,-0L0.095,-0.721Z" style="fill-rule:nonzero;"/>
            </g>
            <g transform="matrix(10.488,0,0,10.488,646.253,217.158)">
                <path d="M0.32,-0.72C0.353,-0.72 0.382,-0.715 0.409,-0.705C0.436,-0.695 0.459,-0.681 0.478,-0.662C0.497,-0.643 0.511,-0.621 0.522,-0.596C0.532,-0.57 0.537,-0.541 0.537,-0.51C0.537,-0.46 0.524,-0.418 0.499,-0.383C0.473,-0.347 0.438,-0.323 0.394,-0.31L0.547,-0L0.441,-0L0.301,-0.3L0.18,-0.3L0.18,-0L0.09,-0L0.09,-0.72L0.32,-0.72ZM0.18,-0.38L0.32,-0.38C0.358,-0.38 0.388,-0.392 0.411,-0.416C0.433,-0.439 0.444,-0.471 0.444,-0.51C0.444,-0.549 0.433,-0.581 0.41,-0.605C0.387,-0.628 0.357,-0.64 0.32,-0.64L0.18,-0.64L0.18,-0.38Z" style="fill-rule:nonzero;"/>
            </g>
            <g transform="matrix(10.488,0,0,10.488,652.545,217.158)">
                <path d="M0.044,-0L0.24,-0.72L0.366,-0.72L0.556,-0L0.46,-0L0.41,-0.203L0.189,-0.203L0.138,-0L0.044,-0ZM0.208,-0.278L0.392,-0.278L0.322,-0.563C0.319,-0.577 0.316,-0.59 0.313,-0.602C0.31,-0.613 0.308,-0.624 0.307,-0.633C0.306,-0.643 0.304,-0.652 0.303,-0.66L0.299,-0.66C0.298,-0.652 0.296,-0.643 0.294,-0.633C0.293,-0.624 0.291,-0.613 0.288,-0.602C0.285,-0.59 0.282,-0.577 0.279,-0.563L0.208,-0.278Z" style="fill-rule:nonzero;"/>
            </g>
            <g transform="matrix(10.488,0,0,10.488,658.838,217.158)">
                <path d="M0.085,-0.72L0.199,-0.72L0.39,-0.237C0.395,-0.225 0.4,-0.211 0.405,-0.196C0.41,-0.18 0.414,-0.165 0.417,-0.151C0.422,-0.134 0.426,-0.117 0.43,-0.1L0.438,-0.1C0.438,-0.1 0.438,-0.103 0.437,-0.111C0.436,-0.117 0.435,-0.127 0.434,-0.139C0.433,-0.151 0.432,-0.165 0.431,-0.181C0.43,-0.196 0.429,-0.213 0.429,-0.23L0.429,-0.72L0.515,-0.72L0.515,-0L0.401,-0L0.213,-0.484C0.208,-0.499 0.202,-0.515 0.197,-0.531C0.192,-0.547 0.187,-0.562 0.184,-0.575C0.179,-0.59 0.175,-0.606 0.172,-0.621L0.164,-0.621C0.165,-0.61 0.167,-0.598 0.168,-0.585C0.169,-0.574 0.169,-0.56 0.17,-0.545C0.171,-0.529 0.171,-0.511 0.171,-0.492L0.171,-0L0.085,-0L0.085,-0.72Z" style="fill-rule:nonzero;"/>
            </g>
            <g transform="matrix(10.488,0,0,10.488,665.131,217.158)">
                <path d="M0.306,-0.73C0.369,-0.73 0.419,-0.713 0.458,-0.679C0.496,-0.644 0.519,-0.596 0.526,-0.535L0.436,-0.535C0.432,-0.571 0.419,-0.599 0.396,-0.62C0.373,-0.64 0.343,-0.65 0.306,-0.65C0.266,-0.65 0.234,-0.638 0.211,-0.614C0.188,-0.59 0.176,-0.557 0.176,-0.515L0.176,-0.205C0.176,-0.163 0.188,-0.13 0.211,-0.106C0.234,-0.082 0.265,-0.07 0.306,-0.07C0.343,-0.07 0.373,-0.08 0.396,-0.101C0.419,-0.121 0.432,-0.149 0.436,-0.185L0.526,-0.185C0.519,-0.124 0.496,-0.076 0.458,-0.042C0.419,-0.007 0.369,0.01 0.306,0.01C0.272,0.01 0.242,0.005 0.215,-0.005C0.188,-0.015 0.165,-0.029 0.146,-0.048C0.127,-0.067 0.112,-0.089 0.102,-0.116C0.091,-0.143 0.086,-0.172 0.086,-0.205L0.086,-0.515C0.086,-0.548 0.091,-0.577 0.102,-0.604C0.112,-0.631 0.127,-0.653 0.146,-0.672C0.165,-0.691 0.188,-0.705 0.215,-0.715C0.242,-0.725 0.272,-0.73 0.306,-0.73Z" style="fill-rule:nonzero;"/>
            </g>
            <g transform="matrix(10.488,0,0,10.488,671.424,217.158)">
                <path d="M0.095,-0L0.095,-0.72L0.52,-0.72L0.52,-0.638L0.185,-0.638L0.185,-0.412L0.485,-0.412L0.485,-0.33L0.185,-0.33L0.185,-0.082L0.52,-0.082L0.52,-0L0.095,-0Z" style="fill-rule:nonzero;"/>
            </g>
            <g transform="matrix(10.488,0,0,10.488,577.032,316.794)">
                <path d="M0.254,-0.079L0.254,-0.641L0.095,-0.641L0.095,-0.72L0.505,-0.72L0.505,-0.641L0.346,-0.641L0.346,-0.079L0.505,-0.079L0.505,-0L0.095,-0L0.095,-0.079L0.254,-0.079Z" style="fill-rule:nonzero;"/>
            </g>
            <g transform="matrix(10.488,0,0,10.488,583.325,316.794)">
                <path d="M0.085,-0.72L0.199,-0.72L0.39,-0.237C0.395,-0.225 0.4,-0.211 0.405,-0.196C0.41,-0.18 0.414,-0.165 0.417,-0.151C0.422,-0.134 0.426,-0.117 0.43,-0.1L0.438,-0.1C0.438,-0.1 0.438,-0.103 0.437,-0.111C0.436,-0.117 0.435,-0.127 0.434,-0.139C0.433,-0.151 0.432,-0.165 0.431,-0.181C0.43,-0.196 0.429,-0.213 0.429,-0.23L0.429,-0.72L0.515,-0.72L0.515,-0L0.401,-0L0.213,-0.484C0.208,-0.499 0.202,-0.515 0.197,-0.531C0.192,-0.547 0.187,-0.562 0.184,-0.575C0.179,-0.59 0.175,-0.606 0.172,-0.621L0.164,-0.621C0.165,-0.61 0.167,-0.598 0.168,-0.585C0.169,-0.574 0.169,-0.56 0.17,-0.545C0.171,-0.529 0.171,-0.511 0.171,-0.492L0.171,-0L0.085,-0L0.085,-0.72Z" style="fill-rule:nonzero;"/>
            </g>
            <g transform="matrix(10.488,0,0,10.488,589.617,316.794)">
                <path d="M0.085,-0.72L0.199,-0.72L0.39,-0.237C0.395,-0.225 0.4,-0.211 0.405,-0.196C0.41,-0.18 0.414,-0.165 0.417,-0.151C0.422,-0.134 0.426,-0.117 0.43,-0.1L0.438,-0.1C0.438,-0.1 0.438,-0.103 0.437,-0.111C0.436,-0.117 0.435,-0.127 0.434,-0.139C0.433,-0.151 0.432,-0.165 0.431,-0.181C0.43,-0.196 0.429,-0.213 0.429,-0.23L0.429,-0.72L0.515,-0.72L0.515,-0L0.401,-0L0.213,-0.484C0.208,-0.499 0.202,-0.515 0.197,-0.531C0.192,-0.547 0.187,-0.562 0.184,-0.575C0.179,-0.59 0.175,-0.606 0.172,-0.621L0.164,-0.621C0.165,-0.61 0.167,-0.598 0.168,-0.585C0.169,-0.574 0.169,-0.56 0.17,-0.545C0.171,-0.529 0.171,-0.511 0.171,-0.492L0.171,-0L0.085,-0L0.085,-0.72Z" style="fill-rule:nonzero;"/>
            </g>
            <g transform="matrix(10.488,0,0,10.488,595.91,316.794)">
                <path d="M0.3,0.01C0.267,0.01 0.237,0.006 0.209,-0.004C0.181,-0.013 0.157,-0.026 0.137,-0.043C0.116,-0.06 0.1,-0.08 0.089,-0.104C0.077,-0.128 0.071,-0.155 0.07,-0.185L0.165,-0.185C0.165,-0.168 0.169,-0.152 0.176,-0.138C0.183,-0.124 0.192,-0.112 0.205,-0.102C0.218,-0.092 0.232,-0.084 0.249,-0.079C0.266,-0.073 0.283,-0.07 0.302,-0.07C0.344,-0.07 0.377,-0.08 0.402,-0.1C0.427,-0.119 0.439,-0.146 0.439,-0.18C0.439,-0.209 0.43,-0.234 0.412,-0.257C0.394,-0.279 0.368,-0.296 0.334,-0.309L0.258,-0.337C0.147,-0.378 0.091,-0.445 0.091,-0.539C0.091,-0.599 0.11,-0.646 0.148,-0.68C0.186,-0.713 0.238,-0.73 0.305,-0.73C0.336,-0.73 0.365,-0.726 0.391,-0.717C0.417,-0.708 0.44,-0.696 0.459,-0.679C0.478,-0.662 0.493,-0.642 0.504,-0.619C0.515,-0.595 0.52,-0.568 0.521,-0.539L0.426,-0.539C0.426,-0.556 0.423,-0.571 0.416,-0.585C0.409,-0.598 0.401,-0.61 0.39,-0.62C0.379,-0.629 0.366,-0.637 0.351,-0.642C0.336,-0.647 0.321,-0.65 0.304,-0.65C0.266,-0.65 0.236,-0.641 0.215,-0.623C0.193,-0.605 0.182,-0.581 0.182,-0.55C0.182,-0.52 0.19,-0.495 0.207,-0.476C0.223,-0.456 0.249,-0.439 0.286,-0.426L0.366,-0.397C0.419,-0.378 0.46,-0.35 0.488,-0.313C0.516,-0.276 0.53,-0.233 0.53,-0.183C0.53,-0.123 0.51,-0.076 0.469,-0.042C0.428,-0.007 0.371,0.01 0.3,0.01Z" style="fill-rule:nonzero;"/>
            </g>
            <g transform="matrix(10.488,0,0,10.488,602.203,316.794)">
                <path d="M0.301,-0.72C0.369,-0.72 0.422,-0.703 0.461,-0.669C0.5,-0.635 0.519,-0.589 0.519,-0.53C0.519,-0.487 0.507,-0.452 0.483,-0.426C0.458,-0.399 0.426,-0.383 0.386,-0.38L0.386,-0.374C0.432,-0.371 0.468,-0.355 0.494,-0.325C0.519,-0.295 0.532,-0.254 0.532,-0.203C0.532,-0.172 0.527,-0.143 0.517,-0.119C0.507,-0.094 0.493,-0.072 0.474,-0.055C0.455,-0.037 0.431,-0.023 0.404,-0.014C0.377,-0.005 0.346,-0 0.312,-0L0.09,-0L0.09,-0.72L0.301,-0.72ZM0.179,-0.082L0.302,-0.082C0.345,-0.082 0.378,-0.093 0.402,-0.115C0.425,-0.137 0.437,-0.167 0.437,-0.206C0.437,-0.245 0.425,-0.275 0.401,-0.297C0.377,-0.319 0.344,-0.33 0.302,-0.33L0.179,-0.33L0.179,-0.082ZM0.179,-0.638L0.179,-0.408L0.3,-0.408C0.338,-0.408 0.368,-0.418 0.391,-0.439C0.413,-0.459 0.424,-0.487 0.424,-0.523C0.424,-0.559 0.413,-0.587 0.391,-0.608C0.369,-0.628 0.339,-0.638 0.301,-0.638L0.179,-0.638Z" style="fill-rule:nonzero;"/>
            </g>
            <g transform="matrix(10.488,0,0,10.488,608.496,316.794)">
                <path d="M0.32,-0.72C0.353,-0.72 0.382,-0.715 0.409,-0.705C0.436,-0.695 0.459,-0.681 0.478,-0.662C0.497,-0.643 0.511,-0.621 0.522,-0.596C0.532,-0.57 0.537,-0.541 0.537,-0.51C0.537,-0.46 0.524,-0.418 0.499,-0.383C0.473,-0.347 0.438,-0.323 0.394,-0.31L0.547,-0L0.441,-0L0.301,-0.3L0.18,-0.3L0.18,-0L0.09,-0L0.09,-0.72L0.32,-0.72ZM0.18,-0.38L0.32,-0.38C0.358,-0.38 0.388,-0.392 0.411,-0.416C0.433,-0.439 0.444,-0.471 0.444,-0.51C0.444,-0.549 0.433,-0.581 0.41,-0.605C0.387,-0.628 0.357,-0.64 0.32,-0.64L0.18,-0.64L0.18,-0.38Z" style="fill-rule:nonzero;"/>
            </g>
            <g transform="matrix(10.488,0,0,10.488,614.789,316.794)">
                <path d="M0.3,0.01C0.231,0.01 0.178,-0.009 0.141,-0.046C0.104,-0.083 0.085,-0.135 0.085,-0.2L0.085,-0.72L0.175,-0.72L0.175,-0.2C0.175,-0.16 0.186,-0.128 0.207,-0.105C0.228,-0.082 0.259,-0.07 0.3,-0.07C0.34,-0.07 0.371,-0.082 0.393,-0.105C0.414,-0.128 0.425,-0.16 0.425,-0.2L0.425,-0.72L0.515,-0.72L0.515,-0.2C0.515,-0.134 0.496,-0.083 0.459,-0.046C0.422,-0.008 0.369,0.01 0.3,0.01Z" style="fill-rule:nonzero;"/>
            </g>
            <g transform="matrix(10.488,0,0,10.488,621.081,316.794)">
                <path d="M0.306,-0.73C0.369,-0.73 0.419,-0.713 0.458,-0.679C0.496,-0.644 0.519,-0.596 0.526,-0.535L0.436,-0.535C0.432,-0.571 0.419,-0.599 0.396,-0.62C0.373,-0.64 0.343,-0.65 0.306,-0.65C0.266,-0.65 0.234,-0.638 0.211,-0.614C0.188,-0.59 0.176,-0.557 0.176,-0.515L0.176,-0.205C0.176,-0.163 0.188,-0.13 0.211,-0.106C0.234,-0.082 0.265,-0.07 0.306,-0.07C0.343,-0.07 0.373,-0.08 0.396,-0.101C0.419,-0.121 0.432,-0.149 0.436,-0.185L0.526,-0.185C0.519,-0.124 0.496,-0.076 0.458,-0.042C0.419,-0.007 0.369,0.01 0.306,0.01C0.272,0.01 0.242,0.005 0.215,-0.005C0.188,-0.015 0.165,-0.029 0.146,-0.048C0.127,-0.067 0.112,-0.089 0.102,-0.116C0.091,-0.143 0.086,-0.172 0.086,-0.205L0.086,-0.515C0.086,-0.548 0.091,-0.577 0.102,-0.604C0.112,-0.631 0.127,-0.653 0.146,-0.672C0.165,-0.691 0.188,-0.705 0.215,-0.715C0.242,-0.725 0.272,-0.73 0.306,-0.73Z" style="fill-rule:nonzero;"/>
            </g>
            <g transform="matrix(10.488,0,0,10.488,627.374,316.794)">
                <path d="M0.09,-0.72L0.18,-0.72L0.18,-0.414L0.295,-0.414L0.459,-0.72L0.565,-0.72L0.374,-0.378L0.575,-0L0.468,-0L0.295,-0.335L0.18,-0.335L0.18,-0L0.09,-0L0.09,-0.72Z" style="fill-rule:nonzero;"/>
            </g>
            <g transform="matrix(10.488,0,0,10.488,633.667,316.794)">
                <path d="M0.375,-0.151L0.245,0.16L0.165,0.16L0.245,-0.151L0.375,-0.151Z" style="fill-rule:nonzero;"/>
            </g>
            <g transform="matrix(10.488,0,0,10.488,646.253,316.794)">
                <path d="M0.044,-0L0.24,-0.72L0.366,-0.72L0.556,-0L0.46,-0L0.41,-0.203L0.189,-0.203L0.138,-0L0.044,-0ZM0.208,-0.278L0.392,-0.278L0.322,-0.563C0.319,-0.577 0.316,-0.59 0.313,-0.602C0.31,-0.613 0.308,-0.624 0.307,-0.633C0.306,-0.643 0.304,-0.652 0.303,-0.66L0.299,-0.66C0.298,-0.652 0.296,-0.643 0.294,-0.633C0.293,-0.624 0.291,-0.613 0.288,-0.602C0.285,-0.59 0.282,-0.577 0.279,-0.563L0.208,-0.278Z" style="fill-rule:nonzero;"/>
            </g>
            <g transform="matrix(10.488,0,0,10.488,652.545,316.794)">
                <path d="M0.3,0.01C0.231,0.01 0.178,-0.009 0.141,-0.046C0.104,-0.083 0.085,-0.135 0.085,-0.2L0.085,-0.72L0.175,-0.72L0.175,-0.2C0.175,-0.16 0.186,-0.128 0.207,-0.105C0.228,-0.082 0.259,-0.07 0.3,-0.07C0.34,-0.07 0.371,-0.082 0.393,-0.105C0.414,-0.128 0.425,-0.16 0.425,-0.2L0.425,-0.72L0.515,-0.72L0.515,-0.2C0.515,-0.134 0.496,-0.083 0.459,-0.046C0.422,-0.008 0.369,0.01 0.3,0.01Z" style="fill-rule:nonzero;"/>
            </g>
            <g transform="matrix(10.488,0,0,10.488,658.838,316.794)">
                <path d="M0.3,0.01C0.267,0.01 0.237,0.006 0.209,-0.004C0.181,-0.013 0.157,-0.026 0.137,-0.043C0.116,-0.06 0.1,-0.08 0.089,-0.104C0.077,-0.128 0.071,-0.155 0.07,-0.185L0.165,-0.185C0.165,-0.168 0.169,-0.152 0.176,-0.138C0.183,-0.124 0.192,-0.112 0.205,-0.102C0.218,-0.092 0.232,-0.084 0.249,-0.079C0.266,-0.073 0.283,-0.07 0.302,-0.07C0.344,-0.07 0.377,-0.08 0.402,-0.1C0.427,-0.119 0.439,-0.146 0.439,-0.18C0.439,-0.209 0.43,-0.234 0.412,-0.257C0.394,-0.279 0.368,-0.296 0.334,-0.309L0.258,-0.337C0.147,-0.378 0.091,-0.445 0.091,-0.539C0.091,-0.599 0.11,-0.646 0.148,-0.68C0.186,-0.713 0.238,-0.73 0.305,-0.73C0.336,-0.73 0.365,-0.726 0.391,-0.717C0.417,-0.708 0.44,-0.696 0.459,-0.679C0.478,-0.662 0.493,-0.642 0.504,-0.619C0.515,-0.595 0.52,-0.568 0.521,-0.539L0.426,-0.539C0.426,-0.556 0.423,-0.571 0.416,-0.585C0.409,-0.598 0.401,-0.61 0.39,-0.62C0.379,-0.629 0.366,-0.637 0.351,-0.642C0.336,-0.647 0.321,-0.65 0.304,-0.65C0.266,-0.65 0.236,-0.641 0.215,-0.623C0.193,-0.605 0.182,-0.581 0.182,-0.55C0.182,-0.52 0.19,-0.495 0.207,-0.476C0.223,-0.456 0.249,-0.439 0.286,-0.426L0.366,-0.397C0.419,-0.378 0.46,-0.35 0.488,-0.313C0.516,-0.276 0.53,-0.233 0.53,-0.183C0.53,-0.123 0.51,-0.076 0.469,-0.042C0.428,-0.007 0.371,0.01 0.3,0.01Z" style="fill-rule:nonzero;"/>
            </g>
            <g transform="matrix(10.488,0,0,10.488,665.131,316.794)">
                <path d="M0.045,-0.72L0.555,-0.72L0.555,-0.641L0.346,-0.641L0.346,-0L0.254,-0L0.254,-0.641L0.045,-0.641L0.045,-0.72Z" style="fill-rule:nonzero;"/>
            </g>
            <g transform="matrix(10.488,0,0,10.488,671.424,316.794)">
                <path d="M0.32,-0.72C0.353,-0.72 0.382,-0.715 0.409,-0.705C0.436,-0.695 0.459,-0.681 0.478,-0.662C0.497,-0.643 0.511,-0.621 0.522,-0.596C0.532,-0.57 0.537,-0.541 0.537,-0.51C0.537,-0.46 0.524,-0.418 0.499,-0.383C0.473,-0.347 0.438,-0.323 0.394,-0.31L0.547,-0L0.441,-0L0.301,-0.3L0.18,-0.3L0.18,-0L0.09,-0L0.09,-0.72L0.32,-0.72ZM0.18,-0.38L0.32,-0.38C0.358,-0.38 0.388,-0.392 0.411,-0.416C0.433,-0.439 0.444,-0.471 0.444,-0.51C0.444,-0.549 0.433,-0.581 0.41,-0.605C0.387,-0.628 0.357,-0.64 0.32,-0.64L0.18,-0.64L0.18,-0.38Z" style="fill-rule:nonzero;"/>
            </g>
            <g transform="matrix(10.488,0,0,10.488,677.717,316.794)">
                <path d="M0.254,-0.079L0.254,-0.641L0.095,-0.641L0.095,-0.72L0.505,-0.72L0.505,-0.641L0.346,-0.641L0.346,-0.079L0.505,-0.079L0.505,-0L0.095,-0L0.095,-0.079L0.254,-0.079Z" style="fill-rule:nonzero;"/>
            </g>
            <g transform="matrix(10.488,0,0,10.488,684.01,316.794)">
                <path d="M0.044,-0L0.24,-0.72L0.366,-0.72L0.556,-0L0.46,-0L0.41,-0.203L0.189,-0.203L0.138,-0L0.044,-0ZM0.208,-0.278L0.392,-0.278L0.322,-0.563C0.319,-0.577 0.316,-0.59 0.313,-0.602C0.31,-0.613 0.308,-0.624 0.307,-0.633C0.306,-0.643 0.304,-0.652 0.303,-0.66L0.299,-0.66C0.298,-0.652 0.296,-0.643 0.294,-0.633C0.293,-0.624 0.291,-0.613 0.288,-0.602C0.285,-0.59 0.282,-0.577 0.279,-0.563L0.208,-0.278Z" style="fill-rule:nonzero;"/>
            </g>
            <g transform="matrix(10.488,0,0,10.488,577.032,416.43)">
                <path d="M0.045,-0.72L0.555,-0.72L0.555,-0.641L0.346,-0.641L0.346,-0L0.254,-0L0.254,-0.641L0.045,-0.641L0.045,-0.72Z" style="fill-rule:nonzero;"/>
            </g>
            <g transform="matrix(10.488,0,0,10.488,583.325,416.43)">
                <path d="M0.32,-0.72C0.353,-0.72 0.382,-0.715 0.409,-0.705C0.436,-0.695 0.459,-0.681 0.478,-0.662C0.497,-0.643 0.511,-0.621 0.522,-0.596C0.532,-0.57 0.537,-0.541 0.537,-0.51C0.537,-0.46 0.524,-0.418 0.499,-0.383C0.473,-0.347 0.438,-0.323 0.394,-0.31L0.547,-0L0.441,-0L0.301,-0.3L0.18,-0.3L0.18,-0L0.09,-0L0.09,-0.72L0.32,-0.72ZM0.18,-0.38L0.32,-0.38C0.358,-0.38 0.388,-0.392 0.411,-0.416C0.433,-0.439 0.444,-0.471 0.444,-0.51C0.444,-0.549 0.433,-0.581 0.41,-0.605C0.387,-0.628 0.357,-0.64 0.32,-0.64L0.18,-0.64L0.18,-0.38Z" style="fill-rule:nonzero;"/>
            </g>
            <g transform="matrix(10.488,0,0,10.488,589.617,416.43)">
                <path d="M0.095,-0L0.095,-0.72L0.52,-0.72L0.52,-0.638L0.185,-0.638L0.185,-0.412L0.485,-0.412L0.485,-0.33L0.185,-0.33L0.185,-0.082L0.52,-0.082L0.52,-0L0.095,-0Z" style="fill-rule:nonzero;"/>
            </g>
            <g transform="matrix(10.488,0,0,10.488,595.91,416.43)">
                <path d="M0.085,-0.72L0.199,-0.72L0.39,-0.237C0.395,-0.225 0.4,-0.211 0.405,-0.196C0.41,-0.18 0.414,-0.165 0.417,-0.151C0.422,-0.134 0.426,-0.117 0.43,-0.1L0.438,-0.1C0.438,-0.1 0.438,-0.103 0.437,-0.111C0.436,-0.117 0.435,-0.127 0.434,-0.139C0.433,-0.151 0.432,-0.165 0.431,-0.181C0.43,-0.196 0.429,-0.213 0.429,-0.23L0.429,-0.72L0.515,-0.72L0.515,-0L0.401,-0L0.213,-0.484C0.208,-0.499 0.202,-0.515 0.197,-0.531C0.192,-0.547 0.187,-0.562 0.184,-0.575C0.179,-0.59 0.175,-0.606 0.172,-0.621L0.164,-0.621C0.165,-0.61 0.167,-0.598 0.168,-0.585C0.169,-0.574 0.169,-0.56 0.17,-0.545C0.171,-0.529 0.171,-0.511 0.171,-0.492L0.171,-0L0.085,-0L0.085,-0.72Z" style="fill-rule:nonzero;"/>
            </g>
            <g transform="matrix(10.488,0,0,10.488,602.203,416.43)">
                <path d="M0.045,-0.72L0.555,-0.72L0.555,-0.641L0.346,-0.641L0.346,-0L0.254,-0L0.254,-0.641L0.045,-0.641L0.045,-0.72Z" style="fill-rule:nonzero;"/>
            </g>
            <g transform="matrix(10.488,0,0,10.488,608.496,416.43)">
                <path d="M0.17,-0.205C0.17,-0.164 0.182,-0.131 0.205,-0.107C0.228,-0.082 0.26,-0.07 0.3,-0.07C0.34,-0.07 0.372,-0.082 0.395,-0.107C0.418,-0.131 0.43,-0.164 0.43,-0.205L0.43,-0.515C0.43,-0.556 0.418,-0.589 0.395,-0.614C0.372,-0.638 0.34,-0.65 0.3,-0.65C0.26,-0.65 0.228,-0.638 0.205,-0.614C0.182,-0.589 0.17,-0.556 0.17,-0.515L0.17,-0.205ZM0.08,-0.515C0.08,-0.548 0.085,-0.577 0.096,-0.604C0.106,-0.631 0.121,-0.653 0.14,-0.672C0.159,-0.691 0.182,-0.705 0.209,-0.715C0.236,-0.725 0.266,-0.73 0.3,-0.73C0.334,-0.73 0.365,-0.725 0.392,-0.715C0.419,-0.705 0.442,-0.691 0.461,-0.672C0.48,-0.653 0.494,-0.631 0.505,-0.604C0.515,-0.577 0.52,-0.548 0.52,-0.515L0.52,-0.205C0.52,-0.172 0.515,-0.143 0.505,-0.117C0.494,-0.09 0.48,-0.068 0.461,-0.049C0.442,-0.03 0.418,-0.016 0.391,-0.006C0.364,0.005 0.333,0.01 0.3,0.01C0.266,0.01 0.236,0.005 0.209,-0.005C0.182,-0.015 0.159,-0.029 0.14,-0.048C0.121,-0.067 0.106,-0.089 0.096,-0.116C0.085,-0.143 0.08,-0.172 0.08,-0.205L0.08,-0.515Z" style="fill-rule:nonzero;"/>
            </g>
            <g transform="matrix(10.488,0,0,10.488,614.789,416.43)">
                <path d="M0.375,-0.151L0.245,0.16L0.165,0.16L0.245,-0.151L0.375,-0.151Z" style="fill-rule:nonzero;"/>
            </g>
            <g transform="matrix(10.488,0,0,10.488,627.374,416.43)">
                <path d="M0.254,-0.079L0.254,-0.641L0.095,-0.641L0.095,-0.72L0.505,-0.72L0.505,-0.641L0.346,-0.641L0.346,-0.079L0.505,-0.079L0.505,-0L0.095,-0L0.095,-0.079L0.254,-0.079Z" style="fill-rule:nonzero;"/>
            </g>
            <g transform="matrix(10.488,0,0,10.488,633.667,416.43)">
                <path d="M0.045,-0.72L0.555,-0.72L0.555,-0.641L0.346,-0.641L0.346,-0L0.254,-0L0.254,-0.641L0.045,-0.641L0.045,-0.72Z" style="fill-rule:nonzero;"/>
            </g>
            <g transform="matrix(10.488,0,0,10.488,639.96,416.43)">
                <path d="M0.044,-0L0.24,-0.72L0.366,-0.72L0.556,-0L0.46,-0L0.41,-0.203L0.189,-0.203L0.138,-0L0.044,-0ZM0.208,-0.278L0.392,-0.278L0.322,-0.563C0.319,-0.577 0.316,-0.59 0.313,-0.602C0.31,-0.613 0.308,-0.624 0.307,-0.633C0.306,-0.643 0.304,-0.652 0.303,-0.66L0.299,-0.66C0.298,-0.652 0.296,-0.643 0.294,-0.633C0.293,-0.624 0.291,-0.613 0.288,-0.602C0.285,-0.59 0.282,-0.577 0.279,-0.563L0.208,-0.278Z" style="fill-rule:nonzero;"/>
            </g>
            <g transform="matrix(10.488,0,0,10.488,646.253,416.43)">
                <path d="M0.195,-0.72L0.195,-0.082L0.535,-0.082L0.535,-0L0.105,-0L0.105,-0.72L0.195,-0.72Z" style="fill-rule:nonzero;"/>
            </g>
            <g transform="matrix(10.488,0,0,10.488,652.545,416.43)">
                <path d="M0.03,-0.72L0.125,-0.72L0.273,-0.403C0.278,-0.394 0.282,-0.384 0.285,-0.375C0.288,-0.366 0.29,-0.357 0.293,-0.35C0.296,-0.341 0.298,-0.333 0.3,-0.324L0.304,-0.324C0.306,-0.333 0.309,-0.341 0.312,-0.35C0.314,-0.357 0.317,-0.366 0.32,-0.375C0.323,-0.384 0.327,-0.394 0.331,-0.403L0.474,-0.72L0.57,-0.72L0.345,-0.25L0.345,-0L0.255,-0L0.255,-0.25L0.03,-0.72Z" style="fill-rule:nonzero;"/>
            </g>
            <g transform="matrix(10.488,0,0,10.488,577.032,516.067)">
                <path d="M0.301,-0.72C0.369,-0.72 0.422,-0.703 0.461,-0.669C0.5,-0.635 0.519,-0.589 0.519,-0.53C0.519,-0.487 0.507,-0.452 0.483,-0.426C0.458,-0.399 0.426,-0.383 0.386,-0.38L0.386,-0.374C0.432,-0.371 0.468,-0.355 0.494,-0.325C0.519,-0.295 0.532,-0.254 0.532,-0.203C0.532,-0.172 0.527,-0.143 0.517,-0.119C0.507,-0.094 0.493,-0.072 0.474,-0.055C0.455,-0.037 0.431,-0.023 0.404,-0.014C0.377,-0.005 0.346,-0 0.312,-0L0.09,-0L0.09,-0.72L0.301,-0.72ZM0.179,-0.082L0.302,-0.082C0.345,-0.082 0.378,-0.093 0.402,-0.115C0.425,-0.137 0.437,-0.167 0.437,-0.206C0.437,-0.245 0.425,-0.275 0.401,-0.297C0.377,-0.319 0.344,-0.33 0.302,-0.33L0.179,-0.33L0.179,-0.082ZM0.179,-0.638L0.179,-0.408L0.3,-0.408C0.338,-0.408 0.368,-0.418 0.391,-0.439C0.413,-0.459 0.424,-0.487 0.424,-0.523C0.424,-0.559 0.413,-0.587 0.391,-0.608C0.369,-0.628 0.339,-0.638 0.301,-0.638L0.179,-0.638Z" style="fill-rule:nonzero;"/>
            </g>
            <g transform="matrix(10.488,0,0,10.488,583.325,516.067)">
                <path d="M0.17,-0.205C0.17,-0.164 0.182,-0.131 0.205,-0.107C0.228,-0.082 0.26,-0.07 0.3,-0.07C0.34,-0.07 0.372,-0.082 0.395,-0.107C0.418,-0.131 0.43,-0.164 0.43,-0.205L0.43,-0.515C0.43,-0.556 0.418,-0.589 0.395,-0.614C0.372,-0.638 0.34,-0.65 0.3,-0.65C0.26,-0.65 0.228,-0.638 0.205,-0.614C0.182,-0.589 0.17,-0.556 0.17,-0.515L0.17,-0.205ZM0.08,-0.515C0.08,-0.548 0.085,-0.577 0.096,-0.604C0.106,-0.631 0.121,-0.653 0.14,-0.672C0.159,-0.691 0.182,-0.705 0.209,-0.715C0.236,-0.725 0.266,-0.73 0.3,-0.73C0.334,-0.73 0.365,-0.725 0.392,-0.715C0.419,-0.705 0.442,-0.691 0.461,-0.672C0.48,-0.653 0.494,-0.631 0.505,-0.604C0.515,-0.577 0.52,-0.548 0.52,-0.515L0.52,-0.205C0.52,-0.172 0.515,-0.143 0.505,-0.117C0.494,-0.09 0.48,-0.068 0.461,-0.049C0.442,-0.03 0.418,-0.016 0.391,-0.006C0.364,0.005 0.333,0.01 0.3,0.01C0.266,0.01 0.236,0.005 0.209,-0.005C0.182,-0.015 0.159,-0.029 0.14,-0.048C0.121,-0.067 0.106,-0.089 0.096,-0.116C0.085,-0.143 0.08,-0.172 0.08,-0.205L0.08,-0.515Z" style="fill-rule:nonzero;"/>
            </g>
            <g transform="matrix(10.488,0,0,10.488,589.617,516.067)">
                <path d="M0.195,-0.72L0.195,-0.082L0.535,-0.082L0.535,-0L0.105,-0L0.105,-0.72L0.195,-0.72Z" style="fill-rule:nonzero;"/>
            </g>
            <g transform="matrix(10.488,0,0,10.488,595.91,516.067)">
                <path d="M0.504,-0.72L0.504,-0.639L0.175,-0.077L0.175,-0.075L0.245,-0.079L0.515,-0.079L0.515,-0L0.085,-0L0.085,-0.08L0.414,-0.642L0.414,-0.644L0.342,-0.641L0.093,-0.641L0.093,-0.72L0.504,-0.72Z" style="fill-rule:nonzero;"/>
            </g>
            <g transform="matrix(10.488,0,0,10.488,602.203,516.067)">
                <path d="M0.044,-0L0.24,-0.72L0.366,-0.72L0.556,-0L0.46,-0L0.41,-0.203L0.189,-0.203L0.138,-0L0.044,-0ZM0.208,-0.278L0.392,-0.278L0.322,-0.563C0.319,-0.577 0.316,-0.59 0.313,-0.602C0.31,-0.613 0.308,-0.624 0.307,-0.633C0.306,-0.643 0.304,-0.652 0.303,-0.66L0.299,-0.66C0.298,-0.652 0.296,-0.643 0.294,-0.633C0.293,-0.624 0.291,-0.613 0.288,-0.602C0.285,-0.59 0.282,-0.577 0.279,-0.563L0.208,-0.278Z" style="fill-rule:nonzero;"/>
            </g>
            <g transform="matrix(10.488,0,0,10.488,608.496,516.067)">
                <path d="M0.085,-0.72L0.199,-0.72L0.39,-0.237C0.395,-0.225 0.4,-0.211 0.405,-0.196C0.41,-0.18 0.414,-0.165 0.417,-0.151C0.422,-0.134 0.426,-0.117 0.43,-0.1L0.438,-0.1C0.438,-0.1 0.438,-0.103 0.437,-0.111C0.436,-0.117 0.435,-0.127 0.434,-0.139C0.433,-0.151 0.432,-0.165 0.431,-0.181C0.43,-0.196 0.429,-0.213 0.429,-0.23L0.429,-0.72L0.515,-0.72L0.515,-0L0.401,-0L0.213,-0.484C0.208,-0.499 0.202,-0.515 0.197,-0.531C0.192,-0.547 0.187,-0.562 0.184,-0.575C0.179,-0.59 0.175,-0.606 0.172,-0.621L0.164,-0.621C0.165,-0.61 0.167,-0.598 0.168,-0.585C0.169,-0.574 0.169,-0.56 0.17,-0.545C0.171,-0.529 0.171,-0.511 0.171,-0.492L0.171,-0L0.085,-0L0.085,-0.72Z" style="fill-rule:nonzero;"/>
            </g>
            <g transform="matrix(10.488,0,0,10.488,614.789,516.067)">
                <path d="M0.17,-0.205C0.17,-0.164 0.182,-0.131 0.205,-0.107C0.228,-0.082 0.26,-0.07 0.3,-0.07C0.34,-0.07 0.372,-0.082 0.395,-0.107C0.418,-0.131 0.43,-0.164 0.43,-0.205L0.43,-0.515C0.43,-0.556 0.418,-0.589 0.395,-0.614C0.372,-0.638 0.34,-0.65 0.3,-0.65C0.26,-0.65 0.228,-0.638 0.205,-0.614C0.182,-0.589 0.17,-0.556 0.17,-0.515L0.17,-0.205ZM0.08,-0.515C0.08,-0.548 0.085,-0.577 0.096,-0.604C0.106,-0.631 0.121,-0.653 0.14,-0.672C0.159,-0.691 0.182,-0.705 0.209,-0.715C0.236,-0.725 0.266,-0.73 0.3,-0.73C0.334,-0.73 0.365,-0.725 0.392,-0.715C0.419,-0.705 0.442,-0.691 0.461,-0.672C0.48,-0.653 0.494,-0.631 0.505,-0.604C0.515,-0.577 0.52,-0.548 0.52,-0.515L0.52,-0.205C0.52,-0.172 0.515,-0.143 0.505,-0.117C0.494,-0.09 0.48,-0.068 0.461,-0.049C0.442,-0.03 0.418,-0.016 0.391,-0.006C0.364,0.005 0.333,0.01 0.3,0.01C0.266,0.01 0.236,0.005 0.209,-0.005C0.182,-0.015 0.159,-0.029 0.14,-0.048C0.121,-0.067 0.106,-0.089 0.096,-0.116C0.085,-0.143 0.08,-0.172 0.08,-0.205L0.08,-0.515Z" style="fill-rule:nonzero;"/>
            </g>
            <g transform="matrix(10.488,0,0,10.488,621.081,516.067)">
                <path d="M0.375,-0.151L0.245,0.16L0.165,0.16L0.245,-0.151L0.375,-0.151Z" style="fill-rule:nonzero;"/>
            </g>
            <g transform="matrix(10.488,0,0,10.488,633.667,516.067)">
                <path d="M0.254,-0.079L0.254,-0.641L0.095,-0.641L0.095,-0.72L0.505,-0.72L0.505,-0.641L0.346,-0.641L0.346,-0.079L0.505,-0.079L0.505,-0L0.095,-0L0.095,-0.079L0.254,-0.079Z" style="fill-rule:nonzero;"/>
            </g>
            <g transform="matrix(10.488,0,0,10.488,639.96,516.067)">
                <path d="M0.045,-0.72L0.555,-0.72L0.555,-0.641L0.346,-0.641L0.346,-0L0.254,-0L0.254,-0.641L0.045,-0.641L0.045,-0.72Z" style="fill-rule:nonzero;"/>
            </g>
            <g transform="matrix(10.488,0,0,10.488,646.253,516.067)">
                <path d="M0.044,-0L0.24,-0.72L0.366,-0.72L0.556,-0L0.46,-0L0.41,-0.203L0.189,-0.203L0.138,-0L0.044,-0ZM0.208,-0.278L0.392,-0.278L0.322,-0.563C0.319,-0.577 0.316,-0.59 0.313,-0.602C0.31,-0.613 0.308,-0.624 0.307,-0.633C0.306,-0.643 0.304,-0.652 0.303,-0.66L0.299,-0.66C0.298,-0.652 0.296,-0.643 0.294,-0.633C0.293,-0.624 0.291,-0.613 0.288,-0.602C0.285,-0.59 0.282,-0.577 0.279,-0.563L0.208,-0.278Z" style="fill-rule:nonzero;"/>
            </g>
            <g transform="matrix(10.488,0,0,10.488,652.545,516.067)">
                <path d="M0.195,-0.72L0.195,-0.082L0.535,-0.082L0.535,-0L0.105,-0L0.105,-0.72L0.195,-0.72Z" style="fill-rule:nonzero;"/>
            </g>
            <g transform="matrix(10.488,0,0,10.488,658.838,516.067)">
                <path d="M0.03,-0.72L0.125,-0.72L0.273,-0.403C0.278,-0.394 0.282,-0.384 0.285,-0.375C0.288,-0.366 0.29,-0.357 0.293,-0.35C0.296,-0.341 0.298,-0.333 0.3,-0.324L0.304,-0.324C0.306,-0.333 0.309,-0.341 0.312,-0.35C0.314,-0.357 0.317,-0.366 0.32,-0.375C0.323,-0.384 0.327,-0.394 0.331,-0.403L0.474,-0.72L0.57,-0.72L0.345,-0.25L0.345,-0L0.255,-0L0.255,-0.25L0.03,-0.72Z" style="fill-rule:nonzero;"/>
            </g>
        </g>
        <g transform="matrix(1,0,0,1,-19.9936,32.6)">
            <g transform="matrix(20,0,0,20,327.104,781.874)">
                <path d="M0.25,-0.405C0.25,-0.422 0.255,-0.435 0.264,-0.445C0.273,-0.455 0.285,-0.46 0.3,-0.46C0.315,-0.46 0.328,-0.455 0.337,-0.445C0.346,-0.435 0.35,-0.422 0.35,-0.405L0.35,-0.305C0.35,-0.288 0.346,-0.275 0.337,-0.265C0.328,-0.255 0.315,-0.25 0.3,-0.25C0.285,-0.25 0.273,-0.255 0.264,-0.265C0.255,-0.275 0.25,-0.288 0.25,-0.305L0.25,-0.405ZM0.17,-0.205C0.17,-0.164 0.182,-0.131 0.205,-0.107C0.228,-0.082 0.26,-0.07 0.3,-0.07C0.34,-0.07 0.372,-0.082 0.395,-0.107C0.418,-0.131 0.43,-0.164 0.43,-0.205L0.43,-0.515C0.43,-0.556 0.418,-0.589 0.395,-0.614C0.372,-0.638 0.34,-0.65 0.3,-0.65C0.26,-0.65 0.228,-0.638 0.205,-0.614C0.182,-0.589 0.17,-0.556 0.17,-0.515L0.17,-0.205ZM0.08,-0.205L0.08,-0.515C0.08,-0.548 0.085,-0.577 0.096,-0.604C0.106,-0.631 0.121,-0.653 0.14,-0.672C0.159,-0.691 0.182,-0.705 0.209,-0.715C0.236,-0.725 0.266,-0.73 0.3,-0.73C0.334,-0.73 0.365,-0.725 0.392,-0.715C0.419,-0.705 0.442,-0.691 0.461,-0.672C0.48,-0.653 0.494,-0.631 0.505,-0.604C0.515,-0.577 0.52,-0.548 0.52,-0.515L0.52,-0.205C0.52,-0.172 0.515,-0.143 0.505,-0.117C0.494,-0.09 0.48,-0.068 0.461,-0.049C0.442,-0.03 0.418,-0.016 0.391,-0.006C0.364,0.005 0.333,0.01 0.3,0.01C0.266,0.01 0.236,0.005 0.209,-0.005C0.182,-0.015 0.159,-0.029 0.14,-0.048C0.121,-0.067 0.106,-0.089 0.096,-0.116C0.085,-0.143 0.08,-0.172 0.08,-0.205Z" style="fill-rule:nonzero;"/>
            </g>
        </g>
        <g transform="matrix(1,0,0,1,324.56,32.6)">
            <g transform="matrix(20,0,0,20,327.104,781.874)">
                <path d="M0.369,-0.72L0.467,-0.72L0.175,-0.275L0.175,-0.235L0.41,-0.235L0.41,-0.41L0.5,-0.41L0.5,-0L0.41,-0L0.41,-0.155L0.085,-0.155L0.085,-0.285L0.369,-0.72Z" style="fill-rule:nonzero;"/>
            </g>
            <g transform="matrix(20,0,0,20,339.104,781.874)">
                <path d="M0.513,-0.53C0.513,-0.476 0.498,-0.424 0.469,-0.374C0.439,-0.323 0.392,-0.27 0.327,-0.214L0.206,-0.109C0.203,-0.106 0.199,-0.104 0.195,-0.101C0.191,-0.098 0.187,-0.096 0.183,-0.093C0.178,-0.09 0.173,-0.087 0.168,-0.084L0.168,-0.08C0.179,-0.081 0.189,-0.081 0.199,-0.081C0.208,-0.082 0.218,-0.082 0.228,-0.082L0.52,-0.082L0.52,-0L0.07,-0L0.07,-0.1L0.26,-0.263C0.289,-0.288 0.313,-0.311 0.334,-0.333C0.354,-0.355 0.37,-0.377 0.383,-0.398C0.396,-0.419 0.405,-0.441 0.411,-0.462C0.417,-0.483 0.42,-0.506 0.42,-0.529C0.42,-0.566 0.409,-0.596 0.387,-0.618C0.364,-0.639 0.334,-0.65 0.296,-0.65C0.254,-0.65 0.221,-0.639 0.196,-0.617C0.171,-0.595 0.158,-0.566 0.158,-0.53L0.065,-0.53C0.066,-0.56 0.073,-0.587 0.084,-0.612C0.095,-0.637 0.111,-0.658 0.132,-0.675C0.152,-0.692 0.176,-0.706 0.204,-0.716C0.231,-0.725 0.262,-0.73 0.296,-0.73C0.329,-0.73 0.359,-0.725 0.386,-0.716C0.413,-0.707 0.435,-0.693 0.454,-0.676C0.473,-0.659 0.487,-0.638 0.498,-0.613C0.508,-0.588 0.513,-0.561 0.513,-0.53Z" style="fill-rule:nonzero;"/>
            </g>
            <g transform="matrix(20,0,0,20,351.104,781.874)">
                <path d="M0.375,-0.151L0.245,0.16L0.165,0.16L0.245,-0.151L0.375,-0.151Z" style="fill-rule:nonzero;"/>
            </g>
            <g transform="matrix(20,0,0,20,363.104,781.874)">
                <path d="M0.331,-0.46C0.392,-0.46 0.439,-0.441 0.474,-0.404C0.508,-0.366 0.525,-0.315 0.525,-0.25L0.525,-0.2C0.525,-0.168 0.52,-0.139 0.509,-0.113C0.498,-0.087 0.483,-0.065 0.464,-0.047C0.444,-0.029 0.42,-0.015 0.392,-0.005C0.364,0.005 0.333,0.01 0.298,0.01C0.237,0.01 0.186,-0.005 0.147,-0.034C0.108,-0.063 0.084,-0.101 0.075,-0.15L0.17,-0.15C0.177,-0.126 0.191,-0.107 0.214,-0.092C0.236,-0.077 0.264,-0.07 0.299,-0.07C0.34,-0.07 0.372,-0.082 0.396,-0.105C0.42,-0.128 0.432,-0.16 0.432,-0.2L0.432,-0.25C0.432,-0.29 0.42,-0.322 0.396,-0.345C0.372,-0.368 0.339,-0.38 0.298,-0.38C0.247,-0.38 0.209,-0.362 0.184,-0.325L0.092,-0.325L0.097,-0.72L0.493,-0.72L0.493,-0.638L0.184,-0.638L0.181,-0.384L0.187,-0.384C0.193,-0.398 0.202,-0.411 0.215,-0.422C0.226,-0.431 0.24,-0.44 0.259,-0.448C0.277,-0.456 0.301,-0.46 0.331,-0.46Z" style="fill-rule:nonzero;"/>
            </g>
            <g transform="matrix(20,0,0,20,375.104,781.874)">
                <path d="M0.25,-0.405C0.25,-0.422 0.255,-0.435 0.264,-0.445C0.273,-0.455 0.285,-0.46 0.3,-0.46C0.315,-0.46 0.328,-0.455 0.337,-0.445C0.346,-0.435 0.35,-0.422 0.35,-0.405L0.35,-0.305C0.35,-0.288 0.346,-0.275 0.337,-0.265C0.328,-0.255 0.315,-0.25 0.3,-0.25C0.285,-0.25 0.273,-0.255 0.264,-0.265C0.255,-0.275 0.25,-0.288 0.25,-0.305L0.25,-0.405ZM0.17,-0.205C0.17,-0.164 0.182,-0.131 0.205,-0.107C0.228,-0.082 0.26,-0.07 0.3,-0.07C0.34,-0.07 0.372,-0.082 0.395,-0.107C0.418,-0.131 0.43,-0.164 0.43,-0.205L0.43,-0.515C0.43,-0.556 0.418,-0.589 0.395,-0.614C0.372,-0.638 0.34,-0.65 0.3,-0.65C0.26,-0.65 0.228,-0.638 0.205,-0.614C0.182,-0.589 0.17,-0.556 0.17,-0.515L0.17,-0.205ZM0.08,-0.205L0.08,-0.515C0.08,-0.548 0.085,-0.577 0.096,-0.604C0.106,-0.631 0.121,-0.653 0.14,-0.672C0.159,-0.691 0.182,-0.705 0.209,-0.715C0.236,-0.725 0.266,-0.73 0.3,-0.73C0.334,-0.73 0.365,-0.725 0.392,-0.715C0.419,-0.705 0.442,-0.691 0.461,-0.672C0.48,-0.653 0.494,-0.631 0.505,-0.604C0.515,-0.577 0.52,-0.548 0.52,-0.515L0.52,-0.205C0.52,-0.172 0.515,-0.143 0.505,-0.117C0.494,-0.09 0.48,-0.068 0.461,-0.049C0.442,-0.03 0.418,-0.016 0.391,-0.006C0.364,0.005 0.333,0.01 0.3,0.01C0.266,0.01 0.236,0.005 0.209,-0.005C0.182,-0.015 0.159,-0.029 0.14,-0.048C0.121,-0.067 0.106,-0.089 0.096,-0.116C0.085,-0.143 0.08,-0.172 0.08,-0.205Z" style="fill-rule:nonzero;"/>
            </g>
            <g transform="matrix(20,0,0,20,387.104,781.874)">
                <path d="M0.25,-0.405C0.25,-0.422 0.255,-0.435 0.264,-0.445C0.273,-0.455 0.285,-0.46 0.3,-0.46C0.315,-0.46 0.328,-0.455 0.337,-0.445C0.346,-0.435 0.35,-0.422 0.35,-0.405L0.35,-0.305C0.35,-0.288 0.346,-0.275 0.337,-0.265C0.328,-0.255 0.315,-0.25 0.3,-0.25C0.285,-0.25 0.273,-0.255 0.264,-0.265C0.255,-0.275 0.25,-0.288 0.25,-0.305L0.25,-0.405ZM0.17,-0.205C0.17,-0.164 0.182,-0.131 0.205,-0.107C0.228,-0.082 0.26,-0.07 0.3,-0.07C0.34,-0.07 0.372,-0.082 0.395,-0.107C0.418,-0.131 0.43,-0.164 0.43,-0.205L0.43,-0.515C0.43,-0.556 0.418,-0.589 0.395,-0.614C0.372,-0.638 0.34,-0.65 0.3,-0.65C0.26,-0.65 0.228,-0.638 0.205,-0.614C0.182,-0.589 0.17,-0.556 0.17,-0.515L0.17,-0.205ZM0.08,-0.205L0.08,-0.515C0.08,-0.548 0.085,-0.577 0.096,-0.604C0.106,-0.631 0.121,-0.653 0.14,-0.672C0.159,-0.691 0.182,-0.705 0.209,-0.715C0.236,-0.725 0.266,-0.73 0.3,-0.73C0.334,-0.73 0.365,-0.725 0.392,-0.715C0.419,-0.705 0.442,-0.691 0.461,-0.672C0.48,-0.653 0.494,-0.631 0.505,-0.604C0.515,-0.577 0.52,-0.548 0.52,-0.515L0.52,-0.205C0.52,-0.172 0.515,-0.143 0.505,-0.117C0.494,-0.09 0.48,-0.068 0.461,-0.049C0.442,-0.03 0.418,-0.016 0.391,-0.006C0.364,0.005 0.333,0.01 0.3,0.01C0.266,0.01 0.236,0.005 0.209,-0.005C0.182,-0.015 0.159,-0.029 0.14,-0.048C0.121,-0.067 0.106,-0.089 0.096,-0.116C0.085,-0.143 0.08,-0.172 0.08,-0.205Z" style="fill-rule:nonzero;"/>
            </g>
        </g>
        <g transform="matrix(1,0,0,1,702.662,32.6)">
            <g transform="matrix(20,0,0,20,327.104,781.874)">
                <path d="M0.3,-0.342C0.259,-0.342 0.226,-0.33 0.201,-0.305C0.175,-0.28 0.163,-0.246 0.163,-0.205C0.163,-0.164 0.175,-0.131 0.201,-0.105C0.226,-0.078 0.259,-0.065 0.3,-0.065C0.341,-0.065 0.375,-0.078 0.4,-0.105C0.425,-0.131 0.437,-0.164 0.437,-0.205C0.437,-0.246 0.425,-0.28 0.4,-0.305C0.375,-0.33 0.341,-0.342 0.3,-0.342ZM0.3,-0.655C0.262,-0.655 0.232,-0.644 0.211,-0.622C0.189,-0.6 0.178,-0.571 0.178,-0.535C0.178,-0.498 0.189,-0.468 0.212,-0.444C0.234,-0.42 0.263,-0.408 0.3,-0.408C0.337,-0.408 0.366,-0.42 0.389,-0.444C0.411,-0.468 0.422,-0.498 0.422,-0.535C0.422,-0.571 0.411,-0.6 0.39,-0.622C0.368,-0.644 0.338,-0.655 0.3,-0.655ZM0.3,-0.73C0.332,-0.73 0.361,-0.725 0.388,-0.716C0.414,-0.707 0.436,-0.694 0.456,-0.677C0.474,-0.66 0.489,-0.64 0.5,-0.617C0.51,-0.594 0.515,-0.568 0.515,-0.539C0.515,-0.519 0.512,-0.5 0.506,-0.482C0.499,-0.464 0.49,-0.448 0.479,-0.434C0.468,-0.419 0.454,-0.407 0.438,-0.398C0.422,-0.389 0.404,-0.382 0.385,-0.379L0.385,-0.374C0.429,-0.367 0.464,-0.347 0.491,-0.316C0.517,-0.285 0.53,-0.246 0.53,-0.2C0.53,-0.169 0.525,-0.141 0.514,-0.115C0.503,-0.089 0.488,-0.067 0.468,-0.049C0.448,-0.03 0.424,-0.016 0.396,-0.006C0.367,0.005 0.335,0.01 0.3,0.01C0.265,0.01 0.233,0.005 0.205,-0.005C0.176,-0.015 0.152,-0.029 0.132,-0.047C0.112,-0.065 0.097,-0.087 0.086,-0.113C0.075,-0.138 0.07,-0.166 0.07,-0.197C0.07,-0.22 0.074,-0.242 0.081,-0.262C0.088,-0.282 0.097,-0.3 0.11,-0.315C0.123,-0.33 0.138,-0.343 0.156,-0.354C0.173,-0.364 0.193,-0.371 0.215,-0.374L0.215,-0.379C0.196,-0.382 0.178,-0.389 0.162,-0.399C0.146,-0.408 0.132,-0.42 0.121,-0.434C0.11,-0.448 0.101,-0.464 0.095,-0.482C0.088,-0.5 0.085,-0.519 0.085,-0.539C0.085,-0.568 0.09,-0.594 0.101,-0.617C0.111,-0.64 0.126,-0.66 0.145,-0.677C0.164,-0.694 0.186,-0.707 0.213,-0.716C0.239,-0.725 0.268,-0.73 0.3,-0.73Z" style="fill-rule:nonzero;"/>
            </g>
            <g transform="matrix(20,0,0,20,339.104,781.874)">
                <path d="M0.331,-0.46C0.392,-0.46 0.439,-0.441 0.474,-0.404C0.508,-0.366 0.525,-0.315 0.525,-0.25L0.525,-0.2C0.525,-0.168 0.52,-0.139 0.509,-0.113C0.498,-0.087 0.483,-0.065 0.464,-0.047C0.444,-0.029 0.42,-0.015 0.392,-0.005C0.364,0.005 0.333,0.01 0.298,0.01C0.237,0.01 0.186,-0.005 0.147,-0.034C0.108,-0.063 0.084,-0.101 0.075,-0.15L0.17,-0.15C0.177,-0.126 0.191,-0.107 0.214,-0.092C0.236,-0.077 0.264,-0.07 0.299,-0.07C0.34,-0.07 0.372,-0.082 0.396,-0.105C0.42,-0.128 0.432,-0.16 0.432,-0.2L0.432,-0.25C0.432,-0.29 0.42,-0.322 0.396,-0.345C0.372,-0.368 0.339,-0.38 0.298,-0.38C0.247,-0.38 0.209,-0.362 0.184,-0.325L0.092,-0.325L0.097,-0.72L0.493,-0.72L0.493,-0.638L0.184,-0.638L0.181,-0.384L0.187,-0.384C0.193,-0.398 0.202,-0.411 0.215,-0.422C0.226,-0.431 0.24,-0.44 0.259,-0.448C0.277,-0.456 0.301,-0.46 0.331,-0.46Z" style="fill-rule:nonzero;"/>
            </g>
            <g transform="matrix(20,0,0,20,351.104,781.874)">
                <path d="M0.375,-0.151L0.245,0.16L0.165,0.16L0.245,-0.151L0.375,-0.151Z" style="fill-rule:nonzero;"/>
            </g>
            <g transform="matrix(20,0,0,20,363.104,781.874)">
                <path d="M0.25,-0.405C0.25,-0.422 0.255,-0.435 0.264,-0.445C0.273,-0.455 0.285,-0.46 0.3,-0.46C0.315,-0.46 0.328,-0.455 0.337,-0.445C0.346,-0.435 0.35,-0.422 0.35,-0.405L0.35,-0.305C0.35,-0.288 0.346,-0.275 0.337,-0.265C0.328,-0.255 0.315,-0.25 0.3,-0.25C0.285,-0.25 0.273,-0.255 0.264,-0.265C0.255,-0.275 0.25,-0.288 0.25,-0.305L0.25,-0.405ZM0.17,-0.205C0.17,-0.164 0.182,-0.131 0.205,-0.107C0.228,-0.082 0.26,-0.07 0.3,-0.07C0.34,-0.07 0.372,-0.082 0.395,-0.107C0.418,-0.131 0.43,-0.164 0.43,-0.205L0.43,-0.515C0.43,-0.556 0.418,-0.589 0.395,-0.614C0.372,-0.638 0.34,-0.65 0.3,-0.65C0.26,-0.65 0.228,-0.638 0.205,-0.614C0.182,-0.589 0.17,-0.556 0.17,-0.515L0.17,-0.205ZM0.08,-0.205L0.08,-0.515C0.08,-0.548 0.085,-0.577 0.096,-0.604C0.106,-0.631 0.121,-0.653 0.14,-0.672C0.159,-0.691 0.182,-0.705 0.209,-0.715C0.236,-0.725 0.266,-0.73 0.3,-0.73C0.334,-0.73 0.365,-0.725 0.392,-0.715C0.419,-0.705 0.442,-0.691 0.461,-0.672C0.48,-0.653 0.494,-0.631 0.505,-0.604C0.515,-0.577 0.52,-0.548 0.52,-0.515L0.52,-0.205C0.52,-0.172 0.515,-0.143 0.505,-0.117C0.494,-0.09 0.48,-0.068 0.461,-0.049C0.442,-0.03 0.418,-0.016 0.391,-0.006C0.364,0.005 0.333,0.01 0.3,0.01C0.266,0.01 0.236,0.005 0.209,-0.005C0.182,-0.015 0.159,-0.029 0.14,-0.048C0.121,-0.067 0.106,-0.089 0.096,-0.116C0.085,-0.143 0.08,-0.172 0.08,-0.205Z" style="fill-rule:nonzero;"/>
            </g>
            <g transform="matrix(20,0,0,20,375.104,781.874)">
                <path d="M0.25,-0.405C0.25,-0.422 0.255,-0.435 0.264,-0.445C0.273,-0.455 0.285,-0.46 0.3,-0.46C0.315,-0.46 0.328,-0.455 0.337,-0.445C0.346,-0.435 0.35,-0.422 0.35,-0.405L0.35,-0.305C0.35,-0.288 0.346,-0.275 0.337,-0.265C0.328,-0.255 0.315,-0.25 0.3,-0.25C0.285,-0.25 0.273,-0.255 0.264,-0.265C0.255,-0.275 0.25,-0.288 0.25,-0.305L0.25,-0.405ZM0.17,-0.205C0.17,-0.164 0.182,-0.131 0.205,-0.107C0.228,-0.082 0.26,-0.07 0.3,-0.07C0.34,-0.07 0.372,-0.082 0.395,-0.107C0.418,-0.131 0.43,-0.164 0.43,-0.205L0.43,-0.515C0.43,-0.556 0.418,-0.589 0.395,-0.614C0.372,-0.638 0.34,-0.65 0.3,-0.65C0.26,-0.65 0.228,-0.638 0.205,-0.614C0.182,-0.589 0.17,-0.556 0.17,-0.515L0.17,-0.205ZM0.08,-0.205L0.08,-0.515C0.08,-0.548 0.085,-0.577 0.096,-0.604C0.106,-0.631 0.121,-0.653 0.14,-0.672C0.159,-0.691 0.182,-0.705 0.209,-0.715C0.236,-0.725 0.266,-0.73 0.3,-0.73C0.334,-0.73 0.365,-0.725 0.392,-0.715C0.419,-0.705 0.442,-0.691 0.461,-0.672C0.48,-0.653 0.494,-0.631 0.505,-0.604C0.515,-0.577 0.52,-0.548 0.52,-0.515L0.52,-0.205C0.52,-0.172 0.515,-0.143 0.505,-0.117C0.494,-0.09 0.48,-0.068 0.461,-0.049C0.442,-0.03 0.418,-0.016 0.391,-0.006C0.364,0.005 0.333,0.01 0.3,0.01C0.266,0.01 0.236,0.005 0.209,-0.005C0.182,-0.015 0.159,-0.029 0.14,-0.048C0.121,-0.067 0.106,-0.089 0.096,-0.116C0.085,-0.143 0.08,-0.172 0.08,-0.205Z" style="fill-rule:nonzero;"/>
            </g>
            <g transform="matrix(20,0,0,20,387.104,781.874)">
                <path d="M0.25,-0.405C0.25,-0.422 0.255,-0.435 0.264,-0.445C0.273,-0.455 0.285,-0.46 0.3,-0.46C0.315,-0.46 0.328,-0.455 0.337,-0.445C0.346,-0.435 0.35,-0.422 0.35,-0.405L0.35,-0.305C0.35,-0.288 0.346,-0.275 0.337,-0.265C0.328,-0.255 0.315,-0.25 0.3,-0.25C0.285,-0.25 0.273,-0.255 0.264,-0.265C0.255,-0.275 0.25,-0.288 0.25,-0.305L0.25,-0.405ZM0.17,-0.205C0.17,-0.164 0.182,-0.131 0.205,-0.107C0.228,-0.082 0.26,-0.07 0.3,-0.07C0.34,-0.07 0.372,-0.082 0.395,-0.107C0.418,-0.131 0.43,-0.164 0.43,-0.205L0.43,-0.515C0.43,-0.556 0.418,-0.589 0.395,-0.614C0.372,-0.638 0.34,-0.65 0.3,-0.65C0.26,-0.65 0.228,-0.638 0.205,-0.614C0.182,-0.589 0.17,-0.556 0.17,-0.515L0.17,-0.205ZM0.08,-0.205L0.08,-0.515C0.08,-0.548 0.085,-0.577 0.096,-0.604C0.106,-0.631 0.121,-0.653 0.14,-0.672C0.159,-0.691 0.182,-0.705 0.209,-0.715C0.236,-0.725 0.266,-0.73 0.3,-0.73C0.334,-0.73 0.365,-0.725 0.392,-0.715C0.419,-0.705 0.442,-0.691 0.461,-0.672C0.48,-0.653 0.494,-0.631 0.505,-0.604C0.515,-0.577 0.52,-0.548 0.52,-0.515L0.52,-0.205C0.52,-0.172 0.515,-0.143 0.505,-0.117C0.494,-0.09 0.48,-0.068 0.461,-0.049C0.442,-0.03 0.418,-0.016 0.391,-0.006C0.364,0.005 0.333,0.01 0.3,0.01C0.266,0.01 0.236,0.005 0.209,-0.005C0.182,-0.015 0.159,-0.029 0.14,-0.048C0.121,-0.067 0.106,-0.089 0.096,-0.116C0.085,-0.143 0.08,-0.172 0.08,-0.205Z" style="fill-rule:nonzero;"/>
            </g>
        </g>
        <g transform="matrix(1,0,0,1,1072.43,32.6)">
            <g transform="matrix(20,0,0,20,327.104,781.874)">
                <path d="M0.09,-0.08L0.283,-0.08L0.283,-0.585C0.283,-0.59 0.284,-0.617 0.284,-0.623C0.284,-0.629 0.284,-0.634 0.285,-0.639C0.285,-0.643 0.285,-0.645 0.285,-0.645L0.283,-0.645C0.278,-0.641 0.274,-0.637 0.269,-0.634C0.265,-0.631 0.261,-0.627 0.257,-0.624C0.252,-0.621 0.248,-0.618 0.244,-0.615L0.103,-0.519L0.103,-0.61L0.258,-0.72L0.373,-0.72L0.373,-0.08L0.535,-0.08L0.535,-0L0.09,-0L0.09,-0.08Z" style="fill-rule:nonzero;"/>
            </g>
            <g transform="matrix(20,0,0,20,339.104,781.874)">
                <path d="M0.513,-0.53C0.513,-0.476 0.498,-0.424 0.469,-0.374C0.439,-0.323 0.392,-0.27 0.327,-0.214L0.206,-0.109C0.203,-0.106 0.199,-0.104 0.195,-0.101C0.191,-0.098 0.187,-0.096 0.183,-0.093C0.178,-0.09 0.173,-0.087 0.168,-0.084L0.168,-0.08C0.179,-0.081 0.189,-0.081 0.199,-0.081C0.208,-0.082 0.218,-0.082 0.228,-0.082L0.52,-0.082L0.52,-0L0.07,-0L0.07,-0.1L0.26,-0.263C0.289,-0.288 0.313,-0.311 0.334,-0.333C0.354,-0.355 0.37,-0.377 0.383,-0.398C0.396,-0.419 0.405,-0.441 0.411,-0.462C0.417,-0.483 0.42,-0.506 0.42,-0.529C0.42,-0.566 0.409,-0.596 0.387,-0.618C0.364,-0.639 0.334,-0.65 0.296,-0.65C0.254,-0.65 0.221,-0.639 0.196,-0.617C0.171,-0.595 0.158,-0.566 0.158,-0.53L0.065,-0.53C0.066,-0.56 0.073,-0.587 0.084,-0.612C0.095,-0.637 0.111,-0.658 0.132,-0.675C0.152,-0.692 0.176,-0.706 0.204,-0.716C0.231,-0.725 0.262,-0.73 0.296,-0.73C0.329,-0.73 0.359,-0.725 0.386,-0.716C0.413,-0.707 0.435,-0.693 0.454,-0.676C0.473,-0.659 0.487,-0.638 0.498,-0.613C0.508,-0.588 0.513,-0.561 0.513,-0.53Z" style="fill-rule:nonzero;"/>
            </g>
            <g transform="matrix(20,0,0,20,351.104,781.874)">
                <path d="M0.165,-0.638L0.165,-0.53L0.075,-0.53L0.075,-0.72L0.525,-0.72L0.525,-0.618L0.272,-0L0.171,-0L0.414,-0.574C0.419,-0.585 0.423,-0.595 0.427,-0.602C0.43,-0.609 0.433,-0.615 0.436,-0.62C0.439,-0.626 0.442,-0.631 0.445,-0.634L0.445,-0.64C0.434,-0.639 0.424,-0.639 0.414,-0.639C0.405,-0.639 0.371,-0.638 0.364,-0.638L0.165,-0.638Z" style="fill-rule:nonzero;"/>
            </g>
            <g transform="matrix(20,0,0,20,363.104,781.874)">
                <path d="M0.375,-0.151L0.245,0.16L0.165,0.16L0.245,-0.151L0.375,-0.151Z" style="fill-rule:nonzero;"/>
            </g>
            <g transform="matrix(20,0,0,20,375.104,781.874)">
                <path d="M0.331,-0.46C0.392,-0.46 0.439,-0.441 0.474,-0.404C0.508,-0.366 0.525,-0.315 0.525,-0.25L0.525,-0.2C0.525,-0.168 0.52,-0.139 0.509,-0.113C0.498,-0.087 0.483,-0.065 0.464,-0.047C0.444,-0.029 0.42,-0.015 0.392,-0.005C0.364,0.005 0.333,0.01 0.298,0.01C0.237,0.01 0.186,-0.005 0.147,-0.034C0.108,-0.063 0.084,-0.101 0.075,-0.15L0.17,-0.15C0.177,-0.126 0.191,-0.107 0.214,-0.092C0.236,-0.077 0.264,-0.07 0.299,-0.07C0.34,-0.07 0.372,-0.082 0.396,-0.105C0.42,-0.128 0.432,-0.16 0.432,-0.2L0.432,-0.25C0.432,-0.29 0.42,-0.322 0.396,-0.345C0.372,-0.368 0.339,-0.38 0.298,-0.38C0.247,-0.38 0.209,-0.362 0.184,-0.325L0.092,-0.325L0.097,-0.72L0.493,-0.72L0.493,-0.638L0.184,-0.638L0.181,-0.384L0.187,-0.384C0.193,-0.398 0.202,-0.411 0.215,-0.422C0.226,-0.431 0.24,-0.44 0.259,-0.448C0.277,-0.456 0.301,-0.46 0.331,-0.46Z" style="fill-rule:nonzero;"/>
            </g>
            <g transform="matrix(20,0,0,20,387.104,781.874)">
                <path d="M0.25,-0.405C0.25,-0.422 0.255,-0.435 0.264,-0.445C0.273,-0.455 0.285,-0.46 0.3,-0.46C0.315,-0.46 0.328,-0.455 0.337,-0.445C0.346,-0.435 0.35,-0.422 0.35,-0.405L0.35,-0.305C0.35,-0.288 0.346,-0.275 0.337,-0.265C0.328,-0.255 0.315,-0.25 0.3,-0.25C0.285,-0.25 0.273,-0.255 0.264,-0.265C0.255,-0.275 0.25,-0.288 0.25,-0.305L0.25,-0.405ZM0.17,-0.205C0.17,-0.164 0.182,-0.131 0.205,-0.107C0.228,-0.082 0.26,-0.07 0.3,-0.07C0.34,-0.07 0.372,-0.082 0.395,-0.107C0.418,-0.131 0.43,-0.164 0.43,-0.205L0.43,-0.515C0.43,-0.556 0.418,-0.589 0.395,-0.614C0.372,-0.638 0.34,-0.65 0.3,-0.65C0.26,-0.65 0.228,-0.638 0.205,-0.614C0.182,-0.589 0.17,-0.556 0.17,-0.515L0.17,-0.205ZM0.08,-0.205L0.08,-0.515C0.08,-0.548 0.085,-0.577 0.096,-0.604C0.106,-0.631 0.121,-0.653 0.14,-0.672C0.159,-0.691 0.182,-0.705 0.209,-0.715C0.236,-0.725 0.266,-0.73 0.3,-0.73C0.334,-0.73 0.365,-0.725 0.392,-0.715C0.419,-0.705 0.442,-0.691 0.461,-0.672C0.48,-0.653 0.494,-0.631 0.505,-0.604C0.515,-0.577 0.52,-0.548 0.52,-0.515L0.52,-0.205C0.52,-0.172 0.515,-0.143 0.505,-0.117C0.494,-0.09 0.48,-0.068 0.461,-0.049C0.442,-0.03 0.418,-0.016 0.391,-0.006C0.364,0.005 0.333,0.01 0.3,0.01C0.266,0.01 0.236,0.005 0.209,-0.005C0.182,-0.015 0.159,-0.029 0.14,-0.048C0.121,-0.067 0.106,-0.089 0.096,-0.116C0.085,-0.143 0.08,-0.172 0.08,-0.205Z" style="fill-rule:nonzero;"/>
            </g>
            <g transform="matrix(20,0,0,20,399.104,781.874)">
                <path d="M0.25,-0.405C0.25,-0.422 0.255,-0.435 0.264,-0.445C0.273,-0.455 0.285,-0.46 0.3,-0.46C0.315,-0.46 0.328,-0.455 0.337,-0.445C0.346,-0.435 0.35,-0.422 0.35,-0.405L0.35,-0.305C0.35,-0.288 0.346,-0.275 0.337,-0.265C0.328,-0.255 0.315,-0.25 0.3,-0.25C0.285,-0.25 0.273,-0.255 0.264,-0.265C0.255,-0.275 0.25,-0.288 0.25,-0.305L0.25,-0.405ZM0.17,-0.205C0.17,-0.164 0.182,-0.131 0.205,-0.107C0.228,-0.082 0.26,-0.07 0.3,-0.07C0.34,-0.07 0.372,-0.082 0.395,-0.107C0.418,-0.131 0.43,-0.164 0.43,-0.205L0.43,-0.515C0.43,-0.556 0.418,-0.589 0.395,-0.614C0.372,-0.638 0.34,-0.65 0.3,-0.65C0.26,-0.65 0.228,-0.638 0.205,-0.614C0.182,-0.589 0.17,-0.556 0.17,-0.515L0.17,-0.205ZM0.08,-0.205L0.08,-0.515C0.08,-0.548 0.085,-0.577 0.096,-0.604C0.106,-0.631 0.121,-0.653 0.14,-0.672C0.159,-0.691 0.182,-0.705 0.209,-0.715C0.236,-0.725 0.266,-0.73 0.3,-0.73C0.334,-0.73 0.365,-0.725 0.392,-0.715C0.419,-0.705 0.442,-0.691 0.461,-0.672C0.48,-0.653 0.494,-0.631 0.505,-0.604C0.515,-0.577 0.52,-0.548 0.52,-0.515L0.52,-0.205C0.52,-0.172 0.515,-0.143 0.505,-0.117C0.494,-0.09 0.48,-0.068 0.461,-0.049C0.442,-0.03 0.418,-0.016 0.391,-0.006C0.364,0.005 0.333,0.01 0.3,0.01C0.266,0.01 0.236,0.005 0.209,-0.005C0.182,-0.015 0.159,-0.029 0.14,-0.048C0.121,-0.067 0.106,-0.089 0.096,-0.116C0.085,-0.143 0.08,-0.172 0.08,-0.205Z" style="fill-rule:nonzero;"/>
            </g>
        </g>
        <g transform="matrix(1,0,0,1,1446.44,32.6)">
            <g transform="matrix(20,0,0,20,327.104,781.874)">
                <path d="M0.09,-0.08L0.283,-0.08L0.283,-0.585C0.283,-0.59 0.284,-0.617 0.284,-0.623C0.284,-0.629 0.284,-0.634 0.285,-0.639C0.285,-0.643 0.285,-0.645 0.285,-0.645L0.283,-0.645C0.278,-0.641 0.274,-0.637 0.269,-0.634C0.265,-0.631 0.261,-0.627 0.257,-0.624C0.252,-0.621 0.248,-0.618 0.244,-0.615L0.103,-0.519L0.103,-0.61L0.258,-0.72L0.373,-0.72L0.373,-0.08L0.535,-0.08L0.535,-0L0.09,-0L0.09,-0.08Z" style="fill-rule:nonzero;"/>
            </g>
            <g transform="matrix(20,0,0,20,339.104,781.874)">
                <path d="M0.165,-0.638L0.165,-0.53L0.075,-0.53L0.075,-0.72L0.525,-0.72L0.525,-0.618L0.272,-0L0.171,-0L0.414,-0.574C0.419,-0.585 0.423,-0.595 0.427,-0.602C0.43,-0.609 0.433,-0.615 0.436,-0.62C0.439,-0.626 0.442,-0.631 0.445,-0.634L0.445,-0.64C0.434,-0.639 0.424,-0.639 0.414,-0.639C0.405,-0.639 0.371,-0.638 0.364,-0.638L0.165,-0.638Z" style="fill-rule:nonzero;"/>
            </g>
            <g transform="matrix(20,0,0,20,351.104,781.874)">
                <path d="M0.25,-0.405C0.25,-0.422 0.255,-0.435 0.264,-0.445C0.273,-0.455 0.285,-0.46 0.3,-0.46C0.315,-0.46 0.328,-0.455 0.337,-0.445C0.346,-0.435 0.35,-0.422 0.35,-0.405L0.35,-0.305C0.35,-0.288 0.346,-0.275 0.337,-0.265C0.328,-0.255 0.315,-0.25 0.3,-0.25C0.285,-0.25 0.273,-0.255 0.264,-0.265C0.255,-0.275 0.25,-0.288 0.25,-0.305L0.25,-0.405ZM0.17,-0.205C0.17,-0.164 0.182,-0.131 0.205,-0.107C0.228,-0.082 0.26,-0.07 0.3,-0.07C0.34,-0.07 0.372,-0.082 0.395,-0.107C0.418,-0.131 0.43,-0.164 0.43,-0.205L0.43,-0.515C0.43,-0.556 0.418,-0.589 0.395,-0.614C0.372,-0.638 0.34,-0.65 0.3,-0.65C0.26,-0.65 0.228,-0.638 0.205,-0.614C0.182,-0.589 0.17,-0.556 0.17,-0.515L0.17,-0.205ZM0.08,-0.205L0.08,-0.515C0.08,-0.548 0.085,-0.577 0.096,-0.604C0.106,-0.631 0.121,-0.653 0.14,-0.672C0.159,-0.691 0.182,-0.705 0.209,-0.715C0.236,-0.725 0.266,-0.73 0.3,-0.73C0.334,-0.73 0.365,-0.725 0.392,-0.715C0.419,-0.705 0.442,-0.691 0.461,-0.672C0.48,-0.653 0.494,-0.631 0.505,-0.604C0.515,-0.577 0.52,-0.548 0.52,-0.515L0.52,-0.205C0.52,-0.172 0.515,-0.143 0.505,-0.117C0.494,-0.09 0.48,-0.068 0.461,-0.049C0.442,-0.03 0.418,-0.016 0.391,-0.006C0.364,0.005 0.333,0.01 0.3,0.01C0.266,0.01 0.236,0.005 0.209,-0.005C0.182,-0.015 0.159,-0.029 0.14,-0.048C0.121,-0.067 0.106,-0.089 0.096,-0.116C0.085,-0.143 0.08,-0.172 0.08,-0.205Z" style="fill-rule:nonzero;"/>
            </g>
            <g transform="matrix(20,0,0,20,363.104,781.874)">
                <path d="M0.375,-0.151L0.245,0.16L0.165,0.16L0.245,-0.151L0.375,-0.151Z" style="fill-rule:nonzero;"/>
            </g>
            <g transform="matrix(20,0,0,20,375.104,781.874)">
                <path d="M0.25,-0.405C0.25,-0.422 0.255,-0.435 0.264,-0.445C0.273,-0.455 0.285,-0.46 0.3,-0.46C0.315,-0.46 0.328,-0.455 0.337,-0.445C0.346,-0.435 0.35,-0.422 0.35,-0.405L0.35,-0.305C0.35,-0.288 0.346,-0.275 0.337,-0.265C0.328,-0.255 0.315,-0.25 0.3,-0.25C0.285,-0.25 0.273,-0.255 0.264,-0.265C0.255,-0.275 0.25,-0.288 0.25,-0.305L0.25,-0.405ZM0.17,-0.205C0.17,-0.164 0.182,-0.131 0.205,-0.107C0.228,-0.082 0.26,-0.07 0.3,-0.07C0.34,-0.07 0.372,-0.082 0.395,-0.107C0.418,-0.131 0.43,-0.164 0.43,-0.205L0.43,-0.515C0.43,-0.556 0.418,-0.589 0.395,-0.614C0.372,-0.638 0.34,-0.65 0.3,-0.65C0.26,-0.65 0.228,-0.638 0.205,-0.614C0.182,-0.589 0.17,-0.556 0.17,-0.515L0.17,-0.205ZM0.08,-0.205L0.08,-0.515C0.08,-0.548 0.085,-0.577 0.096,-0.604C0.106,-0.631 0.121,-0.653 0.14,-0.672C0.159,-0.691 0.182,-0.705 0.209,-0.715C0.236,-0.725 0.266,-0.73 0.3,-0.73C0.334,-0.73 0.365,-0.725 0.392,-0.715C0.419,-0.705 0.442,-0.691 0.461,-0.672C0.48,-0.653 0.494,-0.631 0.505,-0.604C0.515,-0.577 0.52,-0.548 0.52,-0.515L0.52,-0.205C0.52,-0.172 0.515,-0.143 0.505,-0.117C0.494,-0.09 0.48,-0.068 0.461,-0.049C0.442,-0.03 0.418,-0.016 0.391,-0.006C0.364,0.005 0.333,0.01 0.3,0.01C0.266,0.01 0.236,0.005 0.209,-0.005C0.182,-0.015 0.159,-0.029 0.14,-0.048C0.121,-0.067 0.106,-0.089 0.096,-0.116C0.085,-0.143 0.08,-0.172 0.08,-0.205Z" style="fill-rule:nonzero;"/>
            </g>
            <g transform="matrix(20,0,0,20,387.104,781.874)">
                <path d="M0.25,-0.405C0.25,-0.422 0.255,-0.435 0.264,-0.445C0.273,-0.455 0.285,-0.46 0.3,-0.46C0.315,-0.46 0.328,-0.455 0.337,-0.445C0.346,-0.435 0.35,-0.422 0.35,-0.405L0.35,-0.305C0.35,-0.288 0.346,-0.275 0.337,-0.265C0.328,-0.255 0.315,-0.25 0.3,-0.25C0.285,-0.25 0.273,-0.255 0.264,-0.265C0.255,-0.275 0.25,-0.288 0.25,-0.305L0.25,-0.405ZM0.17,-0.205C0.17,-0.164 0.182,-0.131 0.205,-0.107C0.228,-0.082 0.26,-0.07 0.3,-0.07C0.34,-0.07 0.372,-0.082 0.395,-0.107C0.418,-0.131 0.43,-0.164 0.43,-0.205L0.43,-0.515C0.43,-0.556 0.418,-0.589 0.395,-0.614C0.372,-0.638 0.34,-0.65 0.3,-0.65C0.26,-0.65 0.228,-0.638 0.205,-0.614C0.182,-0.589 0.17,-0.556 0.17,-0.515L0.17,-0.205ZM0.08,-0.205L0.08,-0.515C0.08,-0.548 0.085,-0.577 0.096,-0.604C0.106,-0.631 0.121,-0.653 0.14,-0.672C0.159,-0.691 0.182,-0.705 0.209,-0.715C0.236,-0.725 0.266,-0.73 0.3,-0.73C0.334,-0.73 0.365,-0.725 0.392,-0.715C0.419,-0.705 0.442,-0.691 0.461,-0.672C0.48,-0.653 0.494,-0.631 0.505,-0.604C0.515,-0.577 0.52,-0.548 0.52,-0.515L0.52,-0.205C0.52,-0.172 0.515,-0.143 0.505,-0.117C0.494,-0.09 0.48,-0.068 0.461,-0.049C0.442,-0.03 0.418,-0.016 0.391,-0.006C0.364,0.005 0.333,0.01 0.3,0.01C0.266,0.01 0.236,0.005 0.209,-0.005C0.182,-0.015 0.159,-0.029 0.14,-0.048C0.121,-0.067 0.106,-0.089 0.096,-0.116C0.085,-0.143 0.08,-0.172 0.08,-0.205Z" style="fill-rule:nonzero;"/>
            </g>
            <g transform="matrix(20,0,0,20,399.104,781.874)">
                <path d="M0.25,-0.405C0.25,-0.422 0.255,-0.435 0.264,-0.445C0.273,-0.455 0.285,-0.46 0.3,-0.46C0.315,-0.46 0.328,-0.455 0.337,-0.445C0.346,-0.435 0.35,-0.422 0.35,-0.405L0.35,-0.305C0.35,-0.288 0.346,-0.275 0.337,-0.265C0.328,-0.255 0.315,-0.25 0.3,-0.25C0.285,-0.25 0.273,-0.255 0.264,-0.265C0.255,-0.275 0.25,-0.288 0.25,-0.305L0.25,-0.405ZM0.17,-0.205C0.17,-0.164 0.182,-0.131 0.205,-0.107C0.228,-0.082 0.26,-0.07 0.3,-0.07C0.34,-0.07 0.372,-0.082 0.395,-0.107C0.418,-0.131 0.43,-0.164 0.43,-0.205L0.43,-0.515C0.43,-0.556 0.418,-0.589 0.395,-0.614C0.372,-0.638 0.34,-0.65 0.3,-0.65C0.26,-0.65 0.228,-0.638 0.205,-0.614C0.182,-0.589 0.17,-0.556 0.17,-0.515L0.17,-0.205ZM0.08,-0.205L0.08,-0.515C0.08,-0.548 0.085,-0.577 0.096,-0.604C0.106,-0.631 0.121,-0.653 0.14,-0.672C0.159,-0.691 0.182,-0.705 0.209,-0.715C0.236,-0.725 0.266,-0.73 0.3,-0.73C0.334,-0.73 0.365,-0.725 0.392,-0.715C0.419,-0.705 0.442,-0.691 0.461,-0.672C0.48,-0.653 0.494,-0.631 0.505,-0.604C0.515,-0.577 0.52,-0.548 0.52,-0.515L0.52,-0.205C0.52,-0.172 0.515,-0.143 0.505,-0.117C0.494,-0.09 0.48,-0.068 0.461,-0.049C0.442,-0.03 0.418,-0.016 0.391,-0.006C0.364,0.005 0.333,0.01 0.3,0.01C0.266,0.01 0.236,0.005 0.209,-0.005C0.182,-0.015 0.159,-0.029 0.14,-0.048C0.121,-0.067 0.106,-0.089 0.096,-0.116C0.085,-0.143 0.08,-0.172 0.08,-0.205Z" style="fill-rule:nonzero;"/>
            </g>
        </g>
    </g>
</svg>
