<?xml version="1.0" encoding="UTF-8" standalone="no"?>
<!DOCTYPE svg PUBLIC "-//W3C//DTD SVG 1.1//EN" "http://www.w3.org/Graphics/SVG/1.1/DTD/svg11.dtd">
<svg width="100%" height="100%" viewBox="0 0 2800 2800" version="1.1" xmlns="http://www.w3.org/2000/svg" xmlns:xlink="http://www.w3.org/1999/xlink" xml:space="preserve" xmlns:serif="http://www.serif.com/" style="fill-rule:evenodd;clip-rule:evenodd;stroke-linejoin:round;stroke-miterlimit:2;fill:#aaa;">
    <g id="AREA" transform="matrix(1,0,0,1,-165.062,-154.17)">
        <g transform="matrix(4.57962,0,0,4.57962,0,-1.25358)">
            <g>
                <g transform="matrix(1,0,0,1,0,-254.65)">
                    <g>
                        <path d="M328,560L328,350L327.987,350L328,560Z" style="fill:rgb(137,144,153);fill-rule:nonzero;"/>
                    </g>
                </g>
                <g transform="matrix(1,0,0,1,0,-252.65)">
                    <g>
                        <path d="M324,559L323.987,349C298.401,349.002 273.032,353.679 249.128,362.801L324,559Z" style="fill:rgb(102,109,116);fill-rule:nonzero;"/>
                    </g>
                </g>
                <g transform="matrix(1,0,0,1,0,-226.849)">
                    <g>
                        <path d="M312,539.199L237.128,343C182.085,364.005 138.397,407.166 116.725,461.95L312,539.199Z" style="fill:rgb(50,50,50);fill-rule:nonzero;"/>
                    </g>
                </g>
                <g transform="matrix(1,0,0,1,0,-87.8994)">
                    <g>
                        <path d="M307,410.25L111.725,333C106.055,347.332 101.981,362.244 99.575,377.467L307,410.25Z" style="fill:rgb(141,147,159);fill-rule:nonzero;"/>
                    </g>
                </g>
                <g transform="matrix(1,0,0,1,0,183.377)">
                    <g>
                        <path d="M309,154.973L101.575,122.19C86.299,218.846 139.806,313.242 230.583,349.782L309,154.973Z" style="fill:rgb(29,29,30);fill-rule:nonzero;"/>
                    </g>
                </g>
                <g transform="matrix(-0.373415,0.927664,0.927664,0.373415,375.239,24.0151)">
                    <g>
                        <path d="M313.852,86.192L523.852,86.192C523.852,202.172 429.832,296.192 313.852,296.192C303.709,296.192 293.579,295.458 283.542,293.993L313.852,86.192Z" style="fill:rgb(167,171,175);fill-rule:nonzero;"/>
                    </g>
                </g>
                <g transform="matrix(1,0,0,1,0,56.8287)">
                    <g>
                        <path d="M343,274.521L547.088,324C547.171,323.658 547.253,323.316 547.334,322.973L343,274.521Z" style="fill:rgb(121,128,137);fill-rule:nonzero;"/>
                    </g>
                </g>
                <g transform="matrix(-0.211657,-0.977344,0.977344,-0.211657,136.5,701.34)">
                    <g>
                        <path d="M343,274.521L547.088,324C547.171,323.658 547.253,323.316 547.334,322.973L343,274.521Z" style="fill:rgb(121,128,137);fill-rule:nonzero;"/>
                    </g>
                </g>
                <g transform="matrix(0.97302,0.230723,0.230723,-0.97302,-84.8871,537.712)">
                    <g>
                        <path d="M366.754,316.52L576.754,316.52C576.754,432.5 482.734,526.52 366.754,526.52C350.438,526.52 334.178,524.619 318.302,520.854L366.754,316.52Z" style="fill:rgb(82,88,95);fill-rule:nonzero;"/>
                    </g>
                </g>
            </g>
        </g>
        <g transform="matrix(4.57962,0,0,4.57962,1417.06,332.788)">
            <g>
                <text x="0px" y="0px" style="font-family:'HelveticaNeue-Bold', 'Helvetica Neue';font-weight:700;font-size:13px;">Monaco</text>
            </g>
        </g>
        <g transform="matrix(4.57962,0,0,4.57962,1428.01,404.336)">
            <g>
                <text x="0px" y="0px" style="font-family:'HelveticaNeue-Bold', 'Helvetica Neue';font-weight:700;font-size:13px;">0.001%</text>
            </g>
        </g>
        <g transform="matrix(4.57962,0,0,4.57962,1204.46,576.534)">
            <g>
                <text x="0px" y="0px" style="font-family:'HelveticaNeue-Bold', 'Helvetica Neue';font-weight:700;font-size:13px;fill:white;">Germany</text>
            </g>
        </g>
        <g transform="matrix(4.57962,0,0,4.57962,1261.74,648.082)">
            <g>
                <text x="0px" y="0px" style="font-family:'HelveticaNeue-Bold', 'Helvetica Neue';font-weight:700;font-size:13px;fill:white;">5.8%</text>
            </g>
        </g>
        <g transform="matrix(4.57962,0,0,4.57962,785.185,930.736)">
            <g>
                <text x="0px" y="0px" style="font-family:'HelveticaNeue-Bold', 'Helvetica Neue';font-weight:700;font-size:13px;fill:white;">Switzerland</text>
            </g>
        </g>
        <g transform="matrix(4.57962,0,0,4.57962,863.918,1002.28)">
            <g>
                <text x="0px" y="0px" style="font-family:'HelveticaNeue-Bold', 'Helvetica Neue';font-weight:700;font-size:13px;fill:white;">13.2%</text>
            </g>
        </g>
        <g transform="matrix(4.57962,0,0,4.57962,206.454,1165.67)">
            <g>
                <text x="0px" y="0px" style="font-family:'HelveticaNeue-Bold', 'Helvetica Neue';font-weight:700;font-size:13px;">Slovenia</text>
            </g>
        </g>
        <g transform="matrix(4.57962,0,0,4.57962,255.483,1237.22)">
            <g>
                <text x="0px" y="0px" style="font-family:'HelveticaNeue-Bold', 'Helvetica Neue';font-weight:700;font-size:13px;">3.5%</text>
            </g>
        </g>
        <g transform="matrix(4.57962,0,0,4.57962,753.462,1854.34)">
            <g>
                <text x="0px" y="0px" style="font-family:'HelveticaNeue-Bold', 'Helvetica Neue';font-weight:700;font-size:13px;fill:white;">France</text>
            </g>
        </g>
        <g transform="matrix(4.57962,0,0,4.57962,763.913,1925.89)">
            <g>
                <text x="0px" y="0px" style="font-family:'HelveticaNeue-Bold', 'Helvetica Neue';font-weight:700;font-size:13px;fill:white;">21.4%</text>
            </g>
        </g>
        <g transform="matrix(4.57962,0,0,4.57962,1782.43,2149.86)">
            <g>
                <text x="0px" y="0px" style="font-family:'HelveticaNeue-Bold', 'Helvetica Neue';font-weight:700;font-size:13px;fill:white;">Italy</text>
            </g>
        </g>
        <g transform="matrix(4.57962,0,0,4.57962,1754.21,2221.41)">
            <g>
                <text x="0px" y="0px" style="font-family:'HelveticaNeue-Bold', 'Helvetica Neue';font-weight:700;font-size:13px;fill:white;">27.3%</text>
            </g>
        </g>
        <g transform="matrix(4.57962,0,0,4.57962,2524.01,1741.08)">
            <g>
                <text x="0px" y="0px" style="font-family:'HelveticaNeue-Bold', 'Helvetica Neue';font-weight:700;font-size:13px;">Liechtenstein</text>
            </g>
        </g>
        <g transform="matrix(4.57962,0,0,4.57962,2627.57,1812.63)">
            <g>
                <text x="0px" y="0px" style="font-family:'HelveticaNeue-Bold', 'Helvetica Neue';font-weight:700;font-size:13px;">0.08%</text>
            </g>
        </g>
        <g transform="matrix(4.57962,0,0,4.57962,1985,1023.77)">
            <g>
                <text x="0px" y="0px" style="font-family:'HelveticaNeue-Bold', 'Helvetica Neue';font-weight:700;font-size:13px;fill:white;">Austria</text>
            </g>
        </g>
        <g transform="matrix(4.57962,0,0,4.57962,1998.16,1095.31)">
            <g>
                <text x="0px" y="0px" style="font-family:'HelveticaNeue-Bold', 'Helvetica Neue';font-weight:700;font-size:13px;fill:white;">28.7%</text>
            </g>
        </g>
    </g>
</svg>
