<?xml version="1.0" encoding="UTF-8" standalone="no"?>
<!DOCTYPE svg PUBLIC "-//W3C//DTD SVG 1.1//EN" "http://www.w3.org/Graphics/SVG/1.1/DTD/svg11.dtd">
<svg width="100%" height="100%" viewBox="0 0 1700 760" version="1.1" xmlns="http://www.w3.org/2000/svg" xmlns:xlink="http://www.w3.org/1999/xlink" xml:space="preserve" xmlns:serif="http://www.serif.com/" style="fill-rule:evenodd;clip-rule:evenodd;">
    <g transform="matrix(1,0,0,1,-173.18,-196.794)">
        <g transform="matrix(0,2.64109,-2.5661,0,1094.8,-219.757)">
            <path d="M158.5,135.441L406.5,135.441" style="fill:none;fill-rule:nonzero;stroke:black;stroke-width:0.38px;"/>
        </g>
        <g transform="matrix(0,2.64109,-2.5661,0,1461.75,-597.433)">
            <path d="M301.5,135.441L549.5,135.441" style="fill:none;fill-rule:nonzero;stroke:black;stroke-width:0.38px;"/>
        </g>
        <g transform="matrix(0,2.64109,-2.5661,0,1826.13,-972.468)">
            <path d="M443.5,135.441L691.5,135.441" style="fill:none;fill-rule:nonzero;stroke:black;stroke-width:0.38px;"/>
        </g>
        <g transform="matrix(0,2.64109,-2.5661,0,2193.08,-1350.14)">
            <path d="M586.5,135.441L834.5,135.441" style="fill:none;fill-rule:nonzero;stroke:black;stroke-width:0.38px;"/>
        </g>
        <g transform="matrix(0,-2.64109,2.5661,0,36.3014,897.423)">
            <path d="M17,135.441L264,135.441" style="fill:none;fill-rule:nonzero;stroke:black;stroke-width:0.38px;stroke-linecap:square;"/>
        </g>
        <g transform="matrix(5.91771,-3.62355e-16,3.52067e-16,5.74968,283.254,62.6706)">
            <path d="M17,135.441L264,135.441" style="fill:none;fill-rule:nonzero;stroke:black;stroke-width:0.17px;stroke-linecap:square;"/>
        </g>
        <g transform="matrix(2.5661,0,0,-2.64109,384.139,264.882)">
            <g>
                <rect x="0" y="0" width="494" height="20"/>
            </g>
        </g>
        <g transform="matrix(2.5661,0,0,-2.64109,384.139,336.192)">
            <g>
                <rect x="0" y="0" width="353" height="20" style="fill:rgb(17,17,17);"/>
            </g>
        </g>
        <g transform="matrix(2.5661,0,0,-2.64109,384.139,407.501)">
            <g>
                <rect x="0" y="0" width="280" height="19" style="fill:rgb(34,34,34);"/>
            </g>
        </g>
        <g transform="matrix(2.5661,0,0,-2.64109,384.139,478.811)">
            <g>
                <rect x="0" y="0" width="270" height="19" style="fill:rgb(51,51,51);"/>
            </g>
        </g>
        <g transform="matrix(2.5661,0,0,-2.64109,384.139,552.761)">
            <g>
                <rect x="0" y="0" width="248" height="20" style="fill:rgb(68,68,68);"/>
            </g>
        </g>
        <g transform="matrix(2.5661,0,0,-2.64109,384.139,624.071)">
            <g>
                <rect x="0" y="0" width="226" height="20" style="fill:rgb(85,85,85);"/>
            </g>
        </g>
        <g transform="matrix(2.5661,0,0,-2.64109,384.139,695.38)">
            <g>
                <rect x="0" y="0" width="127" height="19" style="fill:rgb(102,102,102);"/>
            </g>
        </g>
        <g transform="matrix(2.5661,0,0,-2.64109,384.139,766.689)">
            <g>
                <rect x="0" y="0" width="92" height="19" style="fill:rgb(119,119,119);"/>
            </g>
        </g>
        <g transform="matrix(2.5661,0,0,-2.64109,384.139,840.64)">
            <g>
                <rect x="0" y="0" width="60" height="20" style="fill:rgb(136,136,136);"/>
            </g>
        </g>
        <g transform="matrix(2.5661,0,0,2.64109,22.3191,168.639)">
            <text x="74.03px" y="29.137px" style="font-family:'HelveticaNeue-Bold', 'Helvetica Neue';font-weight:700;font-size:10px;">Mont Blanc</text>
        </g>
        <g transform="matrix(2.5661,0,0,2.64109,196.991,168.639)">
            <text x="0.5px" y="56.62px" style="font-family:'HelveticaNeue-Bold', 'Helvetica Neue';font-weight:700;font-size:10px;">Dufourspitze</text>
        </g>
        <g transform="matrix(2.5661,0,0,2.64109,22.3191,168.639)">
            <text x="105.89px" y="84.104px" style="font-family:'HelveticaNeue-Bold', 'Helvetica Neue';font-weight:700;font-size:10px;">Dom</text>
        </g>
        <g transform="matrix(2.5661,0,0,2.64109,22.3191,168.639)">
            <text x="82.75px" y="111.587px" style="font-family:'HelveticaNeue-Bold', 'Helvetica Neue';font-weight:700;font-size:10px;">L<tspan x="88.31px 93.5px " y="111.587px 111.587px ">ys</tspan>kamm</text>
        </g>
        <g transform="matrix(2.5661,0,0,2.64109,22.3191,168.639)">
            <text x="78.5px" y="139.07px" style="font-family:'HelveticaNeue-Bold', 'Helvetica Neue';font-weight:700;font-size:10px;">W<tspan x="87.37px 93.11px " y="139.07px 139.07px ">ei</tspan>sshor<tspan x="122.54px " y="139.07px ">n</tspan></text>
        </g>
        <g transform="matrix(2.5661,0,0,2.64109,22.3191,168.639)">
            <text x="74.95px" y="166.554px" style="font-family:'HelveticaNeue-Bold', 'Helvetica Neue';font-weight:700;font-size:10px;">Matterhor<tspan x="122.54px " y="166.554px ">n</tspan></text>
        </g>
        <g transform="matrix(2.5661,0,0,2.64109,22.3191,168.639)">
            <text x="64.39px" y="194.037px" style="font-family:'HelveticaNeue-Bold', 'Helvetica Neue';font-weight:700;font-size:10px;">Dent Blanche</text>
        </g>
        <g transform="matrix(2.5661,0,0,2.64109,22.3191,168.639)">
            <text x="59.23px" y="221.521px" style="font-family:'HelveticaNeue-Bold', 'Helvetica Neue';font-weight:700;font-size:10px;">Grand Combin</text>
        </g>
        <g transform="matrix(2.5661,0,0,2.64109,22.3191,168.639)">
            <text x="58.1px" y="249.004px" style="font-family:'HelveticaNeue-Bold', 'Helvetica Neue';font-weight:700;font-size:10px;">Finsteraarhor<tspan x="122.54px " y="249.004px ">n</tspan></text>
        </g>
        <g transform="matrix(2.5661,0,0,2.64109,22.3191,168.639)">
            <text x="129.31px" y="272.561px" style="font-family:'HelveticaNeue-Bold', 'Helvetica Neue';font-weight:700;font-size:10px;">4000</text>
        </g>
        <g transform="matrix(2.5661,0,0,2.64109,22.3191,168.639)">
            <text x="271.714px" y="272.561px" style="font-family:'HelveticaNeue-Bold', 'Helvetica Neue';font-weight:700;font-size:10px;">4375</text>
        </g>
        <g transform="matrix(2.5661,0,0,2.64109,22.3191,168.639)">
            <text x="414.118px" y="272.561px" style="font-family:'HelveticaNeue-Bold', 'Helvetica Neue';font-weight:700;font-size:10px;">4550</text>
        </g>
        <g transform="matrix(2.5661,0,0,2.64109,22.3191,168.639)">
            <text x="556.522px" y="272.561px" style="font-family:'HelveticaNeue-Bold', 'Helvetica Neue';font-weight:700;font-size:10px;">4725</text>
        </g>
        <g transform="matrix(2.5661,0,0,2.64109,22.3191,168.639)">
            <text x="698.926px" y="272.561px" style="font-family:'HelveticaNeue-Bold', 'Helvetica Neue';font-weight:700;font-size:10px;">5000</text>
        </g>
        <g transform="matrix(2.5661,0,0,2.64109,22.3191,168.639)">
            <g>
                <text x="157.444px" y="249.152px" style="font-family:'HelveticaNeue-Bold', 'Helvetica Neue';font-weight:700;font-size:12px;fill:white;">4274</text>
            </g>
        </g>
        <g transform="matrix(2.5661,0,0,2.64109,22.3191,168.639)">
            <g>
                <text x="173.719px" y="221.891px" style="font-family:'HelveticaNeue-Bold', 'Helvetica Neue';font-weight:700;font-size:12px;fill:white;">4314</text>
            </g>
        </g>
        <g transform="matrix(2.5661,0,0,2.64109,22.3191,168.639)">
            <g>
                <text x="191.214px" y="194.63px" style="font-family:'HelveticaNeue-Bold', 'Helvetica Neue';font-weight:700;font-size:12px;fill:white;">4357</text>
            </g>
        </g>
        <g transform="matrix(2.5661,0,0,2.64109,22.3191,168.639)">
            <g>
                <text x="240.446px" y="167.369px" style="font-family:'HelveticaNeue-Bold', 'Helvetica Neue';font-weight:700;font-size:12px;fill:white;">4478</text>
            </g>
        </g>
        <g transform="matrix(2.5661,0,0,2.64109,22.3191,168.639)">
            <g>
                <text x="251.838px" y="140.107px" style="font-family:'HelveticaNeue-Bold', 'Helvetica Neue';font-weight:700;font-size:12px;fill:white;">4506</text>
            </g>
        </g>
        <g transform="matrix(2.5661,0,0,2.64109,22.3191,168.639)">
            <g>
                <text x="262.823px" y="112.846px" style="font-family:'HelveticaNeue-Bold', 'Helvetica Neue';font-weight:700;font-size:12px;fill:white;">4533</text>
            </g>
        </g>
        <g transform="matrix(2.5661,0,0,2.64109,22.3191,168.639)">
            <g>
                <text x="267.706px" y="85.585px" style="font-family:'HelveticaNeue-Bold', 'Helvetica Neue';font-weight:700;font-size:12px;fill:white;">4545</text>
            </g>
        </g>
        <g transform="matrix(2.5661,0,0,2.64109,22.3191,168.639)">
            <g>
                <text x="303.917px" y="58.324px" style="font-family:'HelveticaNeue-Bold', 'Helvetica Neue';font-weight:700;font-size:12px;fill:white;">4634</text>
            </g>
        </g>
        <g transform="matrix(2.5661,0,0,2.64109,22.3191,168.639)">
            <g>
                <text x="374.712px" y="31.063px" style="font-family:'HelveticaNeue-Bold', 'Helvetica Neue';font-weight:700;font-size:12px;fill:white;">4808</text>
            </g>
        </g>
        <g transform="matrix(2.5661,0,0,2.64109,22.3191,168.639)">
            <text x="388.673px" y="296.271px" style="font-family:'HelveticaNeue-Bold', 'Helvetica Neue';font-weight:700;font-size:10px;">Height (metr<tspan x="447.733px 453.473px " y="296.271px 296.271px ">es</tspan>)</text>
        </g>
    </g>
</svg>
