<?xml version="1.0" encoding="UTF-8" standalone="no"?>
<!DOCTYPE svg PUBLIC "-//W3C//DTD SVG 1.1//EN" "http://www.w3.org/Graphics/SVG/1.1/DTD/svg11.dtd">
<svg width="100%" height="100%" viewBox="0 0 1321 1746" version="1.1" xmlns="http://www.w3.org/2000/svg" xmlns:xlink="http://www.w3.org/1999/xlink" xml:space="preserve" xmlns:serif="http://www.serif.com/" style="fill-rule:evenodd;clip-rule:evenodd;stroke-linecap:round;stroke-linejoin:round;stroke-miterlimit:1.5;">
    <g transform="matrix(1,0,0,1,-343.385,-358.433)">
        <g id="Route" transform="matrix(1,0,0,1,0,104)">
            <path d="M772,922L772,928L764,941L761,952L752,953L737,989L757,1006L779,1014L795,1036L793,1050L787,1058L781,1073L766,1084L771,1097L767,1106L767,1116L768,1128L772,1136L760,1162L729,1177L714,1213L676,1245" style="fill:none;stroke:rgb(204,204,204);stroke-width:1.6px;"/>
            <path d="M599,813L614.237,804L645,805L678,821L700,827L737,845L751,849L767,847L781,841L791.709,851L779,861L766.515,863L756,877L751,878L751,883L745,883L740,892L745,897L761,901L781,911.585L798,923L785,925L779,924L777,919.308L773,923L766.515,919.308L758,924L752,919.308L746,919.308L736,911.585L729,912.288L718,905.267L692.897,911.585L687,905.267L659,905.267L648,901L626,902L616,894L599,894L590,892L565,911.585" style="fill:none;stroke:rgb(204,204,204);stroke-width:1.6px;"/>
            <path d="M678,821L668,830L632,877L612,881L602,893" style="fill:none;stroke:rgb(204,204,204);stroke-width:1.6px;"/>
            <path d="M403,353L406,346L412,331L402,309L400,300L386,293L399,274" style="fill:none;stroke:rgb(204,204,204);stroke-width:1.6px;"/>
            <path d="M396,360L399,375L412,386L418,383L450,383L497,338L526,327L547,330L558,374L563,373L589,406L593,404L595,408L602,402L602,397L608,396L619,393L626,389L658,396L682,400L742,390L772,397L798,401L811,393L836,417L845,438L921,497L941,518L931,542L907,563L906,589L899,606L897,601L893,629L902,649L916,685L930,723L922,734L906,742L897,755L886,758L870,788L861,807L858.53,824L848,830L838,843L792,852" style="fill:none;stroke:rgb(204,204,204);stroke-width:1.6px;"/>
            <path d="M1664,2000L869.859,2000L864.211,1993.01L872.457,1986.56L882.982,1984.6L886.889,1980.01L894.237,1974.46L904.7,1967.34L915.397,1960.38L921.95,1959.87L934.024,1950.57L936.787,1932.79L945.814,1926.95L958.275,1925.68L968.365,1922.91L967.954,1899.14L970.189,1889.37L976.454,1882.46L980.551,1872.59L987.059,1860.02L987.263,1847.98L995.662,1843L1013.14,1857.56L1028.11,1856.42L1053.05,1853.89L1067.13,1853.91L1069.45,1843.38L1074.33,1834.62L1080.66,1841.36L1095.27,1842.44L1098.82,1835.45L1114.6,1828.07L1117.73,1825.41L1116.72,1822.58L1116.71,1818.33L1117.94,1816.58L1120.42,1807.05L1118.23,1805.93L1118.21,1803.12L1119.83,1801.16L1122.67,1801.85L1123.91,1798.86L1125.59,1797.84L1123.82,1795.5L1124.16,1791.63L1128.67,1790.6L1135.94,1790.85L1137.62,1788.55L1135.42,1784.27L1136.5,1783.03L1137.82,1781.29L1138.12,1779.69L1139.7,1777.59L1142.67,1777.66L1142.13,1775.5L1142.84,1773.7L1142.33,1771.15L1139.59,1769.63L1132.06,1766.32L1129.49,1765.06L1129.6,1760.83L1130.23,1757.69L1131.85,1754.32L1131.61,1752.27L1134.53,1747.73L1138.58,1747.8L1138.7,1745.75L1137.78,1743.71L1139,1740L1143,1736L1151,1730L1158,1727L1168,1725L1176,1724L1185,1725L1187,1722L1189,1725L1191,1723L1200,1727L1200,1728L1201,1729L1201,1734L1202,1735L1203,1738L1205,1738L1205,1736L1207,1731L1209,1729L1217,1727L1220,1722L1226,1714L1229,1709L1231.5,1707L1236,1705L1238,1705L1238,1706L1240,1704L1242,1703L1254,1703L1259,1705L1261,1707L1261,1708L1262,1711L1265,1713L1267,1714L1267,1717L1266,1718L1267,1719L1267,1721L1265,1722L1264,1724L1265,1726L1266,1729L1267,1731L1268,1727L1273,1727L1273,1729L1276,1729L1279,1727L1279,1726L1281,1723L1281,1722L1284,1721L1283,1719L1278,1718L1277,1719L1277,1715L1278,1714L1281,1712L1279,1707L1279,1703L1278,1700L1275,1701L1272,1701L1270,1699L1269,1695L1272,1693L1273,1690.24L1272,1688L1268,1688L1268,1684L1270,1684L1273,1682L1272,1680L1270,1678L1272,1660L1276,1644L1280,1637L1279,1636L1279,1634L1281,1634L1285,1627L1290,1621L1296,1615L1301,1613L1304,1613L1307,1614L1313,1614L1316,1612L1322,1612L1324,1614L1325,1611L1325,1607L1326,1607L1326,1609L1327,1615L1326,1616L1328,1619L1325,1624L1327,1625L1330,1625L1332,1622L1335,1622L1337,1619L1341,1614L1341,1611L1342,1612L1345,1610L1345,1607L1348,1603L1347,1601L1348,1598L1347,1596L1349,1594L1349,1590L1354,1584L1362,1578L1368,1575L1375,1574L1381,1574L1386,1576L1387,1575L1388,1576L1388,1574L1389,1573L1395,1579L1395,1582L1396,1583L1403,1583L1406,1582L1408,1578L1407,1575L1405,1570L1409,1566L1411,1561L1414,1562L1415,1564L1416,1568L1419,1568L1419,1570L1420,1572L1419,1573L1418,1576L1415,1578L1415,1579L1417,1582L1417,1585L1418,1587L1418,1590L1420,1595L1425,1594L1426,1590L1426,1582L1430,1583L1431,1585L1434,1584L1437,1582L1436,1581L1433,1582L1429,1580L1427,1578L1426,1576L1425,1572L1422,1570L1422,1566L1425,1565L1427,1562L1428,1557L1433,1554L1438,1553L1438,1550L1442,1546.7L1451,1548L1455,1550L1470.87,1541.52L1480.07,1532.92L1488.31,1522.36L1499.75,1513.66L1511.07,1516.82L1520.05,1523.27L1522,1510.27L1525.69,1495.34L1540.13,1490.53L1550.75,1487.2L1561.53,1491.18L1572.82,1490.72L1578.47,1484.57L1585.32,1478.7L1594.97,1479.72L1602.85,1479.34L1612.73,1483.58L1625.21,1488.48L1638.44,1489.32L1655.51,1494.22L1664,1487L1664,2000Z" style="fill:rgb(221,221,221);fill-opacity:0.35;stroke:black;stroke-width:0.3px;"/>
            <g transform="matrix(1,0,0,1,220.784,167)">
                <path d="M1009.17,1534.74C1004.53,1541.35 994.226,1556.86 988.657,1557.36C982.002,1557.97 971.061,1545.09 969.618,1546.02C967.658,1547.3 969.962,1545.33 967.184,1537.35C965.188,1531.62 965.005,1521.98 962.414,1521.05C958.539,1519.67 957.559,1511.66 956.853,1508.52C956.19,1505.57 959.784,1502.49 956.071,1498.74C954.034,1496.68 947.518,1501.28 945.117,1496.98C942.765,1492.76 937.659,1491.44 933.805,1485.88C931.199,1482.13 926.013,1476.47 922.122,1473.26C919.281,1470.92 917.634,1468.46 918.425,1465.1C919.118,1462.16 916.031,1461.05 914.832,1459.17C913.333,1456.81 909.886,1458.55 909.52,1454.43C909.347,1452.49 905.441,1454.25 904.464,1452.84C903.429,1451.35 899.481,1451.96 898.637,1450.71C896.751,1447.91 899.301,1440.8 900.473,1440.69C906.839,1440.1 895.937,1436.35 888.177,1431.82C886.143,1430.64 882.463,1430.33 881.575,1428.91C876.518,1420.82 865.81,1429.3 862.134,1420.16C859.248,1412.99 857.588,1417.15 853.957,1412.74C851.414,1409.64 846.077,1414.09 844.727,1411.66C843.377,1409.22 848.087,1404.75 847.255,1402.08C846.41,1399.38 863.357,1403.03 865.829,1398.71C866.989,1396.68 843.604,1398.66 842.821,1396.82C840.368,1391.06 837.471,1397.64 835.537,1393.49C834.138,1390.49 840.883,1383.9 839.219,1381.92C837.555,1379.94 822.337,1388.63 818.551,1386.61C814.311,1384.34 816.915,1396.79 810.784,1382.71C808.853,1378.27 802.948,1385.18 801.145,1382.03C799.538,1379.21 798.012,1377.13 796.621,1376.21C790.244,1371.99 785.955,1377.06 781.091,1371.16C777.695,1367.03 769.9,1368.53 766.362,1360.87C765.453,1358.9 770.754,1354.47 766.152,1353.39C762.45,1352.51 759.382,1353.98 756.182,1351.65C753.69,1349.84 745.26,1358.1 736.944,1360.62C732.835,1361.87 731.242,1359.44 729.377,1358.16C728.458,1357.53 729.01,1346.46 727.23,1345.92C723.751,1344.86 724.835,1346.12 721.084,1339.42C719.786,1337.1 723.36,1331.95 721.855,1330.36C719.151,1327.5 713.049,1330.35 712.634,1330.12C710.858,1329.18 716.184,1326.03 714.928,1325.85C705.311,1324.44 698.69,1325.95 695.706,1323.65C690.739,1319.82 700.086,1321.29 698.869,1320.74C696.903,1319.85 699.598,1312.52 696.129,1311.51C692.979,1310.6 692.462,1314.12 690.052,1312.68C687.876,1311.37 686.977,1307.48 685.665,1305.84C682.124,1301.42 679.027,1307.94 677.804,1306.13C676.58,1304.32 677.305,1300.48 675.324,1299.97C673.343,1299.46 667.07,1302.92 665.919,1301.08C662.203,1295.16 668.241,1289.08 665.027,1289.42C658.149,1290.17 659.445,1289.1 656.509,1289.18C653.537,1289.25 652.127,1287.93 649.193,1286.88C646.258,1285.83 644.049,1290.09 641.903,1286.89C639.827,1283.8 638.227,1282.08 637.747,1278.7C637.267,1275.33 630.592,1274.73 629.02,1273.62C627.447,1272.51 629.615,1266.79 627.881,1266.06C627.109,1265.73 623.566,1270.93 622.039,1271.17C620.138,1271.48 620.263,1266.84 619.937,1266.34C617.006,1261.78 614.851,1270.91 614.217,1270.02C613.582,1269.12 611.596,1264.83 611.008,1264.15C610.42,1263.46 606.622,1266.73 605.745,1265.72C604.868,1264.71 599.642,1258.79 597.745,1257.1C595.685,1255.26 594.507,1249.45 592.784,1246.93C591.235,1244.67 584.211,1245.84 584.049,1243.6C583.888,1241.38 582.874,1233.14 581.417,1233.06C579.455,1232.95 577.575,1226.03 575.588,1224.66C574.568,1223.95 574.251,1215.67 561.432,1205.25C559.145,1203.39 552.061,1194.04 550.153,1192.25C546.743,1189.06 537.651,1181.97 533.496,1183.81C526.77,1186.81 519.542,1182.88 517.458,1179.69C515.118,1176.11 517.238,1172.75 514.725,1168.98C512.331,1165.38 509.334,1162.22 506.383,1159.07C503.37,1155.85 496.746,1143.88 493.649,1142.66C491.939,1141.98 484.741,1144.68 479.455,1140.58C476.03,1137.93 476.988,1134.78 475.798,1134.73C472.608,1134.58 466.87,1133.59 463.51,1134.78C459.603,1136.17 452.967,1144.16 453.038,1141.24C453.11,1138.32 454.362,1134.16 452.787,1133.55C448.956,1132.09 445.326,1124.76 446.039,1122.87C446.753,1120.97 449.433,1117.89 449.332,1116.07C449.232,1114.26 440.726,1109.63 440.435,1107.97C440.144,1106.31 447.191,1109.96 447.586,1108.12C448.137,1105.54 448.178,1104.87 448.743,1101.51C449.271,1098.37 450.301,1095.07 450.976,1091.96C451.717,1088.55 458.541,1080.57 453.193,1077.03C450.796,1075.45 430.216,1088.52 428.06,1088.55C425.905,1088.59 420.392,1101.99 418.195,1102.66C415.998,1103.32 413.1,1101.52 410.88,1102.53C408.31,1103.7 405.507,1107.98 402.772,1109.66C400.269,1111.2 397.264,1111.7 394.468,1112.6C391.642,1113.51 388.425,1113.62 385.818,1115.11C382.768,1116.85 379.508,1118.67 376.17,1121.04C372.87,1123.38 357.33,1107.61 353.787,1107.33C347.093,1106.81 332.284,1108.39 330.911,1104.63C330.304,1102.96 331.579,1090.52 328.996,1081.88C327.734,1077.65 323.745,1073.34 323.525,1072.63C320.806,1063.91 324.409,1062.11 323.164,1061.47C321.58,1060.66 320.311,1059.53 312.83,1049.89C303.212,1037.5 293.109,1019.37 289.554,1015.49C286.231,1011.86 286.92,1002.95 285.301,1000.77C283.345,998.131 287.704,989.869 286.815,985.656C285.813,980.907 276.006,969.891 275.289,965.277C274.693,961.443 274.106,957.51 272.511,953.972C270.872,950.338 267.186,946.63 265.457,943.471C264.004,940.816 265.333,931.835 264.138,930.019C263.303,928.749 260.936,928.95 260.289,927.575C259.376,925.635 260.903,918.234 259.66,915.38C258.065,911.72 255.006,908.458 253.722,903.615C252.379,898.549 253.601,892.777 252.603,886.986C251.544,880.836 253.281,872.185 251.365,866.714C249.764,862.142 256.594,854.902 255.111,850.29C253.605,845.607 260.372,839.793 260.33,836.745C260.307,835.03 263.828,834.715 263.858,833C263.965,826.962 272.839,816.584 276.972,809.393C280.879,802.593 287.654,791.27 292.068,789.117C296.13,787.136 302.943,781.411 304.661,780.679C308.979,778.839 327.527,777.876 330.185,776.962C333.201,775.924 330.379,767.898 332.292,763.338C333.744,759.875 337.044,757.682 337.565,756.71C338.849,754.311 340.587,746.288 341.249,741.165C342.125,734.386 341.081,717.95 343.865,713.833C345.707,711.109 347.331,704.325 348.951,701.463C350.639,698.482 349.531,693.235 351.99,690.494C355.523,686.552 349.428,680.102 352.155,675.358C354.399,671.453 361.134,670.363 362.35,666.027C363.623,661.484 363.001,659.247 364.795,655.1C366.407,651.375 367.892,640.31 369.114,637.601C369.892,635.878 371.41,633.775 371.131,632.301C370.852,630.827 367.419,629.836 367.441,628.757C367.464,627.678 370.918,627.289 371.267,625.827C371.615,624.366 368.953,621.934 369.532,619.988C370.339,617.274 370.092,611.531 371.108,607.545C372.264,603.003 371.111,594.329 371.472,588.738C371.759,584.307 375.163,572.239 373.314,568.653C371.074,564.306 370.556,558.482 368.999,555.844C364.413,548.074 357.118,534.34 356.897,532.325C356.611,529.713 343.945,525.989 343.589,523.691C343.209,521.236 335.742,514.813 334.515,513.35C332.72,511.212 323.8,502.598 322.589,499.945C321.39,497.316 325.994,493.163 325.252,490.436C324.511,487.709 327.863,480.417 326.142,477.581C324.379,474.675 324.944,471.09 329.221,468.499C332.15,466.725 337.475,467.949 336.434,466.065C334.249,462.111 326.894,459.97 321.958,459.574C316.704,459.151 310.923,464.44 310.946,458.531C310.957,455.536 308.376,447.437 307.918,444.319C307.577,441.997 298.878,442.917 299.198,440.824C299.518,438.731 289.286,437.768 289.838,435.76C290.379,433.791 295.703,431.184 294.509,429.779C293.315,428.375 283.8,428.424 282.675,427.333C281.67,426.36 284.88,417.814 283.756,418.238C279.682,419.771 272.753,419.461 274.34,416.888C275.095,415.663 269.265,409.895 267.728,410.056C265.518,410.288 261.788,411.646 258.078,410.278C254.117,408.817 251.714,412.203 247.955,408.976C245.208,406.618 239.242,402.757 237.523,399.915C236.475,398.183 231.043,397.47 230.616,392.53C230.342,389.364 235.071,385.516 234.641,384.239C233.6,381.146 229.969,383.835 227.922,381.294C226.363,379.356 222.437,382.858 220.032,379.05C218.588,376.765 220.331,373.729 219.669,372.643C218.478,370.691 214.252,371.142 212.321,369.918C210.359,368.673 213.993,359.768 210.894,358.174C207.707,356.535 204.767,362.147 203.199,359.082C201.783,356.315 200.923,351.261 198.222,350.264C195.399,349.222 189.727,348.806 188.543,346.53C187.358,344.255 189.641,335.304 188.116,333.61C186.591,331.917 185,322.346 184.874,320.582C184.748,318.818 187.429,308.504 185.785,307.785C184.14,307.066 187.073,297.71 185.785,298.269C184.497,298.828 176.446,284.268 177.137,282.137C178.941,276.579 186.488,280.934 186.831,278C187.332,273.713 190.229,266.928 188.97,261.861C187.426,255.654 192.108,240.262 187.273,241.806C182.787,243.239 175.267,238.951 175.013,234.342C174.638,227.564 171.169,224.738 168.41,218.608C166.972,215.411 167.999,208.675 168.315,207.216C169.352,202.432 178.682,195.28 178.018,191.57C177.353,187.859 173.16,183.895 170.096,185.952C167.502,187.692 165.487,188.421 162.296,188.141C158.194,187.78 153.803,184.401 151.773,184.007C148.165,183.307 145.213,173.685 143.447,169.748C140.019,162.11 132.794,160.609 134.587,150.467C136.537,139.44 138.929,131.885 138.544,129.279C137.53,122.427 144.589,111.804 149.519,100.067" style="fill:none;stroke:black;stroke-width:4px;"/>
            </g>
            <g transform="matrix(1,0,0,1,220.784,167)">
                <path d="M1009.17,1534.74C1004.53,1541.35 994.226,1556.86 988.657,1557.36C982.002,1557.97 971.061,1545.09 969.618,1546.02C967.658,1547.3 969.962,1545.33 967.184,1537.35C965.188,1531.62 965.005,1521.98 962.414,1521.05C958.539,1519.67 957.559,1511.66 956.853,1508.52C956.19,1505.57 959.784,1502.49 956.071,1498.74C954.034,1496.68 947.518,1501.28 945.117,1496.98C942.765,1492.76 937.659,1491.44 933.805,1485.88C931.199,1482.13 926.013,1476.47 922.122,1473.26C919.281,1470.92 917.634,1468.46 918.425,1465.1C919.118,1462.16 916.031,1461.05 914.832,1459.17C913.333,1456.81 909.886,1458.55 909.52,1454.43C909.347,1452.49 905.441,1454.25 904.464,1452.84C903.429,1451.35 899.481,1451.96 898.637,1450.71C896.751,1447.91 899.301,1440.8 900.473,1440.69C906.839,1440.1 895.937,1436.35 888.177,1431.82C886.143,1430.64 882.463,1430.33 881.575,1428.91C876.518,1420.82 865.81,1429.3 862.134,1420.16C859.248,1412.99 857.588,1417.15 853.957,1412.74C851.414,1409.64 846.077,1414.09 844.727,1411.66C843.377,1409.22 848.087,1404.75 847.255,1402.08C846.41,1399.38 863.357,1403.03 865.829,1398.71C866.989,1396.68 843.604,1398.66 842.821,1396.82C840.368,1391.06 837.471,1397.64 835.537,1393.49C834.138,1390.49 840.883,1383.9 839.219,1381.92C837.555,1379.94 822.337,1388.63 818.551,1386.61C814.311,1384.34 816.915,1396.79 810.784,1382.71C808.853,1378.27 802.948,1385.18 801.145,1382.03C799.538,1379.21 798.012,1377.13 796.621,1376.21C790.244,1371.99 785.955,1377.06 781.091,1371.16C777.695,1367.03 769.9,1368.53 766.362,1360.87C765.453,1358.9 770.754,1354.47 766.152,1353.39C762.45,1352.51 759.382,1353.98 756.182,1351.65C753.69,1349.84 745.26,1358.1 736.944,1360.62C732.835,1361.87 731.242,1359.44 729.377,1358.16C728.458,1357.53 729.01,1346.46 727.23,1345.92C723.751,1344.86 724.835,1346.12 721.084,1339.42C719.786,1337.1 723.36,1331.95 721.855,1330.36C719.151,1327.5 713.049,1330.35 712.634,1330.12C710.858,1329.18 716.184,1326.03 714.928,1325.85C705.311,1324.44 698.69,1325.95 695.706,1323.65C690.739,1319.82 700.086,1321.29 698.869,1320.74C696.903,1319.85 699.598,1312.52 696.129,1311.51C692.979,1310.6 692.462,1314.12 690.052,1312.68C687.876,1311.37 686.977,1307.48 685.665,1305.84C682.124,1301.42 679.027,1307.94 677.804,1306.13C676.58,1304.32 677.305,1300.48 675.324,1299.97C673.343,1299.46 667.07,1302.92 665.919,1301.08C662.203,1295.16 668.241,1289.08 665.027,1289.42C658.149,1290.17 659.445,1289.1 656.509,1289.18C653.537,1289.25 652.127,1287.93 649.193,1286.88C646.258,1285.83 644.049,1290.09 641.903,1286.89C639.827,1283.8 638.227,1282.08 637.747,1278.7C637.267,1275.33 630.592,1274.73 629.02,1273.62C627.447,1272.51 629.615,1266.79 627.881,1266.06C627.109,1265.73 623.566,1270.93 622.039,1271.17C620.138,1271.48 620.263,1266.84 619.937,1266.34C617.006,1261.78 614.851,1270.91 614.217,1270.02C613.582,1269.12 611.596,1264.83 611.008,1264.15C610.42,1263.46 606.622,1266.73 605.745,1265.72C604.868,1264.71 599.642,1258.79 597.745,1257.1C595.685,1255.26 594.507,1249.45 592.784,1246.93C591.235,1244.67 584.211,1245.84 584.049,1243.6C583.888,1241.38 582.874,1233.14 581.417,1233.06C579.455,1232.95 577.575,1226.03 575.588,1224.66C574.568,1223.95 574.251,1215.67 561.432,1205.25C559.145,1203.39 552.061,1194.04 550.153,1192.25C546.743,1189.06 537.651,1181.97 533.496,1183.81C526.77,1186.81 519.542,1182.88 517.458,1179.69C515.118,1176.11 517.238,1172.75 514.725,1168.98C512.331,1165.38 509.334,1162.22 506.383,1159.07C503.37,1155.85 496.746,1143.88 493.649,1142.66C491.939,1141.98 484.741,1144.68 479.455,1140.58C476.03,1137.93 476.988,1134.78 475.798,1134.73C472.608,1134.58 466.87,1133.59 463.51,1134.78C459.603,1136.17 452.967,1144.16 453.038,1141.24C453.11,1138.32 454.362,1134.16 452.787,1133.55C448.956,1132.09 445.326,1124.76 446.039,1122.87C446.753,1120.97 449.433,1117.89 449.332,1116.07C449.232,1114.26 440.726,1109.63 440.435,1107.97C440.144,1106.31 447.191,1109.96 447.586,1108.12C448.137,1105.54 448.178,1104.87 448.743,1101.51C449.271,1098.37 450.301,1095.07 450.976,1091.96C451.717,1088.55 458.541,1080.57 453.193,1077.03C450.796,1075.45 430.216,1088.52 428.06,1088.55C425.905,1088.59 420.392,1101.99 418.195,1102.66C415.998,1103.32 413.1,1101.52 410.88,1102.53C408.31,1103.7 405.507,1107.98 402.772,1109.66C400.269,1111.2 397.264,1111.7 394.468,1112.6C391.642,1113.51 388.425,1113.62 385.818,1115.11C382.768,1116.85 379.508,1118.67 376.17,1121.04C372.87,1123.38 357.33,1107.61 353.787,1107.33C347.093,1106.81 332.284,1108.39 330.911,1104.63C330.304,1102.96 331.579,1090.52 328.996,1081.88C327.734,1077.65 323.745,1073.34 323.525,1072.63C320.806,1063.91 324.409,1062.11 323.164,1061.47C321.58,1060.66 320.311,1059.53 312.83,1049.89C303.212,1037.5 293.109,1019.37 289.554,1015.49C286.231,1011.86 286.92,1002.95 285.301,1000.77C283.345,998.131 287.704,989.869 286.815,985.656C285.813,980.907 276.006,969.891 275.289,965.277C274.693,961.443 274.106,957.51 272.511,953.972C270.872,950.338 267.186,946.63 265.457,943.471C264.004,940.816 265.333,931.835 264.138,930.019C263.303,928.749 260.936,928.95 260.289,927.575C259.376,925.635 260.903,918.234 259.66,915.38C258.065,911.72 255.006,908.458 253.722,903.615C252.379,898.549 253.601,892.777 252.603,886.986C251.544,880.836 253.281,872.185 251.365,866.714C249.764,862.142 256.594,854.902 255.111,850.29C253.605,845.607 260.372,839.793 260.33,836.745C260.307,835.03 263.828,834.715 263.858,833C263.965,826.962 272.839,816.584 276.972,809.393C280.879,802.593 287.654,791.27 292.068,789.117C296.13,787.136 302.943,781.411 304.661,780.679C308.979,778.839 327.527,777.876 330.185,776.962C333.201,775.924 330.379,767.898 332.292,763.338C333.744,759.875 337.044,757.682 337.565,756.71C338.849,754.311 340.587,746.288 341.249,741.165C342.125,734.386 341.081,717.95 343.865,713.833C345.707,711.109 347.331,704.325 348.951,701.463C350.639,698.482 349.531,693.235 351.99,690.494C355.523,686.552 349.428,680.102 352.155,675.358C354.399,671.453 361.134,670.363 362.35,666.027C363.623,661.484 363.001,659.247 364.795,655.1C366.407,651.375 367.892,640.31 369.114,637.601C369.892,635.878 371.41,633.775 371.131,632.301C370.852,630.827 367.419,629.836 367.441,628.757C367.464,627.678 370.918,627.289 371.267,625.827C371.615,624.366 368.953,621.934 369.532,619.988C370.339,617.274 370.092,611.531 371.108,607.545C372.264,603.003 371.111,594.329 371.472,588.738C371.759,584.307 375.163,572.239 373.314,568.653C371.074,564.306 370.556,558.482 368.999,555.844C364.413,548.074 357.118,534.34 356.897,532.325C356.611,529.713 343.945,525.989 343.589,523.691C343.209,521.236 335.742,514.813 334.515,513.35C332.72,511.212 323.8,502.598 322.589,499.945C321.39,497.316 325.994,493.163 325.252,490.436C324.511,487.709 327.863,480.417 326.142,477.581C324.379,474.675 324.944,471.09 329.221,468.499C332.15,466.725 337.475,467.949 336.434,466.065C334.249,462.111 326.894,459.97 321.958,459.574C316.704,459.151 310.923,464.44 310.946,458.531C310.957,455.536 308.376,447.437 307.918,444.319C307.577,441.997 298.878,442.917 299.198,440.824C299.518,438.731 289.286,437.768 289.838,435.76C290.379,433.791 295.703,431.184 294.509,429.779C293.315,428.375 283.8,428.424 282.675,427.333C281.67,426.36 284.88,417.814 283.756,418.238C279.682,419.771 272.753,419.461 274.34,416.888C275.095,415.663 269.265,409.895 267.728,410.056C265.518,410.288 261.788,411.646 258.078,410.278C254.117,408.817 251.714,412.203 247.955,408.976C245.208,406.618 239.242,402.757 237.523,399.915C236.475,398.183 231.043,397.47 230.616,392.53C230.342,389.364 235.071,385.516 234.641,384.239C233.6,381.146 229.969,383.835 227.922,381.294C226.363,379.356 222.437,382.858 220.032,379.05C218.588,376.765 220.331,373.729 219.669,372.643C218.478,370.691 214.252,371.142 212.321,369.918C210.359,368.673 213.993,359.768 210.894,358.174C207.707,356.535 204.767,362.147 203.199,359.082C201.783,356.315 200.923,351.261 198.222,350.264C195.399,349.222 189.727,348.806 188.543,346.53C187.358,344.255 189.641,335.304 188.116,333.61C186.591,331.917 185,322.346 184.874,320.582C184.748,318.818 187.429,308.504 185.785,307.785C184.14,307.066 187.073,297.71 185.785,298.269C184.497,298.828 176.446,284.268 177.137,282.137C178.941,276.579 186.488,280.934 186.831,278C187.332,273.713 190.229,266.928 188.97,261.861C187.426,255.654 192.108,240.262 187.273,241.806C182.787,243.239 175.267,238.951 175.013,234.342C174.638,227.564 171.169,224.738 168.41,218.608C166.972,215.411 167.999,208.675 168.315,207.216C169.352,202.432 178.682,195.28 178.018,191.57C177.353,187.859 173.16,183.895 170.096,185.952C167.502,187.692 165.487,188.421 162.296,188.141C158.194,187.78 153.803,184.401 151.773,184.007C148.165,183.307 145.213,173.685 143.447,169.748C140.019,162.11 132.794,160.609 134.587,150.467C136.537,139.44 138.929,131.885 138.544,129.279C137.53,122.427 144.589,111.804 149.519,100.067" style="fill:none;stroke:white;stroke-width:2px;"/>
            </g>
            <g transform="matrix(1.38585,0,0,1.38728,85.8747,-4.71688)">
                <path d="M544.256,604.203L501.265,612.529L498.589,615.377L492.692,617.088L487.038,621.75L476.24,621.533L474.644,626.911L468.049,627.899L467.766,636.544L460.489,644.549L454.376,644.422L451.928,648.702L451.484,653.265L438.015,657.662L449.588,655.957L456.641,651.296L462.285,651.118L468.589,657.74L472.342,656.19L480.726,660.505L494.437,658.941L479.448,654.358L474.157,654.169L469.267,651.893L467.316,645.651L472.122,640.252L472.981,636.869L478.782,633.293L482.886,629.946L489.981,624.127L498.567,622.795L506.068,616.911L503,611.503L505.876,611.111L510.503,615.86L524.93,613.045L524.757,610.266L529.876,608.851L538.388,609.552L544.256,604.203Z" style="fill:rgb(221,221,221);"/>
            </g>
            <g transform="matrix(0.288018,0,0,0.288018,276.172,734.219)">
                <path d="M1133.09,2636.52C1125.03,2639.09 1117.7,2646.81 1113.03,2652.06C1109.07,2656.51 1108.61,2663.27 1105.05,2668.04C1101.04,2673.41 1093.84,2679.28 1088.95,2684.29C1084.49,2688.86 1080.97,2694.51 1075.7,2698.12C1070.15,2701.93 1061.57,2704.73 1055.62,2707.14C1050.5,2709.22 1042.44,2709.84 1039.98,2712.61C1037.52,2715.38 1040.03,2720.13 1040.85,2723.77C1041.76,2727.77 1042.83,2732.86 1045.42,2736.57C1048.68,2741.25 1057.76,2751.5 1060.42,2751.86C1063.09,2752.22 1059.38,2740.8 1061.41,2738.72C1063.44,2736.65 1069.4,2738.29 1072.6,2739.39C1075.75,2740.47 1077.89,2743.44 1080.64,2745.32C1083.55,2747.32 1086.56,2750.03 1090.04,2751.35C1093.83,2752.8 1102.06,2755.42 1103.39,2754.01C1104.72,2752.61 1101.04,2745.56 1098,2742.93C1094.96,2740.29 1087.06,2741.63 1085.17,2738.21C1083.28,2734.78 1085.79,2727.62 1086.67,2722.4C1087.63,2716.74 1088.41,2709.3 1090.92,2704.23C1093.35,2699.35 1097.82,2692.48 1101.79,2692.01C1105.75,2691.54 1110.69,2699.7 1114.71,2701.39C1118.16,2702.85 1122.43,2703.37 1125.9,2702.15C1129.38,2700.93 1135.78,2697.43 1135.58,2694.07C1135.37,2690.71 1125.98,2686.58 1124.68,2682.02C1123.39,2677.46 1124.17,2670.42 1127.83,2666.72C1131.42,2663.07 1133.02,2651.3 1142.19,2645.21C1153.62,2637.62 1172.62,2635.73 1173.11,2632.94C1173.99,2627.9 1143.1,2633.33 1133.09,2636.52Z" style="fill:rgb(221,221,221);"/>
            </g>
            <g transform="matrix(1,0,0,1,-44.0382,-229.758)">
                <path d="M449.477,647.576C449.533,646.12 449.4,643.479 448.606,643.293C447.812,643.106 445.333,644.905 444.712,646.458C444.063,648.081 444.791,650.839 444.712,653.027C444.615,655.728 443.556,662.293 444.128,662.662C444.315,662.782 446.698,663.259 447.166,662.425C448.123,660.716 447.434,656.702 448.145,655.237C449.035,653.4 449.4,649.566 449.477,647.576Z" style="fill:rgb(221,221,221);"/>
            </g>
            <g transform="matrix(1,0,0,1,41.9618,-51.7577)">
                <path d="M452.145,649.237L456.773,648.056L456.993,643.82L450.606,643.293L444.712,644.458L447.712,652.027L448.128,659.662L453.356,665.833L453.361,655.077L451.166,653.425L452.145,649.237Z" style="fill:rgb(221,221,221);"/>
            </g>
            <g transform="matrix(1,1.22465e-16,1.22465e-16,-1,-44.0382,1098.43)">
                <path d="M448.145,657.237C449.035,655.4 444.382,654.123 443.712,655.027C443.043,655.931 443.556,662.293 444.128,662.662C444.315,662.782 446.698,663.259 447.166,662.425C448.123,660.716 447.434,658.702 448.145,657.237Z" style="fill:rgb(221,221,221);"/>
            </g>
        </g>
        <g id="N85">
            <g transform="matrix(0.455375,0,0,0.455375,289.432,581.26)">
                <g transform="matrix(0.946212,0,0,0.506576,96.2905,1161.03)">
                    <rect x="1495.14" y="2308.34" width="120.577" height="80.767" style="fill:rgb(255,200,0);"/>
                </g>
                <g transform="matrix(1.01255,0,0,1.01255,1108.16,2021.79)">
                    <g transform="matrix(30.3627,0,0,30.3627,502.062,334.792)">
                    </g>
                    <text x="413.16px" y="334.792px" style="font-family:'HelveticaNeue', 'Helvetica Neue';font-size:30.363px;">D6085</text>
                </g>
            </g>
            <g transform="matrix(0.455375,0,0,0.455375,197.658,516.579)">
                <g transform="matrix(0.946212,0,0,0.506576,96.2905,1161.03)">
                    <rect x="1495.14" y="2308.34" width="120.577" height="80.767" style="fill:rgb(255,200,0);"/>
                </g>
                <g transform="matrix(1.01255,0,0,1.01255,1108.16,2021.79)">
                    <g transform="matrix(30.3627,0,0,30.3627,502.062,334.792)">
                    </g>
                    <text x="413.16px" y="334.792px" style="font-family:'HelveticaNeue', 'Helvetica Neue';font-size:30.363px;">D4085</text>
                </g>
            </g>
            <g transform="matrix(0.455375,0,0,0.455375,-188.768,244.386)">
                <g transform="matrix(0.946212,0,0,0.506576,96.2905,1161.03)">
                    <rect x="1495.14" y="2308.34" width="120.577" height="80.767" style="fill:rgb(255,200,0);"/>
                </g>
                <g transform="matrix(1.01255,0,0,1.01255,1108.16,2019.6)">
                    <g transform="matrix(30.3627,0,0,30.3627,502.062,334.792)">
                    </g>
                    <text x="413.16px" y="334.792px" style="font-family:'HelveticaNeue', 'Helvetica Neue';font-size:30.363px;">D4085</text>
                </g>
            </g>
            <g transform="matrix(0.455375,0,0,0.455375,-241.723,55.1539)">
                <g transform="matrix(0.946212,0,0,0.506576,96.2905,1161.03)">
                    <rect x="1495.14" y="2308.34" width="120.577" height="80.767" style="fill:rgb(255,200,0);"/>
                </g>
                <g transform="matrix(1.01255,0,0,1.01255,1105.96,2021.79)">
                    <g transform="matrix(30.3627,0,0,30.3627,502.062,334.792)">
                    </g>
                    <text x="413.16px" y="334.792px" style="font-family:'HelveticaNeue', 'Helvetica Neue';font-size:30.363px;">D1085</text>
                </g>
            </g>
            <g transform="matrix(0.455375,0,0,0.455375,94.1668,439.209)">
                <g transform="matrix(0.618013,0,0,0.506576,586.992,1161.03)">
                    <rect x="1495.14" y="2308.34" width="120.577" height="80.767" style="fill:rgb(255,0,0);"/>
                </g>
                <g transform="matrix(1.01255,0,0,1.01255,1103.76,2019.6)">
                    <g transform="matrix(30.3627,0,0,30.3627,468.845,334.792)">
                    </g>
                    <text x="413.16px" y="334.792px" style="font-family:'HelveticaNeue', 'Helvetica Neue';font-size:30.363px;fill:white;">N85</text>
                </g>
            </g>
            <g transform="matrix(0.455375,0,0,0.455375,-138.646,-97.7785)">
                <g transform="matrix(0.618013,0,0,0.506576,586.992,1161.03)">
                    <rect x="1495.14" y="2308.34" width="120.577" height="80.767" style="fill:rgb(255,0,0);"/>
                </g>
                <g transform="matrix(1.01255,0,0,1.01255,1103.76,2021.79)">
                    <g transform="matrix(30.3627,0,0,30.3627,468.845,334.792)">
                    </g>
                    <text x="413.16px" y="334.792px" style="font-family:'HelveticaNeue', 'Helvetica Neue';font-size:30.363px;fill:white;">N85</text>
                </g>
            </g>
        </g>
        <g id="Markers" transform="matrix(1,0,0,1,220.784,271)">
            <g transform="matrix(0.755883,0,0,0.755883,41.3797,19.0763)">
                <circle cx="141.773" cy="103.663" r="13.23"/>
            </g>
            <g transform="matrix(0.566912,0,0,0.566912,95.961,177.823)">
                <circle cx="141.773" cy="103.663" r="13.23"/>
            </g>
            <g transform="matrix(0.566912,0,0,0.566912,108.891,284.935)">
                <circle cx="141.773" cy="103.663" r="13.23"/>
            </g>
            <g transform="matrix(0.566912,0,0,0.566912,95.2932,129.935)">
                <circle cx="141.773" cy="103.663" r="13.23"/>
            </g>
            <g transform="matrix(0.566912,0,0,0.566912,205.298,366.01)">
                <circle cx="141.773" cy="103.663" r="13.23"/>
            </g>
            <g transform="matrix(0.566912,0,0,0.566912,283.852,488.174)">
                <circle cx="141.773" cy="103.663" r="13.23"/>
            </g>
            <g transform="matrix(0.566912,0,0,0.566912,260.852,686.999)">
                <circle cx="141.773" cy="103.663" r="13.23"/>
            </g>
            <g transform="matrix(0.755883,0,0,0.755883,257.473,560.699)">
                <circle cx="141.773" cy="103.663" r="13.23"/>
            </g>
            <g transform="matrix(0.755883,0,0,0.755883,175.548,899.884)">
                <circle cx="141.773" cy="103.663" r="13.23"/>
            </g>
            <g transform="matrix(0.566912,0,0,0.566912,251.839,1043.97)">
                <circle cx="141.773" cy="103.663" r="13.23"/>
            </g>
            <g transform="matrix(0.755883,0,0,0.755883,348.532,997.073)">
                <circle cx="141.773" cy="103.663" r="13.23"/>
            </g>
            <g transform="matrix(0.755883,0,0,0.755883,434.207,1105.96)">
                <circle cx="141.773" cy="103.663" r="13.23"/>
            </g>
            <g transform="matrix(0.755883,0,0,0.755883,535.886,1206.13)">
                <circle cx="141.773" cy="103.663" r="13.23"/>
            </g>
            <g transform="matrix(0.755883,0,0,0.755883,652.286,1273.68)">
                <circle cx="141.773" cy="103.663" r="13.23"/>
            </g>
            <g transform="matrix(0.566912,0,0,0.566912,766.085,1353.97)">
                <circle cx="141.773" cy="103.663" r="13.23"/>
            </g>
            <g transform="matrix(0.755883,0,0,0.755883,789.507,1360.59)">
                <circle cx="141.773" cy="103.663" r="13.23"/>
            </g>
            <g transform="matrix(0.566912,0,0,0.566912,854.616,1424.64)">
                <circle cx="141.773" cy="103.663" r="13.23"/>
            </g>
            <g transform="matrix(0.755883,0,0,0.755883,859.912,1467.56)">
                <circle cx="141.773" cy="103.663" r="13.23"/>
            </g>
            <g transform="matrix(0.566912,0,0,0.566912,927.794,1478.97)">
                <circle cx="141.773" cy="103.663" r="13.23"/>
            </g>
        </g>
        <g id="Places" transform="matrix(1,0,0,1,220.784,271)">
            <g transform="matrix(1,0,0,1,-26.5108,19.6095)">
                <g transform="matrix(14,0,0,14,321.799,237.478)">
                </g>
                <g transform="matrix(14,0,0,14,325.768,237.478)">
                </g>
                <g transform="matrix(14,0,0,14,348.385,237.478)">
                </g>
                <text x="219.389px" y="237.478px" style="font-family:'HelveticaNeue', 'Helvetica Neue';font-size:14px;">G<tspan x="229.875px 234.397px 241.775px 249.419px 257.581px 261.333px 268.977px 276.355px 283.733px 287.485px 295.647px 303.025px 306.777px 314.421px 321.799px 329.737px 334.007px 341.385px " y="237.478px 237.478px 237.478px 237.478px 237.478px 237.478px 237.478px 237.478px 237.478px 237.478px 237.478px 237.478px 237.478px 237.478px 237.478px 237.478px 237.478px 237.478px ">rand Lac de Laﬀrey</tspan></text>
            </g>
            <g transform="matrix(1,0,0,1,-34.4856,-43.8165)">
                <g transform="matrix(14,0,0,14,253.521,237.478)">
                </g>
                <text x="219.389px" y="237.478px" style="font-family:'HelveticaNeue', 'Helvetica Neue';font-size:14px;">V<tspan x="227.551px 230.519px 237.099px 240.067px 243.035px 246.003px " y="237.478px 237.478px 237.478px 237.478px 237.478px 237.478px ">izille</tspan></text>
            </g>
            <g transform="matrix(1,0,0,1,-9.40425,314.208)">
                <g transform="matrix(14,0,0,14,362.217,237.478)">
                </g>
                <text x="219.389px" y="237.478px" style="font-family:'HelveticaNeue', 'Helvetica Neue';font-size:14px;">L<tspan x="227.033px 234.411px 238.163px 246.059px 253.437px 257.707px 265.085px 270.391px 277.769px 285.413px 290.719px 300.687px 308.331px 315.709px 327.511px 335.673px 342.533px 349.911px 357.555px " y="237.478px 237.478px 237.478px 237.478px 237.478px 237.478px 237.478px 237.478px 237.478px 237.478px 237.478px 237.478px 237.478px 237.478px 237.478px 237.478px 237.478px 237.478px 237.478px ">a Fare-en-Champsaur</tspan></text>
            </g>
            <g transform="matrix(1,0,0,1,68.3371,512.506)">
                <g transform="matrix(14,0,0,14,258.995,237.478)">
                </g>
                <text x="219.389px" y="237.478px" style="font-family:'HelveticaNeue', 'Helvetica Neue';font-size:14px;">T<tspan x="225.731px 233.109px 236.077px 239.045px 246.423px 250.693px " y="237.478px 237.478px 237.478px 237.478px 237.478px 237.478px ">allard</tspan></text>
            </g>
            <g transform="matrix(1,0,0,1,158.274,365.585)">
                <g transform="matrix(14,0,0,14,333.741,237.478)">
                </g>
                <text x="219.389px" y="237.478px" style="font-family:'HelveticaNeue', 'Helvetica Neue';font-size:14px;">C<tspan x="229.357px 237.253px 240.221px 243.973px 253.423px 260.801px 267.661px 275.039px 279.309px 287.471px 291.223px 298.867px 306.511px 314.155px 321.799px " y="237.478px 237.478px 237.478px 237.478px 237.478px 237.478px 237.478px 237.478px 237.478px 237.478px 237.478px 237.478px 237.478px 237.478px 237.478px ">ol Bayard 1246m</tspan></text>
            </g>
            <g transform="matrix(1,0,0,1,331.766,478.836)">
                <g transform="matrix(14,0,0,14,350.149,237.478)">
                </g>
                <text x="219.389px" y="237.478px" style="font-family:'HelveticaNeue', 'Helvetica Neue';font-size:14px;">L<tspan x="227.033px 234.411px 241.789px 245.541px 253.703px 261.081px 264.833px 273.765px 281.143px 285.665px 289.935px 297.313px 302.619px 311.551px 319.447px 327.091px 334.469px 342.365px " y="237.478px 237.478px 237.478px 237.478px 237.478px 237.478px 237.478px 237.478px 237.478px 237.478px 237.478px 237.478px 237.478px 237.478px 237.478px 237.478px 237.478px 237.478px ">ac de Serre-Ponçon</tspan></text>
            </g>
            <g transform="matrix(0.919263,0,0,0.919263,0.985114,106.021)">
                <g transform="matrix(15.2296,0,0,15.2296,1133.1,1540.05)">
                </g>
                <text x="1060.86px" y="1540.05px" style="font-family:'HelveticaNeue', 'Helvetica Neue';font-size:15.23px;">G<tspan x="1072.26px 1080.85px 1084.08px 1088.43px 1096.46px 1100.54px 1108.3px 1116.61px 1124.64px " y="1540.05px 1540.05px 1540.05px 1540.05px 1540.05px 1540.05px 1540.05px 1540.05px 1540.05px ">olfe Juan</tspan></text>
            </g>
            <g transform="matrix(0.919263,0,0,0.919263,-92.5685,135.315)">
                <g transform="matrix(15.2296,0,0,15.2296,1112,1540.05)">
                </g>
                <text x="1060.86px" y="1540.05px" style="font-family:'HelveticaNeue', 'Helvetica Neue';font-size:15.23px;">C<tspan x="1071.7px 1079.72px 1088.04px 1096.36px 1104.38px " y="1540.05px 1540.05px 1540.05px 1540.05px 1540.05px ">annes</tspan></text>
            </g>
            <g transform="matrix(0.919263,0,0,0.919263,-152.746,73.2261)">
                <g transform="matrix(15.2296,0,0,15.2296,1170.86,1540.05)">
                </g>
                <text x="1060.86px" y="1540.05px" style="font-family:'HelveticaNeue', 'Helvetica Neue';font-size:15.23px;">M<tspan x="1073.97px 1082.56px 1090.87px 1098.9px 1107.21px 1114.68px 1118.76px 1128.47px 1136.5px 1141.42px 1146.06px 1154.65px 1162.97px " y="1540.05px 1540.05px 1540.05px 1540.05px 1540.05px 1540.05px 1540.05px 1540.05px 1540.05px 1540.05px 1540.05px 1540.05px 1540.05px ">ouans Sartoux</tspan></text>
            </g>
            <g transform="matrix(0.919263,0,0,0.919263,-63.4374,26.263)">
                <g transform="matrix(15.2296,0,0,15.2296,1108.31,1540.05)">
                </g>
                <text x="1060.86px" y="1540.05px" style="font-family:'HelveticaNeue', 'Helvetica Neue';font-size:15.23px;">G<tspan x="1072.26px 1077.18px 1085.21px 1092.67px 1100.13px " y="1540.05px 1540.05px 1540.05px 1540.05px 1540.05px ">rasse</tspan></text>
            </g>
            <g transform="matrix(0.919263,0,0,0.919263,98.3437,-15.3857)">
                <g transform="matrix(15.2296,0,0,15.2296,1091.13,1540.05)">
                </g>
                <text x="1060.86px" y="1540.05px" style="font-family:'HelveticaNeue', 'Helvetica Neue';font-size:15.23px;">N<tspan x="1071.7px 1074.93px 1082.95px " y="1540.05px 1540.05px 1540.05px ">ice</tspan></text>
            </g>
            <g transform="matrix(0.919263,0,0,0.919263,-251.147,2.62204)">
                <g transform="matrix(15.2296,0,0,15.2296,1180.8,1540.05)">
                </g>
                <text x="1060.86px" y="1540.05px" style="font-family:'HelveticaNeue', 'Helvetica Neue';font-size:15.23px;">S<tspan x="1070.57px 1075.22px 1080.99px 1089.3px 1097.33px 1100.56px 1103.79px 1107.02px 1115.04px 1119.96px 1124.04px 1132.92px 1140.95px 1145.03px 1153.62px 1161.93px 1165.16px 1173.19px " y="1540.05px 1540.05px 1540.05px 1540.05px 1540.05px 1540.05px 1540.05px 1540.05px 1540.05px 1540.05px 1540.05px 1540.05px 1540.05px 1540.05px 1540.05px 1540.05px 1540.05px 1540.05px ">t-Vallier de Thiey</tspan></text>
            </g>
            <g transform="matrix(0.919263,0,0,0.919263,-201.672,-57.6462)">
                <g transform="matrix(15.2296,0,0,15.2296,1116.91,1540.05)">
                </g>
                <text x="1060.86px" y="1540.05px" style="font-family:'HelveticaNeue', 'Helvetica Neue';font-size:15.23px;">S<tspan x="1070.57px 1078.6px 1083.52px 1091.54px 1099.86px 1108.45px " y="1540.05px 1540.05px 1540.05px 1540.05px 1540.05px 1540.05px ">eranon</tspan></text>
            </g>
            <g transform="matrix(0.919263,0,0,0.919263,-408.962,-124.099)">
                <g transform="matrix(15.2296,0,0,15.2296,1130.83,1540.05)">
                </g>
                <text x="1060.86px" y="1540.05px" style="font-family:'HelveticaNeue', 'Helvetica Neue';font-size:15.23px;">C<tspan x="1071.7px 1079.72px 1087.19px 1091.83px 1099.86px 1103.09px 1106.32px 1114.34px 1122.66px " y="1540.05px 1540.05px 1540.05px 1540.05px 1540.05px 1540.05px 1540.05px 1540.05px 1540.05px ">astellane</tspan></text>
            </g>
            <g transform="matrix(0.919263,0,0,0.919263,-420.202,-226.777)">
                <g transform="matrix(15.2296,0,0,15.2296,1118.04,1540.05)">
                </g>
                <text x="1060.86px" y="1540.05px" style="font-family:'HelveticaNeue', 'Helvetica Neue';font-size:15.23px;">B<tspan x="1071.13px 1079.16px 1084.08px 1089px 1097.03px 1109.86px " y="1540.05px 1540.05px 1540.05px 1540.05px 1540.05px 1540.05px ">arrême</tspan></text>
            </g>
            <g transform="matrix(0.919263,0,0,0.919263,-538.879,-358.861)">
                <g transform="matrix(15.2296,0,0,15.2296,1099.74,1540.05)">
                </g>
                <text x="1060.86px" y="1540.05px" style="font-family:'HelveticaNeue', 'Helvetica Neue';font-size:15.23px;">D<tspan x="1071.42px 1074.65px 1083.24px 1091.56px " y="1540.05px 1540.05px 1540.05px 1540.05px ">igne</tspan></text>
            </g>
            <g transform="matrix(0.919263,0,0,0.919263,-701.207,-308.554)">
                <g transform="matrix(15.2296,0,0,15.2296,1085.22,1540.05)">
                </g>
                <g transform="matrix(15.2296,0,0,15.2296,1088.48,1540.05)">
                </g>
                <g transform="matrix(15.2296,0,0,15.2296,1103.15,1540.05)">
                </g>
                <text x="1060.86px" y="1540.05px" style="font-family:'HelveticaNeue', 'Helvetica Neue';font-size:15.23px;">M<tspan x="1073.97px 1081.99px 1085.22px 1091.74px 1099.77px " y="1540.05px 1540.05px 1540.05px 1540.05px 1540.05px ">alĳai</tspan></text>
            </g>
            <g transform="matrix(0.919263,0,0,0.919263,-673.878,-432.415)">
                <g transform="matrix(15.2296,0,0,15.2296,1115.64,1540.05)">
                </g>
                <text x="1060.86px" y="1540.05px" style="font-family:'HelveticaNeue', 'Helvetica Neue';font-size:15.23px;">S<tspan x="1070.57px 1073.8px 1081.26px 1085.91px 1093.93px 1098.58px 1107.17px " y="1540.05px 1540.05px 1540.05px 1540.05px 1540.05px 1540.05px 1540.05px ">isteron</tspan></text>
            </g>
            <g transform="matrix(0.919263,0,0,0.919263,-653.81,-772.964)">
                <g transform="matrix(15.2296,0,0,15.2296,1089.32,1540.05)">
                </g>
                <text x="1060.86px" y="1540.05px" style="font-family:'HelveticaNeue', 'Helvetica Neue';font-size:15.23px;">G<tspan x="1072.26px 1080.29px " y="1540.05px 1540.05px ">ap</tspan></text>
            </g>
            <g transform="matrix(0.919263,0,0,0.919263,-676.981,-987.287)">
                <g transform="matrix(15.2296,0,0,15.2296,1101.7,1540.05)">
                </g>
                <text x="1060.86px" y="1540.05px" style="font-family:'HelveticaNeue', 'Helvetica Neue';font-size:15.23px;">C<tspan x="1071.7px 1080.29px 1085.21px 1094.09px " y="1540.05px 1540.05px 1540.05px 1540.05px ">orps</tspan></text>
            </g>
            <g transform="matrix(0.919263,0,0,0.919263,-847.614,-1067.77)">
                <g transform="matrix(15.2296,0,0,15.2296,1115.53,1540.05)">
                </g>
                <text x="1060.86px" y="1540.05px" style="font-family:'HelveticaNeue', 'Helvetica Neue';font-size:15.23px;">L<tspan x="1069.17px 1077.2px 1081.28px 1094.39px 1102.7px 1107.35px " y="1540.05px 1540.05px 1540.05px 1540.05px 1540.05px 1540.05px ">a Mure</tspan></text>
            </g>
            <g transform="matrix(0.919263,0,0,0.919263,-853.695,-1174.96)">
                <g transform="matrix(15.2296,0,0,15.2296,1077.2,1540.05)">
                </g>
                <g transform="matrix(15.2296,0,0,15.2296,1081.51,1540.05)">
                </g>
                <g transform="matrix(15.2296,0,0,15.2296,1106.12,1540.05)">
                </g>
                <text x="1060.86px" y="1540.05px" style="font-family:'HelveticaNeue', 'Helvetica Neue';font-size:15.23px;">L<tspan x="1069.17px 1077.2px 1085.83px 1090.48px 1098.5px " y="1540.05px 1540.05px 1540.05px 1540.05px 1540.05px ">aﬀrey</tspan></text>
            </g>
            <g transform="matrix(0.919263,0,0,0.919263,-814.702,-1312.01)">
                <g transform="matrix(15.2296,0,0,15.2296,1122.12,1540.05)">
                </g>
                <text x="1060.86px" y="1540.05px" style="font-family:'HelveticaNeue', 'Helvetica Neue';font-size:15.23px;">G<tspan x="1072.26px 1076.91px 1084.93px 1093.25px 1101.84px 1110.72px 1113.94px " y="1540.05px 1540.05px 1540.05px 1540.05px 1540.05px 1540.05px 1540.05px ">renoble</tspan></text>
            </g>
            <g transform="matrix(0.595161,0,0,0.595161,-337.598,-81.9546)">
                <g transform="matrix(23.523,0,0,23.523,1606.83,780.898)">
                </g>
                <text x="1349.37px" y="780.898px" style="font-family:'HelveticaNeue', 'Helvetica Neue';font-size:23.523px;">Par<tspan x="1384.66px 1397.29px " y="780.898px 780.898px ">c </tspan>National des Ecrins</text>
            </g>
            <g transform="matrix(0.595161,0,0,0.595161,-545.053,818.814)">
                <g transform="matrix(23.523,0,0,23.523,1691.4,780.898)">
                </g>
                <text x="1349.37px" y="780.898px" style="font-family:'HelveticaNeue', 'Helvetica Neue';font-size:23.523px;">Par<tspan x="1384.66px 1397.29px " y="780.898px 780.898px ">c </tspan>Natur<tspan x="1461.34px 1473.98px " y="780.898px 780.898px ">el</tspan> Regional du V<tspan x="1630.83px 1643.46px 1650.87px 1664.82px " y="780.898px 780.898px 780.898px 780.898px ">erdo</tspan>n</text>
            </g>
            <g transform="matrix(1.01255,0,0,1.01255,310.428,1384.74)">
                <g transform="matrix(13.8264,0,0,13.8264,122.654,0)">
                </g>
                <text x="0px" y="0px" style="font-family:'HelveticaNeue', 'Helvetica Neue';font-size:13.826px;">Lac de Sainte-Cr<tspan x="104.486px 112.423px " y="0px 0px ">oi</tspan>x</text>
            </g>
        </g>
    </g>
</svg>
