<?xml version="1.0" encoding="UTF-8" standalone="no"?><!DOCTYPE svg PUBLIC "-//W3C//DTD SVG 1.1//EN" "http://www.w3.org/Graphics/SVG/1.1/DTD/svg11.dtd"><svg width="100%" height="100%" viewBox="0 0 500 500" version="1.1" xmlns="http://www.w3.org/2000/svg" xmlns:xlink="http://www.w3.org/1999/xlink" xml:space="preserve" xmlns:serif="http://www.serif.com/" style="fill-rule:evenodd;clip-rule:evenodd;stroke-linejoin:round;stroke-miterlimit:2;"><rect x="0" y="0" width="500" height="500" style="fill:#c5f702;"/><path d="M78.014,267.817C75.205,267.817 72.748,267.324 70.642,266.337C68.536,265.351 66.904,263.937 65.746,262.096C64.589,260.256 64.01,258.064 64.01,255.522L71.012,255.522C71.012,257.381 71.648,258.861 72.919,259.962C74.19,261.062 75.888,261.613 78.014,261.613C80.063,261.613 81.685,261.072 82.881,259.99C84.076,258.909 84.674,257.457 84.674,255.636C84.674,254.269 84.285,253.064 83.507,252.021C82.729,250.977 81.619,250.266 80.177,249.886L74.598,248.463C71.6,247.704 69.228,246.281 67.483,244.194C65.737,242.106 64.864,239.621 64.864,236.737C64.864,233.207 66.021,230.39 68.336,228.283C70.651,226.177 73.744,225.124 77.615,225.124C80.234,225.124 82.52,225.598 84.474,226.547C86.429,227.496 87.937,228.834 89,230.56C90.063,232.287 90.594,234.308 90.594,236.623L83.649,236.623C83.649,235.029 83.099,233.739 81.998,232.752C80.898,231.765 79.437,231.272 77.615,231.272C75.831,231.272 74.418,231.756 73.374,232.723C72.331,233.691 71.809,234.953 71.809,236.509C71.809,237.799 72.179,238.862 72.919,239.697C73.659,240.532 74.693,241.139 76.021,241.518L81.771,242.941C84.844,243.7 87.264,245.218 89.028,247.495C90.793,249.772 91.675,252.486 91.675,255.636C91.675,258.102 91.116,260.246 89.996,262.068C88.877,263.89 87.292,265.303 85.243,266.309C83.194,267.314 80.784,267.817 78.014,267.817Z" style="fill-rule:nonzero;"/><path d="M108.923,267.817C104.939,267.817 101.808,266.707 99.531,264.487C97.254,262.267 96.116,259.241 96.116,255.408L96.116,235.94L103.231,235.94L103.231,255.351C103.231,257.324 103.724,258.861 104.711,259.962C105.698,261.062 107.102,261.613 108.923,261.613C110.707,261.613 112.102,261.062 113.107,259.962C114.113,258.861 114.616,257.324 114.616,255.351L114.616,235.94L121.731,235.94L121.731,255.408C121.731,259.241 120.574,262.267 118.259,264.487C115.944,266.707 112.832,267.817 108.923,267.817Z" style="fill-rule:nonzero;"/><path d="M127.31,277.494L127.31,235.94L134.255,235.94L134.255,241.689C134.824,239.716 135.849,238.169 137.329,237.05C138.809,235.93 140.649,235.37 142.85,235.37C144.862,235.37 146.636,235.864 148.173,236.85C149.71,237.837 150.905,239.232 151.759,241.034C152.613,242.837 153.04,244.934 153.04,247.325L153.04,255.806C153.04,259.411 152.11,262.315 150.251,264.516C148.391,266.717 145.924,267.817 142.85,267.817C140.649,267.817 138.799,267.248 137.3,266.11C135.801,264.971 134.767,263.377 134.198,261.328L134.426,268.728L134.426,277.494L127.31,277.494ZM140.175,261.669C141.997,261.669 143.41,261.176 144.416,260.189C145.422,259.203 145.924,257.685 145.924,255.636L145.924,247.552C145.924,245.503 145.422,243.985 144.416,242.998C143.41,242.012 141.997,241.518 140.175,241.518C138.353,241.518 136.94,242.069 135.934,243.169C134.928,244.27 134.426,245.826 134.426,247.837L134.426,255.351C134.426,257.362 134.928,258.918 135.934,260.019C136.94,261.119 138.353,261.669 140.175,261.669Z" style="fill-rule:nonzero;"/><path d="M171.142,267.817C168.485,267.817 166.17,267.305 164.197,266.28C162.224,265.256 160.696,263.804 159.615,261.926C158.533,260.047 157.992,257.837 157.992,255.294L157.992,247.894C157.992,245.351 158.533,243.141 159.615,241.262C160.696,239.384 162.224,237.932 164.197,236.907C166.17,235.883 168.485,235.37 171.142,235.37C173.76,235.37 176.047,235.883 178.001,236.907C179.956,237.932 181.474,239.365 182.555,241.205C183.637,243.046 184.178,245.199 184.178,247.666L184.178,253.359L164.823,253.359L164.823,255.522C164.823,257.647 165.374,259.25 166.474,260.332C167.575,261.413 169.131,261.954 171.142,261.954C172.622,261.954 173.884,261.698 174.927,261.186C175.971,260.673 176.588,259.924 176.777,258.937L183.836,258.937C183.343,261.632 181.938,263.785 179.624,265.398C177.309,267.011 174.481,267.817 171.142,267.817ZM164.823,247.666L164.823,248.748L177.347,248.691L177.347,247.609C177.347,245.446 176.815,243.776 175.753,242.6C174.69,241.423 173.153,240.835 171.142,240.835C169.055,240.835 167.48,241.433 166.417,242.628C165.355,243.824 164.823,245.503 164.823,247.666Z" style="fill-rule:nonzero;"/><path d="M190.61,267.248L190.61,235.94L197.555,235.94L197.555,242.031C197.934,239.981 198.873,238.359 200.373,237.164C201.872,235.968 203.816,235.37 206.207,235.37C209.395,235.37 211.881,236.395 213.664,238.444C215.448,240.494 216.34,243.359 216.34,247.04L216.34,250L209.224,250L209.224,247.381C209.224,245.484 208.731,244.032 207.744,243.027C206.758,242.021 205.353,241.518 203.532,241.518C201.634,241.518 200.192,242.088 199.206,243.226C198.219,244.364 197.726,245.977 197.726,248.065L197.726,267.248L190.61,267.248Z" style="fill-rule:nonzero;"/><path d="M249.242,267.248L259.716,225.693L268.881,225.693L279.412,267.248L272.126,267.248L269.849,257.172L258.805,257.172L256.528,267.248L249.242,267.248ZM260.115,251.366L268.539,251.366L266.035,240.209C265.617,238.349 265.257,236.67 264.953,235.171C264.65,233.672 264.441,232.581 264.327,231.898C264.213,232.581 264.004,233.672 263.701,235.171C263.397,236.67 263.037,238.331 262.619,240.152L260.115,251.366Z" style="fill-rule:nonzero;"/><path d="M300.474,267.248C297.362,267.248 294.867,266.318 292.988,264.459C291.11,262.599 290.171,260.152 290.171,257.116L290.171,232.126L279.867,232.126L279.867,225.693L297.286,225.693L297.286,256.945C297.286,258.121 297.618,259.06 298.282,259.763C298.947,260.465 299.848,260.816 300.986,260.816L310.151,260.816L310.151,267.248L300.474,267.248Z" style="fill-rule:nonzero;"/><path d="M313.794,277.494L313.794,235.94L320.739,235.94L320.739,241.689C321.308,239.716 322.333,238.169 323.813,237.05C325.293,235.93 327.134,235.37 329.335,235.37C331.346,235.37 333.12,235.864 334.657,236.85C336.194,237.837 337.389,239.232 338.243,241.034C339.097,242.837 339.524,244.934 339.524,247.325L339.524,255.806C339.524,259.411 338.594,262.315 336.735,264.516C334.875,266.717 332.409,267.817 329.335,267.817C327.134,267.817 325.284,267.248 323.785,266.11C322.286,264.971 321.251,263.377 320.682,261.328L320.91,268.728L320.91,277.494L313.794,277.494ZM326.659,261.669C328.481,261.669 329.894,261.176 330.9,260.189C331.906,259.203 332.409,257.685 332.409,255.636L332.409,247.552C332.409,245.503 331.906,243.985 330.9,242.998C329.894,242.012 328.481,241.518 326.659,241.518C324.838,241.518 323.424,242.069 322.418,243.169C321.413,244.27 320.91,245.826 320.91,247.837L320.91,255.351C320.91,257.362 321.413,258.918 322.418,260.019C323.424,261.119 324.838,261.669 326.659,261.669Z" style="fill-rule:nonzero;"/><path d="M344.818,267.248L344.818,260.816L355.52,260.816L355.52,242.372L345.957,242.372L345.957,235.94L362.635,235.94L362.635,260.816L372.256,260.816L372.256,267.248L344.818,267.248ZM358.594,230.703C357.152,230.703 356.013,230.333 355.178,229.593C354.343,228.853 353.926,227.856 353.926,226.604C353.926,225.352 354.343,224.356 355.178,223.616C356.013,222.876 357.152,222.506 358.594,222.506C360.036,222.506 361.174,222.876 362.009,223.616C362.844,224.356 363.262,225.352 363.262,226.604C363.262,227.856 362.844,228.853 362.009,229.593C361.174,230.333 360.036,230.703 358.594,230.703Z" style="fill-rule:nonzero;"/><path d="M375.956,267.248L375.956,235.94L382.901,235.94L382.901,241.803C383.28,239.83 384.21,238.264 385.69,237.107C387.17,235.949 389.048,235.37 391.325,235.37C394.399,235.37 396.856,236.395 398.697,238.444C400.538,240.494 401.458,243.245 401.458,246.698L401.458,267.248L394.342,267.248L394.342,247.552C394.342,245.617 393.839,244.127 392.834,243.084C391.828,242.04 390.471,241.518 388.764,241.518C386.98,241.518 385.585,242.05 384.58,243.112C383.574,244.175 383.071,245.693 383.071,247.666L383.071,267.248L375.956,267.248Z" style="fill-rule:nonzero;"/><path d="M419.788,267.817C417.131,267.817 414.816,267.305 412.843,266.28C410.869,265.256 409.342,263.804 408.26,261.926C407.179,260.047 406.638,257.837 406.638,255.294L406.638,247.894C406.638,245.351 407.179,243.141 408.26,241.262C409.342,239.384 410.869,237.932 412.843,236.907C414.816,235.883 417.131,235.37 419.788,235.37C422.406,235.37 424.693,235.883 426.647,236.907C428.601,237.932 430.119,239.365 431.201,241.205C432.282,243.046 432.823,245.199 432.823,247.666L432.823,253.359L413.469,253.359L413.469,255.522C413.469,257.647 414.019,259.25 415.12,260.332C416.22,261.413 417.776,261.954 419.788,261.954C421.268,261.954 422.529,261.698 423.573,261.186C424.617,260.673 425.233,259.924 425.423,258.937L432.482,258.937C431.988,261.632 430.584,263.785 428.269,265.398C425.954,267.011 423.127,267.817 419.788,267.817ZM413.469,247.666L413.469,248.748L425.992,248.691L425.992,247.609C425.992,245.446 425.461,243.776 424.398,242.6C423.336,241.423 421.799,240.835 419.788,240.835C417.7,240.835 416.125,241.433 415.063,242.628C414,243.824 413.469,245.503 413.469,247.666Z" style="fill-rule:nonzero;"/></svg>