<?xml version="1.0" encoding="UTF-8" standalone="no"?>
<!DOCTYPE svg PUBLIC "-//W3C//DTD SVG 1.1//EN" "http://www.w3.org/Graphics/SVG/1.1/DTD/svg11.dtd">
<svg width="3005px" height="884px" version="1.1" xmlns="http://www.w3.org/2000/svg" xmlns:xlink="http://www.w3.org/1999/xlink" xml:space="preserve" xmlns:serif="http://www.serif.com/" style="fill-rule:evenodd;clip-rule:evenodd;stroke-linecap:square;stroke-miterlimit:1.5;">
    <g transform="matrix(1,0,0,1,-378.808,-1356.09)">
        <g>
            <g transform="matrix(-0.56173,-0.512226,0.489634,-0.536955,385.133,3190.56)">
                <path d="M1095.44,1243.82L848.104,961.338L797.921,1072.51L760.494,1160.3L773.257,1286.62L753.846,1366.83L779.196,1551.39L886.094,1750.31L975.929,1647.11L1065.02,1678.88L1081.99,1652.56L1076.72,1497.88L1114.85,1410.93L1095.44,1243.82Z" style="fill:rgb(191,186,174);"/>
            </g>
            <g transform="matrix(-0.56173,-0.512226,0.489634,-0.536955,3236.1,2791.37)">
                <path d="M963.64,1002.38L895.214,1059.65L860.307,1087.66L806.806,1050.44L664.888,1064.19L996.125,1444.38L972.939,1394.21L995.409,1338.65L963.778,1285.78L982.979,1179.89L1023.22,1147.4L1065.33,1103.4L994.767,1033.59L935.796,1080.7L963.64,1002.38Z" style="fill:rgb(191,186,174);"/>
            </g>
            <path d="M527.388,2007.08C537.964,1998.23 547.084,1984.37 559.115,1980.53C571.146,1976.68 590.841,1994.35 599.571,1984.01C616.256,1964.24 643.93,1886.05 659.225,1861.9C666.249,1850.81 684.539,1847.49 691.341,1839.12C697.395,1831.66 693.989,1819.11 700.039,1811.65C707.043,1803.02 728.556,1795.93 733.365,1787.31C737.871,1779.24 728.673,1769.18 728.891,1759.93C729.177,1747.81 729.891,1724.42 735.079,1714.61C739.501,1706.25 755.892,1698.17 760.018,1701.08C764.145,1703.98 757.944,1723.54 759.836,1732.03C761.509,1739.55 764.239,1749.14 771.368,1752.04C779.114,1755.18 797.257,1754.57 806.309,1750.92C815.09,1747.38 820.15,1737.84 825.681,1730.15C832.022,1721.34 839.534,1709.47 844.352,1698.07C850,1684.72 853.467,1644.6 859.568,1650C865.669,1655.4 874.193,1724.72 880.961,1730.47C887.728,1736.23 897.205,1697.93 900.174,1684.52C902.662,1673.29 893.839,1655.3 898.777,1650.04C903.716,1644.78 920.347,1648.67 929.803,1652.97C939.274,1657.28 948.782,1676.73 955.6,1675.87C962.419,1675.01 964.156,1656.17 970.715,1647.82C978.278,1638.18 992.014,1629.01 1000.98,1618.07C1010.48,1606.47 1017.56,1586.92 1027.71,1578.24C1036.89,1570.38 1049.88,1567.7 1061.85,1566C1074.14,1564.24 1095.57,1559.91 1101.47,1567.72C1107.37,1575.52 1100.38,1599.15 1097.24,1612.83C1094.29,1625.73 1080.03,1644.51 1082.67,1649.77C1085.32,1655.03 1109.35,1640.63 1113.12,1644.37C1116.89,1648.12 1106.79,1662.71 1105.31,1672.24C1103.65,1682.81 1105.91,1696.39 1103.21,1707.83C1100.52,1719.26 1093.89,1729.86 1089.12,1740.82C1083,1754.88 1066.23,1779.69 1066.49,1792.15C1066.73,1803.36 1081.21,1809.54 1090.7,1815.53C1100.2,1821.54 1114.59,1833.17 1123.53,1828.2C1132.47,1823.23 1136.9,1799.61 1144.33,1785.7C1151.89,1771.54 1162.73,1744.58 1168.93,1743.23C1175.13,1741.88 1179,1766.27 1181.53,1777.61C1183.98,1788.61 1179.88,1812.45 1184.1,1811.31C1188.31,1810.18 1200.3,1784.85 1206.82,1770.8C1213.83,1755.69 1219.09,1725.26 1226.17,1720.63C1233.25,1716.01 1247.18,1732.53 1249.3,1743.05C1251.61,1754.53 1236.67,1786.32 1240.03,1789.52C1243.38,1792.71 1265.84,1775.11 1269.41,1762.22C1273.17,1748.67 1261.24,1724.82 1262.57,1708.2C1263.85,1692.23 1274.8,1678.29 1277.42,1662.48C1280.3,1645.04 1282.11,1622.1 1279.88,1603.56C1277.72,1585.48 1260.13,1555.62 1264.1,1551.26C1268.06,1546.91 1298.23,1570.47 1303.7,1577.41C1307.19,1581.85 1292.13,1589.92 1296.91,1592.94C1303.56,1597.13 1333.89,1596.96 1343.58,1602.58C1351.27,1607.05 1348.6,1620.53 1355.02,1626.68C1364.63,1635.9 1405.48,1652.67 1401.26,1657.87C1397.04,1663.06 1334.88,1653.48 1329.72,1657.87C1324.55,1662.26 1361.09,1670.97 1370.27,1684.22C1379.99,1698.23 1379.42,1731.96 1388.04,1741.94C1395.45,1750.53 1411.49,1739.83 1421.99,1744.13C1432.86,1748.58 1442.11,1764.54 1453.25,1768.64C1464.39,1772.74 1478.29,1768.01 1488.84,1768.73C1498.17,1769.37 1507.48,1775.18 1516.56,1772.97C1537.66,1767.84 1588.17,1741.46 1615.44,1737.95C1637.35,1735.12 1658.84,1751.05 1680.22,1751.88C1701.57,1752.7 1726.27,1742.88 1743.69,1742.92C1757.72,1742.96 1773.2,1750.08 1784.74,1752.15C1794.05,1753.83 1805.35,1749.72 1812.93,1755.37C1823.78,1763.46 1839.01,1799.08 1849.81,1800.71C1860.62,1802.34 1874.12,1776.49 1877.75,1765.14C1881.12,1754.64 1871.36,1743.65 1871.61,1732.63C1871.86,1721.25 1876.3,1707.1 1879.29,1696.85C1881.87,1687.99 1892.59,1679.83 1889.53,1671.12C1886.09,1661.32 1869.1,1648.95 1858.65,1638.09C1844.33,1623.2 1811.48,1596.85 1803.59,1581.77C1798.17,1571.42 1812.79,1558 1811.31,1547.6C1809.84,1537.2 1795.1,1530.27 1794.73,1519.37C1794.35,1508.05 1799.1,1484.93 1809.03,1479.73C1818.95,1474.53 1840.16,1493.62 1854.26,1488.16C1868.36,1482.7 1876.92,1456.02 1893.6,1446.96C1912.08,1436.93 1941.05,1429.51 1965.1,1427.96C1989.16,1426.41 2020.71,1431.27 2037.94,1437.66C2051.03,1442.51 2054.77,1468.2 2068.49,1466.3C2082.21,1464.38 2102.32,1432.42 2120.25,1426.19C2137.85,1420.08 2172.96,1424.36 2176.08,1428.91C2179.2,1433.46 2148.96,1444.92 2138.98,1453.49C2130.07,1461.13 2121.07,1469.65 2116.16,1480.31C2109.86,1493.97 2098.27,1531.98 2101.2,1535.43C2104.14,1538.89 2131.52,1496.05 2133.76,1501.03C2136,1506.02 2125.36,1548.33 2114.64,1565.35C2104.16,1581.98 2078.48,1592.13 2069.41,1603.17C2063.1,1610.86 2060.28,1621.63 2060.23,1631.59C2060.18,1643.72 2063.34,1664.1 2069.08,1675.99C2074.46,1687.14 2085.11,1697.59 2094.67,1702.93C2104.03,1708.16 2117.92,1705.01 2126.44,1708.05C2133.78,1710.67 2138.34,1723.43 2145.8,1721.18C2156.09,1718.07 2174.29,1700.33 2188.14,1689.39C2203.24,1677.47 2224.74,1655.16 2236.41,1649.67C2243.26,1646.43 2250.95,1658.86 2258.12,1656.41C2267.76,1653.11 2279.93,1634.14 2294.26,1629.88C2312.49,1624.46 2347.44,1624.98 2367.52,1623.88C2383.23,1623.03 2400.3,1621.85 2414.73,1623.32C2428.15,1624.7 2440.74,1630.87 2454.11,1632.74C2469.15,1634.84 2488.52,1635.79 2504.96,1635.95C2520.91,1636.11 2537.28,1637.57 2552.76,1633.72C2572.28,1628.86 2599.27,1611.43 2622.13,1606.79C2644.26,1602.3 2683.88,1611.82 2689.88,1605.87C2695.89,1599.92 2653.73,1576.75 2658.16,1571.09C2662.59,1565.43 2699.79,1569.11 2716.46,1571.93C2731.15,1574.4 2754.31,1591.86 2758.16,1587.97C2762.02,1584.08 2734.55,1552.46 2739.61,1548.58C2744.68,1544.69 2772.84,1559.14 2788.56,1564.66C2803.81,1570 2822.67,1576.66 2833.95,1581.66C2841.82,1585.15 2849.16,1589.79 2856.25,1594.68C2867.6,1602.5 2892.12,1619.36 2902.04,1628.58C2908.26,1634.35 2907.73,1647.44 2915.82,1649.99C2925.18,1652.94 2958.3,1639.48 2958.19,1646.27C2958.07,1653.06 2921.03,1679.04 2915.13,1690.72C2911.11,1698.68 2916.19,1713.23 2922.8,1716.35C2929.41,1719.47 2944.67,1713.52 2954.8,1709.46C2966.5,1704.77 2982.93,1694.44 2993.03,1688.23C3000.85,1683.43 3006.28,1673.17 3015.4,1672.2C3031.11,1670.53 3063.25,1678.61 3087.3,1678.21C3114.09,1677.77 3164.66,1664.75 3176.14,1669.55C3187.62,1674.34 3150.13,1703.88 3156.16,1706.99C3162.2,1710.09 3196.36,1691.62 3212.33,1688.19C3225.27,1685.41 3239.78,1689.42 3251.99,1686.42C3264.08,1683.46 3274.41,1675.61 3285.62,1670.21" style="fill:none;stroke:black;stroke-width:12.5px;"/>
            <g id="Pass-symbol" serif:id="Pass symbol" transform="matrix(1,8.01187e-32,-7.39557e-32,1,437.512,-109.09)">
                <g transform="matrix(2.19038,1.56439e-32,1.56439e-32,2.40191,-1499.65,-2479.76)">
                    <path d="M1341.5,1813L1341.5,1836" style="fill:none;stroke:rgb(31,28,27);stroke-width:1.09px;stroke-linecap:butt;stroke-linejoin:round;"/>
                </g>
                <g transform="matrix(5.54435,-4.18023e-31,1.36901e-31,1.85112,-4859.57,684.927)">
                    <rect x="1111.32" y="672.689" width="49.484" height="31.5" style="fill:white;stroke:black;stroke-width:0.55px;"/>
                </g>
                <g transform="matrix(0.825507,-6.10509e-32,6.10509e-32,0.825507,0.411159,775.798)">
                    <g transform="matrix(30.2844,0,0,30.2844,1588.67,1429.35)">
                        <path d="M0.306,-0.73C0.369,-0.73 0.419,-0.713 0.458,-0.679C0.496,-0.644 0.519,-0.596 0.526,-0.535L0.436,-0.535C0.432,-0.571 0.419,-0.599 0.396,-0.62C0.373,-0.64 0.343,-0.65 0.306,-0.65C0.266,-0.65 0.234,-0.638 0.211,-0.614C0.188,-0.59 0.176,-0.557 0.176,-0.515L0.176,-0.205C0.176,-0.163 0.188,-0.13 0.211,-0.106C0.234,-0.082 0.265,-0.07 0.306,-0.07C0.343,-0.07 0.373,-0.08 0.396,-0.101C0.419,-0.121 0.432,-0.149 0.436,-0.185L0.526,-0.185C0.519,-0.124 0.496,-0.076 0.458,-0.042C0.419,-0.007 0.369,0.01 0.306,0.01C0.272,0.01 0.242,0.005 0.215,-0.005C0.188,-0.015 0.165,-0.029 0.146,-0.048C0.127,-0.067 0.112,-0.089 0.102,-0.116C0.091,-0.143 0.086,-0.172 0.086,-0.205L0.086,-0.515C0.086,-0.548 0.091,-0.577 0.102,-0.604C0.112,-0.631 0.127,-0.653 0.146,-0.672C0.165,-0.691 0.188,-0.705 0.215,-0.715C0.242,-0.725 0.272,-0.73 0.306,-0.73Z" style="fill-rule:nonzero;"/>
                    </g>
                    <g transform="matrix(30.2844,0,0,30.2844,1606.84,1429.35)">
                        <path d="M0.17,-0.205C0.17,-0.164 0.182,-0.131 0.205,-0.107C0.228,-0.082 0.26,-0.07 0.3,-0.07C0.34,-0.07 0.372,-0.082 0.395,-0.107C0.418,-0.131 0.43,-0.164 0.43,-0.205L0.43,-0.515C0.43,-0.556 0.418,-0.589 0.395,-0.614C0.372,-0.638 0.34,-0.65 0.3,-0.65C0.26,-0.65 0.228,-0.638 0.205,-0.614C0.182,-0.589 0.17,-0.556 0.17,-0.515L0.17,-0.205ZM0.08,-0.515C0.08,-0.548 0.085,-0.577 0.096,-0.604C0.106,-0.631 0.121,-0.653 0.14,-0.672C0.159,-0.691 0.182,-0.705 0.209,-0.715C0.236,-0.725 0.266,-0.73 0.3,-0.73C0.334,-0.73 0.365,-0.725 0.392,-0.715C0.419,-0.705 0.442,-0.691 0.461,-0.672C0.48,-0.653 0.494,-0.631 0.505,-0.604C0.515,-0.577 0.52,-0.548 0.52,-0.515L0.52,-0.205C0.52,-0.172 0.515,-0.143 0.505,-0.117C0.494,-0.09 0.48,-0.068 0.461,-0.049C0.442,-0.03 0.418,-0.016 0.391,-0.006C0.364,0.005 0.333,0.01 0.3,0.01C0.266,0.01 0.236,0.005 0.209,-0.005C0.182,-0.015 0.159,-0.029 0.14,-0.048C0.121,-0.067 0.106,-0.089 0.096,-0.116C0.085,-0.143 0.08,-0.172 0.08,-0.205L0.08,-0.515Z" style="fill-rule:nonzero;"/>
                    </g>
                    <g transform="matrix(30.2844,0,0,30.2844,1625.01,1429.35)">
                        <path d="M0.195,-0.72L0.195,-0.082L0.535,-0.082L0.535,-0L0.105,-0L0.105,-0.72L0.195,-0.72Z" style="fill-rule:nonzero;"/>
                    </g>
                    <g transform="matrix(30.2844,0,0,30.2844,1661.36,1429.35)">
                        <path d="M0.289,-0.08C0.331,-0.08 0.365,-0.093 0.391,-0.119C0.416,-0.144 0.429,-0.178 0.429,-0.22L0.429,-0.501C0.429,-0.543 0.416,-0.577 0.391,-0.602C0.365,-0.627 0.331,-0.64 0.289,-0.64L0.178,-0.64L0.178,-0.08L0.289,-0.08ZM0.088,-0L0.088,-0.72L0.289,-0.72C0.324,-0.72 0.355,-0.715 0.384,-0.704C0.412,-0.693 0.436,-0.679 0.457,-0.66C0.477,-0.641 0.493,-0.618 0.504,-0.591C0.515,-0.564 0.52,-0.534 0.52,-0.501L0.52,-0.22C0.52,-0.187 0.515,-0.157 0.504,-0.13C0.493,-0.103 0.477,-0.08 0.457,-0.061C0.436,-0.042 0.412,-0.027 0.384,-0.016C0.355,-0.005 0.324,-0 0.289,-0L0.088,-0Z" style="fill-rule:nonzero;"/>
                    </g>
                    <g transform="matrix(30.2844,0,0,30.2844,1679.53,1429.35)">
                        <path d="M0.095,-0L0.095,-0.72L0.52,-0.72L0.52,-0.638L0.185,-0.638L0.185,-0.412L0.485,-0.412L0.485,-0.33L0.185,-0.33L0.185,-0.082L0.52,-0.082L0.52,-0L0.095,-0Z" style="fill-rule:nonzero;"/>
                    </g>
                    <g transform="matrix(30.2844,0,0,30.2844,1715.87,1429.35)">
                        <path d="M0.27,-0.07C0.313,-0.07 0.347,-0.082 0.372,-0.107C0.397,-0.131 0.41,-0.164 0.41,-0.205L0.41,-0.64L0.13,-0.64L0.13,-0.72L0.5,-0.72L0.5,-0.205C0.5,-0.172 0.495,-0.143 0.484,-0.116C0.473,-0.089 0.458,-0.067 0.438,-0.048C0.418,-0.029 0.394,-0.015 0.366,-0.005C0.337,0.005 0.305,0.01 0.27,0.01C0.241,0.01 0.213,0.006 0.188,-0.003C0.163,-0.012 0.14,-0.024 0.121,-0.041C0.101,-0.057 0.085,-0.076 0.072,-0.099C0.059,-0.122 0.05,-0.147 0.045,-0.175L0.135,-0.175C0.141,-0.143 0.156,-0.118 0.181,-0.099C0.206,-0.08 0.235,-0.07 0.27,-0.07Z" style="fill-rule:nonzero;"/>
                    </g>
                    <g transform="matrix(30.2844,0,0,30.2844,1734.04,1429.35)">
                        <path d="M0.17,-0.205C0.17,-0.164 0.182,-0.131 0.205,-0.107C0.228,-0.082 0.26,-0.07 0.3,-0.07C0.34,-0.07 0.372,-0.082 0.395,-0.107C0.418,-0.131 0.43,-0.164 0.43,-0.205L0.43,-0.515C0.43,-0.556 0.418,-0.589 0.395,-0.614C0.372,-0.638 0.34,-0.65 0.3,-0.65C0.26,-0.65 0.228,-0.638 0.205,-0.614C0.182,-0.589 0.17,-0.556 0.17,-0.515L0.17,-0.205ZM0.08,-0.515C0.08,-0.548 0.085,-0.577 0.096,-0.604C0.106,-0.631 0.121,-0.653 0.14,-0.672C0.159,-0.691 0.182,-0.705 0.209,-0.715C0.236,-0.725 0.266,-0.73 0.3,-0.73C0.334,-0.73 0.365,-0.725 0.392,-0.715C0.419,-0.705 0.442,-0.691 0.461,-0.672C0.48,-0.653 0.494,-0.631 0.505,-0.604C0.515,-0.577 0.52,-0.548 0.52,-0.515L0.52,-0.205C0.52,-0.172 0.515,-0.143 0.505,-0.117C0.494,-0.09 0.48,-0.068 0.461,-0.049C0.442,-0.03 0.418,-0.016 0.391,-0.006C0.364,0.005 0.333,0.01 0.3,0.01C0.266,0.01 0.236,0.005 0.209,-0.005C0.182,-0.015 0.159,-0.029 0.14,-0.048C0.121,-0.067 0.106,-0.089 0.096,-0.116C0.085,-0.143 0.08,-0.172 0.08,-0.205L0.08,-0.515Z" style="fill-rule:nonzero;"/>
                    </g>
                    <g transform="matrix(30.2844,0,0,30.2844,1752.21,1429.35)">
                        <path d="M0.3,0.01C0.231,0.01 0.178,-0.009 0.141,-0.046C0.104,-0.083 0.085,-0.135 0.085,-0.2L0.085,-0.72L0.175,-0.72L0.175,-0.2C0.175,-0.16 0.186,-0.128 0.207,-0.105C0.228,-0.082 0.259,-0.07 0.3,-0.07C0.34,-0.07 0.371,-0.082 0.393,-0.105C0.414,-0.128 0.425,-0.16 0.425,-0.2L0.425,-0.72L0.515,-0.72L0.515,-0.2C0.515,-0.134 0.496,-0.083 0.459,-0.046C0.422,-0.008 0.369,0.01 0.3,0.01Z" style="fill-rule:nonzero;"/>
                    </g>
                    <g transform="matrix(30.2844,0,0,30.2844,1770.38,1429.35)">
                        <path d="M0.25,-0.367L0.051,-0.72L0.155,-0.72L0.268,-0.511C0.277,-0.495 0.285,-0.48 0.29,-0.467C0.294,-0.46 0.297,-0.454 0.3,-0.447L0.303,-0.447C0.306,-0.453 0.309,-0.46 0.313,-0.467L0.335,-0.511L0.45,-0.72L0.549,-0.72L0.35,-0.373L0.56,-0L0.457,-0L0.332,-0.229L0.31,-0.273C0.306,-0.28 0.303,-0.287 0.3,-0.294L0.297,-0.294C0.294,-0.287 0.291,-0.28 0.288,-0.273C0.285,-0.267 0.27,-0.237 0.266,-0.23L0.14,-0L0.04,-0L0.25,-0.367Z" style="fill-rule:nonzero;"/>
                    </g>
                    <g transform="matrix(30.2844,0,0,30.2844,1806.72,1429.35)">
                        <path d="M0.333,-0.72C0.366,-0.72 0.395,-0.715 0.422,-0.705C0.449,-0.695 0.472,-0.681 0.491,-0.662C0.509,-0.643 0.524,-0.621 0.535,-0.596C0.545,-0.57 0.55,-0.541 0.55,-0.51C0.55,-0.479 0.545,-0.45 0.534,-0.425C0.523,-0.399 0.509,-0.377 0.49,-0.358C0.47,-0.339 0.448,-0.325 0.421,-0.315C0.394,-0.305 0.365,-0.3 0.333,-0.3L0.18,-0.3L0.18,-0L0.09,-0L0.09,-0.72L0.333,-0.72ZM0.18,-0.64L0.18,-0.38L0.333,-0.38C0.37,-0.38 0.4,-0.392 0.423,-0.416C0.446,-0.439 0.457,-0.471 0.457,-0.51C0.457,-0.549 0.446,-0.581 0.423,-0.605C0.4,-0.628 0.37,-0.64 0.333,-0.64L0.18,-0.64Z" style="fill-rule:nonzero;"/>
                    </g>
                    <g transform="matrix(30.2844,0,0,30.2844,1824.89,1429.35)">
                        <path d="M0.195,-0.72L0.195,-0.082L0.535,-0.082L0.535,-0L0.105,-0L0.105,-0.72L0.195,-0.72Z" style="fill-rule:nonzero;"/>
                    </g>
                    <g transform="matrix(30.2844,0,0,30.2844,1843.06,1429.35)">
                        <path d="M0.044,-0L0.24,-0.72L0.366,-0.72L0.556,-0L0.46,-0L0.41,-0.203L0.189,-0.203L0.138,-0L0.044,-0ZM0.208,-0.278L0.392,-0.278L0.322,-0.563C0.319,-0.577 0.316,-0.59 0.313,-0.602C0.31,-0.613 0.308,-0.624 0.307,-0.633C0.306,-0.643 0.304,-0.652 0.303,-0.66L0.299,-0.66C0.298,-0.652 0.296,-0.643 0.294,-0.633C0.293,-0.624 0.291,-0.613 0.288,-0.602C0.285,-0.59 0.282,-0.577 0.279,-0.563L0.208,-0.278Z" style="fill-rule:nonzero;"/>
                    </g>
                    <g transform="matrix(30.2844,0,0,30.2844,1861.23,1429.35)">
                        <path d="M0.085,-0.72L0.199,-0.72L0.39,-0.237C0.395,-0.225 0.4,-0.211 0.405,-0.196C0.41,-0.18 0.414,-0.165 0.417,-0.151C0.422,-0.134 0.426,-0.117 0.43,-0.1L0.438,-0.1C0.438,-0.1 0.438,-0.103 0.437,-0.111C0.436,-0.117 0.435,-0.127 0.434,-0.139C0.433,-0.151 0.432,-0.165 0.431,-0.181C0.43,-0.196 0.429,-0.213 0.429,-0.23L0.429,-0.72L0.515,-0.72L0.515,-0L0.401,-0L0.213,-0.484C0.208,-0.499 0.202,-0.515 0.197,-0.531C0.192,-0.547 0.187,-0.562 0.184,-0.575C0.179,-0.59 0.175,-0.606 0.172,-0.621L0.164,-0.621C0.165,-0.61 0.167,-0.598 0.168,-0.585C0.169,-0.574 0.169,-0.56 0.17,-0.545C0.171,-0.529 0.171,-0.511 0.171,-0.492L0.171,-0L0.085,-0L0.085,-0.72Z" style="fill-rule:nonzero;"/>
                    </g>
                    <g transform="matrix(30.2844,0,0,30.2844,1879.4,1429.35)">
                        <path d="M0.095,-0L0.095,-0.72L0.52,-0.72L0.52,-0.638L0.185,-0.638L0.185,-0.412L0.485,-0.412L0.485,-0.33L0.185,-0.33L0.185,-0.082L0.52,-0.082L0.52,-0L0.095,-0Z" style="fill-rule:nonzero;"/>
                    </g>
                    <g transform="matrix(30.2844,0,0,30.2844,1697.7,1459.63)">
                        <path d="M0.09,-0.08L0.283,-0.08L0.283,-0.585C0.283,-0.59 0.284,-0.617 0.284,-0.623C0.284,-0.629 0.284,-0.634 0.285,-0.639C0.285,-0.643 0.285,-0.645 0.285,-0.645L0.283,-0.645C0.278,-0.641 0.274,-0.637 0.269,-0.634C0.265,-0.631 0.261,-0.627 0.257,-0.624C0.252,-0.621 0.248,-0.618 0.244,-0.615L0.103,-0.519L0.103,-0.61L0.258,-0.72L0.373,-0.72L0.373,-0.08L0.535,-0.08L0.535,-0L0.09,-0L0.09,-0.08Z" style="fill-rule:nonzero;"/>
                    </g>
                    <g transform="matrix(30.2844,0,0,30.2844,1715.87,1459.63)">
                        <path d="M0.165,-0.638L0.165,-0.53L0.075,-0.53L0.075,-0.72L0.525,-0.72L0.525,-0.618L0.272,-0L0.171,-0L0.414,-0.574C0.419,-0.585 0.423,-0.595 0.427,-0.602C0.43,-0.609 0.433,-0.615 0.436,-0.62C0.439,-0.626 0.442,-0.631 0.445,-0.634L0.445,-0.64C0.434,-0.639 0.424,-0.639 0.414,-0.639C0.405,-0.639 0.371,-0.638 0.364,-0.638L0.165,-0.638Z" style="fill-rule:nonzero;"/>
                    </g>
                    <g transform="matrix(30.2844,0,0,30.2844,1734.04,1459.63)">
                        <path d="M0.25,-0.405C0.25,-0.422 0.255,-0.435 0.264,-0.445C0.273,-0.455 0.285,-0.46 0.3,-0.46C0.315,-0.46 0.328,-0.455 0.337,-0.445C0.346,-0.435 0.35,-0.422 0.35,-0.405L0.35,-0.305C0.35,-0.288 0.346,-0.275 0.337,-0.265C0.328,-0.255 0.315,-0.25 0.3,-0.25C0.285,-0.25 0.273,-0.255 0.264,-0.265C0.255,-0.275 0.25,-0.288 0.25,-0.305L0.25,-0.405ZM0.17,-0.205C0.17,-0.164 0.182,-0.131 0.205,-0.107C0.228,-0.082 0.26,-0.07 0.3,-0.07C0.34,-0.07 0.372,-0.082 0.395,-0.107C0.418,-0.131 0.43,-0.164 0.43,-0.205L0.43,-0.515C0.43,-0.556 0.418,-0.589 0.395,-0.614C0.372,-0.638 0.34,-0.65 0.3,-0.65C0.26,-0.65 0.228,-0.638 0.205,-0.614C0.182,-0.589 0.17,-0.556 0.17,-0.515L0.17,-0.205ZM0.08,-0.205L0.08,-0.515C0.08,-0.548 0.085,-0.577 0.096,-0.604C0.106,-0.631 0.121,-0.653 0.14,-0.672C0.159,-0.691 0.182,-0.705 0.209,-0.715C0.236,-0.725 0.266,-0.73 0.3,-0.73C0.334,-0.73 0.365,-0.725 0.392,-0.715C0.419,-0.705 0.442,-0.691 0.461,-0.672C0.48,-0.653 0.494,-0.631 0.505,-0.604C0.515,-0.577 0.52,-0.548 0.52,-0.515L0.52,-0.205C0.52,-0.172 0.515,-0.143 0.505,-0.117C0.494,-0.09 0.48,-0.068 0.461,-0.049C0.442,-0.03 0.418,-0.016 0.391,-0.006C0.364,0.005 0.333,0.01 0.3,0.01C0.266,0.01 0.236,0.005 0.209,-0.005C0.182,-0.015 0.159,-0.029 0.14,-0.048C0.121,-0.067 0.106,-0.089 0.096,-0.116C0.085,-0.143 0.08,-0.172 0.08,-0.205Z" style="fill-rule:nonzero;"/>
                    </g>
                    <g transform="matrix(30.2844,0,0,30.2844,1752.21,1459.63)">
                        <path d="M0.25,-0.405C0.25,-0.422 0.255,-0.435 0.264,-0.445C0.273,-0.455 0.285,-0.46 0.3,-0.46C0.315,-0.46 0.328,-0.455 0.337,-0.445C0.346,-0.435 0.35,-0.422 0.35,-0.405L0.35,-0.305C0.35,-0.288 0.346,-0.275 0.337,-0.265C0.328,-0.255 0.315,-0.25 0.3,-0.25C0.285,-0.25 0.273,-0.255 0.264,-0.265C0.255,-0.275 0.25,-0.288 0.25,-0.305L0.25,-0.405ZM0.17,-0.205C0.17,-0.164 0.182,-0.131 0.205,-0.107C0.228,-0.082 0.26,-0.07 0.3,-0.07C0.34,-0.07 0.372,-0.082 0.395,-0.107C0.418,-0.131 0.43,-0.164 0.43,-0.205L0.43,-0.515C0.43,-0.556 0.418,-0.589 0.395,-0.614C0.372,-0.638 0.34,-0.65 0.3,-0.65C0.26,-0.65 0.228,-0.638 0.205,-0.614C0.182,-0.589 0.17,-0.556 0.17,-0.515L0.17,-0.205ZM0.08,-0.205L0.08,-0.515C0.08,-0.548 0.085,-0.577 0.096,-0.604C0.106,-0.631 0.121,-0.653 0.14,-0.672C0.159,-0.691 0.182,-0.705 0.209,-0.715C0.236,-0.725 0.266,-0.73 0.3,-0.73C0.334,-0.73 0.365,-0.725 0.392,-0.715C0.419,-0.705 0.442,-0.691 0.461,-0.672C0.48,-0.653 0.494,-0.631 0.505,-0.604C0.515,-0.577 0.52,-0.548 0.52,-0.515L0.52,-0.205C0.52,-0.172 0.515,-0.143 0.505,-0.117C0.494,-0.09 0.48,-0.068 0.461,-0.049C0.442,-0.03 0.418,-0.016 0.391,-0.006C0.364,0.005 0.333,0.01 0.3,0.01C0.266,0.01 0.236,0.005 0.209,-0.005C0.182,-0.015 0.159,-0.029 0.14,-0.048C0.121,-0.067 0.106,-0.089 0.096,-0.116C0.085,-0.143 0.08,-0.172 0.08,-0.205Z" style="fill-rule:nonzero;"/>
                    </g>
                    <g transform="matrix(30.2844,0,0,30.2844,1770.38,1459.63)">
                        <path d="M0.062,-0.55L0.133,-0.55L0.133,-0.469L0.14,-0.469C0.143,-0.498 0.152,-0.521 0.168,-0.537C0.184,-0.552 0.205,-0.56 0.232,-0.56C0.259,-0.56 0.281,-0.552 0.298,-0.537C0.315,-0.521 0.327,-0.498 0.334,-0.469L0.339,-0.469C0.342,-0.498 0.351,-0.521 0.367,-0.537C0.383,-0.552 0.404,-0.56 0.431,-0.56C0.465,-0.56 0.491,-0.548 0.51,-0.523C0.529,-0.498 0.538,-0.463 0.538,-0.419L0.538,-0L0.46,-0L0.46,-0.419C0.46,-0.442 0.455,-0.46 0.445,-0.473C0.434,-0.485 0.419,-0.491 0.4,-0.491C0.359,-0.491 0.339,-0.465 0.339,-0.414L0.339,-0L0.261,-0L0.261,-0.419C0.261,-0.438 0.257,-0.455 0.248,-0.47C0.239,-0.484 0.223,-0.491 0.201,-0.491C0.181,-0.491 0.165,-0.484 0.154,-0.469C0.145,-0.456 0.14,-0.437 0.14,-0.414L0.14,-0L0.062,-0L0.062,-0.55Z" style="fill-rule:nonzero;"/>
                    </g>
                </g>
            </g>
            <path d="M527.388,2007.08C537.964,1998.23 547.084,1984.37 559.115,1980.53C571.146,1976.68 590.841,1994.35 599.571,1984.01C616.256,1964.24 643.93,1886.05 659.225,1861.9C666.249,1850.81 684.539,1847.49 691.341,1839.12C697.395,1831.66 693.989,1819.11 700.039,1811.65C707.043,1803.02 728.556,1795.93 733.365,1787.31C737.871,1779.24 728.673,1769.18 728.891,1759.93C729.177,1747.81 729.891,1724.42 735.079,1714.61C739.501,1706.25 755.892,1698.17 760.018,1701.08C764.145,1703.98 757.944,1723.54 759.836,1732.03C761.509,1739.55 764.239,1749.14 771.368,1752.04C779.114,1755.18 797.257,1754.57 806.309,1750.92C815.09,1747.38 820.15,1737.84 825.681,1730.15C832.022,1721.34 839.534,1709.47 844.352,1698.07C850,1684.72 853.467,1644.6 859.568,1650C865.669,1655.4 874.193,1724.72 880.961,1730.47C887.728,1736.23 897.205,1697.93 900.174,1684.52C902.662,1673.29 893.839,1655.3 898.777,1650.04C903.716,1644.78 920.347,1648.67 929.803,1652.97C939.274,1657.28 948.782,1676.73 955.6,1675.87C962.419,1675.01 964.156,1656.17 970.715,1647.82C978.278,1638.18 992.014,1629.01 1000.98,1618.07C1010.48,1606.47 1017.56,1586.92 1027.71,1578.24C1036.89,1570.38 1049.88,1567.7 1061.85,1566C1074.14,1564.24 1095.57,1559.91 1101.47,1567.72C1107.37,1575.52 1100.38,1599.15 1097.24,1612.83C1094.29,1625.73 1080.03,1644.51 1082.67,1649.77C1085.32,1655.03 1109.35,1640.63 1113.12,1644.37C1116.89,1648.12 1106.79,1662.71 1105.31,1672.24C1103.65,1682.81 1105.91,1696.39 1103.21,1707.83C1100.52,1719.26 1093.89,1729.86 1089.12,1740.82C1083,1754.88 1066.23,1779.69 1066.49,1792.15C1066.73,1803.36 1081.21,1809.54 1090.7,1815.53C1100.2,1821.54 1114.59,1833.17 1123.53,1828.2C1132.47,1823.23 1136.9,1799.61 1144.33,1785.7C1151.89,1771.54 1162.73,1744.58 1168.93,1743.23C1175.13,1741.88 1179,1766.27 1181.53,1777.61C1183.98,1788.61 1179.88,1812.45 1184.1,1811.31C1188.31,1810.18 1200.3,1784.85 1206.82,1770.8C1213.83,1755.69 1219.09,1725.26 1226.17,1720.63C1233.25,1716.01 1247.18,1732.53 1249.3,1743.05C1251.61,1754.53 1236.67,1786.32 1240.03,1789.52C1243.38,1792.71 1265.84,1775.11 1269.41,1762.22C1273.17,1748.67 1261.24,1724.82 1262.57,1708.2C1263.85,1692.23 1274.8,1678.29 1277.42,1662.48C1280.3,1645.04 1282.11,1622.1 1279.88,1603.56C1277.72,1585.48 1260.13,1555.62 1264.1,1551.26C1268.06,1546.91 1298.23,1570.47 1303.7,1577.41C1307.19,1581.85 1292.13,1589.92 1296.91,1592.94C1303.56,1597.13 1333.89,1596.96 1343.58,1602.58C1351.27,1607.05 1348.6,1620.53 1355.02,1626.68C1364.63,1635.9 1405.48,1652.67 1401.26,1657.87C1397.04,1663.06 1334.88,1653.48 1329.72,1657.87C1324.55,1662.26 1361.09,1670.97 1370.27,1684.22C1379.99,1698.23 1379.42,1731.96 1388.04,1741.94C1395.45,1750.53 1411.49,1739.83 1421.99,1744.13C1432.86,1748.58 1442.11,1764.54 1453.25,1768.64C1464.39,1772.74 1478.29,1768.01 1488.84,1768.73C1498.17,1769.37 1507.48,1775.18 1516.56,1772.97C1537.66,1767.84 1588.17,1741.46 1615.44,1737.95C1637.35,1735.12 1658.84,1751.05 1680.22,1751.88C1701.57,1752.7 1726.27,1742.88 1743.69,1742.92C1757.72,1742.96 1773.2,1750.08 1784.74,1752.15C1794.05,1753.83 1805.35,1749.72 1812.93,1755.37C1823.78,1763.46 1839.01,1799.08 1849.81,1800.71C1860.62,1802.34 1874.12,1776.49 1877.75,1765.14C1881.12,1754.64 1871.36,1743.65 1871.61,1732.63C1871.86,1721.25 1876.3,1707.1 1879.29,1696.85C1881.87,1687.99 1892.59,1679.83 1889.53,1671.12C1886.09,1661.32 1869.1,1648.95 1858.65,1638.09C1844.33,1623.2 1811.48,1596.85 1803.59,1581.77C1798.17,1571.42 1812.79,1558 1811.31,1547.6C1809.84,1537.2 1795.1,1530.27 1794.73,1519.37C1794.35,1508.05 1799.1,1484.93 1809.03,1479.73C1818.95,1474.53 1840.16,1493.62 1854.26,1488.16C1868.36,1482.7 1876.92,1456.02 1893.6,1446.96C1912.08,1436.93 1941.05,1429.51 1965.1,1427.96C1989.16,1426.41 2020.71,1431.27 2037.94,1437.66C2051.03,1442.51 2054.77,1468.2 2068.49,1466.3C2082.21,1464.38 2102.32,1432.42 2120.25,1426.19C2137.85,1420.08 2172.96,1424.36 2176.08,1428.91C2179.2,1433.46 2148.96,1444.92 2138.98,1453.49C2130.07,1461.13 2121.07,1469.65 2116.16,1480.31C2109.86,1493.97 2098.27,1531.98 2101.2,1535.43C2104.14,1538.89 2131.52,1496.05 2133.76,1501.03C2136,1506.02 2125.36,1548.33 2114.64,1565.35C2104.16,1581.98 2078.48,1592.13 2069.41,1603.17C2063.1,1610.86 2060.28,1621.63 2060.23,1631.59C2060.18,1643.72 2063.34,1664.1 2069.08,1675.99C2074.46,1687.14 2085.11,1697.59 2094.67,1702.93C2104.03,1708.16 2117.92,1705.01 2126.44,1708.05C2133.78,1710.67 2138.34,1723.43 2145.8,1721.18C2156.09,1718.07 2174.29,1700.33 2188.14,1689.39C2203.24,1677.47 2224.74,1655.16 2236.41,1649.67C2243.26,1646.43 2250.95,1658.86 2258.12,1656.41C2267.76,1653.11 2279.93,1634.14 2294.26,1629.88C2312.49,1624.46 2347.44,1624.98 2367.52,1623.88C2383.23,1623.03 2400.3,1621.85 2414.73,1623.32C2428.15,1624.7 2440.74,1630.87 2454.11,1632.74C2469.15,1634.84 2488.52,1635.79 2504.96,1635.95C2520.91,1636.11 2537.28,1637.57 2552.76,1633.72C2572.28,1628.86 2599.27,1611.43 2622.13,1606.79C2644.26,1602.3 2683.88,1611.82 2689.88,1605.87C2695.89,1599.92 2653.73,1576.75 2658.16,1571.09C2662.59,1565.43 2699.79,1569.11 2716.46,1571.93C2731.15,1574.4 2754.31,1591.86 2758.16,1587.97C2762.02,1584.08 2734.55,1552.46 2739.61,1548.58C2744.68,1544.69 2772.84,1559.14 2788.56,1564.66C2803.81,1570 2822.67,1576.66 2833.95,1581.66C2841.82,1585.15 2849.16,1589.79 2856.25,1594.68C2867.6,1602.5 2892.12,1619.36 2902.04,1628.58C2908.26,1634.35 2907.73,1647.44 2915.82,1649.99C2925.18,1652.94 2958.3,1639.48 2958.19,1646.27C2958.07,1653.06 2921.03,1679.04 2915.13,1690.72C2911.11,1698.68 2916.19,1713.23 2922.8,1716.35C2929.41,1719.47 2944.67,1713.52 2954.8,1709.46C2966.5,1704.77 2982.93,1694.44 2993.03,1688.23C3000.85,1683.43 3006.28,1673.17 3015.4,1672.2C3031.11,1670.53 3063.25,1678.61 3087.3,1678.21C3114.09,1677.77 3164.66,1664.75 3176.14,1669.55C3187.62,1674.34 3150.13,1703.88 3156.16,1706.99C3162.2,1710.09 3196.36,1691.62 3212.33,1688.19C3225.27,1685.41 3239.78,1689.42 3251.99,1686.42C3264.08,1683.46 3274.41,1675.61 3285.62,1670.21" style="fill:none;stroke:white;stroke-width:6.25px;"/>
            <g id="DISTANCE" transform="matrix(1.01312,-5.55112e-17,0,1.05986,439.599,924.044)">
                <g transform="matrix(5.88787e-17,0.919153,-0.823937,4.82264e-17,287.624,847.411)">
                    <path d="M319,180L361.555,180" style="fill:none;stroke:black;stroke-width:2.11px;stroke-linejoin:round;"/>
                </g>
                <g transform="matrix(1.08752,-5.70345e-17,-5.30363e-17,0.787597,-164.271,1018.41)">
                    <path d="M279.548,180L2695.42,180" style="fill:none;stroke:black;stroke-width:1.95px;stroke-linejoin:round;"/>
                </g>
                <g transform="matrix(0.987051,0,0,0.943518,-142.212,-324.301)">
                    <rect x="1578.25" y="1553.11" width="77.769" height="44.551" style="fill:white;"/>
                </g>
                <g transform="matrix(5.88787e-17,0.919153,-0.823937,4.82264e-17,2915.05,847.411)">
                    <path d="M319,180L361.555,180" style="fill:none;stroke:black;stroke-width:2.11px;stroke-linejoin:round;"/>
                </g>
                <g transform="matrix(1.00732,0,0,1.00732,-307.474,-270.672)">
                    <g transform="matrix(24.497,0,0,23.4166,1718.62,1429.35)">
                        <path d="M0.513,-0.53C0.513,-0.476 0.498,-0.424 0.469,-0.374C0.439,-0.323 0.392,-0.27 0.327,-0.214L0.206,-0.109C0.203,-0.106 0.199,-0.104 0.195,-0.101C0.191,-0.098 0.187,-0.096 0.183,-0.093C0.178,-0.09 0.173,-0.087 0.168,-0.084L0.168,-0.08C0.179,-0.081 0.189,-0.081 0.199,-0.081C0.208,-0.082 0.218,-0.082 0.228,-0.082L0.52,-0.082L0.52,-0L0.07,-0L0.07,-0.1L0.26,-0.263C0.289,-0.288 0.313,-0.311 0.334,-0.333C0.354,-0.355 0.37,-0.377 0.383,-0.398C0.396,-0.419 0.405,-0.441 0.411,-0.462C0.417,-0.483 0.42,-0.506 0.42,-0.529C0.42,-0.566 0.409,-0.596 0.387,-0.618C0.364,-0.639 0.334,-0.65 0.296,-0.65C0.254,-0.65 0.221,-0.639 0.196,-0.617C0.171,-0.595 0.158,-0.566 0.158,-0.53L0.065,-0.53C0.066,-0.56 0.073,-0.587 0.084,-0.612C0.095,-0.637 0.111,-0.658 0.132,-0.675C0.152,-0.692 0.176,-0.706 0.204,-0.716C0.231,-0.725 0.262,-0.73 0.296,-0.73C0.329,-0.73 0.359,-0.725 0.386,-0.716C0.413,-0.707 0.435,-0.693 0.454,-0.676C0.473,-0.659 0.487,-0.638 0.498,-0.613C0.508,-0.588 0.513,-0.561 0.513,-0.53Z" style="fill-rule:nonzero;"/>
                    </g>
                    <g transform="matrix(24.497,0,0,23.4166,1733.32,1429.35)">
                        <path d="M0.331,-0.46C0.392,-0.46 0.439,-0.441 0.474,-0.404C0.508,-0.366 0.525,-0.315 0.525,-0.25L0.525,-0.2C0.525,-0.168 0.52,-0.139 0.509,-0.113C0.498,-0.087 0.483,-0.065 0.464,-0.047C0.444,-0.029 0.42,-0.015 0.392,-0.005C0.364,0.005 0.333,0.01 0.298,0.01C0.237,0.01 0.186,-0.005 0.147,-0.034C0.108,-0.063 0.084,-0.101 0.075,-0.15L0.17,-0.15C0.177,-0.126 0.191,-0.107 0.214,-0.092C0.236,-0.077 0.264,-0.07 0.299,-0.07C0.34,-0.07 0.372,-0.082 0.396,-0.105C0.42,-0.128 0.432,-0.16 0.432,-0.2L0.432,-0.25C0.432,-0.29 0.42,-0.322 0.396,-0.345C0.372,-0.368 0.339,-0.38 0.298,-0.38C0.247,-0.38 0.209,-0.362 0.184,-0.325L0.092,-0.325L0.097,-0.72L0.493,-0.72L0.493,-0.638L0.184,-0.638L0.181,-0.384L0.187,-0.384C0.193,-0.398 0.202,-0.411 0.215,-0.422C0.226,-0.431 0.24,-0.44 0.259,-0.448C0.277,-0.456 0.301,-0.46 0.331,-0.46Z" style="fill-rule:nonzero;"/>
                    </g>
                    <g transform="matrix(24.497,0,0,23.4166,1748.02,1429.35)">
                        <path d="M0.09,-0.72L0.18,-0.72L0.18,-0.414L0.295,-0.414L0.459,-0.72L0.565,-0.72L0.374,-0.378L0.575,-0L0.468,-0L0.295,-0.335L0.18,-0.335L0.18,-0L0.09,-0L0.09,-0.72Z" style="fill-rule:nonzero;"/>
                    </g>
                    <g transform="matrix(24.497,0,0,23.4166,1762.72,1429.35)">
                        <path d="M0.075,-0L0.075,-0.72L0.187,-0.72L0.275,-0.476C0.278,-0.469 0.281,-0.46 0.284,-0.451C0.287,-0.441 0.289,-0.432 0.291,-0.424C0.294,-0.414 0.296,-0.404 0.299,-0.395L0.305,-0.395C0.308,-0.404 0.31,-0.414 0.313,-0.424C0.316,-0.432 0.319,-0.441 0.322,-0.451C0.325,-0.46 0.327,-0.469 0.33,-0.476L0.413,-0.72L0.525,-0.72L0.525,-0L0.442,-0L0.442,-0.505C0.442,-0.516 0.442,-0.528 0.443,-0.541C0.443,-0.554 0.444,-0.567 0.445,-0.58C0.446,-0.595 0.446,-0.609 0.447,-0.624L0.441,-0.624C0.437,-0.61 0.433,-0.596 0.429,-0.583C0.426,-0.571 0.422,-0.558 0.418,-0.544C0.413,-0.53 0.409,-0.517 0.405,-0.505L0.343,-0.32L0.259,-0.32L0.197,-0.505C0.193,-0.518 0.189,-0.531 0.184,-0.545C0.179,-0.559 0.175,-0.572 0.172,-0.584C0.168,-0.598 0.164,-0.612 0.16,-0.625L0.155,-0.625C0.156,-0.61 0.156,-0.596 0.157,-0.581C0.157,-0.569 0.157,-0.556 0.158,-0.543C0.158,-0.529 0.158,-0.516 0.158,-0.505L0.158,-0L0.075,-0Z" style="fill-rule:nonzero;"/>
                    </g>
                </g>
            </g>
            <g transform="matrix(1.02053,-5.59173e-17,0,1.06762,-1249.55,422.781)">
                <g transform="matrix(24.497,0,0,23.4166,1696.57,1429.35)">
                    <path d="M0.3,0.01C0.267,0.01 0.237,0.006 0.209,-0.004C0.181,-0.013 0.157,-0.026 0.137,-0.043C0.116,-0.06 0.1,-0.08 0.089,-0.104C0.077,-0.128 0.071,-0.155 0.07,-0.185L0.165,-0.185C0.165,-0.168 0.169,-0.152 0.176,-0.138C0.183,-0.124 0.192,-0.112 0.205,-0.102C0.218,-0.092 0.232,-0.084 0.249,-0.079C0.266,-0.073 0.283,-0.07 0.302,-0.07C0.344,-0.07 0.377,-0.08 0.402,-0.1C0.427,-0.119 0.439,-0.146 0.439,-0.18C0.439,-0.209 0.43,-0.234 0.412,-0.257C0.394,-0.279 0.368,-0.296 0.334,-0.309L0.258,-0.337C0.147,-0.378 0.091,-0.445 0.091,-0.539C0.091,-0.599 0.11,-0.646 0.148,-0.68C0.186,-0.713 0.238,-0.73 0.305,-0.73C0.336,-0.73 0.365,-0.726 0.391,-0.717C0.417,-0.708 0.44,-0.696 0.459,-0.679C0.478,-0.662 0.493,-0.642 0.504,-0.619C0.515,-0.595 0.52,-0.568 0.521,-0.539L0.426,-0.539C0.426,-0.556 0.423,-0.571 0.416,-0.585C0.409,-0.598 0.401,-0.61 0.39,-0.62C0.379,-0.629 0.366,-0.637 0.351,-0.642C0.336,-0.647 0.321,-0.65 0.304,-0.65C0.266,-0.65 0.236,-0.641 0.215,-0.623C0.193,-0.605 0.182,-0.581 0.182,-0.55C0.182,-0.52 0.19,-0.495 0.207,-0.476C0.223,-0.456 0.249,-0.439 0.286,-0.426L0.366,-0.397C0.419,-0.378 0.46,-0.35 0.488,-0.313C0.516,-0.276 0.53,-0.233 0.53,-0.183C0.53,-0.123 0.51,-0.076 0.469,-0.042C0.428,-0.007 0.371,0.01 0.3,0.01Z" style="fill-rule:nonzero;"/>
                </g>
                <g transform="matrix(24.497,0,0,23.4166,1711.27,1429.35)">
                    <path d="M0.044,-0L0.24,-0.72L0.366,-0.72L0.556,-0L0.46,-0L0.41,-0.203L0.189,-0.203L0.138,-0L0.044,-0ZM0.208,-0.278L0.392,-0.278L0.322,-0.563C0.319,-0.577 0.316,-0.59 0.313,-0.602C0.31,-0.613 0.308,-0.624 0.307,-0.633C0.306,-0.643 0.304,-0.652 0.303,-0.66L0.299,-0.66C0.298,-0.652 0.296,-0.643 0.294,-0.633C0.293,-0.624 0.291,-0.613 0.288,-0.602C0.285,-0.59 0.282,-0.577 0.279,-0.563L0.208,-0.278Z" style="fill-rule:nonzero;"/>
                </g>
                <g transform="matrix(24.497,0,0,23.4166,1725.97,1429.35)">
                    <path d="M0.075,-0L0.075,-0.72L0.187,-0.72L0.275,-0.476C0.278,-0.469 0.281,-0.46 0.284,-0.451C0.287,-0.441 0.289,-0.432 0.291,-0.424C0.294,-0.414 0.296,-0.404 0.299,-0.395L0.305,-0.395C0.308,-0.404 0.31,-0.414 0.313,-0.424C0.316,-0.432 0.319,-0.441 0.322,-0.451C0.325,-0.46 0.327,-0.469 0.33,-0.476L0.413,-0.72L0.525,-0.72L0.525,-0L0.442,-0L0.442,-0.505C0.442,-0.516 0.442,-0.528 0.443,-0.541C0.443,-0.554 0.444,-0.567 0.445,-0.58C0.446,-0.595 0.446,-0.609 0.447,-0.624L0.441,-0.624C0.437,-0.61 0.433,-0.596 0.429,-0.583C0.426,-0.571 0.422,-0.558 0.418,-0.544C0.413,-0.53 0.409,-0.517 0.405,-0.505L0.343,-0.32L0.259,-0.32L0.197,-0.505C0.193,-0.518 0.189,-0.531 0.184,-0.545C0.179,-0.559 0.175,-0.572 0.172,-0.584C0.168,-0.598 0.164,-0.612 0.16,-0.625L0.155,-0.625C0.156,-0.61 0.156,-0.596 0.157,-0.581C0.157,-0.569 0.157,-0.556 0.158,-0.543C0.158,-0.529 0.158,-0.516 0.158,-0.505L0.158,-0L0.075,-0Z" style="fill-rule:nonzero;"/>
                </g>
                <g transform="matrix(24.497,0,0,23.4166,1740.67,1429.35)">
                    <path d="M0.17,-0.205C0.17,-0.164 0.182,-0.131 0.205,-0.107C0.228,-0.082 0.26,-0.07 0.3,-0.07C0.34,-0.07 0.372,-0.082 0.395,-0.107C0.418,-0.131 0.43,-0.164 0.43,-0.205L0.43,-0.515C0.43,-0.556 0.418,-0.589 0.395,-0.614C0.372,-0.638 0.34,-0.65 0.3,-0.65C0.26,-0.65 0.228,-0.638 0.205,-0.614C0.182,-0.589 0.17,-0.556 0.17,-0.515L0.17,-0.205ZM0.08,-0.515C0.08,-0.548 0.085,-0.577 0.096,-0.604C0.106,-0.631 0.121,-0.653 0.14,-0.672C0.159,-0.691 0.182,-0.705 0.209,-0.715C0.236,-0.725 0.266,-0.73 0.3,-0.73C0.334,-0.73 0.365,-0.725 0.392,-0.715C0.419,-0.705 0.442,-0.691 0.461,-0.672C0.48,-0.653 0.494,-0.631 0.505,-0.604C0.515,-0.577 0.52,-0.548 0.52,-0.515L0.52,-0.205C0.52,-0.172 0.515,-0.143 0.505,-0.117C0.494,-0.09 0.48,-0.068 0.461,-0.049C0.442,-0.03 0.418,-0.016 0.391,-0.006C0.364,0.005 0.333,0.01 0.3,0.01C0.266,0.01 0.236,0.005 0.209,-0.005C0.182,-0.015 0.159,-0.029 0.14,-0.048C0.121,-0.067 0.106,-0.089 0.096,-0.116C0.085,-0.143 0.08,-0.172 0.08,-0.205L0.08,-0.515Z" style="fill-rule:nonzero;"/>
                </g>
                <g transform="matrix(24.497,0,0,23.4166,1755.37,1429.35)">
                    <path d="M0.095,-0L0.095,-0.72L0.52,-0.72L0.52,-0.638L0.185,-0.638L0.185,-0.412L0.485,-0.412L0.485,-0.33L0.185,-0.33L0.185,-0.082L0.52,-0.082L0.52,-0L0.095,-0ZM0.14,-0.887C0.14,-0.905 0.146,-0.92 0.157,-0.931C0.168,-0.942 0.182,-0.947 0.2,-0.947C0.218,-0.947 0.233,-0.942 0.244,-0.931C0.255,-0.92 0.26,-0.905 0.26,-0.887C0.26,-0.869 0.255,-0.854 0.244,-0.844C0.233,-0.833 0.218,-0.827 0.2,-0.827C0.182,-0.827 0.168,-0.833 0.157,-0.844C0.146,-0.854 0.14,-0.869 0.14,-0.887ZM0.34,-0.887C0.34,-0.905 0.345,-0.92 0.357,-0.931C0.368,-0.942 0.382,-0.947 0.4,-0.947C0.418,-0.947 0.432,-0.942 0.444,-0.931C0.455,-0.92 0.46,-0.905 0.46,-0.887C0.46,-0.869 0.455,-0.854 0.444,-0.844C0.432,-0.833 0.418,-0.827 0.4,-0.827C0.382,-0.827 0.368,-0.833 0.357,-0.844C0.345,-0.854 0.34,-0.869 0.34,-0.887Z" style="fill-rule:nonzero;"/>
                </g>
                <g transform="matrix(24.497,0,0,23.4166,1770.07,1429.35)">
                    <path d="M0.085,-0.72L0.199,-0.72L0.39,-0.237C0.395,-0.225 0.4,-0.211 0.405,-0.196C0.41,-0.18 0.414,-0.165 0.417,-0.151C0.422,-0.134 0.426,-0.117 0.43,-0.1L0.438,-0.1C0.438,-0.1 0.438,-0.103 0.437,-0.111C0.436,-0.117 0.435,-0.127 0.434,-0.139C0.433,-0.151 0.432,-0.165 0.431,-0.181C0.43,-0.196 0.429,-0.213 0.429,-0.23L0.429,-0.72L0.515,-0.72L0.515,-0L0.401,-0L0.213,-0.484C0.208,-0.499 0.202,-0.515 0.197,-0.531C0.192,-0.547 0.187,-0.562 0.184,-0.575C0.179,-0.59 0.175,-0.606 0.172,-0.621L0.164,-0.621C0.165,-0.61 0.167,-0.598 0.168,-0.585C0.169,-0.574 0.169,-0.56 0.17,-0.545C0.171,-0.529 0.171,-0.511 0.171,-0.492L0.171,-0L0.085,-0L0.085,-0.72Z" style="fill-rule:nonzero;"/>
                </g>
                <g transform="matrix(24.497,0,0,23.4166,1784.76,1429.35)">
                    <path d="M0.3,0.01C0.267,0.01 0.237,0.006 0.209,-0.004C0.181,-0.013 0.157,-0.026 0.137,-0.043C0.116,-0.06 0.1,-0.08 0.089,-0.104C0.077,-0.128 0.071,-0.155 0.07,-0.185L0.165,-0.185C0.165,-0.168 0.169,-0.152 0.176,-0.138C0.183,-0.124 0.192,-0.112 0.205,-0.102C0.218,-0.092 0.232,-0.084 0.249,-0.079C0.266,-0.073 0.283,-0.07 0.302,-0.07C0.344,-0.07 0.377,-0.08 0.402,-0.1C0.427,-0.119 0.439,-0.146 0.439,-0.18C0.439,-0.209 0.43,-0.234 0.412,-0.257C0.394,-0.279 0.368,-0.296 0.334,-0.309L0.258,-0.337C0.147,-0.378 0.091,-0.445 0.091,-0.539C0.091,-0.599 0.11,-0.646 0.148,-0.68C0.186,-0.713 0.238,-0.73 0.305,-0.73C0.336,-0.73 0.365,-0.726 0.391,-0.717C0.417,-0.708 0.44,-0.696 0.459,-0.679C0.478,-0.662 0.493,-0.642 0.504,-0.619C0.515,-0.595 0.52,-0.568 0.521,-0.539L0.426,-0.539C0.426,-0.556 0.423,-0.571 0.416,-0.585C0.409,-0.598 0.401,-0.61 0.39,-0.62C0.379,-0.629 0.366,-0.637 0.351,-0.642C0.336,-0.647 0.321,-0.65 0.304,-0.65C0.266,-0.65 0.236,-0.641 0.215,-0.623C0.193,-0.605 0.182,-0.581 0.182,-0.55C0.182,-0.52 0.19,-0.495 0.207,-0.476C0.223,-0.456 0.249,-0.439 0.286,-0.426L0.366,-0.397C0.419,-0.378 0.46,-0.35 0.488,-0.313C0.516,-0.276 0.53,-0.233 0.53,-0.183C0.53,-0.123 0.51,-0.076 0.469,-0.042C0.428,-0.007 0.371,0.01 0.3,0.01Z" style="fill-rule:nonzero;"/>
                </g>
            </g>
            <g transform="matrix(1.02053,-5.59173e-17,0,1.06762,1457.74,70.2901)">
                <g transform="matrix(24.497,0,0,23.4166,1696.57,1429.35)">
                    <path d="M0.075,-0L0.075,-0.72L0.187,-0.72L0.275,-0.476C0.278,-0.469 0.281,-0.46 0.284,-0.451C0.287,-0.441 0.289,-0.432 0.291,-0.424C0.294,-0.414 0.296,-0.404 0.299,-0.395L0.305,-0.395C0.308,-0.404 0.31,-0.414 0.313,-0.424C0.316,-0.432 0.319,-0.441 0.322,-0.451C0.325,-0.46 0.327,-0.469 0.33,-0.476L0.413,-0.72L0.525,-0.72L0.525,-0L0.442,-0L0.442,-0.505C0.442,-0.516 0.442,-0.528 0.443,-0.541C0.443,-0.554 0.444,-0.567 0.445,-0.58C0.446,-0.595 0.446,-0.609 0.447,-0.624L0.441,-0.624C0.437,-0.61 0.433,-0.596 0.429,-0.583C0.426,-0.571 0.422,-0.558 0.418,-0.544C0.413,-0.53 0.409,-0.517 0.405,-0.505L0.343,-0.32L0.259,-0.32L0.197,-0.505C0.193,-0.518 0.189,-0.531 0.184,-0.545C0.179,-0.559 0.175,-0.572 0.172,-0.584C0.168,-0.598 0.164,-0.612 0.16,-0.625L0.155,-0.625C0.156,-0.61 0.156,-0.596 0.157,-0.581C0.157,-0.569 0.157,-0.556 0.158,-0.543C0.158,-0.529 0.158,-0.516 0.158,-0.505L0.158,-0L0.075,-0Z" style="fill-rule:nonzero;"/>
                </g>
                <g transform="matrix(24.497,0,0,23.4166,1711.27,1429.35)">
                    <path d="M0.17,-0.205C0.17,-0.164 0.182,-0.131 0.205,-0.107C0.228,-0.082 0.26,-0.07 0.3,-0.07C0.34,-0.07 0.372,-0.082 0.395,-0.107C0.418,-0.131 0.43,-0.164 0.43,-0.205L0.43,-0.515C0.43,-0.556 0.418,-0.589 0.395,-0.614C0.372,-0.638 0.34,-0.65 0.3,-0.65C0.26,-0.65 0.228,-0.638 0.205,-0.614C0.182,-0.589 0.17,-0.556 0.17,-0.515L0.17,-0.205ZM0.08,-0.515C0.08,-0.548 0.085,-0.577 0.096,-0.604C0.106,-0.631 0.121,-0.653 0.14,-0.672C0.159,-0.691 0.182,-0.705 0.209,-0.715C0.236,-0.725 0.266,-0.73 0.3,-0.73C0.334,-0.73 0.365,-0.725 0.392,-0.715C0.419,-0.705 0.442,-0.691 0.461,-0.672C0.48,-0.653 0.494,-0.631 0.505,-0.604C0.515,-0.577 0.52,-0.548 0.52,-0.515L0.52,-0.205C0.52,-0.172 0.515,-0.143 0.505,-0.117C0.494,-0.09 0.48,-0.068 0.461,-0.049C0.442,-0.03 0.418,-0.016 0.391,-0.006C0.364,0.005 0.333,0.01 0.3,0.01C0.266,0.01 0.236,0.005 0.209,-0.005C0.182,-0.015 0.159,-0.029 0.14,-0.048C0.121,-0.067 0.106,-0.089 0.096,-0.116C0.085,-0.143 0.08,-0.172 0.08,-0.205L0.08,-0.515Z" style="fill-rule:nonzero;"/>
                </g>
                <g transform="matrix(24.497,0,0,23.4166,1725.97,1429.35)">
                    <path d="M0.32,-0.72C0.353,-0.72 0.382,-0.715 0.409,-0.705C0.436,-0.695 0.459,-0.681 0.478,-0.662C0.497,-0.643 0.511,-0.621 0.522,-0.596C0.532,-0.57 0.537,-0.541 0.537,-0.51C0.537,-0.46 0.524,-0.418 0.499,-0.383C0.473,-0.347 0.438,-0.323 0.394,-0.31L0.547,-0L0.441,-0L0.301,-0.3L0.18,-0.3L0.18,-0L0.09,-0L0.09,-0.72L0.32,-0.72ZM0.18,-0.38L0.32,-0.38C0.358,-0.38 0.388,-0.392 0.411,-0.416C0.433,-0.439 0.444,-0.471 0.444,-0.51C0.444,-0.549 0.433,-0.581 0.41,-0.605C0.387,-0.628 0.357,-0.64 0.32,-0.64L0.18,-0.64L0.18,-0.38Z" style="fill-rule:nonzero;"/>
                </g>
                <g transform="matrix(24.497,0,0,23.4166,1740.67,1429.35)">
                    <path d="M0.504,-0.72L0.504,-0.639L0.175,-0.077L0.175,-0.075L0.245,-0.079L0.515,-0.079L0.515,-0L0.085,-0L0.085,-0.08L0.414,-0.642L0.414,-0.644L0.342,-0.641L0.093,-0.641L0.093,-0.72L0.504,-0.72Z" style="fill-rule:nonzero;"/>
                </g>
                <g transform="matrix(24.497,0,0,23.4166,1755.37,1429.35)">
                    <path d="M0.254,-0.079L0.254,-0.641L0.095,-0.641L0.095,-0.72L0.505,-0.72L0.505,-0.641L0.346,-0.641L0.346,-0.079L0.505,-0.079L0.505,-0L0.095,-0L0.095,-0.079L0.254,-0.079Z" style="fill-rule:nonzero;"/>
                </g>
                <g transform="matrix(24.497,0,0,23.4166,1770.07,1429.35)">
                    <path d="M0.085,-0.72L0.199,-0.72L0.39,-0.237C0.395,-0.225 0.4,-0.211 0.405,-0.196C0.41,-0.18 0.414,-0.165 0.417,-0.151C0.422,-0.134 0.426,-0.117 0.43,-0.1L0.438,-0.1C0.438,-0.1 0.438,-0.103 0.437,-0.111C0.436,-0.117 0.435,-0.127 0.434,-0.139C0.433,-0.151 0.432,-0.165 0.431,-0.181C0.43,-0.196 0.429,-0.213 0.429,-0.23L0.429,-0.72L0.515,-0.72L0.515,-0L0.401,-0L0.213,-0.484C0.208,-0.499 0.202,-0.515 0.197,-0.531C0.192,-0.547 0.187,-0.562 0.184,-0.575C0.179,-0.59 0.175,-0.606 0.172,-0.621L0.164,-0.621C0.165,-0.61 0.167,-0.598 0.168,-0.585C0.169,-0.574 0.169,-0.56 0.17,-0.545C0.171,-0.529 0.171,-0.511 0.171,-0.492L0.171,-0L0.085,-0L0.085,-0.72Z" style="fill-rule:nonzero;"/>
                </g>
                <g transform="matrix(24.497,0,0,23.4166,1784.76,1429.35)">
                    <path d="M0.095,-0L0.095,-0.72L0.52,-0.72L0.52,-0.638L0.185,-0.638L0.185,-0.412L0.485,-0.412L0.485,-0.33L0.185,-0.33L0.185,-0.082L0.52,-0.082L0.52,-0L0.095,-0Z" style="fill-rule:nonzero;"/>
                </g>
            </g>
            <g transform="matrix(1.02053,-5.59173e-17,0,1.06762,1246.78,295.918)">
                <g transform="matrix(24.497,0,0,23.4166,1659.83,1429.35)">
                    <path d="M0.045,-0.72L0.555,-0.72L0.555,-0.641L0.346,-0.641L0.346,-0L0.254,-0L0.254,-0.641L0.045,-0.641L0.045,-0.72Z" style="fill-rule:nonzero;"/>
                </g>
                <g transform="matrix(24.497,0,0,23.4166,1674.53,1429.35)">
                    <path d="M0.095,-0L0.095,-0.72L0.52,-0.72L0.52,-0.638L0.185,-0.638L0.185,-0.412L0.485,-0.412L0.485,-0.33L0.185,-0.33L0.185,-0.082L0.52,-0.082L0.52,-0L0.095,-0ZM0.32,-0.81L0.23,-0.81L0.34,-0.956L0.45,-0.956L0.32,-0.81Z" style="fill-rule:nonzero;"/>
                </g>
                <g transform="matrix(24.497,0,0,23.4166,1689.23,1429.35)">
                    <path d="M0.195,-0.72L0.195,-0.082L0.535,-0.082L0.535,-0L0.105,-0L0.105,-0.72L0.195,-0.72Z" style="fill-rule:nonzero;"/>
                </g>
                <g transform="matrix(24.497,0,0,23.4166,1703.92,1429.35)">
                    <path d="M0.095,-0L0.095,-0.72L0.52,-0.72L0.52,-0.638L0.185,-0.638L0.185,-0.412L0.485,-0.412L0.485,-0.33L0.185,-0.33L0.185,-0.082L0.52,-0.082L0.52,-0L0.095,-0ZM0.32,-0.81L0.23,-0.81L0.34,-0.956L0.45,-0.956L0.32,-0.81Z" style="fill-rule:nonzero;"/>
                </g>
                <g transform="matrix(24.497,0,0,23.4166,1718.62,1429.35)">
                    <path d="M0.333,-0.72C0.366,-0.72 0.395,-0.715 0.422,-0.705C0.449,-0.695 0.472,-0.681 0.491,-0.662C0.509,-0.643 0.524,-0.621 0.535,-0.596C0.545,-0.57 0.55,-0.541 0.55,-0.51C0.55,-0.479 0.545,-0.45 0.534,-0.425C0.523,-0.399 0.509,-0.377 0.49,-0.358C0.47,-0.339 0.448,-0.325 0.421,-0.315C0.394,-0.305 0.365,-0.3 0.333,-0.3L0.18,-0.3L0.18,-0L0.09,-0L0.09,-0.72L0.333,-0.72ZM0.18,-0.64L0.18,-0.38L0.333,-0.38C0.37,-0.38 0.4,-0.392 0.423,-0.416C0.446,-0.439 0.457,-0.471 0.457,-0.51C0.457,-0.549 0.446,-0.581 0.423,-0.605C0.4,-0.628 0.37,-0.64 0.333,-0.64L0.18,-0.64Z" style="fill-rule:nonzero;"/>
                </g>
                <g transform="matrix(24.497,0,0,23.4166,1733.32,1429.35)">
                    <path d="M0.18,-0.72L0.18,-0.416L0.42,-0.416L0.42,-0.72L0.51,-0.72L0.51,-0L0.42,-0L0.42,-0.334L0.18,-0.334L0.18,-0L0.09,-0L0.09,-0.72L0.18,-0.72Z" style="fill-rule:nonzero;"/>
                </g>
                <g transform="matrix(24.497,0,0,23.4166,1748.02,1429.35)">
                    <path d="M0.095,-0L0.095,-0.72L0.52,-0.72L0.52,-0.638L0.185,-0.638L0.185,-0.412L0.485,-0.412L0.485,-0.33L0.185,-0.33L0.185,-0.082L0.52,-0.082L0.52,-0L0.095,-0ZM0.32,-0.81L0.23,-0.81L0.34,-0.956L0.45,-0.956L0.32,-0.81Z" style="fill-rule:nonzero;"/>
                </g>
                <g transform="matrix(24.497,0,0,23.4166,1762.72,1429.35)">
                    <path d="M0.32,-0.72C0.353,-0.72 0.382,-0.715 0.409,-0.705C0.436,-0.695 0.459,-0.681 0.478,-0.662C0.497,-0.643 0.511,-0.621 0.522,-0.596C0.532,-0.57 0.537,-0.541 0.537,-0.51C0.537,-0.46 0.524,-0.418 0.499,-0.383C0.473,-0.347 0.438,-0.323 0.394,-0.31L0.547,-0L0.441,-0L0.301,-0.3L0.18,-0.3L0.18,-0L0.09,-0L0.09,-0.72L0.32,-0.72ZM0.18,-0.38L0.32,-0.38C0.358,-0.38 0.388,-0.392 0.411,-0.416C0.433,-0.439 0.444,-0.471 0.444,-0.51C0.444,-0.549 0.433,-0.581 0.41,-0.605C0.387,-0.628 0.357,-0.64 0.32,-0.64L0.18,-0.64L0.18,-0.38Z" style="fill-rule:nonzero;"/>
                </g>
                <g transform="matrix(24.497,0,0,23.4166,1777.41,1429.35)">
                    <path d="M0.254,-0.079L0.254,-0.641L0.095,-0.641L0.095,-0.72L0.505,-0.72L0.505,-0.641L0.346,-0.641L0.346,-0.079L0.505,-0.079L0.505,-0L0.095,-0L0.095,-0.079L0.254,-0.079Z" style="fill-rule:nonzero;"/>
                </g>
                <g transform="matrix(24.497,0,0,23.4166,1792.11,1429.35)">
                    <path d="M0.08,-0.205L0.08,-0.515C0.08,-0.548 0.085,-0.577 0.096,-0.604C0.106,-0.631 0.121,-0.653 0.14,-0.672C0.159,-0.691 0.182,-0.705 0.209,-0.715C0.236,-0.725 0.266,-0.73 0.3,-0.73C0.334,-0.73 0.365,-0.725 0.392,-0.715C0.419,-0.705 0.442,-0.691 0.461,-0.672C0.48,-0.653 0.494,-0.631 0.505,-0.604C0.515,-0.577 0.52,-0.548 0.52,-0.515L0.52,-0.205C0.52,-0.16 0.51,-0.121 0.491,-0.088C0.472,-0.055 0.444,-0.03 0.409,-0.013L0.526,0.165L0.422,0.165L0.319,0.009C0.317,0.01 0.314,0.01 0.311,0.01L0.3,0.01C0.266,0.01 0.236,0.005 0.209,-0.005C0.182,-0.015 0.159,-0.029 0.14,-0.048C0.121,-0.067 0.106,-0.089 0.096,-0.116C0.085,-0.143 0.08,-0.172 0.08,-0.205ZM0.3,-0.07C0.34,-0.07 0.372,-0.082 0.395,-0.107C0.418,-0.131 0.43,-0.164 0.43,-0.205L0.43,-0.515C0.43,-0.556 0.418,-0.589 0.395,-0.614C0.372,-0.638 0.34,-0.65 0.3,-0.65C0.26,-0.65 0.228,-0.638 0.205,-0.614C0.182,-0.589 0.17,-0.556 0.17,-0.515L0.17,-0.205C0.17,-0.164 0.182,-0.131 0.205,-0.107C0.228,-0.082 0.26,-0.07 0.3,-0.07Z" style="fill-rule:nonzero;"/>
                </g>
                <g transform="matrix(24.497,0,0,23.4166,1806.81,1429.35)">
                    <path d="M0.3,0.01C0.231,0.01 0.178,-0.009 0.141,-0.046C0.104,-0.083 0.085,-0.135 0.085,-0.2L0.085,-0.72L0.175,-0.72L0.175,-0.2C0.175,-0.16 0.186,-0.128 0.207,-0.105C0.228,-0.082 0.259,-0.07 0.3,-0.07C0.34,-0.07 0.371,-0.082 0.393,-0.105C0.414,-0.128 0.425,-0.16 0.425,-0.2L0.425,-0.72L0.515,-0.72L0.515,-0.2C0.515,-0.134 0.496,-0.083 0.459,-0.046C0.422,-0.008 0.369,0.01 0.3,0.01Z" style="fill-rule:nonzero;"/>
                </g>
                <g transform="matrix(24.497,0,0,23.4166,1821.51,1429.35)">
                    <path d="M0.095,-0L0.095,-0.72L0.52,-0.72L0.52,-0.638L0.185,-0.638L0.185,-0.412L0.485,-0.412L0.485,-0.33L0.185,-0.33L0.185,-0.082L0.52,-0.082L0.52,-0L0.095,-0Z" style="fill-rule:nonzero;"/>
                </g>
                <g transform="matrix(24.497,0,0,23.4166,1696.57,1452.77)">
                    <path d="M0.289,-0.08C0.331,-0.08 0.365,-0.093 0.391,-0.119C0.416,-0.144 0.429,-0.178 0.429,-0.22L0.429,-0.501C0.429,-0.543 0.416,-0.577 0.391,-0.602C0.365,-0.627 0.331,-0.64 0.289,-0.64L0.178,-0.64L0.178,-0.08L0.289,-0.08ZM0.088,-0L0.088,-0.72L0.289,-0.72C0.324,-0.72 0.355,-0.715 0.384,-0.704C0.412,-0.693 0.436,-0.679 0.457,-0.66C0.477,-0.641 0.493,-0.618 0.504,-0.591C0.515,-0.564 0.52,-0.534 0.52,-0.501L0.52,-0.22C0.52,-0.187 0.515,-0.157 0.504,-0.13C0.493,-0.103 0.477,-0.08 0.457,-0.061C0.436,-0.042 0.412,-0.027 0.384,-0.016C0.355,-0.005 0.324,-0 0.289,-0L0.088,-0Z" style="fill-rule:nonzero;"/>
                </g>
                <g transform="matrix(24.497,0,0,23.4166,1711.27,1452.77)">
                    <path d="M0.095,-0L0.095,-0.72L0.52,-0.72L0.52,-0.638L0.185,-0.638L0.185,-0.412L0.485,-0.412L0.485,-0.33L0.185,-0.33L0.185,-0.082L0.52,-0.082L0.52,-0L0.095,-0Z" style="fill-rule:nonzero;"/>
                </g>
                <g transform="matrix(24.497,0,0,23.4166,1740.67,1452.77)">
                    <path d="M0.085,-0.72L0.199,-0.72L0.39,-0.237C0.395,-0.225 0.4,-0.211 0.405,-0.196C0.41,-0.18 0.414,-0.165 0.417,-0.151C0.422,-0.134 0.426,-0.117 0.43,-0.1L0.438,-0.1C0.438,-0.1 0.438,-0.103 0.437,-0.111C0.436,-0.117 0.435,-0.127 0.434,-0.139C0.433,-0.151 0.432,-0.165 0.431,-0.181C0.43,-0.196 0.429,-0.213 0.429,-0.23L0.429,-0.72L0.515,-0.72L0.515,-0L0.401,-0L0.213,-0.484C0.208,-0.499 0.202,-0.515 0.197,-0.531C0.192,-0.547 0.187,-0.562 0.184,-0.575C0.179,-0.59 0.175,-0.606 0.172,-0.621L0.164,-0.621C0.165,-0.61 0.167,-0.598 0.168,-0.585C0.169,-0.574 0.169,-0.56 0.17,-0.545C0.171,-0.529 0.171,-0.511 0.171,-0.492L0.171,-0L0.085,-0L0.085,-0.72Z" style="fill-rule:nonzero;"/>
                </g>
                <g transform="matrix(24.497,0,0,23.4166,1755.37,1452.77)">
                    <path d="M0.03,-0.72L0.125,-0.72L0.273,-0.403C0.278,-0.394 0.282,-0.384 0.285,-0.375C0.288,-0.366 0.29,-0.357 0.293,-0.35C0.296,-0.341 0.298,-0.333 0.3,-0.324L0.304,-0.324C0.306,-0.333 0.309,-0.341 0.312,-0.35C0.314,-0.357 0.317,-0.366 0.32,-0.375C0.323,-0.384 0.327,-0.394 0.331,-0.403L0.474,-0.72L0.57,-0.72L0.345,-0.25L0.345,-0L0.255,-0L0.255,-0.25L0.03,-0.72Z" style="fill-rule:nonzero;"/>
                </g>
                <g transform="matrix(24.497,0,0,23.4166,1770.07,1452.77)">
                    <path d="M0.17,-0.205C0.17,-0.164 0.182,-0.131 0.205,-0.107C0.228,-0.082 0.26,-0.07 0.3,-0.07C0.34,-0.07 0.372,-0.082 0.395,-0.107C0.418,-0.131 0.43,-0.164 0.43,-0.205L0.43,-0.515C0.43,-0.556 0.418,-0.589 0.395,-0.614C0.372,-0.638 0.34,-0.65 0.3,-0.65C0.26,-0.65 0.228,-0.638 0.205,-0.614C0.182,-0.589 0.17,-0.556 0.17,-0.515L0.17,-0.205ZM0.08,-0.515C0.08,-0.548 0.085,-0.577 0.096,-0.604C0.106,-0.631 0.121,-0.653 0.14,-0.672C0.159,-0.691 0.182,-0.705 0.209,-0.715C0.236,-0.725 0.266,-0.73 0.3,-0.73C0.334,-0.73 0.365,-0.725 0.392,-0.715C0.419,-0.705 0.442,-0.691 0.461,-0.672C0.48,-0.653 0.494,-0.631 0.505,-0.604C0.515,-0.577 0.52,-0.548 0.52,-0.515L0.52,-0.205C0.52,-0.172 0.515,-0.143 0.505,-0.117C0.494,-0.09 0.48,-0.068 0.461,-0.049C0.442,-0.03 0.418,-0.016 0.391,-0.006C0.364,0.005 0.333,0.01 0.3,0.01C0.266,0.01 0.236,0.005 0.209,-0.005C0.182,-0.015 0.159,-0.029 0.14,-0.048C0.121,-0.067 0.106,-0.089 0.096,-0.116C0.085,-0.143 0.08,-0.172 0.08,-0.205L0.08,-0.515Z" style="fill-rule:nonzero;"/>
                </g>
                <g transform="matrix(24.497,0,0,23.4166,1784.76,1452.77)">
                    <path d="M0.085,-0.72L0.199,-0.72L0.39,-0.237C0.395,-0.225 0.4,-0.211 0.405,-0.196C0.41,-0.18 0.414,-0.165 0.417,-0.151C0.422,-0.134 0.426,-0.117 0.43,-0.1L0.438,-0.1C0.438,-0.1 0.438,-0.103 0.437,-0.111C0.436,-0.117 0.435,-0.127 0.434,-0.139C0.433,-0.151 0.432,-0.165 0.431,-0.181C0.43,-0.196 0.429,-0.213 0.429,-0.23L0.429,-0.72L0.515,-0.72L0.515,-0L0.401,-0L0.213,-0.484C0.208,-0.499 0.202,-0.515 0.197,-0.531C0.192,-0.547 0.187,-0.562 0.184,-0.575C0.179,-0.59 0.175,-0.606 0.172,-0.621L0.164,-0.621C0.165,-0.61 0.167,-0.598 0.168,-0.585C0.169,-0.574 0.169,-0.56 0.17,-0.545C0.171,-0.529 0.171,-0.511 0.171,-0.492L0.171,-0L0.085,-0L0.085,-0.72Z" style="fill-rule:nonzero;"/>
                </g>
            </g>
            <g transform="matrix(1,8.01187e-32,-7.39557e-32,1,1014.05,-129.472)">
                <g transform="matrix(1,-7.39557e-32,8.30622e-32,1.12313,-598.602,602.475)">
                    <rect x="1914.47" y="1006.15" width="88.017" height="36.084" style="fill:rgb(255,210,0);"/>
                    <path d="M2002.48,1006.15L2002.48,1042.23L1914.47,1042.23L1914.47,1006.15L2002.48,1006.15ZM2000.19,1008.19L1916.76,1008.19L1916.76,1040.19L2000.19,1040.19L2000.19,1008.19Z"/>
                </g>
                <g transform="matrix(1,-7.39557e-32,7.39557e-32,1,-470.703,697.373)">
                    <g transform="matrix(25,0,0,25,1800.85,1064.4)">
                        <path d="M0.289,-0.08C0.331,-0.08 0.365,-0.093 0.391,-0.119C0.416,-0.144 0.429,-0.178 0.429,-0.22L0.429,-0.501C0.429,-0.543 0.416,-0.577 0.391,-0.602C0.365,-0.627 0.331,-0.64 0.289,-0.64L0.178,-0.64L0.178,-0.08L0.289,-0.08ZM0.088,-0L0.088,-0.72L0.289,-0.72C0.324,-0.72 0.355,-0.715 0.384,-0.704C0.412,-0.693 0.436,-0.679 0.457,-0.66C0.477,-0.641 0.493,-0.618 0.504,-0.591C0.515,-0.564 0.52,-0.534 0.52,-0.501L0.52,-0.22C0.52,-0.187 0.515,-0.157 0.504,-0.13C0.493,-0.103 0.477,-0.08 0.457,-0.061C0.436,-0.042 0.412,-0.027 0.384,-0.016C0.355,-0.005 0.324,-0 0.289,-0L0.088,-0Z" style="fill-rule:nonzero;"/>
                    </g>
                    <g transform="matrix(25,0,0,25,1815.85,1064.4)">
                        <path d="M0.288,-0.43C0.324,-0.43 0.357,-0.425 0.386,-0.415C0.415,-0.404 0.439,-0.39 0.46,-0.371C0.48,-0.352 0.496,-0.328 0.507,-0.301C0.518,-0.274 0.524,-0.243 0.524,-0.21C0.524,-0.176 0.519,-0.146 0.508,-0.119C0.497,-0.092 0.482,-0.069 0.462,-0.05C0.442,-0.031 0.418,-0.016 0.39,-0.006C0.361,0.005 0.329,0.01 0.294,0.01C0.263,0.01 0.234,0.005 0.208,-0.004C0.181,-0.013 0.158,-0.027 0.139,-0.044C0.119,-0.061 0.103,-0.081 0.091,-0.105C0.078,-0.129 0.071,-0.156 0.068,-0.185L0.158,-0.185C0.163,-0.15 0.178,-0.123 0.203,-0.102C0.228,-0.081 0.258,-0.07 0.294,-0.07C0.336,-0.07 0.37,-0.083 0.395,-0.109C0.42,-0.134 0.433,-0.168 0.433,-0.21C0.433,-0.252 0.42,-0.286 0.394,-0.312C0.368,-0.337 0.333,-0.35 0.29,-0.35L0.206,-0.35L0.206,-0.445L0.349,-0.59C0.356,-0.597 0.363,-0.603 0.37,-0.609C0.377,-0.615 0.384,-0.62 0.391,-0.625C0.398,-0.631 0.406,-0.637 0.414,-0.642L0.414,-0.644C0.407,-0.643 0.399,-0.643 0.391,-0.642C0.384,-0.641 0.376,-0.641 0.368,-0.641C0.359,-0.64 0.35,-0.64 0.341,-0.64L0.09,-0.64L0.09,-0.72L0.49,-0.72L0.49,-0.62L0.321,-0.459C0.317,-0.455 0.313,-0.451 0.309,-0.448C0.305,-0.445 0.301,-0.442 0.298,-0.439C0.295,-0.436 0.291,-0.433 0.288,-0.43Z" style="fill-rule:nonzero;"/>
                    </g>
                    <g transform="matrix(25,0,0,25,1830.85,1064.4)">
                        <path d="M0.331,-0.46C0.392,-0.46 0.439,-0.441 0.474,-0.404C0.508,-0.366 0.525,-0.315 0.525,-0.25L0.525,-0.2C0.525,-0.168 0.52,-0.139 0.509,-0.113C0.498,-0.087 0.483,-0.065 0.464,-0.047C0.444,-0.029 0.42,-0.015 0.392,-0.005C0.364,0.005 0.333,0.01 0.298,0.01C0.237,0.01 0.186,-0.005 0.147,-0.034C0.108,-0.063 0.084,-0.101 0.075,-0.15L0.17,-0.15C0.177,-0.126 0.191,-0.107 0.214,-0.092C0.236,-0.077 0.264,-0.07 0.299,-0.07C0.34,-0.07 0.372,-0.082 0.396,-0.105C0.42,-0.128 0.432,-0.16 0.432,-0.2L0.432,-0.25C0.432,-0.29 0.42,-0.322 0.396,-0.345C0.372,-0.368 0.339,-0.38 0.298,-0.38C0.247,-0.38 0.209,-0.362 0.184,-0.325L0.092,-0.325L0.097,-0.72L0.493,-0.72L0.493,-0.638L0.184,-0.638L0.181,-0.384L0.187,-0.384C0.193,-0.398 0.202,-0.411 0.215,-0.422C0.226,-0.431 0.24,-0.44 0.259,-0.448C0.277,-0.456 0.301,-0.46 0.331,-0.46Z" style="fill-rule:nonzero;"/>
                    </g>
                    <g transform="matrix(25,0,0,25,1845.85,1064.4)">
                        <path d="M0.369,-0.72L0.467,-0.72L0.175,-0.275L0.175,-0.235L0.41,-0.235L0.41,-0.41L0.5,-0.41L0.5,-0L0.41,-0L0.41,-0.155L0.085,-0.155L0.085,-0.285L0.369,-0.72Z" style="fill-rule:nonzero;"/>
                    </g>
                </g>
            </g>
            <g id="CAR" transform="matrix(0.846171,0,0,0.846171,451.016,247.243)">
                <path d="M3075.62,1937.96L3075.62,1958.97C3075.62,1962.83 3072.49,1965.97 3068.62,1965.97L3015.96,1965.97C3012.1,1965.97 3008.96,1962.83 3008.96,1958.97L3008.96,1937.96C3008.96,1934.1 3012.1,1930.96 3015.96,1930.96L3068.62,1930.96C3072.49,1930.96 3075.62,1934.1 3075.62,1937.96ZM3073.16,1937.96C3073.16,1935.46 3071.13,1933.42 3068.62,1933.42L3015.96,1933.42C3013.46,1933.42 3011.42,1935.46 3011.42,1937.96L3011.42,1958.97C3011.42,1961.47 3013.46,1963.51 3015.96,1963.51L3068.62,1963.51C3071.13,1963.51 3073.16,1961.47 3073.16,1958.97L3073.16,1937.96Z"/>
                <g transform="matrix(0.43677,0,0,0.792068,1700.29,405.129)">
                    <path d="M3075.62,1937.96L3075.62,1958.97C3075.62,1962.83 3069.93,1965.97 3062.93,1965.97L3021.66,1965.97C3014.65,1965.97 3008.96,1962.83 3008.96,1958.97L3008.96,1937.96C3008.96,1934.1 3014.65,1930.96 3021.66,1930.96L3062.93,1930.96C3069.93,1930.96 3075.62,1934.1 3075.62,1937.96ZM3069.99,1937.96C3069.99,1935.81 3066.82,1934.07 3062.93,1934.07L3021.66,1934.07C3017.76,1934.07 3014.6,1935.81 3014.6,1937.96L3014.6,1958.97C3014.6,1961.12 3017.76,1962.86 3021.66,1962.86L3062.93,1962.86C3066.82,1962.86 3069.99,1961.12 3069.99,1958.97L3069.99,1937.96Z"/>
                </g>
                <g transform="matrix(0.43677,0,0,0.792068,1727.07,405.129)">
                    <path d="M3075.62,1937.96L3075.62,1958.97C3075.62,1962.83 3069.93,1965.97 3062.93,1965.97L3021.66,1965.97C3014.65,1965.97 3008.96,1962.83 3008.96,1958.97L3008.96,1937.96C3008.96,1934.1 3014.65,1930.96 3021.66,1930.96L3062.93,1930.96C3069.93,1930.96 3075.62,1934.1 3075.62,1937.96ZM3069.99,1937.96C3069.99,1935.81 3066.82,1934.07 3062.93,1934.07L3021.66,1934.07C3017.76,1934.07 3014.6,1935.81 3014.6,1937.96L3014.6,1958.97C3014.6,1961.12 3017.76,1962.86 3021.66,1962.86L3062.93,1962.86C3066.82,1962.86 3069.99,1961.12 3069.99,1958.97L3069.99,1937.96Z"/>
                </g>
                <path d="M3042.29,1912.81L3042.29,1922.95" style="fill:none;stroke:black;stroke-width:2.46px;"/>
                <path d="M3004.1,1902.62C3030.45,1908.74 3056.8,1914.85 3083.16,1920.96" style="fill:none;stroke:black;stroke-width:2.46px;"/>
                <g transform="matrix(0.238891,0,0,0.277379,2315.52,1387.34)">
                    <path d="M3075.62,1944.96L3075.62,1965.97L3008.96,1965.97L3008.96,1944.88C3008.96,1937.2 3016.2,1930.96 3025.13,1930.96L3059.36,1930.96C3068.34,1930.96 3075.62,1937.23 3075.62,1944.96ZM3065.32,1944.96C3065.32,1942.13 3062.65,1939.84 3059.36,1939.84L3025.13,1939.84C3021.89,1939.84 3019.27,1942.1 3019.27,1944.88L3019.27,1957.09L3065.32,1957.09L3065.32,1944.96Z"/>
                </g>
                <g transform="matrix(1.10024,0,0,1,-304.723,0)">
                    <path d="M3014.51,1948.02L3070.41,1948.02" style="fill:none;stroke:black;stroke-width:2.34px;"/>
                </g>
            </g>
            <g transform="matrix(1,0,0,1,508.727,309.916)">
                <g transform="matrix(25,0,0,25,1693.84,1128.92)">
                    <path d="M0.306,-0.73C0.369,-0.73 0.419,-0.713 0.458,-0.679C0.496,-0.644 0.519,-0.596 0.526,-0.535L0.436,-0.535C0.432,-0.571 0.419,-0.599 0.396,-0.62C0.373,-0.64 0.343,-0.65 0.306,-0.65C0.266,-0.65 0.234,-0.638 0.211,-0.614C0.188,-0.59 0.176,-0.557 0.176,-0.515L0.176,-0.205C0.176,-0.163 0.188,-0.13 0.211,-0.106C0.234,-0.082 0.265,-0.07 0.306,-0.07C0.343,-0.07 0.373,-0.08 0.396,-0.101C0.419,-0.121 0.432,-0.149 0.436,-0.185L0.526,-0.185C0.519,-0.124 0.496,-0.076 0.458,-0.042C0.419,-0.007 0.369,0.01 0.306,0.01C0.272,0.01 0.242,0.005 0.215,-0.005C0.188,-0.015 0.165,-0.029 0.146,-0.048C0.127,-0.067 0.112,-0.089 0.102,-0.116C0.091,-0.143 0.086,-0.172 0.086,-0.205L0.086,-0.515C0.086,-0.548 0.091,-0.577 0.102,-0.604C0.112,-0.631 0.127,-0.653 0.146,-0.672C0.165,-0.691 0.188,-0.705 0.215,-0.715C0.242,-0.725 0.272,-0.73 0.306,-0.73Z" style="fill-rule:nonzero;"/>
                </g>
                <g transform="matrix(25,0,0,25,1708.84,1128.92)">
                    <path d="M0.17,-0.205C0.17,-0.164 0.182,-0.131 0.205,-0.107C0.228,-0.082 0.26,-0.07 0.3,-0.07C0.34,-0.07 0.372,-0.082 0.395,-0.107C0.418,-0.131 0.43,-0.164 0.43,-0.205L0.43,-0.515C0.43,-0.556 0.418,-0.589 0.395,-0.614C0.372,-0.638 0.34,-0.65 0.3,-0.65C0.26,-0.65 0.228,-0.638 0.205,-0.614C0.182,-0.589 0.17,-0.556 0.17,-0.515L0.17,-0.205ZM0.08,-0.515C0.08,-0.548 0.085,-0.577 0.096,-0.604C0.106,-0.631 0.121,-0.653 0.14,-0.672C0.159,-0.691 0.182,-0.705 0.209,-0.715C0.236,-0.725 0.266,-0.73 0.3,-0.73C0.334,-0.73 0.365,-0.725 0.392,-0.715C0.419,-0.705 0.442,-0.691 0.461,-0.672C0.48,-0.653 0.494,-0.631 0.505,-0.604C0.515,-0.577 0.52,-0.548 0.52,-0.515L0.52,-0.205C0.52,-0.172 0.515,-0.143 0.505,-0.117C0.494,-0.09 0.48,-0.068 0.461,-0.049C0.442,-0.03 0.418,-0.016 0.391,-0.006C0.364,0.005 0.333,0.01 0.3,0.01C0.266,0.01 0.236,0.005 0.209,-0.005C0.182,-0.015 0.159,-0.029 0.14,-0.048C0.121,-0.067 0.106,-0.089 0.096,-0.116C0.085,-0.143 0.08,-0.172 0.08,-0.205L0.08,-0.515Z" style="fill-rule:nonzero;"/>
                </g>
                <g transform="matrix(25,0,0,25,1723.84,1128.92)">
                    <path d="M0.195,-0.72L0.195,-0.082L0.535,-0.082L0.535,-0L0.105,-0L0.105,-0.72L0.195,-0.72Z" style="fill-rule:nonzero;"/>
                </g>
                <g transform="matrix(25,0,0,25,1753.84,1128.92)">
                    <path d="M0.289,-0.08C0.331,-0.08 0.365,-0.093 0.391,-0.119C0.416,-0.144 0.429,-0.178 0.429,-0.22L0.429,-0.501C0.429,-0.543 0.416,-0.577 0.391,-0.602C0.365,-0.627 0.331,-0.64 0.289,-0.64L0.178,-0.64L0.178,-0.08L0.289,-0.08ZM0.088,-0L0.088,-0.72L0.289,-0.72C0.324,-0.72 0.355,-0.715 0.384,-0.704C0.412,-0.693 0.436,-0.679 0.457,-0.66C0.477,-0.641 0.493,-0.618 0.504,-0.591C0.515,-0.564 0.52,-0.534 0.52,-0.501L0.52,-0.22C0.52,-0.187 0.515,-0.157 0.504,-0.13C0.493,-0.103 0.477,-0.08 0.457,-0.061C0.436,-0.042 0.412,-0.027 0.384,-0.016C0.355,-0.005 0.324,-0 0.289,-0L0.088,-0Z" style="fill-rule:nonzero;"/>
                </g>
                <g transform="matrix(25,0,0,25,1768.84,1128.92)">
                    <path d="M0.3,0.01C0.231,0.01 0.178,-0.009 0.141,-0.046C0.104,-0.083 0.085,-0.135 0.085,-0.2L0.085,-0.72L0.175,-0.72L0.175,-0.2C0.175,-0.16 0.186,-0.128 0.207,-0.105C0.228,-0.082 0.259,-0.07 0.3,-0.07C0.34,-0.07 0.371,-0.082 0.393,-0.105C0.414,-0.128 0.425,-0.16 0.425,-0.2L0.425,-0.72L0.515,-0.72L0.515,-0.2C0.515,-0.134 0.496,-0.083 0.459,-0.046C0.422,-0.008 0.369,0.01 0.3,0.01Z" style="fill-rule:nonzero;"/>
                </g>
                <g transform="matrix(25,0,0,25,1798.84,1128.92)">
                    <path d="M0.32,-0.72C0.353,-0.72 0.382,-0.715 0.409,-0.705C0.436,-0.695 0.459,-0.681 0.478,-0.662C0.497,-0.643 0.511,-0.621 0.522,-0.596C0.532,-0.57 0.537,-0.541 0.537,-0.51C0.537,-0.46 0.524,-0.418 0.499,-0.383C0.473,-0.347 0.438,-0.323 0.394,-0.31L0.547,-0L0.441,-0L0.301,-0.3L0.18,-0.3L0.18,-0L0.09,-0L0.09,-0.72L0.32,-0.72ZM0.18,-0.38L0.32,-0.38C0.358,-0.38 0.388,-0.392 0.411,-0.416C0.433,-0.439 0.444,-0.471 0.444,-0.51C0.444,-0.549 0.433,-0.581 0.41,-0.605C0.387,-0.628 0.357,-0.64 0.32,-0.64L0.18,-0.64L0.18,-0.38Z" style="fill-rule:nonzero;"/>
                </g>
                <g transform="matrix(25,0,0,25,1813.84,1128.92)">
                    <path d="M0.044,-0L0.24,-0.72L0.366,-0.72L0.556,-0L0.46,-0L0.41,-0.203L0.189,-0.203L0.138,-0L0.044,-0ZM0.208,-0.278L0.392,-0.278L0.322,-0.563C0.319,-0.577 0.316,-0.59 0.313,-0.602C0.31,-0.613 0.308,-0.624 0.307,-0.633C0.306,-0.643 0.304,-0.652 0.303,-0.66L0.299,-0.66C0.298,-0.652 0.296,-0.643 0.294,-0.633C0.293,-0.624 0.291,-0.613 0.288,-0.602C0.285,-0.59 0.282,-0.577 0.279,-0.563L0.208,-0.278Z" style="fill-rule:nonzero;"/>
                </g>
                <g transform="matrix(25,0,0,25,1828.84,1128.92)">
                    <path d="M0.085,-0.72L0.199,-0.72L0.39,-0.237C0.395,-0.225 0.4,-0.211 0.405,-0.196C0.41,-0.18 0.414,-0.165 0.417,-0.151C0.422,-0.134 0.426,-0.117 0.43,-0.1L0.438,-0.1C0.438,-0.1 0.438,-0.103 0.437,-0.111C0.436,-0.117 0.435,-0.127 0.434,-0.139C0.433,-0.151 0.432,-0.165 0.431,-0.181C0.43,-0.196 0.429,-0.213 0.429,-0.23L0.429,-0.72L0.515,-0.72L0.515,-0L0.401,-0L0.213,-0.484C0.208,-0.499 0.202,-0.515 0.197,-0.531C0.192,-0.547 0.187,-0.562 0.184,-0.575C0.179,-0.59 0.175,-0.606 0.172,-0.621L0.164,-0.621C0.165,-0.61 0.167,-0.598 0.168,-0.585C0.169,-0.574 0.169,-0.56 0.17,-0.545C0.171,-0.529 0.171,-0.511 0.171,-0.492L0.171,-0L0.085,-0L0.085,-0.72Z" style="fill-rule:nonzero;"/>
                </g>
                <g transform="matrix(25,0,0,25,1843.84,1128.92)">
                    <path d="M0.095,-0.721L0.525,-0.721L0.525,-0.641L0.183,-0.641L0.183,-0.408L0.499,-0.408L0.499,-0.328L0.185,-0.328L0.185,-0L0.095,-0L0.095,-0.721Z" style="fill-rule:nonzero;"/>
                </g>
                <g transform="matrix(25,0,0,25,1858.84,1128.92)">
                    <path d="M0.17,-0.205C0.17,-0.164 0.182,-0.131 0.205,-0.107C0.228,-0.082 0.26,-0.07 0.3,-0.07C0.34,-0.07 0.372,-0.082 0.395,-0.107C0.418,-0.131 0.43,-0.164 0.43,-0.205L0.43,-0.515C0.43,-0.556 0.418,-0.589 0.395,-0.614C0.372,-0.638 0.34,-0.65 0.3,-0.65C0.26,-0.65 0.228,-0.638 0.205,-0.614C0.182,-0.589 0.17,-0.556 0.17,-0.515L0.17,-0.205ZM0.08,-0.515C0.08,-0.548 0.085,-0.577 0.096,-0.604C0.106,-0.631 0.121,-0.653 0.14,-0.672C0.159,-0.691 0.182,-0.705 0.209,-0.715C0.236,-0.725 0.266,-0.73 0.3,-0.73C0.334,-0.73 0.365,-0.725 0.392,-0.715C0.419,-0.705 0.442,-0.691 0.461,-0.672C0.48,-0.653 0.494,-0.631 0.505,-0.604C0.515,-0.577 0.52,-0.548 0.52,-0.515L0.52,-0.205C0.52,-0.172 0.515,-0.143 0.505,-0.117C0.494,-0.09 0.48,-0.068 0.461,-0.049C0.442,-0.03 0.418,-0.016 0.391,-0.006C0.364,0.005 0.333,0.01 0.3,0.01C0.266,0.01 0.236,0.005 0.209,-0.005C0.182,-0.015 0.159,-0.029 0.14,-0.048C0.121,-0.067 0.106,-0.089 0.096,-0.116C0.085,-0.143 0.08,-0.172 0.08,-0.205L0.08,-0.515Z" style="fill-rule:nonzero;"/>
                </g>
                <g transform="matrix(25,0,0,25,1873.84,1128.92)">
                    <path d="M0.195,-0.72L0.195,-0.082L0.535,-0.082L0.535,-0L0.105,-0L0.105,-0.72L0.195,-0.72Z" style="fill-rule:nonzero;"/>
                </g>
                <g transform="matrix(25,0,0,25,1888.84,1128.92)">
                    <path d="M0.195,-0.72L0.195,-0.082L0.535,-0.082L0.535,-0L0.105,-0L0.105,-0.72L0.195,-0.72Z" style="fill-rule:nonzero;"/>
                </g>
                <g transform="matrix(25,0,0,25,1903.84,1128.92)">
                    <path d="M0.03,-0.72L0.125,-0.72L0.273,-0.403C0.278,-0.394 0.282,-0.384 0.285,-0.375C0.288,-0.366 0.29,-0.357 0.293,-0.35C0.296,-0.341 0.298,-0.333 0.3,-0.324L0.304,-0.324C0.306,-0.333 0.309,-0.341 0.312,-0.35C0.314,-0.357 0.317,-0.366 0.32,-0.375C0.323,-0.384 0.327,-0.394 0.331,-0.403L0.474,-0.72L0.57,-0.72L0.345,-0.25L0.345,-0L0.255,-0L0.255,-0.25L0.03,-0.72Z" style="fill-rule:nonzero;"/>
                </g>
            </g>
            <g transform="matrix(1,0,0,1,219.036,579.376)">
                <g transform="matrix(25,0,0,25,1693.84,1128.92)">
                    <path d="M0.195,-0.72L0.195,-0.082L0.535,-0.082L0.535,-0L0.105,-0L0.105,-0.72L0.195,-0.72Z" style="fill-rule:nonzero;"/>
                </g>
                <g transform="matrix(25,0,0,25,1708.84,1128.92)">
                    <path d="M0.044,-0L0.24,-0.72L0.366,-0.72L0.556,-0L0.46,-0L0.41,-0.203L0.189,-0.203L0.138,-0L0.044,-0ZM0.208,-0.278L0.392,-0.278L0.322,-0.563C0.319,-0.577 0.316,-0.59 0.313,-0.602C0.31,-0.613 0.308,-0.624 0.307,-0.633C0.306,-0.643 0.304,-0.652 0.303,-0.66L0.299,-0.66C0.298,-0.652 0.296,-0.643 0.294,-0.633C0.293,-0.624 0.291,-0.613 0.288,-0.602C0.285,-0.59 0.282,-0.577 0.279,-0.563L0.208,-0.278Z" style="fill-rule:nonzero;"/>
                </g>
                <g transform="matrix(25,0,0,25,1723.84,1128.92)">
                    <path d="M0.306,-0.73C0.369,-0.73 0.419,-0.713 0.458,-0.679C0.496,-0.644 0.519,-0.596 0.526,-0.535L0.436,-0.535C0.432,-0.571 0.419,-0.599 0.396,-0.62C0.373,-0.64 0.343,-0.65 0.306,-0.65C0.266,-0.65 0.234,-0.638 0.211,-0.614C0.188,-0.59 0.176,-0.557 0.176,-0.515L0.176,-0.205C0.176,-0.163 0.188,-0.13 0.211,-0.106C0.234,-0.082 0.265,-0.07 0.306,-0.07C0.343,-0.07 0.373,-0.08 0.396,-0.101C0.419,-0.121 0.432,-0.149 0.436,-0.185L0.526,-0.185C0.519,-0.124 0.496,-0.076 0.458,-0.042C0.419,-0.007 0.369,0.01 0.306,0.01C0.272,0.01 0.242,0.005 0.215,-0.005C0.188,-0.015 0.165,-0.029 0.146,-0.048C0.127,-0.067 0.112,-0.089 0.102,-0.116C0.091,-0.143 0.086,-0.172 0.086,-0.205L0.086,-0.515C0.086,-0.548 0.091,-0.577 0.102,-0.604C0.112,-0.631 0.127,-0.653 0.146,-0.672C0.165,-0.691 0.188,-0.705 0.215,-0.715C0.242,-0.725 0.272,-0.73 0.306,-0.73Z" style="fill-rule:nonzero;"/>
                </g>
                <g transform="matrix(25,0,0,25,1753.84,1128.92)">
                    <path d="M0.289,-0.08C0.331,-0.08 0.365,-0.093 0.391,-0.119C0.416,-0.144 0.429,-0.178 0.429,-0.22L0.429,-0.501C0.429,-0.543 0.416,-0.577 0.391,-0.602C0.365,-0.627 0.331,-0.64 0.289,-0.64L0.178,-0.64L0.178,-0.08L0.289,-0.08ZM0.088,-0L0.088,-0.72L0.289,-0.72C0.324,-0.72 0.355,-0.715 0.384,-0.704C0.412,-0.693 0.436,-0.679 0.457,-0.66C0.477,-0.641 0.493,-0.618 0.504,-0.591C0.515,-0.564 0.52,-0.534 0.52,-0.501L0.52,-0.22C0.52,-0.187 0.515,-0.157 0.504,-0.13C0.493,-0.103 0.477,-0.08 0.457,-0.061C0.436,-0.042 0.412,-0.027 0.384,-0.016C0.355,-0.005 0.324,-0 0.289,-0L0.088,-0Z" style="fill-rule:nonzero;"/>
                </g>
                <g transform="matrix(25,0,0,25,1768.84,1128.92)">
                    <path d="M0.095,-0L0.095,-0.72L0.52,-0.72L0.52,-0.638L0.185,-0.638L0.185,-0.412L0.485,-0.412L0.485,-0.33L0.185,-0.33L0.185,-0.082L0.52,-0.082L0.52,-0L0.095,-0Z" style="fill-rule:nonzero;"/>
                </g>
                <g transform="matrix(25,0,0,25,1693.84,1158.4)">
                    <path d="M0.27,-0.07C0.313,-0.07 0.347,-0.082 0.372,-0.107C0.397,-0.131 0.41,-0.164 0.41,-0.205L0.41,-0.64L0.13,-0.64L0.13,-0.72L0.5,-0.72L0.5,-0.205C0.5,-0.172 0.495,-0.143 0.484,-0.116C0.473,-0.089 0.458,-0.067 0.438,-0.048C0.418,-0.029 0.394,-0.015 0.366,-0.005C0.337,0.005 0.305,0.01 0.27,0.01C0.241,0.01 0.213,0.006 0.188,-0.003C0.163,-0.012 0.14,-0.024 0.121,-0.041C0.101,-0.057 0.085,-0.076 0.072,-0.099C0.059,-0.122 0.05,-0.147 0.045,-0.175L0.135,-0.175C0.141,-0.143 0.156,-0.118 0.181,-0.099C0.206,-0.08 0.235,-0.07 0.27,-0.07Z" style="fill-rule:nonzero;"/>
                </g>
                <g transform="matrix(25,0,0,25,1708.84,1158.4)">
                    <path d="M0.17,-0.205C0.17,-0.164 0.182,-0.131 0.205,-0.107C0.228,-0.082 0.26,-0.07 0.3,-0.07C0.34,-0.07 0.372,-0.082 0.395,-0.107C0.418,-0.131 0.43,-0.164 0.43,-0.205L0.43,-0.515C0.43,-0.556 0.418,-0.589 0.395,-0.614C0.372,-0.638 0.34,-0.65 0.3,-0.65C0.26,-0.65 0.228,-0.638 0.205,-0.614C0.182,-0.589 0.17,-0.556 0.17,-0.515L0.17,-0.205ZM0.08,-0.515C0.08,-0.548 0.085,-0.577 0.096,-0.604C0.106,-0.631 0.121,-0.653 0.14,-0.672C0.159,-0.691 0.182,-0.705 0.209,-0.715C0.236,-0.725 0.266,-0.73 0.3,-0.73C0.334,-0.73 0.365,-0.725 0.392,-0.715C0.419,-0.705 0.442,-0.691 0.461,-0.672C0.48,-0.653 0.494,-0.631 0.505,-0.604C0.515,-0.577 0.52,-0.548 0.52,-0.515L0.52,-0.205C0.52,-0.172 0.515,-0.143 0.505,-0.117C0.494,-0.09 0.48,-0.068 0.461,-0.049C0.442,-0.03 0.418,-0.016 0.391,-0.006C0.364,0.005 0.333,0.01 0.3,0.01C0.266,0.01 0.236,0.005 0.209,-0.005C0.182,-0.015 0.159,-0.029 0.14,-0.048C0.121,-0.067 0.106,-0.089 0.096,-0.116C0.085,-0.143 0.08,-0.172 0.08,-0.205L0.08,-0.515Z" style="fill-rule:nonzero;"/>
                </g>
                <g transform="matrix(25,0,0,25,1723.84,1158.4)">
                    <path d="M0.3,0.01C0.231,0.01 0.178,-0.009 0.141,-0.046C0.104,-0.083 0.085,-0.135 0.085,-0.2L0.085,-0.72L0.175,-0.72L0.175,-0.2C0.175,-0.16 0.186,-0.128 0.207,-0.105C0.228,-0.082 0.259,-0.07 0.3,-0.07C0.34,-0.07 0.371,-0.082 0.393,-0.105C0.414,-0.128 0.425,-0.16 0.425,-0.2L0.425,-0.72L0.515,-0.72L0.515,-0.2C0.515,-0.134 0.496,-0.083 0.459,-0.046C0.422,-0.008 0.369,0.01 0.3,0.01Z" style="fill-rule:nonzero;"/>
                </g>
                <g transform="matrix(25,0,0,25,1738.84,1158.4)">
                    <path d="M0.25,-0.367L0.051,-0.72L0.155,-0.72L0.268,-0.511C0.277,-0.495 0.285,-0.48 0.29,-0.467C0.294,-0.46 0.297,-0.454 0.3,-0.447L0.303,-0.447C0.306,-0.453 0.309,-0.46 0.313,-0.467L0.335,-0.511L0.45,-0.72L0.549,-0.72L0.35,-0.373L0.56,-0L0.457,-0L0.332,-0.229L0.31,-0.273C0.306,-0.28 0.303,-0.287 0.3,-0.294L0.297,-0.294C0.294,-0.287 0.291,-0.28 0.288,-0.273C0.285,-0.267 0.27,-0.237 0.266,-0.23L0.14,-0L0.04,-0L0.25,-0.367Z" style="fill-rule:nonzero;"/>
                </g>
                <g transform="matrix(25,0,0,25,1768.84,1158.4)">
                    <path d="M0.333,-0.72C0.366,-0.72 0.395,-0.715 0.422,-0.705C0.449,-0.695 0.472,-0.681 0.491,-0.662C0.509,-0.643 0.524,-0.621 0.535,-0.596C0.545,-0.57 0.55,-0.541 0.55,-0.51C0.55,-0.479 0.545,-0.45 0.534,-0.425C0.523,-0.399 0.509,-0.377 0.49,-0.358C0.47,-0.339 0.448,-0.325 0.421,-0.315C0.394,-0.305 0.365,-0.3 0.333,-0.3L0.18,-0.3L0.18,-0L0.09,-0L0.09,-0.72L0.333,-0.72ZM0.18,-0.64L0.18,-0.38L0.333,-0.38C0.37,-0.38 0.4,-0.392 0.423,-0.416C0.446,-0.439 0.457,-0.471 0.457,-0.51C0.457,-0.549 0.446,-0.581 0.423,-0.605C0.4,-0.628 0.37,-0.64 0.333,-0.64L0.18,-0.64Z" style="fill-rule:nonzero;"/>
                </g>
                <g transform="matrix(25,0,0,25,1783.84,1158.4)">
                    <path d="M0.195,-0.72L0.195,-0.082L0.535,-0.082L0.535,-0L0.105,-0L0.105,-0.72L0.195,-0.72Z" style="fill-rule:nonzero;"/>
                </g>
                <g transform="matrix(25,0,0,25,1798.84,1158.4)">
                    <path d="M0.044,-0L0.24,-0.72L0.366,-0.72L0.556,-0L0.46,-0L0.41,-0.203L0.189,-0.203L0.138,-0L0.044,-0ZM0.208,-0.278L0.392,-0.278L0.322,-0.563C0.319,-0.577 0.316,-0.59 0.313,-0.602C0.31,-0.613 0.308,-0.624 0.307,-0.633C0.306,-0.643 0.304,-0.652 0.303,-0.66L0.299,-0.66C0.298,-0.652 0.296,-0.643 0.294,-0.633C0.293,-0.624 0.291,-0.613 0.288,-0.602C0.285,-0.59 0.282,-0.577 0.279,-0.563L0.208,-0.278Z" style="fill-rule:nonzero;"/>
                </g>
                <g transform="matrix(25,0,0,25,1813.84,1158.4)">
                    <path d="M0.085,-0.72L0.199,-0.72L0.39,-0.237C0.395,-0.225 0.4,-0.211 0.405,-0.196C0.41,-0.18 0.414,-0.165 0.417,-0.151C0.422,-0.134 0.426,-0.117 0.43,-0.1L0.438,-0.1C0.438,-0.1 0.438,-0.103 0.437,-0.111C0.436,-0.117 0.435,-0.127 0.434,-0.139C0.433,-0.151 0.432,-0.165 0.431,-0.181C0.43,-0.196 0.429,-0.213 0.429,-0.23L0.429,-0.72L0.515,-0.72L0.515,-0L0.401,-0L0.213,-0.484C0.208,-0.499 0.202,-0.515 0.197,-0.531C0.192,-0.547 0.187,-0.562 0.184,-0.575C0.179,-0.59 0.175,-0.606 0.172,-0.621L0.164,-0.621C0.165,-0.61 0.167,-0.598 0.168,-0.585C0.169,-0.574 0.169,-0.56 0.17,-0.545C0.171,-0.529 0.171,-0.511 0.171,-0.492L0.171,-0L0.085,-0L0.085,-0.72Z" style="fill-rule:nonzero;"/>
                </g>
                <g transform="matrix(25,0,0,25,1828.84,1158.4)">
                    <path d="M0.095,-0L0.095,-0.72L0.52,-0.72L0.52,-0.638L0.185,-0.638L0.185,-0.412L0.485,-0.412L0.485,-0.33L0.185,-0.33L0.185,-0.082L0.52,-0.082L0.52,-0L0.095,-0Z" style="fill-rule:nonzero;"/>
                </g>
            </g>
            <g transform="matrix(1,0,0,1,-302.108,570.715)">
                <g transform="matrix(25,0,0,25,1693.84,1128.92)">
                    <path d="M0.333,-0.72C0.366,-0.72 0.395,-0.715 0.422,-0.705C0.449,-0.695 0.472,-0.681 0.491,-0.662C0.509,-0.643 0.524,-0.621 0.535,-0.596C0.545,-0.57 0.55,-0.541 0.55,-0.51C0.55,-0.479 0.545,-0.45 0.534,-0.425C0.523,-0.399 0.509,-0.377 0.49,-0.358C0.47,-0.339 0.448,-0.325 0.421,-0.315C0.394,-0.305 0.365,-0.3 0.333,-0.3L0.18,-0.3L0.18,-0L0.09,-0L0.09,-0.72L0.333,-0.72ZM0.18,-0.64L0.18,-0.38L0.333,-0.38C0.37,-0.38 0.4,-0.392 0.423,-0.416C0.446,-0.439 0.457,-0.471 0.457,-0.51C0.457,-0.549 0.446,-0.581 0.423,-0.605C0.4,-0.628 0.37,-0.64 0.333,-0.64L0.18,-0.64Z" style="fill-rule:nonzero;"/>
                </g>
                <g transform="matrix(25,0,0,25,1708.84,1128.92)">
                    <path d="M0.044,-0L0.24,-0.72L0.366,-0.72L0.556,-0L0.46,-0L0.41,-0.203L0.189,-0.203L0.138,-0L0.044,-0ZM0.208,-0.278L0.392,-0.278L0.322,-0.563C0.319,-0.577 0.316,-0.59 0.313,-0.602C0.31,-0.613 0.308,-0.624 0.307,-0.633C0.306,-0.643 0.304,-0.652 0.303,-0.66L0.299,-0.66C0.298,-0.652 0.296,-0.643 0.294,-0.633C0.293,-0.624 0.291,-0.613 0.288,-0.602C0.285,-0.59 0.282,-0.577 0.279,-0.563L0.208,-0.278Z" style="fill-rule:nonzero;"/>
                </g>
                <g transform="matrix(25,0,0,25,1723.84,1128.92)">
                    <path d="M0.32,-0.72C0.353,-0.72 0.382,-0.715 0.409,-0.705C0.436,-0.695 0.459,-0.681 0.478,-0.662C0.497,-0.643 0.511,-0.621 0.522,-0.596C0.532,-0.57 0.537,-0.541 0.537,-0.51C0.537,-0.46 0.524,-0.418 0.499,-0.383C0.473,-0.347 0.438,-0.323 0.394,-0.31L0.547,-0L0.441,-0L0.301,-0.3L0.18,-0.3L0.18,-0L0.09,-0L0.09,-0.72L0.32,-0.72ZM0.18,-0.38L0.32,-0.38C0.358,-0.38 0.388,-0.392 0.411,-0.416C0.433,-0.439 0.444,-0.471 0.444,-0.51C0.444,-0.549 0.433,-0.581 0.41,-0.605C0.387,-0.628 0.357,-0.64 0.32,-0.64L0.18,-0.64L0.18,-0.38Z" style="fill-rule:nonzero;"/>
                </g>
                <g transform="matrix(25,0,0,25,1738.84,1128.92)">
                    <path d="M0.044,-0L0.24,-0.72L0.366,-0.72L0.556,-0L0.46,-0L0.41,-0.203L0.189,-0.203L0.138,-0L0.044,-0ZM0.208,-0.278L0.392,-0.278L0.322,-0.563C0.319,-0.577 0.316,-0.59 0.313,-0.602C0.31,-0.613 0.308,-0.624 0.307,-0.633C0.306,-0.643 0.304,-0.652 0.303,-0.66L0.299,-0.66C0.298,-0.652 0.296,-0.643 0.294,-0.633C0.293,-0.624 0.291,-0.613 0.288,-0.602C0.285,-0.59 0.282,-0.577 0.279,-0.563L0.208,-0.278Z" style="fill-rule:nonzero;"/>
                </g>
                <g transform="matrix(25,0,0,25,1753.84,1128.92)">
                    <path d="M0.333,-0.72C0.366,-0.72 0.395,-0.715 0.422,-0.705C0.449,-0.695 0.472,-0.681 0.491,-0.662C0.509,-0.643 0.524,-0.621 0.535,-0.596C0.545,-0.57 0.55,-0.541 0.55,-0.51C0.55,-0.479 0.545,-0.45 0.534,-0.425C0.523,-0.399 0.509,-0.377 0.49,-0.358C0.47,-0.339 0.448,-0.325 0.421,-0.315C0.394,-0.305 0.365,-0.3 0.333,-0.3L0.18,-0.3L0.18,-0L0.09,-0L0.09,-0.72L0.333,-0.72ZM0.18,-0.64L0.18,-0.38L0.333,-0.38C0.37,-0.38 0.4,-0.392 0.423,-0.416C0.446,-0.439 0.457,-0.471 0.457,-0.51C0.457,-0.549 0.446,-0.581 0.423,-0.605C0.4,-0.628 0.37,-0.64 0.333,-0.64L0.18,-0.64Z" style="fill-rule:nonzero;"/>
                </g>
                <g transform="matrix(25,0,0,25,1768.84,1128.92)">
                    <path d="M0.095,-0L0.095,-0.72L0.52,-0.72L0.52,-0.638L0.185,-0.638L0.185,-0.412L0.485,-0.412L0.485,-0.33L0.185,-0.33L0.185,-0.082L0.52,-0.082L0.52,-0L0.095,-0Z" style="fill-rule:nonzero;"/>
                </g>
                <g transform="matrix(25,0,0,25,1783.84,1128.92)">
                    <path d="M0.085,-0.72L0.199,-0.72L0.39,-0.237C0.395,-0.225 0.4,-0.211 0.405,-0.196C0.41,-0.18 0.414,-0.165 0.417,-0.151C0.422,-0.134 0.426,-0.117 0.43,-0.1L0.438,-0.1C0.438,-0.1 0.438,-0.103 0.437,-0.111C0.436,-0.117 0.435,-0.127 0.434,-0.139C0.433,-0.151 0.432,-0.165 0.431,-0.181C0.43,-0.196 0.429,-0.213 0.429,-0.23L0.429,-0.72L0.515,-0.72L0.515,-0L0.401,-0L0.213,-0.484C0.208,-0.499 0.202,-0.515 0.197,-0.531C0.192,-0.547 0.187,-0.562 0.184,-0.575C0.179,-0.59 0.175,-0.606 0.172,-0.621L0.164,-0.621C0.165,-0.61 0.167,-0.598 0.168,-0.585C0.169,-0.574 0.169,-0.56 0.17,-0.545C0.171,-0.529 0.171,-0.511 0.171,-0.492L0.171,-0L0.085,-0L0.085,-0.72Z" style="fill-rule:nonzero;"/>
                </g>
                <g transform="matrix(25,0,0,25,1798.84,1128.92)">
                    <path d="M0.045,-0.72L0.555,-0.72L0.555,-0.641L0.346,-0.641L0.346,-0L0.254,-0L0.254,-0.641L0.045,-0.641L0.045,-0.72Z" style="fill-rule:nonzero;"/>
                </g>
                <g transform="matrix(25,0,0,25,1813.84,1128.92)">
                    <path d="M0.095,-0L0.095,-0.72L0.52,-0.72L0.52,-0.638L0.185,-0.638L0.185,-0.412L0.485,-0.412L0.485,-0.33L0.185,-0.33L0.185,-0.082L0.52,-0.082L0.52,-0L0.095,-0Z" style="fill-rule:nonzero;"/>
                </g>
            </g>
            <path d="M1341.06,1690.64L1387.99,1690.64" style="fill:none;stroke:black;stroke-width:2.08px;"/>
            <g transform="matrix(1.21885,0,0,1.21885,-295.592,-369.02)">
                <circle cx="1341.06" cy="1690.64" r="9"/>
                <path d="M1341.06,1681.64C1346.03,1681.64 1350.06,1685.67 1350.06,1690.64C1350.06,1695.6 1346.03,1699.64 1341.06,1699.64C1336.1,1699.64 1332.06,1695.6 1332.06,1690.64C1332.06,1685.67 1336.1,1681.64 1341.06,1681.64ZM1341.06,1683.35C1337.04,1683.35 1333.77,1686.61 1333.77,1690.64C1333.77,1694.66 1337.04,1697.93 1341.06,1697.93C1345.09,1697.93 1348.35,1694.66 1348.35,1690.64C1348.35,1686.61 1345.09,1683.35 1341.06,1683.35Z"/>
            </g>
            <g transform="matrix(1,0,0,1,137.915,247.92)">
                <g transform="matrix(25,0,0,25,1693.84,1128.92)">
                    <path d="M0.3,0.01C0.267,0.01 0.237,0.006 0.209,-0.004C0.181,-0.013 0.157,-0.026 0.137,-0.043C0.116,-0.06 0.1,-0.08 0.089,-0.104C0.077,-0.128 0.071,-0.155 0.07,-0.185L0.165,-0.185C0.165,-0.168 0.169,-0.152 0.176,-0.138C0.183,-0.124 0.192,-0.112 0.205,-0.102C0.218,-0.092 0.232,-0.084 0.249,-0.079C0.266,-0.073 0.283,-0.07 0.302,-0.07C0.344,-0.07 0.377,-0.08 0.402,-0.1C0.427,-0.119 0.439,-0.146 0.439,-0.18C0.439,-0.209 0.43,-0.234 0.412,-0.257C0.394,-0.279 0.368,-0.296 0.334,-0.309L0.258,-0.337C0.147,-0.378 0.091,-0.445 0.091,-0.539C0.091,-0.599 0.11,-0.646 0.148,-0.68C0.186,-0.713 0.238,-0.73 0.305,-0.73C0.336,-0.73 0.365,-0.726 0.391,-0.717C0.417,-0.708 0.44,-0.696 0.459,-0.679C0.478,-0.662 0.493,-0.642 0.504,-0.619C0.515,-0.595 0.52,-0.568 0.521,-0.539L0.426,-0.539C0.426,-0.556 0.423,-0.571 0.416,-0.585C0.409,-0.598 0.401,-0.61 0.39,-0.62C0.379,-0.629 0.366,-0.637 0.351,-0.642C0.336,-0.647 0.321,-0.65 0.304,-0.65C0.266,-0.65 0.236,-0.641 0.215,-0.623C0.193,-0.605 0.182,-0.581 0.182,-0.55C0.182,-0.52 0.19,-0.495 0.207,-0.476C0.223,-0.456 0.249,-0.439 0.286,-0.426L0.366,-0.397C0.419,-0.378 0.46,-0.35 0.488,-0.313C0.516,-0.276 0.53,-0.233 0.53,-0.183C0.53,-0.123 0.51,-0.076 0.469,-0.042C0.428,-0.007 0.371,0.01 0.3,0.01Z" style="fill-rule:nonzero;"/>
                </g>
                <g transform="matrix(25,0,0,25,1708.84,1128.92)">
                    <path d="M0.085,-0.72L0.199,-0.72L0.39,-0.237C0.395,-0.225 0.4,-0.211 0.405,-0.196C0.41,-0.18 0.414,-0.165 0.417,-0.151C0.422,-0.134 0.426,-0.117 0.43,-0.1L0.438,-0.1C0.438,-0.1 0.438,-0.103 0.437,-0.111C0.436,-0.117 0.435,-0.127 0.434,-0.139C0.433,-0.151 0.432,-0.165 0.431,-0.181C0.43,-0.196 0.429,-0.213 0.429,-0.23L0.429,-0.72L0.515,-0.72L0.515,-0L0.401,-0L0.213,-0.484C0.208,-0.499 0.202,-0.515 0.197,-0.531C0.192,-0.547 0.187,-0.562 0.184,-0.575C0.179,-0.59 0.175,-0.606 0.172,-0.621L0.164,-0.621C0.165,-0.61 0.167,-0.598 0.168,-0.585C0.169,-0.574 0.169,-0.56 0.17,-0.545C0.171,-0.529 0.171,-0.511 0.171,-0.492L0.171,-0L0.085,-0L0.085,-0.72Z" style="fill-rule:nonzero;"/>
                </g>
                <g transform="matrix(25,0,0,25,1723.84,1128.92)">
                    <path d="M0.17,-0.205C0.17,-0.164 0.182,-0.131 0.205,-0.107C0.228,-0.082 0.26,-0.07 0.3,-0.07C0.34,-0.07 0.372,-0.082 0.395,-0.107C0.418,-0.131 0.43,-0.164 0.43,-0.205L0.43,-0.515C0.43,-0.556 0.418,-0.589 0.395,-0.614C0.372,-0.638 0.34,-0.65 0.3,-0.65C0.26,-0.65 0.228,-0.638 0.205,-0.614C0.182,-0.589 0.17,-0.556 0.17,-0.515L0.17,-0.205ZM0.08,-0.515C0.08,-0.548 0.085,-0.577 0.096,-0.604C0.106,-0.631 0.121,-0.653 0.14,-0.672C0.159,-0.691 0.182,-0.705 0.209,-0.715C0.236,-0.725 0.266,-0.73 0.3,-0.73C0.334,-0.73 0.365,-0.725 0.392,-0.715C0.419,-0.705 0.442,-0.691 0.461,-0.672C0.48,-0.653 0.494,-0.631 0.505,-0.604C0.515,-0.577 0.52,-0.548 0.52,-0.515L0.52,-0.205C0.52,-0.172 0.515,-0.143 0.505,-0.117C0.494,-0.09 0.48,-0.068 0.461,-0.049C0.442,-0.03 0.418,-0.016 0.391,-0.006C0.364,0.005 0.333,0.01 0.3,0.01C0.266,0.01 0.236,0.005 0.209,-0.005C0.182,-0.015 0.159,-0.029 0.14,-0.048C0.121,-0.067 0.106,-0.089 0.096,-0.116C0.085,-0.143 0.08,-0.172 0.08,-0.205L0.08,-0.515Z" style="fill-rule:nonzero;"/>
                </g>
                <g transform="matrix(25,0,0,25,1738.84,1128.92)">
                    <path d="M0.102,-0.72L0.148,-0.194C0.149,-0.181 0.15,-0.167 0.151,-0.151C0.152,-0.135 0.152,-0.12 0.153,-0.106C0.154,-0.089 0.154,-0.072 0.155,-0.055L0.166,-0.055C0.167,-0.072 0.169,-0.089 0.171,-0.106C0.172,-0.12 0.174,-0.135 0.176,-0.151C0.178,-0.167 0.18,-0.181 0.181,-0.194L0.251,-0.72L0.351,-0.72L0.417,-0.194C0.418,-0.182 0.42,-0.168 0.422,-0.152C0.424,-0.136 0.426,-0.121 0.427,-0.106C0.429,-0.089 0.431,-0.072 0.433,-0.055L0.444,-0.055C0.445,-0.072 0.445,-0.089 0.446,-0.106C0.447,-0.12 0.447,-0.135 0.448,-0.151C0.449,-0.167 0.45,-0.181 0.451,-0.194L0.498,-0.72L0.575,-0.72L0.5,-0L0.378,-0L0.315,-0.529C0.313,-0.548 0.312,-0.566 0.311,-0.583C0.31,-0.599 0.309,-0.613 0.308,-0.624L0.308,-0.662L0.295,-0.662L0.295,-0.624C0.294,-0.613 0.294,-0.599 0.293,-0.583C0.292,-0.566 0.29,-0.548 0.287,-0.529L0.219,-0L0.097,-0L0.025,-0.72L0.102,-0.72Z" style="fill-rule:nonzero;"/>
                </g>
                <g transform="matrix(25,0,0,25,1753.84,1128.92)">
                    <path d="M0.43,-0.83L0.525,-0.83L0.17,0.11L0.075,0.11L0.43,-0.83Z" style="fill-rule:nonzero;"/>
                </g>
                <g transform="matrix(25,0,0,25,1768.84,1128.92)">
                    <path d="M0.301,-0.72C0.369,-0.72 0.422,-0.703 0.461,-0.669C0.5,-0.635 0.519,-0.589 0.519,-0.53C0.519,-0.487 0.507,-0.452 0.483,-0.426C0.458,-0.399 0.426,-0.383 0.386,-0.38L0.386,-0.374C0.432,-0.371 0.468,-0.355 0.494,-0.325C0.519,-0.295 0.532,-0.254 0.532,-0.203C0.532,-0.172 0.527,-0.143 0.517,-0.119C0.507,-0.094 0.493,-0.072 0.474,-0.055C0.455,-0.037 0.431,-0.023 0.404,-0.014C0.377,-0.005 0.346,-0 0.312,-0L0.09,-0L0.09,-0.72L0.301,-0.72ZM0.179,-0.082L0.302,-0.082C0.345,-0.082 0.378,-0.093 0.402,-0.115C0.425,-0.137 0.437,-0.167 0.437,-0.206C0.437,-0.245 0.425,-0.275 0.401,-0.297C0.377,-0.319 0.344,-0.33 0.302,-0.33L0.179,-0.33L0.179,-0.082ZM0.179,-0.638L0.179,-0.408L0.3,-0.408C0.338,-0.408 0.368,-0.418 0.391,-0.439C0.413,-0.459 0.424,-0.487 0.424,-0.523C0.424,-0.559 0.413,-0.587 0.391,-0.608C0.369,-0.628 0.339,-0.638 0.301,-0.638L0.179,-0.638Z" style="fill-rule:nonzero;"/>
                </g>
                <g transform="matrix(25,0,0,25,1783.84,1128.92)">
                    <path d="M0.254,-0.079L0.254,-0.641L0.095,-0.641L0.095,-0.72L0.505,-0.72L0.505,-0.641L0.346,-0.641L0.346,-0.079L0.505,-0.079L0.505,-0L0.095,-0L0.095,-0.079L0.254,-0.079Z" style="fill-rule:nonzero;"/>
                </g>
                <g transform="matrix(25,0,0,25,1798.84,1128.92)">
                    <path d="M0.09,-0.72L0.18,-0.72L0.18,-0.414L0.295,-0.414L0.459,-0.72L0.565,-0.72L0.374,-0.378L0.575,-0L0.468,-0L0.295,-0.335L0.18,-0.335L0.18,-0L0.09,-0L0.09,-0.72Z" style="fill-rule:nonzero;"/>
                </g>
                <g transform="matrix(25,0,0,25,1813.84,1128.92)">
                    <path d="M0.095,-0L0.095,-0.72L0.52,-0.72L0.52,-0.638L0.185,-0.638L0.185,-0.412L0.485,-0.412L0.485,-0.33L0.185,-0.33L0.185,-0.082L0.52,-0.082L0.52,-0L0.095,-0Z" style="fill-rule:nonzero;"/>
                </g>
                <g transform="matrix(25,0,0,25,1843.84,1128.92)">
                    <path d="M0.333,-0.72C0.366,-0.72 0.395,-0.715 0.422,-0.705C0.449,-0.695 0.472,-0.681 0.491,-0.662C0.509,-0.643 0.524,-0.621 0.535,-0.596C0.545,-0.57 0.55,-0.541 0.55,-0.51C0.55,-0.479 0.545,-0.45 0.534,-0.425C0.523,-0.399 0.509,-0.377 0.49,-0.358C0.47,-0.339 0.448,-0.325 0.421,-0.315C0.394,-0.305 0.365,-0.3 0.333,-0.3L0.18,-0.3L0.18,-0L0.09,-0L0.09,-0.72L0.333,-0.72ZM0.18,-0.64L0.18,-0.38L0.333,-0.38C0.37,-0.38 0.4,-0.392 0.423,-0.416C0.446,-0.439 0.457,-0.471 0.457,-0.51C0.457,-0.549 0.446,-0.581 0.423,-0.605C0.4,-0.628 0.37,-0.64 0.333,-0.64L0.18,-0.64Z" style="fill-rule:nonzero;"/>
                </g>
                <g transform="matrix(25,0,0,25,1858.84,1128.92)">
                    <path d="M0.044,-0L0.24,-0.72L0.366,-0.72L0.556,-0L0.46,-0L0.41,-0.203L0.189,-0.203L0.138,-0L0.044,-0ZM0.208,-0.278L0.392,-0.278L0.322,-0.563C0.319,-0.577 0.316,-0.59 0.313,-0.602C0.31,-0.613 0.308,-0.624 0.307,-0.633C0.306,-0.643 0.304,-0.652 0.303,-0.66L0.299,-0.66C0.298,-0.652 0.296,-0.643 0.294,-0.633C0.293,-0.624 0.291,-0.613 0.288,-0.602C0.285,-0.59 0.282,-0.577 0.279,-0.563L0.208,-0.278Z" style="fill-rule:nonzero;"/>
                </g>
                <g transform="matrix(25,0,0,25,1873.84,1128.92)">
                    <path d="M0.32,-0.72C0.353,-0.72 0.382,-0.715 0.409,-0.705C0.436,-0.695 0.459,-0.681 0.478,-0.662C0.497,-0.643 0.511,-0.621 0.522,-0.596C0.532,-0.57 0.537,-0.541 0.537,-0.51C0.537,-0.46 0.524,-0.418 0.499,-0.383C0.473,-0.347 0.438,-0.323 0.394,-0.31L0.547,-0L0.441,-0L0.301,-0.3L0.18,-0.3L0.18,-0L0.09,-0L0.09,-0.72L0.32,-0.72ZM0.18,-0.38L0.32,-0.38C0.358,-0.38 0.388,-0.392 0.411,-0.416C0.433,-0.439 0.444,-0.471 0.444,-0.51C0.444,-0.549 0.433,-0.581 0.41,-0.605C0.387,-0.628 0.357,-0.64 0.32,-0.64L0.18,-0.64L0.18,-0.38Z" style="fill-rule:nonzero;"/>
                </g>
                <g transform="matrix(25,0,0,25,1888.84,1128.92)">
                    <path d="M0.09,-0.72L0.18,-0.72L0.18,-0.414L0.295,-0.414L0.459,-0.72L0.565,-0.72L0.374,-0.378L0.575,-0L0.468,-0L0.295,-0.335L0.18,-0.335L0.18,-0L0.09,-0L0.09,-0.72Z" style="fill-rule:nonzero;"/>
                </g>
            </g>
            <g transform="matrix(1,0,0,1,-569.771,579.744)">
                <path d="M2453.86,1122.83C2450.3,1136.96 2447.03,1144.5 2449.64,1152.02C2453.42,1162.92 2476.28,1157.41 2476.28,1157.41L2479.37,1135.38L2469.9,1122.83L2465.24,1099.89C2465.24,1099.89 2461.91,1106.84 2460.55,1108.59C2457.21,1112.88 2455.14,1117.71 2453.86,1122.83Z" style="fill:rgb(94,163,214);"/>
            </g>
        </g>
    </g>
</svg>
