<?xml version="1.0" encoding="UTF-8" standalone="no"?>
<!DOCTYPE svg PUBLIC "-//W3C//DTD SVG 1.1//EN" "http://www.w3.org/Graphics/SVG/1.1/DTD/svg11.dtd">
<svg width="2453px" height="907px" version="1.1" xmlns="http://www.w3.org/2000/svg" xmlns:xlink="http://www.w3.org/1999/xlink" xml:space="preserve" xmlns:serif="http://www.serif.com/" style="fill-rule:evenodd;clip-rule:evenodd;stroke-linecap:square;stroke-miterlimit:1.5;">
    <g transform="matrix(1,0,0,1,-647.438,-872.726)">
        <g>
            <g transform="matrix(0.709953,2.22045e-16,-1.66533e-16,0.596014,1069.75,152.379)">
                <path d="M1185.33,2301L1197.91,2301.05L1197.85,2316.57L1207.15,2316.62L1207.14,2300.83L1219.34,2300.91L1219.35,2340.09L1185.03,2340.19L1185.33,2301Z"/>
            </g>
            <g transform="matrix(0.894638,-0.162835,0.111614,0.613224,444.333,620.914)">
                <rect x="1918.32" y="1517.54" width="21.026" height="17.889" style="fill:rgb(156,151,138);"/>
            </g>
            <g transform="matrix(0.484056,-0.123378,0.119526,0.468942,1338.28,744.324)">
                <rect x="1918.32" y="1517.54" width="21.026" height="17.889" style="fill:rgb(156,151,138);"/>
            </g>
            <g transform="matrix(0.484056,-0.123378,0.119526,0.468942,1324.33,750.939)">
                <rect x="1918.32" y="1517.54" width="21.026" height="17.889" style="fill:rgb(156,151,138);"/>
            </g>
            <g transform="matrix(0.484056,-0.123378,0.119526,0.468942,1309.72,751.801)">
                <rect x="1918.32" y="1517.54" width="21.026" height="17.889" style="fill:rgb(156,151,138);"/>
            </g>
            <g transform="matrix(0.529154,-0.134872,0.123843,0.485883,1239.01,771.055)">
                <rect x="1918.32" y="1517.54" width="21.026" height="17.889" style="fill:rgb(156,151,138);"/>
            </g>
            <g transform="matrix(0.529154,-0.134872,0.123843,0.485883,1223.75,771.003)">
                <rect x="1918.32" y="1517.54" width="21.026" height="17.889" style="fill:rgb(156,151,138);"/>
            </g>
            <g transform="matrix(0.529154,-0.134872,0.123843,0.485883,1209.79,774.217)">
                <rect x="1918.32" y="1517.54" width="21.026" height="17.889" style="fill:rgb(156,151,138);"/>
            </g>
            <g transform="matrix(0.896457,-0.152505,0.104533,0.61447,430.201,629.755)">
                <rect x="1918.32" y="1517.54" width="21.026" height="17.889" style="fill:rgb(156,151,138);"/>
            </g>
            <g transform="matrix(1,0,0,1,-11,0)">
                <path d="M3027.29,1172.67L3062.08,1163.57L3088.12,1163.57L3104.3,1176.29L3111.35,1202.29L3098.12,1225.32L3044.06,1225.32L3030.8,1204.21L3027.29,1172.67Z" style="fill:rgb(156,151,138);"/>
            </g>
            <g transform="matrix(1,0,0,1,9,0)">
                <path d="M662.718,1141.82L691.793,1141.82L708.755,1163.57L705.63,1194.44L643.123,1185.47L662.718,1141.82Z" style="fill:rgb(156,151,138);"/>
            </g>
            <g transform="matrix(1,0,0,1,659.268,-116.423)">
                <path d="M664.29,1160.69L677.504,1187.37L649.113,1191.81L644.948,1159.91L664.29,1160.69Z" style="fill:rgb(156,151,138);"/>
            </g>
            <g transform="matrix(1,0,0,1,-77.2429,34.9185)">
                <g transform="matrix(24.3913,0,0,25,1928.23,1448.74)">
                    <path d="M0.095,-0.721L0.525,-0.721L0.525,-0.641L0.183,-0.641L0.183,-0.408L0.499,-0.408L0.499,-0.328L0.185,-0.328L0.185,-0L0.095,-0L0.095,-0.721Z" style="fill-rule:nonzero;"/>
                </g>
                <g transform="matrix(24.3913,0,0,25,1942.86,1448.74)">
                    <path d="M0.17,-0.205C0.17,-0.164 0.182,-0.131 0.205,-0.107C0.228,-0.082 0.26,-0.07 0.3,-0.07C0.34,-0.07 0.372,-0.082 0.395,-0.107C0.418,-0.131 0.43,-0.164 0.43,-0.205L0.43,-0.515C0.43,-0.556 0.418,-0.589 0.395,-0.614C0.372,-0.638 0.34,-0.65 0.3,-0.65C0.26,-0.65 0.228,-0.638 0.205,-0.614C0.182,-0.589 0.17,-0.556 0.17,-0.515L0.17,-0.205ZM0.08,-0.515C0.08,-0.548 0.085,-0.577 0.096,-0.604C0.106,-0.631 0.121,-0.653 0.14,-0.672C0.159,-0.691 0.182,-0.705 0.209,-0.715C0.236,-0.725 0.266,-0.73 0.3,-0.73C0.334,-0.73 0.365,-0.725 0.392,-0.715C0.419,-0.705 0.442,-0.691 0.461,-0.672C0.48,-0.653 0.494,-0.631 0.505,-0.604C0.515,-0.577 0.52,-0.548 0.52,-0.515L0.52,-0.205C0.52,-0.172 0.515,-0.143 0.505,-0.117C0.494,-0.09 0.48,-0.068 0.461,-0.049C0.442,-0.03 0.418,-0.016 0.391,-0.006C0.364,0.005 0.333,0.01 0.3,0.01C0.266,0.01 0.236,0.005 0.209,-0.005C0.182,-0.015 0.159,-0.029 0.14,-0.048C0.121,-0.067 0.106,-0.089 0.096,-0.116C0.085,-0.143 0.08,-0.172 0.08,-0.205L0.08,-0.515Z" style="fill-rule:nonzero;"/>
                </g>
                <g transform="matrix(24.3913,0,0,25,1957.5,1448.74)">
                    <path d="M0.32,-0.72C0.353,-0.72 0.382,-0.715 0.409,-0.705C0.436,-0.695 0.459,-0.681 0.478,-0.662C0.497,-0.643 0.511,-0.621 0.522,-0.596C0.532,-0.57 0.537,-0.541 0.537,-0.51C0.537,-0.46 0.524,-0.418 0.499,-0.383C0.473,-0.347 0.438,-0.323 0.394,-0.31L0.547,-0L0.441,-0L0.301,-0.3L0.18,-0.3L0.18,-0L0.09,-0L0.09,-0.72L0.32,-0.72ZM0.18,-0.38L0.32,-0.38C0.358,-0.38 0.388,-0.392 0.411,-0.416C0.433,-0.439 0.444,-0.471 0.444,-0.51C0.444,-0.549 0.433,-0.581 0.41,-0.605C0.387,-0.628 0.357,-0.64 0.32,-0.64L0.18,-0.64L0.18,-0.38Z" style="fill-rule:nonzero;"/>
                </g>
                <g transform="matrix(24.3913,0,0,25,1972.13,1448.74)">
                    <path d="M0.045,-0.72L0.555,-0.72L0.555,-0.641L0.346,-0.641L0.346,-0L0.254,-0L0.254,-0.641L0.045,-0.641L0.045,-0.72Z" style="fill-rule:nonzero;"/>
                </g>
                <g transform="matrix(24.3913,0,0,25,2001.4,1448.74)">
                    <path d="M0.289,-0.08C0.331,-0.08 0.365,-0.093 0.391,-0.119C0.416,-0.144 0.429,-0.178 0.429,-0.22L0.429,-0.501C0.429,-0.543 0.416,-0.577 0.391,-0.602C0.365,-0.627 0.331,-0.64 0.289,-0.64L0.178,-0.64L0.178,-0.08L0.289,-0.08ZM0.088,-0L0.088,-0.72L0.289,-0.72C0.324,-0.72 0.355,-0.715 0.384,-0.704C0.412,-0.693 0.436,-0.679 0.457,-0.66C0.477,-0.641 0.493,-0.618 0.504,-0.591C0.515,-0.564 0.52,-0.534 0.52,-0.501L0.52,-0.22C0.52,-0.187 0.515,-0.157 0.504,-0.13C0.493,-0.103 0.477,-0.08 0.457,-0.061C0.436,-0.042 0.412,-0.027 0.384,-0.016C0.355,-0.005 0.324,-0 0.289,-0L0.088,-0Z" style="fill-rule:nonzero;"/>
                </g>
                <g transform="matrix(24.3913,0,0,25,2016.04,1448.74)">
                    <path d="M0.095,-0L0.095,-0.72L0.52,-0.72L0.52,-0.638L0.185,-0.638L0.185,-0.412L0.485,-0.412L0.485,-0.33L0.185,-0.33L0.185,-0.082L0.52,-0.082L0.52,-0L0.095,-0Z" style="fill-rule:nonzero;"/>
                </g>
                <g transform="matrix(24.3913,0,0,25,2045.31,1448.74)">
                    <path d="M0.195,-0.72L0.195,-0.082L0.535,-0.082L0.535,-0L0.105,-0L0.105,-0.72L0.195,-0.72Z" style="fill-rule:nonzero;"/>
                </g>
                <g transform="matrix(24.3913,0,0,25,2059.94,1448.74)">
                    <path d="M0.044,-0L0.24,-0.72L0.366,-0.72L0.556,-0L0.46,-0L0.41,-0.203L0.189,-0.203L0.138,-0L0.044,-0ZM0.208,-0.278L0.392,-0.278L0.322,-0.563C0.319,-0.577 0.316,-0.59 0.313,-0.602C0.31,-0.613 0.308,-0.624 0.307,-0.633C0.306,-0.643 0.304,-0.652 0.303,-0.66L0.299,-0.66C0.298,-0.652 0.296,-0.643 0.294,-0.633C0.293,-0.624 0.291,-0.613 0.288,-0.602C0.285,-0.59 0.282,-0.577 0.279,-0.563L0.208,-0.278Z" style="fill-rule:nonzero;"/>
                </g>
                <g transform="matrix(24.3913,0,0,25,1898.96,1477.91)">
                    <path d="M0.32,-0.72C0.353,-0.72 0.382,-0.715 0.409,-0.705C0.436,-0.695 0.459,-0.681 0.478,-0.662C0.497,-0.643 0.511,-0.621 0.522,-0.596C0.532,-0.57 0.537,-0.541 0.537,-0.51C0.537,-0.46 0.524,-0.418 0.499,-0.383C0.473,-0.347 0.438,-0.323 0.394,-0.31L0.547,-0L0.441,-0L0.301,-0.3L0.18,-0.3L0.18,-0L0.09,-0L0.09,-0.72L0.32,-0.72ZM0.18,-0.38L0.32,-0.38C0.358,-0.38 0.388,-0.392 0.411,-0.416C0.433,-0.439 0.444,-0.471 0.444,-0.51C0.444,-0.549 0.433,-0.581 0.41,-0.605C0.387,-0.628 0.357,-0.64 0.32,-0.64L0.18,-0.64L0.18,-0.38Z" style="fill-rule:nonzero;"/>
                </g>
                <g transform="matrix(24.3913,0,0,25,1913.59,1477.91)">
                    <path d="M0.095,-0L0.095,-0.72L0.52,-0.72L0.52,-0.638L0.185,-0.638L0.185,-0.412L0.485,-0.412L0.485,-0.33L0.185,-0.33L0.185,-0.082L0.52,-0.082L0.52,-0L0.095,-0Z" style="fill-rule:nonzero;"/>
                </g>
                <g transform="matrix(24.3913,0,0,25,1928.23,1477.91)">
                    <path d="M0.289,-0.08C0.331,-0.08 0.365,-0.093 0.391,-0.119C0.416,-0.144 0.429,-0.178 0.429,-0.22L0.429,-0.501C0.429,-0.543 0.416,-0.577 0.391,-0.602C0.365,-0.627 0.331,-0.64 0.289,-0.64L0.178,-0.64L0.178,-0.08L0.289,-0.08ZM0.088,-0L0.088,-0.72L0.289,-0.72C0.324,-0.72 0.355,-0.715 0.384,-0.704C0.412,-0.693 0.436,-0.679 0.457,-0.66C0.477,-0.641 0.493,-0.618 0.504,-0.591C0.515,-0.564 0.52,-0.534 0.52,-0.501L0.52,-0.22C0.52,-0.187 0.515,-0.157 0.504,-0.13C0.493,-0.103 0.477,-0.08 0.457,-0.061C0.436,-0.042 0.412,-0.027 0.384,-0.016C0.355,-0.005 0.324,-0 0.289,-0L0.088,-0Z" style="fill-rule:nonzero;"/>
                </g>
                <g transform="matrix(24.3913,0,0,25,1942.86,1477.91)">
                    <path d="M0.17,-0.205C0.17,-0.164 0.182,-0.131 0.205,-0.107C0.228,-0.082 0.26,-0.07 0.3,-0.07C0.34,-0.07 0.372,-0.082 0.395,-0.107C0.418,-0.131 0.43,-0.164 0.43,-0.205L0.43,-0.515C0.43,-0.556 0.418,-0.589 0.395,-0.614C0.372,-0.638 0.34,-0.65 0.3,-0.65C0.26,-0.65 0.228,-0.638 0.205,-0.614C0.182,-0.589 0.17,-0.556 0.17,-0.515L0.17,-0.205ZM0.08,-0.515C0.08,-0.548 0.085,-0.577 0.096,-0.604C0.106,-0.631 0.121,-0.653 0.14,-0.672C0.159,-0.691 0.182,-0.705 0.209,-0.715C0.236,-0.725 0.266,-0.73 0.3,-0.73C0.334,-0.73 0.365,-0.725 0.392,-0.715C0.419,-0.705 0.442,-0.691 0.461,-0.672C0.48,-0.653 0.494,-0.631 0.505,-0.604C0.515,-0.577 0.52,-0.548 0.52,-0.515L0.52,-0.205C0.52,-0.172 0.515,-0.143 0.505,-0.117C0.494,-0.09 0.48,-0.068 0.461,-0.049C0.442,-0.03 0.418,-0.016 0.391,-0.006C0.364,0.005 0.333,0.01 0.3,0.01C0.266,0.01 0.236,0.005 0.209,-0.005C0.182,-0.015 0.159,-0.029 0.14,-0.048C0.121,-0.067 0.106,-0.089 0.096,-0.116C0.085,-0.143 0.08,-0.172 0.08,-0.205L0.08,-0.515Z" style="fill-rule:nonzero;"/>
                </g>
                <g transform="matrix(24.3913,0,0,25,1957.5,1477.91)">
                    <path d="M0.3,0.01C0.231,0.01 0.178,-0.009 0.141,-0.046C0.104,-0.083 0.085,-0.135 0.085,-0.2L0.085,-0.72L0.175,-0.72L0.175,-0.2C0.175,-0.16 0.186,-0.128 0.207,-0.105C0.228,-0.082 0.259,-0.07 0.3,-0.07C0.34,-0.07 0.371,-0.082 0.393,-0.105C0.414,-0.128 0.425,-0.16 0.425,-0.2L0.425,-0.72L0.515,-0.72L0.515,-0.2C0.515,-0.134 0.496,-0.083 0.459,-0.046C0.422,-0.008 0.369,0.01 0.3,0.01Z" style="fill-rule:nonzero;"/>
                </g>
                <g transform="matrix(24.3913,0,0,25,1972.13,1477.91)">
                    <path d="M0.045,-0.72L0.555,-0.72L0.555,-0.641L0.346,-0.641L0.346,-0L0.254,-0L0.254,-0.641L0.045,-0.641L0.045,-0.72Z" style="fill-rule:nonzero;"/>
                </g>
                <g transform="matrix(24.3913,0,0,25,1986.77,1477.91)">
                    <path d="M0.095,-0L0.095,-0.72L0.52,-0.72L0.52,-0.638L0.185,-0.638L0.185,-0.412L0.485,-0.412L0.485,-0.33L0.185,-0.33L0.185,-0.082L0.52,-0.082L0.52,-0L0.095,-0Z" style="fill-rule:nonzero;"/>
                </g>
                <g transform="matrix(24.3913,0,0,25,2016.04,1477.91)">
                    <path d="M0.32,-0.72C0.353,-0.72 0.382,-0.715 0.409,-0.705C0.436,-0.695 0.459,-0.681 0.478,-0.662C0.497,-0.643 0.511,-0.621 0.522,-0.596C0.532,-0.57 0.537,-0.541 0.537,-0.51C0.537,-0.46 0.524,-0.418 0.499,-0.383C0.473,-0.347 0.438,-0.323 0.394,-0.31L0.547,-0L0.441,-0L0.301,-0.3L0.18,-0.3L0.18,-0L0.09,-0L0.09,-0.72L0.32,-0.72ZM0.18,-0.38L0.32,-0.38C0.358,-0.38 0.388,-0.392 0.411,-0.416C0.433,-0.439 0.444,-0.471 0.444,-0.51C0.444,-0.549 0.433,-0.581 0.41,-0.605C0.387,-0.628 0.357,-0.64 0.32,-0.64L0.18,-0.64L0.18,-0.38Z" style="fill-rule:nonzero;"/>
                </g>
                <g transform="matrix(24.3913,0,0,25,2030.67,1477.91)">
                    <path d="M0.3,0.01C0.231,0.01 0.178,-0.009 0.141,-0.046C0.104,-0.083 0.085,-0.135 0.085,-0.2L0.085,-0.72L0.175,-0.72L0.175,-0.2C0.175,-0.16 0.186,-0.128 0.207,-0.105C0.228,-0.082 0.259,-0.07 0.3,-0.07C0.34,-0.07 0.371,-0.082 0.393,-0.105C0.414,-0.128 0.425,-0.16 0.425,-0.2L0.425,-0.72L0.515,-0.72L0.515,-0.2C0.515,-0.134 0.496,-0.083 0.459,-0.046C0.422,-0.008 0.369,0.01 0.3,0.01Z" style="fill-rule:nonzero;"/>
                </g>
                <g transform="matrix(24.3913,0,0,25,2045.31,1477.91)">
                    <path d="M0.254,-0.079L0.254,-0.641L0.095,-0.641L0.095,-0.72L0.505,-0.72L0.505,-0.641L0.346,-0.641L0.346,-0.079L0.505,-0.079L0.505,-0L0.095,-0L0.095,-0.079L0.254,-0.079Z" style="fill-rule:nonzero;"/>
                </g>
                <g transform="matrix(24.3913,0,0,25,2059.94,1477.91)">
                    <path d="M0.085,-0.72L0.199,-0.72L0.39,-0.237C0.395,-0.225 0.4,-0.211 0.405,-0.196C0.41,-0.18 0.414,-0.165 0.417,-0.151C0.422,-0.134 0.426,-0.117 0.43,-0.1L0.438,-0.1C0.438,-0.1 0.438,-0.103 0.437,-0.111C0.436,-0.117 0.435,-0.127 0.434,-0.139C0.433,-0.151 0.432,-0.165 0.431,-0.181C0.43,-0.196 0.429,-0.213 0.429,-0.23L0.429,-0.72L0.515,-0.72L0.515,-0L0.401,-0L0.213,-0.484C0.208,-0.499 0.202,-0.515 0.197,-0.531C0.192,-0.547 0.187,-0.562 0.184,-0.575C0.179,-0.59 0.175,-0.606 0.172,-0.621L0.164,-0.621C0.165,-0.61 0.167,-0.598 0.168,-0.585C0.169,-0.574 0.169,-0.56 0.17,-0.545C0.171,-0.529 0.171,-0.511 0.171,-0.492L0.171,-0L0.085,-0L0.085,-0.72Z" style="fill-rule:nonzero;"/>
                </g>
                <g transform="matrix(24.3913,0,0,25,2074.58,1477.91)">
                    <path d="M0.095,-0L0.095,-0.72L0.52,-0.72L0.52,-0.638L0.185,-0.638L0.185,-0.412L0.485,-0.412L0.485,-0.33L0.185,-0.33L0.185,-0.082L0.52,-0.082L0.52,-0L0.095,-0ZM0.32,-0.81L0.23,-0.81L0.34,-0.956L0.45,-0.956L0.32,-0.81Z" style="fill-rule:nonzero;"/>
                </g>
                <g transform="matrix(24.3913,0,0,25,2089.21,1477.91)">
                    <path d="M0.095,-0L0.095,-0.72L0.52,-0.72L0.52,-0.638L0.185,-0.638L0.185,-0.412L0.485,-0.412L0.485,-0.33L0.185,-0.33L0.185,-0.082L0.52,-0.082L0.52,-0L0.095,-0Z" style="fill-rule:nonzero;"/>
                </g>
            </g>
            <g transform="matrix(1,0,0,1,382.437,-24.5743)">
                <g transform="matrix(24.3913,0,0,25,1898.96,1448.74)">
                    <path d="M0.195,-0.72L0.195,-0.082L0.535,-0.082L0.535,-0L0.105,-0L0.105,-0.72L0.195,-0.72Z" style="fill-rule:nonzero;"/>
                </g>
                <g transform="matrix(24.3913,0,0,25,1913.59,1448.74)">
                    <path d="M0.044,-0L0.24,-0.72L0.366,-0.72L0.556,-0L0.46,-0L0.41,-0.203L0.189,-0.203L0.138,-0L0.044,-0ZM0.208,-0.278L0.392,-0.278L0.322,-0.563C0.319,-0.577 0.316,-0.59 0.313,-0.602C0.31,-0.613 0.308,-0.624 0.307,-0.633C0.306,-0.643 0.304,-0.652 0.303,-0.66L0.299,-0.66C0.298,-0.652 0.296,-0.643 0.294,-0.633C0.293,-0.624 0.291,-0.613 0.288,-0.602C0.285,-0.59 0.282,-0.577 0.279,-0.563L0.208,-0.278Z" style="fill-rule:nonzero;"/>
                </g>
                <g transform="matrix(24.3913,0,0,25,1928.23,1448.74)">
                    <path d="M0.306,-0.73C0.369,-0.73 0.419,-0.713 0.458,-0.679C0.496,-0.644 0.519,-0.596 0.526,-0.535L0.436,-0.535C0.432,-0.571 0.419,-0.599 0.396,-0.62C0.373,-0.64 0.343,-0.65 0.306,-0.65C0.266,-0.65 0.234,-0.638 0.211,-0.614C0.188,-0.59 0.176,-0.557 0.176,-0.515L0.176,-0.205C0.176,-0.163 0.188,-0.13 0.211,-0.106C0.234,-0.082 0.265,-0.07 0.306,-0.07C0.343,-0.07 0.373,-0.08 0.396,-0.101C0.419,-0.121 0.432,-0.149 0.436,-0.185L0.526,-0.185C0.519,-0.124 0.496,-0.076 0.458,-0.042C0.419,-0.007 0.369,0.01 0.306,0.01C0.272,0.01 0.242,0.005 0.215,-0.005C0.188,-0.015 0.165,-0.029 0.146,-0.048C0.127,-0.067 0.112,-0.089 0.102,-0.116C0.091,-0.143 0.086,-0.172 0.086,-0.205L0.086,-0.515C0.086,-0.548 0.091,-0.577 0.102,-0.604C0.112,-0.631 0.127,-0.653 0.146,-0.672C0.165,-0.691 0.188,-0.705 0.215,-0.715C0.242,-0.725 0.272,-0.73 0.306,-0.73Z" style="fill-rule:nonzero;"/>
                </g>
                <g transform="matrix(24.3913,0,0,25,1957.5,1448.74)">
                    <path d="M0.195,-0.72L0.195,-0.082L0.535,-0.082L0.535,-0L0.105,-0L0.105,-0.72L0.195,-0.72Z" style="fill-rule:nonzero;"/>
                </g>
                <g transform="matrix(24.3913,0,0,25,1972.13,1448.74)">
                    <path d="M0.17,-0.205C0.17,-0.164 0.182,-0.131 0.205,-0.107C0.228,-0.082 0.26,-0.07 0.3,-0.07C0.34,-0.07 0.372,-0.082 0.395,-0.107C0.418,-0.131 0.43,-0.164 0.43,-0.205L0.43,-0.515C0.43,-0.556 0.418,-0.589 0.395,-0.614C0.372,-0.638 0.34,-0.65 0.3,-0.65C0.26,-0.65 0.228,-0.638 0.205,-0.614C0.182,-0.589 0.17,-0.556 0.17,-0.515L0.17,-0.205ZM0.08,-0.515C0.08,-0.548 0.085,-0.577 0.096,-0.604C0.106,-0.631 0.121,-0.653 0.14,-0.672C0.159,-0.691 0.182,-0.705 0.209,-0.715C0.236,-0.725 0.266,-0.73 0.3,-0.73C0.334,-0.73 0.365,-0.725 0.392,-0.715C0.419,-0.705 0.442,-0.691 0.461,-0.672C0.48,-0.653 0.494,-0.631 0.505,-0.604C0.515,-0.577 0.52,-0.548 0.52,-0.515L0.52,-0.205C0.52,-0.172 0.515,-0.143 0.505,-0.117C0.494,-0.09 0.48,-0.068 0.461,-0.049C0.442,-0.03 0.418,-0.016 0.391,-0.006C0.364,0.005 0.333,0.01 0.3,0.01C0.266,0.01 0.236,0.005 0.209,-0.005C0.182,-0.015 0.159,-0.029 0.14,-0.048C0.121,-0.067 0.106,-0.089 0.096,-0.116C0.085,-0.143 0.08,-0.172 0.08,-0.205L0.08,-0.515Z" style="fill-rule:nonzero;"/>
                </g>
                <g transform="matrix(24.3913,0,0,25,1986.77,1448.74)">
                    <path d="M0.085,-0.72L0.199,-0.72L0.39,-0.237C0.395,-0.225 0.4,-0.211 0.405,-0.196C0.41,-0.18 0.414,-0.165 0.417,-0.151C0.422,-0.134 0.426,-0.117 0.43,-0.1L0.438,-0.1C0.438,-0.1 0.438,-0.103 0.437,-0.111C0.436,-0.117 0.435,-0.127 0.434,-0.139C0.433,-0.151 0.432,-0.165 0.431,-0.181C0.43,-0.196 0.429,-0.213 0.429,-0.23L0.429,-0.72L0.515,-0.72L0.515,-0L0.401,-0L0.213,-0.484C0.208,-0.499 0.202,-0.515 0.197,-0.531C0.192,-0.547 0.187,-0.562 0.184,-0.575C0.179,-0.59 0.175,-0.606 0.172,-0.621L0.164,-0.621C0.165,-0.61 0.167,-0.598 0.168,-0.585C0.169,-0.574 0.169,-0.56 0.17,-0.545C0.171,-0.529 0.171,-0.511 0.171,-0.492L0.171,-0L0.085,-0L0.085,-0.72Z" style="fill-rule:nonzero;"/>
                </g>
                <g transform="matrix(24.3913,0,0,25,2001.4,1448.74)">
                    <path d="M0.284,-0.37L0.52,-0.37L0.52,-0.205C0.52,-0.172 0.515,-0.143 0.505,-0.116C0.494,-0.089 0.48,-0.067 0.461,-0.048C0.442,-0.029 0.419,-0.015 0.392,-0.005C0.365,0.005 0.334,0.01 0.3,0.01C0.267,0.01 0.236,0.005 0.209,-0.005C0.182,-0.015 0.159,-0.029 0.14,-0.048C0.121,-0.067 0.106,-0.089 0.096,-0.116C0.085,-0.143 0.08,-0.172 0.08,-0.205L0.08,-0.515C0.08,-0.547 0.085,-0.576 0.096,-0.603C0.107,-0.63 0.122,-0.652 0.141,-0.671C0.16,-0.69 0.183,-0.704 0.21,-0.715C0.237,-0.725 0.267,-0.73 0.3,-0.73C0.361,-0.73 0.41,-0.715 0.449,-0.684C0.488,-0.653 0.513,-0.609 0.525,-0.55L0.433,-0.55C0.426,-0.581 0.411,-0.606 0.388,-0.624C0.365,-0.641 0.335,-0.65 0.3,-0.65C0.26,-0.65 0.228,-0.638 0.205,-0.614C0.182,-0.59 0.17,-0.557 0.17,-0.515L0.17,-0.205C0.17,-0.163 0.182,-0.13 0.205,-0.106C0.228,-0.082 0.26,-0.07 0.3,-0.07C0.34,-0.07 0.372,-0.082 0.395,-0.106C0.418,-0.13 0.43,-0.163 0.43,-0.205L0.43,-0.29L0.284,-0.29L0.284,-0.37Z" style="fill-rule:nonzero;"/>
                </g>
                <g transform="matrix(24.3913,0,0,25,2016.04,1448.74)">
                    <path d="M0.095,-0L0.095,-0.72L0.52,-0.72L0.52,-0.638L0.185,-0.638L0.185,-0.412L0.485,-0.412L0.485,-0.33L0.185,-0.33L0.185,-0.082L0.52,-0.082L0.52,-0L0.095,-0Z" style="fill-rule:nonzero;"/>
                </g>
                <g transform="matrix(24.3913,0,0,25,2030.67,1448.74)">
                    <path d="M0.045,-0.72L0.555,-0.72L0.555,-0.641L0.346,-0.641L0.346,-0L0.254,-0L0.254,-0.641L0.045,-0.641L0.045,-0.72Z" style="fill-rule:nonzero;"/>
                </g>
            </g>
            <g transform="matrix(1,0,0,1,508.721,-381.086)">
                <g transform="matrix(24.3913,0,0,25,1898.96,1448.74)">
                    <path d="M0.195,-0.72L0.195,-0.082L0.535,-0.082L0.535,-0L0.105,-0L0.105,-0.72L0.195,-0.72Z" style="fill-rule:nonzero;"/>
                </g>
                <g transform="matrix(24.3913,0,0,25,1913.59,1448.74)">
                    <path d="M0.044,-0L0.24,-0.72L0.366,-0.72L0.556,-0L0.46,-0L0.41,-0.203L0.189,-0.203L0.138,-0L0.044,-0ZM0.208,-0.278L0.392,-0.278L0.322,-0.563C0.319,-0.577 0.316,-0.59 0.313,-0.602C0.31,-0.613 0.308,-0.624 0.307,-0.633C0.306,-0.643 0.304,-0.652 0.303,-0.66L0.299,-0.66C0.298,-0.652 0.296,-0.643 0.294,-0.633C0.293,-0.624 0.291,-0.613 0.288,-0.602C0.285,-0.59 0.282,-0.577 0.279,-0.563L0.208,-0.278Z" style="fill-rule:nonzero;"/>
                </g>
                <g transform="matrix(24.3913,0,0,25,1928.23,1448.74)">
                    <path d="M0.284,-0.37L0.52,-0.37L0.52,-0.205C0.52,-0.172 0.515,-0.143 0.505,-0.116C0.494,-0.089 0.48,-0.067 0.461,-0.048C0.442,-0.029 0.419,-0.015 0.392,-0.005C0.365,0.005 0.334,0.01 0.3,0.01C0.267,0.01 0.236,0.005 0.209,-0.005C0.182,-0.015 0.159,-0.029 0.14,-0.048C0.121,-0.067 0.106,-0.089 0.096,-0.116C0.085,-0.143 0.08,-0.172 0.08,-0.205L0.08,-0.515C0.08,-0.547 0.085,-0.576 0.096,-0.603C0.107,-0.63 0.122,-0.652 0.141,-0.671C0.16,-0.69 0.183,-0.704 0.21,-0.715C0.237,-0.725 0.267,-0.73 0.3,-0.73C0.361,-0.73 0.41,-0.715 0.449,-0.684C0.488,-0.653 0.513,-0.609 0.525,-0.55L0.433,-0.55C0.426,-0.581 0.411,-0.606 0.388,-0.624C0.365,-0.641 0.335,-0.65 0.3,-0.65C0.26,-0.65 0.228,-0.638 0.205,-0.614C0.182,-0.59 0.17,-0.557 0.17,-0.515L0.17,-0.205C0.17,-0.163 0.182,-0.13 0.205,-0.106C0.228,-0.082 0.26,-0.07 0.3,-0.07C0.34,-0.07 0.372,-0.082 0.395,-0.106C0.418,-0.13 0.43,-0.163 0.43,-0.205L0.43,-0.29L0.284,-0.29L0.284,-0.37Z" style="fill-rule:nonzero;"/>
                </g>
                <g transform="matrix(24.3913,0,0,25,1942.86,1448.74)">
                    <path d="M0.17,-0.205C0.17,-0.164 0.182,-0.131 0.205,-0.107C0.228,-0.082 0.26,-0.07 0.3,-0.07C0.34,-0.07 0.372,-0.082 0.395,-0.107C0.418,-0.131 0.43,-0.164 0.43,-0.205L0.43,-0.515C0.43,-0.556 0.418,-0.589 0.395,-0.614C0.372,-0.638 0.34,-0.65 0.3,-0.65C0.26,-0.65 0.228,-0.638 0.205,-0.614C0.182,-0.589 0.17,-0.556 0.17,-0.515L0.17,-0.205ZM0.08,-0.515C0.08,-0.548 0.085,-0.577 0.096,-0.604C0.106,-0.631 0.121,-0.653 0.14,-0.672C0.159,-0.691 0.182,-0.705 0.209,-0.715C0.236,-0.725 0.266,-0.73 0.3,-0.73C0.334,-0.73 0.365,-0.725 0.392,-0.715C0.419,-0.705 0.442,-0.691 0.461,-0.672C0.48,-0.653 0.494,-0.631 0.505,-0.604C0.515,-0.577 0.52,-0.548 0.52,-0.515L0.52,-0.205C0.52,-0.172 0.515,-0.143 0.505,-0.117C0.494,-0.09 0.48,-0.068 0.461,-0.049C0.442,-0.03 0.418,-0.016 0.391,-0.006C0.364,0.005 0.333,0.01 0.3,0.01C0.266,0.01 0.236,0.005 0.209,-0.005C0.182,-0.015 0.159,-0.029 0.14,-0.048C0.121,-0.067 0.106,-0.089 0.096,-0.116C0.085,-0.143 0.08,-0.172 0.08,-0.205L0.08,-0.515Z" style="fill-rule:nonzero;"/>
                </g>
                <g transform="matrix(24.3913,0,0,25,1972.13,1448.74)">
                    <path d="M0.289,-0.08C0.331,-0.08 0.365,-0.093 0.391,-0.119C0.416,-0.144 0.429,-0.178 0.429,-0.22L0.429,-0.501C0.429,-0.543 0.416,-0.577 0.391,-0.602C0.365,-0.627 0.331,-0.64 0.289,-0.64L0.178,-0.64L0.178,-0.08L0.289,-0.08ZM0.088,-0L0.088,-0.72L0.289,-0.72C0.324,-0.72 0.355,-0.715 0.384,-0.704C0.412,-0.693 0.436,-0.679 0.457,-0.66C0.477,-0.641 0.493,-0.618 0.504,-0.591C0.515,-0.564 0.52,-0.534 0.52,-0.501L0.52,-0.22C0.52,-0.187 0.515,-0.157 0.504,-0.13C0.493,-0.103 0.477,-0.08 0.457,-0.061C0.436,-0.042 0.412,-0.027 0.384,-0.016C0.355,-0.005 0.324,-0 0.289,-0L0.088,-0Z" style="fill-rule:nonzero;"/>
                </g>
                <g transform="matrix(24.3913,0,0,25,1986.77,1448.74)">
                    <path d="M0.254,-0.079L0.254,-0.641L0.095,-0.641L0.095,-0.72L0.505,-0.72L0.505,-0.641L0.346,-0.641L0.346,-0.079L0.505,-0.079L0.505,-0L0.095,-0L0.095,-0.079L0.254,-0.079Z" style="fill-rule:nonzero;"/>
                </g>
                <g transform="matrix(24.3913,0,0,25,2016.04,1448.74)">
                    <path d="M0.044,-0.72L0.14,-0.72L0.278,-0.157C0.281,-0.143 0.284,-0.13 0.287,-0.119C0.29,-0.107 0.292,-0.097 0.293,-0.088C0.294,-0.077 0.296,-0.068 0.297,-0.06L0.301,-0.06C0.302,-0.068 0.304,-0.077 0.306,-0.088C0.307,-0.097 0.309,-0.107 0.312,-0.119C0.315,-0.13 0.318,-0.143 0.321,-0.157L0.462,-0.72L0.556,-0.72L0.36,-0L0.234,-0L0.044,-0.72Z" style="fill-rule:nonzero;"/>
                </g>
                <g transform="matrix(24.3913,0,0,25,2030.67,1448.74)">
                    <path d="M0.095,-0L0.095,-0.72L0.52,-0.72L0.52,-0.638L0.185,-0.638L0.185,-0.412L0.485,-0.412L0.485,-0.33L0.185,-0.33L0.185,-0.082L0.52,-0.082L0.52,-0L0.095,-0Z" style="fill-rule:nonzero;"/>
                </g>
                <g transform="matrix(24.3913,0,0,25,2045.31,1448.74)">
                    <path d="M0.32,-0.72C0.353,-0.72 0.382,-0.715 0.409,-0.705C0.436,-0.695 0.459,-0.681 0.478,-0.662C0.497,-0.643 0.511,-0.621 0.522,-0.596C0.532,-0.57 0.537,-0.541 0.537,-0.51C0.537,-0.46 0.524,-0.418 0.499,-0.383C0.473,-0.347 0.438,-0.323 0.394,-0.31L0.547,-0L0.441,-0L0.301,-0.3L0.18,-0.3L0.18,-0L0.09,-0L0.09,-0.72L0.32,-0.72ZM0.18,-0.38L0.32,-0.38C0.358,-0.38 0.388,-0.392 0.411,-0.416C0.433,-0.439 0.444,-0.471 0.444,-0.51C0.444,-0.549 0.433,-0.581 0.41,-0.605C0.387,-0.628 0.357,-0.64 0.32,-0.64L0.18,-0.64L0.18,-0.38Z" style="fill-rule:nonzero;"/>
                </g>
                <g transform="matrix(24.3913,0,0,25,2059.94,1448.74)">
                    <path d="M0.085,-0.72L0.199,-0.72L0.39,-0.237C0.395,-0.225 0.4,-0.211 0.405,-0.196C0.41,-0.18 0.414,-0.165 0.417,-0.151C0.422,-0.134 0.426,-0.117 0.43,-0.1L0.438,-0.1C0.438,-0.1 0.438,-0.103 0.437,-0.111C0.436,-0.117 0.435,-0.127 0.434,-0.139C0.433,-0.151 0.432,-0.165 0.431,-0.181C0.43,-0.196 0.429,-0.213 0.429,-0.23L0.429,-0.72L0.515,-0.72L0.515,-0L0.401,-0L0.213,-0.484C0.208,-0.499 0.202,-0.515 0.197,-0.531C0.192,-0.547 0.187,-0.562 0.184,-0.575C0.179,-0.59 0.175,-0.606 0.172,-0.621L0.164,-0.621C0.165,-0.61 0.167,-0.598 0.168,-0.585C0.169,-0.574 0.169,-0.56 0.17,-0.545C0.171,-0.529 0.171,-0.511 0.171,-0.492L0.171,-0L0.085,-0L0.085,-0.72Z" style="fill-rule:nonzero;"/>
                </g>
                <g transform="matrix(24.3913,0,0,25,2074.58,1448.74)">
                    <path d="M0.095,-0L0.095,-0.72L0.52,-0.72L0.52,-0.638L0.185,-0.638L0.185,-0.412L0.485,-0.412L0.485,-0.33L0.185,-0.33L0.185,-0.082L0.52,-0.082L0.52,-0L0.095,-0Z" style="fill-rule:nonzero;"/>
                </g>
                <g transform="matrix(24.3913,0,0,25,2089.21,1448.74)">
                    <path d="M0.03,-0.72L0.125,-0.72L0.273,-0.403C0.278,-0.394 0.282,-0.384 0.285,-0.375C0.288,-0.366 0.29,-0.357 0.293,-0.35C0.296,-0.341 0.298,-0.333 0.3,-0.324L0.304,-0.324C0.306,-0.333 0.309,-0.341 0.312,-0.35C0.314,-0.357 0.317,-0.366 0.32,-0.375C0.323,-0.384 0.327,-0.394 0.331,-0.403L0.474,-0.72L0.57,-0.72L0.345,-0.25L0.345,-0L0.255,-0L0.255,-0.25L0.03,-0.72Z" style="fill-rule:nonzero;"/>
                </g>
            </g>
            <path d="M2449.06,1121.45L2496.97,1163.78L2514.34,1158.19L2529.04,1161.93L2546.07,1135.08L2562.93,1116.23L2562.1,1088.66L2537.13,1088.66L2505.84,1081.89L2472.37,1088.66L2455.57,1103.03L2449.06,1121.45Z" style="fill:rgb(94,163,214);"/>
            <g transform="matrix(1,0,0,1,-87.4847,-17.6822)">
                <path d="M2401.82,1401.71L2413.95,1391.26L2431.25,1376.85L2454.03,1379.92L2466.37,1368.34L2486.19,1380.51L2471.78,1402.13L2450.04,1410.94L2435.62,1398.3L2410.79,1407.99L2401.82,1401.71Z" style="fill:rgb(94,163,214);"/>
            </g>
            <g transform="matrix(1,0,0,1,0,10)">
                <g transform="matrix(24.3913,0,0,25,645.73,1115.76)">
                    <path d="M0.3,0.01C0.267,0.01 0.237,0.006 0.209,-0.004C0.181,-0.013 0.157,-0.026 0.137,-0.043C0.116,-0.06 0.1,-0.08 0.089,-0.104C0.077,-0.128 0.071,-0.155 0.07,-0.185L0.165,-0.185C0.165,-0.168 0.169,-0.152 0.176,-0.138C0.183,-0.124 0.192,-0.112 0.205,-0.102C0.218,-0.092 0.232,-0.084 0.249,-0.079C0.266,-0.073 0.283,-0.07 0.302,-0.07C0.344,-0.07 0.377,-0.08 0.402,-0.1C0.427,-0.119 0.439,-0.146 0.439,-0.18C0.439,-0.209 0.43,-0.234 0.412,-0.257C0.394,-0.279 0.368,-0.296 0.334,-0.309L0.258,-0.337C0.147,-0.378 0.091,-0.445 0.091,-0.539C0.091,-0.599 0.11,-0.646 0.148,-0.68C0.186,-0.713 0.238,-0.73 0.305,-0.73C0.336,-0.73 0.365,-0.726 0.391,-0.717C0.417,-0.708 0.44,-0.696 0.459,-0.679C0.478,-0.662 0.493,-0.642 0.504,-0.619C0.515,-0.595 0.52,-0.568 0.521,-0.539L0.426,-0.539C0.426,-0.556 0.423,-0.571 0.416,-0.585C0.409,-0.598 0.401,-0.61 0.39,-0.62C0.379,-0.629 0.366,-0.637 0.351,-0.642C0.336,-0.647 0.321,-0.65 0.304,-0.65C0.266,-0.65 0.236,-0.641 0.215,-0.623C0.193,-0.605 0.182,-0.581 0.182,-0.55C0.182,-0.52 0.19,-0.495 0.207,-0.476C0.223,-0.456 0.249,-0.439 0.286,-0.426L0.366,-0.397C0.419,-0.378 0.46,-0.35 0.488,-0.313C0.516,-0.276 0.53,-0.233 0.53,-0.183C0.53,-0.123 0.51,-0.076 0.469,-0.042C0.428,-0.007 0.371,0.01 0.3,0.01Z" style="fill-rule:nonzero;"/>
                </g>
                <g transform="matrix(24.3913,0,0,25,660.365,1115.76)">
                    <path d="M0.095,-0L0.095,-0.72L0.52,-0.72L0.52,-0.638L0.185,-0.638L0.185,-0.412L0.485,-0.412L0.485,-0.33L0.185,-0.33L0.185,-0.082L0.52,-0.082L0.52,-0L0.095,-0Z" style="fill-rule:nonzero;"/>
                </g>
                <g transform="matrix(24.3913,0,0,25,675,1115.76)">
                    <path d="M0.095,-0L0.095,-0.72L0.52,-0.72L0.52,-0.638L0.185,-0.638L0.185,-0.412L0.485,-0.412L0.485,-0.33L0.185,-0.33L0.185,-0.082L0.52,-0.082L0.52,-0L0.095,-0Z" style="fill-rule:nonzero;"/>
                </g>
                <g transform="matrix(24.3913,0,0,25,689.635,1115.76)">
                    <path d="M0.504,-0.72L0.504,-0.639L0.175,-0.077L0.175,-0.075L0.245,-0.079L0.515,-0.079L0.515,-0L0.085,-0L0.085,-0.08L0.414,-0.642L0.414,-0.644L0.342,-0.641L0.093,-0.641L0.093,-0.72L0.504,-0.72Z" style="fill-rule:nonzero;"/>
                </g>
            </g>
            <g transform="matrix(1,0,0,1,649.973,-78.5386)">
                <g transform="matrix(24.3913,0,0,25,645.73,1115.76)">
                    <path d="M0.195,-0.72L0.195,-0.082L0.535,-0.082L0.535,-0L0.105,-0L0.105,-0.72L0.195,-0.72Z" style="fill-rule:nonzero;"/>
                </g>
                <g transform="matrix(24.3913,0,0,25,660.365,1115.76)">
                    <path d="M0.044,-0L0.24,-0.72L0.366,-0.72L0.556,-0L0.46,-0L0.41,-0.203L0.189,-0.203L0.138,-0L0.044,-0ZM0.208,-0.278L0.392,-0.278L0.322,-0.563C0.319,-0.577 0.316,-0.59 0.313,-0.602C0.31,-0.613 0.308,-0.624 0.307,-0.633C0.306,-0.643 0.304,-0.652 0.303,-0.66L0.299,-0.66C0.298,-0.652 0.296,-0.643 0.294,-0.633C0.293,-0.624 0.291,-0.613 0.288,-0.602C0.285,-0.59 0.282,-0.577 0.279,-0.563L0.208,-0.278Z" style="fill-rule:nonzero;"/>
                </g>
                <g transform="matrix(24.3913,0,0,25,689.635,1115.76)">
                    <path d="M0.32,-0.72C0.353,-0.72 0.382,-0.715 0.409,-0.705C0.436,-0.695 0.459,-0.681 0.478,-0.662C0.497,-0.643 0.511,-0.621 0.522,-0.596C0.532,-0.57 0.537,-0.541 0.537,-0.51C0.537,-0.46 0.524,-0.418 0.499,-0.383C0.473,-0.347 0.438,-0.323 0.394,-0.31L0.547,-0L0.441,-0L0.301,-0.3L0.18,-0.3L0.18,-0L0.09,-0L0.09,-0.72L0.32,-0.72ZM0.18,-0.38L0.32,-0.38C0.358,-0.38 0.388,-0.392 0.411,-0.416C0.433,-0.439 0.444,-0.471 0.444,-0.51C0.444,-0.549 0.433,-0.581 0.41,-0.605C0.387,-0.628 0.357,-0.64 0.32,-0.64L0.18,-0.64L0.18,-0.38Z" style="fill-rule:nonzero;"/>
                </g>
                <g transform="matrix(24.3913,0,0,25,704.269,1115.76)">
                    <path d="M0.17,-0.205C0.17,-0.164 0.182,-0.131 0.205,-0.107C0.228,-0.082 0.26,-0.07 0.3,-0.07C0.34,-0.07 0.372,-0.082 0.395,-0.107C0.418,-0.131 0.43,-0.164 0.43,-0.205L0.43,-0.515C0.43,-0.556 0.418,-0.589 0.395,-0.614C0.372,-0.638 0.34,-0.65 0.3,-0.65C0.26,-0.65 0.228,-0.638 0.205,-0.614C0.182,-0.589 0.17,-0.556 0.17,-0.515L0.17,-0.205ZM0.08,-0.515C0.08,-0.548 0.085,-0.577 0.096,-0.604C0.106,-0.631 0.121,-0.653 0.14,-0.672C0.159,-0.691 0.182,-0.705 0.209,-0.715C0.236,-0.725 0.266,-0.73 0.3,-0.73C0.334,-0.73 0.365,-0.725 0.392,-0.715C0.419,-0.705 0.442,-0.691 0.461,-0.672C0.48,-0.653 0.494,-0.631 0.505,-0.604C0.515,-0.577 0.52,-0.548 0.52,-0.515L0.52,-0.205C0.52,-0.172 0.515,-0.143 0.505,-0.117C0.494,-0.09 0.48,-0.068 0.461,-0.049C0.442,-0.03 0.418,-0.016 0.391,-0.006C0.364,0.005 0.333,0.01 0.3,0.01C0.266,0.01 0.236,0.005 0.209,-0.005C0.182,-0.015 0.159,-0.029 0.14,-0.048C0.121,-0.067 0.106,-0.089 0.096,-0.116C0.085,-0.143 0.08,-0.172 0.08,-0.205L0.08,-0.515Z" style="fill-rule:nonzero;"/>
                </g>
                <g transform="matrix(24.3913,0,0,25,718.904,1115.76)">
                    <path d="M0.3,0.01C0.267,0.01 0.237,0.006 0.209,-0.004C0.181,-0.013 0.157,-0.026 0.137,-0.043C0.116,-0.06 0.1,-0.08 0.089,-0.104C0.077,-0.128 0.071,-0.155 0.07,-0.185L0.165,-0.185C0.165,-0.168 0.169,-0.152 0.176,-0.138C0.183,-0.124 0.192,-0.112 0.205,-0.102C0.218,-0.092 0.232,-0.084 0.249,-0.079C0.266,-0.073 0.283,-0.07 0.302,-0.07C0.344,-0.07 0.377,-0.08 0.402,-0.1C0.427,-0.119 0.439,-0.146 0.439,-0.18C0.439,-0.209 0.43,-0.234 0.412,-0.257C0.394,-0.279 0.368,-0.296 0.334,-0.309L0.258,-0.337C0.147,-0.378 0.091,-0.445 0.091,-0.539C0.091,-0.599 0.11,-0.646 0.148,-0.68C0.186,-0.713 0.238,-0.73 0.305,-0.73C0.336,-0.73 0.365,-0.726 0.391,-0.717C0.417,-0.708 0.44,-0.696 0.459,-0.679C0.478,-0.662 0.493,-0.642 0.504,-0.619C0.515,-0.595 0.52,-0.568 0.521,-0.539L0.426,-0.539C0.426,-0.556 0.423,-0.571 0.416,-0.585C0.409,-0.598 0.401,-0.61 0.39,-0.62C0.379,-0.629 0.366,-0.637 0.351,-0.642C0.336,-0.647 0.321,-0.65 0.304,-0.65C0.266,-0.65 0.236,-0.641 0.215,-0.623C0.193,-0.605 0.182,-0.581 0.182,-0.55C0.182,-0.52 0.19,-0.495 0.207,-0.476C0.223,-0.456 0.249,-0.439 0.286,-0.426L0.366,-0.397C0.419,-0.378 0.46,-0.35 0.488,-0.313C0.516,-0.276 0.53,-0.233 0.53,-0.183C0.53,-0.123 0.51,-0.076 0.469,-0.042C0.428,-0.007 0.371,0.01 0.3,0.01Z" style="fill-rule:nonzero;"/>
                </g>
                <g transform="matrix(24.3913,0,0,25,733.539,1115.76)">
                    <path d="M0.254,-0.079L0.254,-0.641L0.095,-0.641L0.095,-0.72L0.505,-0.72L0.505,-0.641L0.346,-0.641L0.346,-0.079L0.505,-0.079L0.505,-0L0.095,-0L0.095,-0.079L0.254,-0.079Z" style="fill-rule:nonzero;"/>
                </g>
                <g transform="matrix(24.3913,0,0,25,748.174,1115.76)">
                    <path d="M0.095,-0L0.095,-0.72L0.52,-0.72L0.52,-0.638L0.185,-0.638L0.185,-0.412L0.485,-0.412L0.485,-0.33L0.185,-0.33L0.185,-0.082L0.52,-0.082L0.52,-0L0.095,-0ZM0.17,-0.956L0.28,-0.956L0.39,-0.81L0.3,-0.81L0.17,-0.956Z" style="fill-rule:nonzero;"/>
                </g>
                <g transform="matrix(24.3913,0,0,25,762.808,1115.76)">
                    <path d="M0.32,-0.72C0.353,-0.72 0.382,-0.715 0.409,-0.705C0.436,-0.695 0.459,-0.681 0.478,-0.662C0.497,-0.643 0.511,-0.621 0.522,-0.596C0.532,-0.57 0.537,-0.541 0.537,-0.51C0.537,-0.46 0.524,-0.418 0.499,-0.383C0.473,-0.347 0.438,-0.323 0.394,-0.31L0.547,-0L0.441,-0L0.301,-0.3L0.18,-0.3L0.18,-0L0.09,-0L0.09,-0.72L0.32,-0.72ZM0.18,-0.38L0.32,-0.38C0.358,-0.38 0.388,-0.392 0.411,-0.416C0.433,-0.439 0.444,-0.471 0.444,-0.51C0.444,-0.549 0.433,-0.581 0.41,-0.605C0.387,-0.628 0.357,-0.64 0.32,-0.64L0.18,-0.64L0.18,-0.38Z" style="fill-rule:nonzero;"/>
                </g>
                <g transform="matrix(24.3913,0,0,25,777.443,1115.76)">
                    <path d="M0.095,-0L0.095,-0.72L0.52,-0.72L0.52,-0.638L0.185,-0.638L0.185,-0.412L0.485,-0.412L0.485,-0.33L0.185,-0.33L0.185,-0.082L0.52,-0.082L0.52,-0L0.095,-0Z" style="fill-rule:nonzero;"/>
                </g>
            </g>
            <path d="M2205.7,876.482L2244.91,928.545L2263.93,951.033L2278.4,976.864L2290.51,979.032L2295.69,1011.58L2270.45,1051.16L2264.67,1097.51L2284.83,1126.62L2308.77,1177.98L2323.68,1211.85L2355.64,1228.62L2370.46,1238.18L2391.41,1241.61L2405.11,1267.01L2419.1,1311.07L2424.72,1364.6L2450.03,1414.97L2486.25,1419.05L2510.6,1423.52L2559.2,1412.84L2580.41,1420.68L2599.54,1450.62L2585.21,1490.23L2577.66,1535.43L2564.91,1565.24L2519.7,1578.09L2494.2,1591.65L2480.86,1610.89L2480.86,1635.71L2434.47,1666.01L2349.01,1675.92L2335.12,1687.01L2361.4,1775.24" style="fill:none;stroke:rgb(221,221,221);stroke-width:4.17px;stroke-dasharray:8.33,8.33,8.33,8.33,0,0;stroke-dashoffset:8.33;"/>
            <path d="M682.098,1160.17C693.441,1165.39 704.055,1172.64 716.127,1175.83C728.712,1179.16 743.77,1178.81 757.607,1180.13C771.507,1181.46 786.873,1177.75 799.528,1183.8C817.248,1192.27 850.631,1227.43 863.927,1230.96C873.639,1233.55 869.468,1207.08 879.307,1205.03C896.844,1201.38 946.909,1210 969.145,1209.06C984.012,1208.43 998.841,1199.61 1012.73,1199.4C1026.27,1199.2 1047.75,1210.8 1052.47,1207.81C1057.19,1204.82 1047.95,1187.6 1041.04,1181.46C1034.12,1175.33 1011.15,1174.56 1010.97,1171C1010.78,1167.44 1044.38,1165.73 1039.94,1160.11C1035.5,1154.49 987.579,1140.61 984.299,1137.26C981.018,1133.92 1009.62,1140.3 1020.25,1140.05C1029.64,1139.83 1042.1,1134.61 1048.08,1135.76C1052.59,1136.62 1053.45,1147.62 1056.15,1146.93C1058.86,1146.25 1059.99,1132.43 1064.3,1131.65C1068.61,1130.86 1079.08,1144.1 1081.99,1142.21C1084.9,1140.33 1074.45,1120.58 1081.74,1120.34C1089.36,1120.08 1122.29,1141.79 1127.72,1140.67C1133.14,1139.54 1107.72,1115.45 1114.28,1113.57C1120.83,1111.68 1164.37,1133.52 1167.07,1129.37C1169.77,1125.22 1139.54,1097.17 1130.49,1088.66C1125.5,1083.97 1109.6,1079.85 1112.77,1078.29C1115.94,1076.74 1146.98,1082.85 1149.53,1079.33C1152.07,1075.8 1124.24,1061.93 1128.01,1057.14C1131.79,1052.34 1161.62,1050.46 1172.17,1050.55C1178.98,1050.6 1186.14,1053.25 1191.34,1057.64C1196.99,1062.42 1198.9,1074.26 1206.07,1079.2C1215.43,1085.65 1234.14,1091.55 1247.55,1096.39C1260.33,1101 1281.11,1109.5 1286.54,1108.21C1291.97,1106.92 1280,1095.28 1280.15,1088.66C1280.31,1082.03 1288.37,1072.07 1287.49,1068.48C1286.62,1064.9 1277.66,1070.34 1274.88,1067.16C1268.58,1059.98 1242.95,1026.36 1249.74,1025.42C1256.53,1024.48 1302.21,1050.97 1315.61,1061.51C1323.69,1067.86 1326.5,1081.51 1330.18,1088.66C1332.83,1093.82 1333.47,1103.52 1337.64,1104.4C1341.81,1105.27 1349.72,1091.83 1355.2,1093.91C1360.67,1095.98 1363.93,1110.42 1370.51,1116.84C1377.37,1123.53 1391.22,1126.62 1396.33,1134.04C1401.44,1141.46 1396.34,1156.61 1401.17,1161.38C1406,1166.14 1420.07,1160.87 1425.33,1162.62C1429.08,1163.86 1429,1170.62 1432.74,1171.87C1439.47,1174.11 1454.73,1174.4 1465.67,1176.09C1477.34,1177.9 1493.01,1179.99 1502.75,1182.73C1510.29,1184.85 1516.29,1192.94 1524.11,1192.53C1534.78,1191.96 1552.58,1183.93 1566.73,1179.37C1582.11,1174.41 1603.91,1164.07 1616.37,1162.79C1625.19,1161.88 1634.18,1170.41 1641.44,1171.7C1647.51,1172.77 1653.87,1169.22 1659.9,1170.49C1672.07,1173.04 1701.85,1182.27 1714.46,1187.04C1722.03,1189.89 1727.7,1197.06 1735.54,1199.06C1744.04,1201.23 1757.88,1197.87 1765.48,1200.07C1771.82,1201.9 1774.82,1211.1 1781.11,1212.21C1787.4,1213.34 1797.22,1203.18 1803.24,1206.79C1809.25,1210.4 1812.72,1225.04 1817.19,1233.88C1821.55,1242.5 1823.52,1253.87 1830.06,1259.84C1836.61,1265.81 1848.22,1265.38 1856.46,1269.68C1864.7,1273.98 1870.74,1282.38 1879.49,1285.65C1889.83,1289.52 1905.32,1291.63 1918.48,1292.89C1931.73,1294.16 1945.52,1292.03 1958.95,1293.25C1972.57,1294.48 1988.33,1301.94 2000.22,1300.29C2011.61,1298.72 2023.47,1283.99 2030.28,1283.39C2035.97,1282.88 2041.14,1291.53 2041.12,1296.67C2041.09,1301.81 2034.48,1308.87 2030.14,1314.24C2023.69,1322.21 2000.63,1341.86 2002.43,1344.53C2004.22,1347.21 2029.29,1336 2040.91,1330.3C2052.01,1324.86 2061.68,1316 2072.18,1310.34C2082.35,1304.86 2094.05,1302.39 2103.9,1296.36C2113.97,1290.19 2127.77,1274.81 2132.6,1273.32C2137.09,1271.94 2129.85,1287.05 2132.85,1287.43C2135.85,1287.82 2146.44,1275.76 2150.58,1275.64C2154.72,1275.52 2153.32,1286.69 2157.71,1286.71C2170.44,1286.77 2203.93,1279.89 2226.96,1276.01C2261.87,1270.12 2341.18,1255.28 2367.18,1251.4C2372.4,1250.62 2377.73,1253.5 2382.95,1252.77C2393.17,1251.32 2413.41,1246.45 2428.51,1242.73C2447,1238.17 2472.61,1231.59 2493.88,1225.42C2514.77,1219.36 2540.71,1214.07 2556.1,1205.71C2568.64,1198.9 2576.81,1181.15 2586.22,1175.29C2593.79,1170.58 2603.74,1169.7 2612.56,1170.57C2621.37,1171.44 2636.78,1184.01 2639.11,1180.5C2641.45,1176.98 2624.91,1153.15 2626.58,1149.47C2628.26,1145.8 2644.58,1159.19 2649.17,1158.44C2653.75,1157.68 2649.48,1146.25 2654.09,1144.96C2661.23,1142.97 2681.84,1143.31 2692.02,1146.45C2701.24,1149.3 2708.05,1159.45 2715.16,1163.84C2721.26,1167.6 2728.04,1170.14 2734.7,1172.8C2746.36,1177.46 2772.09,1189.62 2785.14,1191.79C2794.51,1193.34 2803.96,1185.12 2813,1185.82C2822.04,1186.52 2831,1195.32 2839.37,1195.97C2847.56,1196.61 2855.46,1190.45 2863.22,1189.73C2870.78,1189.03 2878.5,1190.07 2885.93,1191.66C2895.25,1193.65 2907.76,1199.81 2919.19,1201.67C2931.05,1203.61 2952.17,1206.33 2957.08,1203.29C2961.99,1200.24 2946.7,1186.16 2948.63,1183.4C2950.55,1180.65 2961.89,1187.11 2968.64,1186.76C2975.77,1186.4 2983.62,1180.47 2991.4,1181.21C3004.87,1182.5 3030.09,1190.05 3049.44,1194.47" style="fill:none;stroke:black;stroke-width:12.5px;"/>
            <path d="M682.098,1160.17C693.441,1165.39 704.055,1172.64 716.127,1175.83C728.712,1179.16 743.77,1178.81 757.607,1180.13C771.507,1181.46 786.873,1177.75 799.528,1183.8C817.248,1192.27 850.631,1227.43 863.927,1230.96C873.639,1233.55 869.468,1207.08 879.307,1205.03C896.844,1201.38 946.909,1210 969.145,1209.06C984.012,1208.43 998.841,1199.61 1012.73,1199.4C1026.27,1199.2 1047.75,1210.8 1052.47,1207.81C1057.19,1204.82 1047.95,1187.6 1041.04,1181.46C1034.12,1175.33 1011.15,1174.56 1010.97,1171C1010.78,1167.44 1044.38,1165.73 1039.94,1160.11C1035.5,1154.49 987.579,1140.61 984.299,1137.26C981.018,1133.92 1009.62,1140.3 1020.25,1140.05C1029.64,1139.83 1042.1,1134.61 1048.08,1135.76C1052.59,1136.62 1053.45,1147.62 1056.15,1146.93C1058.86,1146.25 1059.99,1132.43 1064.3,1131.65C1068.61,1130.86 1079.08,1144.1 1081.99,1142.21C1084.9,1140.33 1074.45,1120.58 1081.74,1120.34C1089.36,1120.08 1122.29,1141.79 1127.72,1140.67C1133.14,1139.54 1107.72,1115.45 1114.28,1113.57C1120.83,1111.68 1164.37,1133.52 1167.07,1129.37C1169.77,1125.22 1139.54,1097.17 1130.49,1088.66C1125.5,1083.97 1109.6,1079.85 1112.77,1078.29C1115.94,1076.74 1146.98,1082.85 1149.53,1079.33C1152.07,1075.8 1124.24,1061.93 1128.01,1057.14C1131.79,1052.34 1161.62,1050.46 1172.17,1050.55C1178.98,1050.6 1186.14,1053.25 1191.34,1057.64C1196.99,1062.42 1198.9,1074.26 1206.07,1079.2C1215.43,1085.65 1234.14,1091.55 1247.55,1096.39C1260.33,1101 1281.11,1109.5 1286.54,1108.21C1291.97,1106.92 1280,1095.28 1280.15,1088.66C1280.31,1082.03 1288.37,1072.07 1287.49,1068.48C1286.62,1064.9 1277.66,1070.34 1274.88,1067.16C1268.58,1059.98 1242.95,1026.36 1249.74,1025.42C1256.53,1024.48 1302.21,1050.97 1315.61,1061.51C1323.69,1067.86 1326.5,1081.51 1330.18,1088.66C1332.83,1093.82 1333.47,1103.52 1337.64,1104.4C1341.81,1105.27 1349.72,1091.83 1355.2,1093.91C1360.67,1095.98 1363.93,1110.42 1370.51,1116.84C1377.37,1123.53 1391.22,1126.62 1396.33,1134.04C1401.44,1141.46 1396.34,1156.61 1401.17,1161.38C1406,1166.14 1420.07,1160.87 1425.33,1162.62C1429.08,1163.86 1429,1170.62 1432.74,1171.87C1439.47,1174.11 1454.73,1174.4 1465.67,1176.09C1477.34,1177.9 1493.01,1179.99 1502.75,1182.73C1510.29,1184.85 1516.29,1192.94 1524.11,1192.53C1534.78,1191.96 1552.58,1183.93 1566.73,1179.37C1582.11,1174.41 1603.91,1164.07 1616.37,1162.79C1625.19,1161.88 1634.18,1170.41 1641.44,1171.7C1647.51,1172.77 1653.87,1169.22 1659.9,1170.49C1672.07,1173.04 1701.85,1182.27 1714.46,1187.04C1722.03,1189.89 1727.7,1197.06 1735.54,1199.06C1744.04,1201.23 1757.88,1197.87 1765.48,1200.07C1771.82,1201.9 1774.82,1211.1 1781.11,1212.21C1787.4,1213.34 1797.22,1203.18 1803.24,1206.79C1809.25,1210.4 1812.72,1225.04 1817.19,1233.88C1821.55,1242.5 1823.52,1253.87 1830.06,1259.84C1836.61,1265.81 1848.22,1265.38 1856.46,1269.68C1864.7,1273.98 1870.74,1282.38 1879.49,1285.65C1889.83,1289.52 1905.32,1291.63 1918.48,1292.89C1931.73,1294.16 1945.52,1292.03 1958.95,1293.25C1972.57,1294.48 1988.33,1301.94 2000.22,1300.29C2011.61,1298.72 2023.47,1283.99 2030.28,1283.39C2035.97,1282.88 2041.14,1291.53 2041.12,1296.67C2041.09,1301.81 2034.48,1308.87 2030.14,1314.24C2023.69,1322.21 2000.63,1341.86 2002.43,1344.53C2004.22,1347.21 2029.29,1336 2040.91,1330.3C2052.01,1324.86 2061.68,1316 2072.18,1310.34C2082.35,1304.86 2094.05,1302.39 2103.9,1296.36C2113.97,1290.19 2127.77,1274.81 2132.6,1273.32C2137.09,1271.94 2129.85,1287.05 2132.85,1287.43C2135.85,1287.82 2146.44,1275.76 2150.58,1275.64C2154.72,1275.52 2153.32,1286.69 2157.71,1286.71C2170.44,1286.77 2203.93,1279.89 2226.96,1276.01C2261.87,1270.12 2341.18,1255.28 2367.18,1251.4C2372.4,1250.62 2377.73,1253.5 2382.95,1252.77C2393.17,1251.32 2413.41,1246.45 2428.51,1242.73C2447,1238.17 2472.61,1231.59 2493.88,1225.42C2514.77,1219.36 2540.71,1214.07 2556.1,1205.71C2568.64,1198.9 2576.81,1181.15 2586.22,1175.29C2593.79,1170.58 2603.74,1169.7 2612.56,1170.57C2621.37,1171.44 2636.78,1184.01 2639.11,1180.5C2641.45,1176.98 2624.91,1153.15 2626.58,1149.47C2628.26,1145.8 2644.58,1159.19 2649.17,1158.44C2653.75,1157.68 2649.48,1146.25 2654.09,1144.96C2661.23,1142.97 2681.84,1143.31 2692.02,1146.45C2701.24,1149.3 2708.05,1159.45 2715.16,1163.84C2721.26,1167.6 2728.04,1170.14 2734.7,1172.8C2746.36,1177.46 2772.09,1189.62 2785.14,1191.79C2794.51,1193.34 2803.96,1185.12 2813,1185.82C2822.04,1186.52 2831,1195.32 2839.37,1195.97C2847.56,1196.61 2855.46,1190.45 2863.22,1189.73C2870.78,1189.03 2878.5,1190.07 2885.93,1191.66C2895.25,1193.65 2907.76,1199.81 2919.19,1201.67C2931.05,1203.61 2952.17,1206.33 2957.08,1203.29C2961.99,1200.24 2946.7,1186.16 2948.63,1183.4C2950.55,1180.65 2961.89,1187.11 2968.64,1186.76C2975.77,1186.4 2983.62,1180.47 2991.4,1181.21C3004.87,1182.5 3030.09,1190.05 3049.44,1194.47" style="fill:none;stroke:white;stroke-width:6.25px;"/>
            <g id="Pass-symbol" serif:id="Pass symbol" transform="matrix(1,7.39557e-32,-7.39557e-32,1,918.22,-795.667)">
                <g transform="matrix(2.19038,1.56439e-32,1.56439e-32,2.40191,-1499.65,-2365.76)">
                    <path d="M1341.5,1813L1341.5,1836" style="fill:none;stroke:rgb(31,28,27);stroke-width:1.09px;stroke-linecap:butt;stroke-linejoin:round;"/>
                </g>
                <g transform="matrix(5.19904,-3.84499e-31,1.36901e-31,1.85112,-4469.51,684.927)">
                    <rect x="1111.32" y="672.689" width="49.484" height="31.5" style="fill:white;stroke:black;stroke-width:0.59px;"/>
                </g>
                <g transform="matrix(0.825507,-6.10509e-32,6.10509e-32,0.825507,22.4112,775.798)">
                    <g transform="matrix(29.547,0,0,30.2844,1563.85,1429.35)">
                        <path d="M0.195,-0.72L0.195,-0.082L0.535,-0.082L0.535,-0L0.105,-0L0.105,-0.72L0.195,-0.72Z" style="fill-rule:nonzero;"/>
                    </g>
                    <g transform="matrix(29.547,0,0,30.2844,1581.58,1429.35)">
                        <path d="M0.254,-0.079L0.254,-0.641L0.095,-0.641L0.095,-0.72L0.505,-0.72L0.505,-0.641L0.346,-0.641L0.346,-0.079L0.505,-0.079L0.505,-0L0.095,-0L0.095,-0.079L0.254,-0.079Z" style="fill-rule:nonzero;"/>
                    </g>
                    <g transform="matrix(29.547,0,0,30.2844,1599.31,1429.35)">
                        <path d="M0.045,-0.72L0.555,-0.72L0.555,-0.641L0.346,-0.641L0.346,-0L0.254,-0L0.254,-0.641L0.045,-0.641L0.045,-0.72Z" style="fill-rule:nonzero;"/>
                    </g>
                    <g transform="matrix(29.547,0,0,30.2844,1617.04,1429.35)">
                        <path d="M0.045,-0.72L0.555,-0.72L0.555,-0.641L0.346,-0.641L0.346,-0L0.254,-0L0.254,-0.641L0.045,-0.641L0.045,-0.72Z" style="fill-rule:nonzero;"/>
                    </g>
                    <g transform="matrix(29.547,0,0,30.2844,1634.76,1429.35)">
                        <path d="M0.195,-0.72L0.195,-0.082L0.535,-0.082L0.535,-0L0.105,-0L0.105,-0.72L0.195,-0.72Z" style="fill-rule:nonzero;"/>
                    </g>
                    <g transform="matrix(29.547,0,0,30.2844,1652.49,1429.35)">
                        <path d="M0.095,-0L0.095,-0.72L0.52,-0.72L0.52,-0.638L0.185,-0.638L0.185,-0.412L0.485,-0.412L0.485,-0.33L0.185,-0.33L0.185,-0.082L0.52,-0.082L0.52,-0L0.095,-0Z" style="fill-rule:nonzero;"/>
                    </g>
                    <g transform="matrix(29.547,0,0,30.2844,1687.95,1429.35)">
                        <path d="M0.3,0.01C0.267,0.01 0.237,0.006 0.209,-0.004C0.181,-0.013 0.157,-0.026 0.137,-0.043C0.116,-0.06 0.1,-0.08 0.089,-0.104C0.077,-0.128 0.071,-0.155 0.07,-0.185L0.165,-0.185C0.165,-0.168 0.169,-0.152 0.176,-0.138C0.183,-0.124 0.192,-0.112 0.205,-0.102C0.218,-0.092 0.232,-0.084 0.249,-0.079C0.266,-0.073 0.283,-0.07 0.302,-0.07C0.344,-0.07 0.377,-0.08 0.402,-0.1C0.427,-0.119 0.439,-0.146 0.439,-0.18C0.439,-0.209 0.43,-0.234 0.412,-0.257C0.394,-0.279 0.368,-0.296 0.334,-0.309L0.258,-0.337C0.147,-0.378 0.091,-0.445 0.091,-0.539C0.091,-0.599 0.11,-0.646 0.148,-0.68C0.186,-0.713 0.238,-0.73 0.305,-0.73C0.336,-0.73 0.365,-0.726 0.391,-0.717C0.417,-0.708 0.44,-0.696 0.459,-0.679C0.478,-0.662 0.493,-0.642 0.504,-0.619C0.515,-0.595 0.52,-0.568 0.521,-0.539L0.426,-0.539C0.426,-0.556 0.423,-0.571 0.416,-0.585C0.409,-0.598 0.401,-0.61 0.39,-0.62C0.379,-0.629 0.366,-0.637 0.351,-0.642C0.336,-0.647 0.321,-0.65 0.304,-0.65C0.266,-0.65 0.236,-0.641 0.215,-0.623C0.193,-0.605 0.182,-0.581 0.182,-0.55C0.182,-0.52 0.19,-0.495 0.207,-0.476C0.223,-0.456 0.249,-0.439 0.286,-0.426L0.366,-0.397C0.419,-0.378 0.46,-0.35 0.488,-0.313C0.516,-0.276 0.53,-0.233 0.53,-0.183C0.53,-0.123 0.51,-0.076 0.469,-0.042C0.428,-0.007 0.371,0.01 0.3,0.01Z" style="fill-rule:nonzero;"/>
                    </g>
                    <g transform="matrix(29.547,0,0,30.2844,1705.68,1429.35)">
                        <path d="M0.045,-0.72L0.555,-0.72L0.555,-0.641L0.346,-0.641L0.346,-0L0.254,-0L0.254,-0.641L0.045,-0.641L0.045,-0.72Z" style="fill-rule:nonzero;"/>
                    </g>
                    <g transform="matrix(29.547,0,0,30.2844,1723.4,1429.35)">
                        <path d="M0.214,-0.079C0.214,-0.105 0.222,-0.126 0.238,-0.142C0.253,-0.157 0.274,-0.165 0.3,-0.165C0.326,-0.165 0.347,-0.157 0.363,-0.142C0.378,-0.126 0.386,-0.105 0.386,-0.079C0.386,-0.052 0.378,-0.031 0.363,-0.015C0.347,0.002 0.326,0.01 0.3,0.01C0.274,0.01 0.253,0.002 0.238,-0.015C0.222,-0.031 0.214,-0.052 0.214,-0.079Z" style="fill-rule:nonzero;"/>
                    </g>
                    <g transform="matrix(29.547,0,0,30.2844,1741.13,1429.35)">
                        <path d="M0.301,-0.72C0.369,-0.72 0.422,-0.703 0.461,-0.669C0.5,-0.635 0.519,-0.589 0.519,-0.53C0.519,-0.487 0.507,-0.452 0.483,-0.426C0.458,-0.399 0.426,-0.383 0.386,-0.38L0.386,-0.374C0.432,-0.371 0.468,-0.355 0.494,-0.325C0.519,-0.295 0.532,-0.254 0.532,-0.203C0.532,-0.172 0.527,-0.143 0.517,-0.119C0.507,-0.094 0.493,-0.072 0.474,-0.055C0.455,-0.037 0.431,-0.023 0.404,-0.014C0.377,-0.005 0.346,-0 0.312,-0L0.09,-0L0.09,-0.72L0.301,-0.72ZM0.179,-0.082L0.302,-0.082C0.345,-0.082 0.378,-0.093 0.402,-0.115C0.425,-0.137 0.437,-0.167 0.437,-0.206C0.437,-0.245 0.425,-0.275 0.401,-0.297C0.377,-0.319 0.344,-0.33 0.302,-0.33L0.179,-0.33L0.179,-0.082ZM0.179,-0.638L0.179,-0.408L0.3,-0.408C0.338,-0.408 0.368,-0.418 0.391,-0.439C0.413,-0.459 0.424,-0.487 0.424,-0.523C0.424,-0.559 0.413,-0.587 0.391,-0.608C0.369,-0.628 0.339,-0.638 0.301,-0.638L0.179,-0.638Z" style="fill-rule:nonzero;"/>
                    </g>
                    <g transform="matrix(29.547,0,0,30.2844,1758.86,1429.35)">
                        <path d="M0.095,-0L0.095,-0.72L0.52,-0.72L0.52,-0.638L0.185,-0.638L0.185,-0.412L0.485,-0.412L0.485,-0.33L0.185,-0.33L0.185,-0.082L0.52,-0.082L0.52,-0L0.095,-0Z" style="fill-rule:nonzero;"/>
                    </g>
                    <g transform="matrix(29.547,0,0,30.2844,1776.59,1429.35)">
                        <path d="M0.32,-0.72C0.353,-0.72 0.382,-0.715 0.409,-0.705C0.436,-0.695 0.459,-0.681 0.478,-0.662C0.497,-0.643 0.511,-0.621 0.522,-0.596C0.532,-0.57 0.537,-0.541 0.537,-0.51C0.537,-0.46 0.524,-0.418 0.499,-0.383C0.473,-0.347 0.438,-0.323 0.394,-0.31L0.547,-0L0.441,-0L0.301,-0.3L0.18,-0.3L0.18,-0L0.09,-0L0.09,-0.72L0.32,-0.72ZM0.18,-0.38L0.32,-0.38C0.358,-0.38 0.388,-0.392 0.411,-0.416C0.433,-0.439 0.444,-0.471 0.444,-0.51C0.444,-0.549 0.433,-0.581 0.41,-0.605C0.387,-0.628 0.357,-0.64 0.32,-0.64L0.18,-0.64L0.18,-0.38Z" style="fill-rule:nonzero;"/>
                    </g>
                    <g transform="matrix(29.547,0,0,30.2844,1794.32,1429.35)">
                        <path d="M0.085,-0.72L0.199,-0.72L0.39,-0.237C0.395,-0.225 0.4,-0.211 0.405,-0.196C0.41,-0.18 0.414,-0.165 0.417,-0.151C0.422,-0.134 0.426,-0.117 0.43,-0.1L0.438,-0.1C0.438,-0.1 0.438,-0.103 0.437,-0.111C0.436,-0.117 0.435,-0.127 0.434,-0.139C0.433,-0.151 0.432,-0.165 0.431,-0.181C0.43,-0.196 0.429,-0.213 0.429,-0.23L0.429,-0.72L0.515,-0.72L0.515,-0L0.401,-0L0.213,-0.484C0.208,-0.499 0.202,-0.515 0.197,-0.531C0.192,-0.547 0.187,-0.562 0.184,-0.575C0.179,-0.59 0.175,-0.606 0.172,-0.621L0.164,-0.621C0.165,-0.61 0.167,-0.598 0.168,-0.585C0.169,-0.574 0.169,-0.56 0.17,-0.545C0.171,-0.529 0.171,-0.511 0.171,-0.492L0.171,-0L0.085,-0L0.085,-0.72Z" style="fill-rule:nonzero;"/>
                    </g>
                    <g transform="matrix(29.547,0,0,30.2844,1812.05,1429.35)">
                        <path d="M0.044,-0L0.24,-0.72L0.366,-0.72L0.556,-0L0.46,-0L0.41,-0.203L0.189,-0.203L0.138,-0L0.044,-0ZM0.208,-0.278L0.392,-0.278L0.322,-0.563C0.319,-0.577 0.316,-0.59 0.313,-0.602C0.31,-0.613 0.308,-0.624 0.307,-0.633C0.306,-0.643 0.304,-0.652 0.303,-0.66L0.299,-0.66C0.298,-0.652 0.296,-0.643 0.294,-0.633C0.293,-0.624 0.291,-0.613 0.288,-0.602C0.285,-0.59 0.282,-0.577 0.279,-0.563L0.208,-0.278Z" style="fill-rule:nonzero;"/>
                    </g>
                    <g transform="matrix(29.547,0,0,30.2844,1829.77,1429.35)">
                        <path d="M0.32,-0.72C0.353,-0.72 0.382,-0.715 0.409,-0.705C0.436,-0.695 0.459,-0.681 0.478,-0.662C0.497,-0.643 0.511,-0.621 0.522,-0.596C0.532,-0.57 0.537,-0.541 0.537,-0.51C0.537,-0.46 0.524,-0.418 0.499,-0.383C0.473,-0.347 0.438,-0.323 0.394,-0.31L0.547,-0L0.441,-0L0.301,-0.3L0.18,-0.3L0.18,-0L0.09,-0L0.09,-0.72L0.32,-0.72ZM0.18,-0.38L0.32,-0.38C0.358,-0.38 0.388,-0.392 0.411,-0.416C0.433,-0.439 0.444,-0.471 0.444,-0.51C0.444,-0.549 0.433,-0.581 0.41,-0.605C0.387,-0.628 0.357,-0.64 0.32,-0.64L0.18,-0.64L0.18,-0.38Z" style="fill-rule:nonzero;"/>
                    </g>
                    <g transform="matrix(29.547,0,0,30.2844,1847.5,1429.35)">
                        <path d="M0.289,-0.08C0.331,-0.08 0.365,-0.093 0.391,-0.119C0.416,-0.144 0.429,-0.178 0.429,-0.22L0.429,-0.501C0.429,-0.543 0.416,-0.577 0.391,-0.602C0.365,-0.627 0.331,-0.64 0.289,-0.64L0.178,-0.64L0.178,-0.08L0.289,-0.08ZM0.088,-0L0.088,-0.72L0.289,-0.72C0.324,-0.72 0.355,-0.715 0.384,-0.704C0.412,-0.693 0.436,-0.679 0.457,-0.66C0.477,-0.641 0.493,-0.618 0.504,-0.591C0.515,-0.564 0.52,-0.534 0.52,-0.501L0.52,-0.22C0.52,-0.187 0.515,-0.157 0.504,-0.13C0.493,-0.103 0.477,-0.08 0.457,-0.061C0.436,-0.042 0.412,-0.027 0.384,-0.016C0.355,-0.005 0.324,-0 0.289,-0L0.088,-0Z" style="fill-rule:nonzero;"/>
                    </g>
                    <g transform="matrix(29.547,0,0,30.2844,1606.84,1459.63)">
                        <path d="M0.333,-0.72C0.366,-0.72 0.395,-0.715 0.422,-0.705C0.449,-0.695 0.472,-0.681 0.491,-0.662C0.509,-0.643 0.524,-0.621 0.535,-0.596C0.545,-0.57 0.55,-0.541 0.55,-0.51C0.55,-0.479 0.545,-0.45 0.534,-0.425C0.523,-0.399 0.509,-0.377 0.49,-0.358C0.47,-0.339 0.448,-0.325 0.421,-0.315C0.394,-0.305 0.365,-0.3 0.333,-0.3L0.18,-0.3L0.18,-0L0.09,-0L0.09,-0.72L0.333,-0.72ZM0.18,-0.64L0.18,-0.38L0.333,-0.38C0.37,-0.38 0.4,-0.392 0.423,-0.416C0.446,-0.439 0.457,-0.471 0.457,-0.51C0.457,-0.549 0.446,-0.581 0.423,-0.605C0.4,-0.628 0.37,-0.64 0.333,-0.64L0.18,-0.64Z" style="fill-rule:nonzero;"/>
                    </g>
                    <g transform="matrix(29.547,0,0,30.2844,1624.57,1459.63)">
                        <path d="M0.044,-0L0.24,-0.72L0.366,-0.72L0.556,-0L0.46,-0L0.41,-0.203L0.189,-0.203L0.138,-0L0.044,-0ZM0.208,-0.278L0.392,-0.278L0.322,-0.563C0.319,-0.577 0.316,-0.59 0.313,-0.602C0.31,-0.613 0.308,-0.624 0.307,-0.633C0.306,-0.643 0.304,-0.652 0.303,-0.66L0.299,-0.66C0.298,-0.652 0.296,-0.643 0.294,-0.633C0.293,-0.624 0.291,-0.613 0.288,-0.602C0.285,-0.59 0.282,-0.577 0.279,-0.563L0.208,-0.278Z" style="fill-rule:nonzero;"/>
                    </g>
                    <g transform="matrix(29.547,0,0,30.2844,1642.3,1459.63)">
                        <path d="M0.3,0.01C0.267,0.01 0.237,0.006 0.209,-0.004C0.181,-0.013 0.157,-0.026 0.137,-0.043C0.116,-0.06 0.1,-0.08 0.089,-0.104C0.077,-0.128 0.071,-0.155 0.07,-0.185L0.165,-0.185C0.165,-0.168 0.169,-0.152 0.176,-0.138C0.183,-0.124 0.192,-0.112 0.205,-0.102C0.218,-0.092 0.232,-0.084 0.249,-0.079C0.266,-0.073 0.283,-0.07 0.302,-0.07C0.344,-0.07 0.377,-0.08 0.402,-0.1C0.427,-0.119 0.439,-0.146 0.439,-0.18C0.439,-0.209 0.43,-0.234 0.412,-0.257C0.394,-0.279 0.368,-0.296 0.334,-0.309L0.258,-0.337C0.147,-0.378 0.091,-0.445 0.091,-0.539C0.091,-0.599 0.11,-0.646 0.148,-0.68C0.186,-0.713 0.238,-0.73 0.305,-0.73C0.336,-0.73 0.365,-0.726 0.391,-0.717C0.417,-0.708 0.44,-0.696 0.459,-0.679C0.478,-0.662 0.493,-0.642 0.504,-0.619C0.515,-0.595 0.52,-0.568 0.521,-0.539L0.426,-0.539C0.426,-0.556 0.423,-0.571 0.416,-0.585C0.409,-0.598 0.401,-0.61 0.39,-0.62C0.379,-0.629 0.366,-0.637 0.351,-0.642C0.336,-0.647 0.321,-0.65 0.304,-0.65C0.266,-0.65 0.236,-0.641 0.215,-0.623C0.193,-0.605 0.182,-0.581 0.182,-0.55C0.182,-0.52 0.19,-0.495 0.207,-0.476C0.223,-0.456 0.249,-0.439 0.286,-0.426L0.366,-0.397C0.419,-0.378 0.46,-0.35 0.488,-0.313C0.516,-0.276 0.53,-0.233 0.53,-0.183C0.53,-0.123 0.51,-0.076 0.469,-0.042C0.428,-0.007 0.371,0.01 0.3,0.01Z" style="fill-rule:nonzero;"/>
                    </g>
                    <g transform="matrix(29.547,0,0,30.2844,1660.03,1459.63)">
                        <path d="M0.3,0.01C0.267,0.01 0.237,0.006 0.209,-0.004C0.181,-0.013 0.157,-0.026 0.137,-0.043C0.116,-0.06 0.1,-0.08 0.089,-0.104C0.077,-0.128 0.071,-0.155 0.07,-0.185L0.165,-0.185C0.165,-0.168 0.169,-0.152 0.176,-0.138C0.183,-0.124 0.192,-0.112 0.205,-0.102C0.218,-0.092 0.232,-0.084 0.249,-0.079C0.266,-0.073 0.283,-0.07 0.302,-0.07C0.344,-0.07 0.377,-0.08 0.402,-0.1C0.427,-0.119 0.439,-0.146 0.439,-0.18C0.439,-0.209 0.43,-0.234 0.412,-0.257C0.394,-0.279 0.368,-0.296 0.334,-0.309L0.258,-0.337C0.147,-0.378 0.091,-0.445 0.091,-0.539C0.091,-0.599 0.11,-0.646 0.148,-0.68C0.186,-0.713 0.238,-0.73 0.305,-0.73C0.336,-0.73 0.365,-0.726 0.391,-0.717C0.417,-0.708 0.44,-0.696 0.459,-0.679C0.478,-0.662 0.493,-0.642 0.504,-0.619C0.515,-0.595 0.52,-0.568 0.521,-0.539L0.426,-0.539C0.426,-0.556 0.423,-0.571 0.416,-0.585C0.409,-0.598 0.401,-0.61 0.39,-0.62C0.379,-0.629 0.366,-0.637 0.351,-0.642C0.336,-0.647 0.321,-0.65 0.304,-0.65C0.266,-0.65 0.236,-0.641 0.215,-0.623C0.193,-0.605 0.182,-0.581 0.182,-0.55C0.182,-0.52 0.19,-0.495 0.207,-0.476C0.223,-0.456 0.249,-0.439 0.286,-0.426L0.366,-0.397C0.419,-0.378 0.46,-0.35 0.488,-0.313C0.516,-0.276 0.53,-0.233 0.53,-0.183C0.53,-0.123 0.51,-0.076 0.469,-0.042C0.428,-0.007 0.371,0.01 0.3,0.01Z" style="fill-rule:nonzero;"/>
                    </g>
                    <g transform="matrix(29.547,0,0,30.2844,1695.48,1459.63)">
                        <path d="M0.185,-0.455C0.185,-0.504 0.192,-0.549 0.206,-0.592C0.22,-0.634 0.24,-0.672 0.266,-0.706C0.292,-0.739 0.323,-0.768 0.361,-0.792C0.398,-0.816 0.439,-0.834 0.485,-0.845L0.485,-0.76C0.453,-0.753 0.424,-0.74 0.398,-0.722C0.372,-0.704 0.35,-0.682 0.332,-0.655C0.314,-0.628 0.3,-0.598 0.29,-0.565C0.28,-0.531 0.275,-0.494 0.275,-0.455L0.275,-0.265C0.275,-0.226 0.28,-0.19 0.29,-0.157C0.299,-0.124 0.313,-0.094 0.332,-0.068C0.35,-0.042 0.372,-0.02 0.398,-0.002C0.424,0.016 0.453,0.029 0.485,0.036L0.485,0.125C0.438,0.113 0.396,0.095 0.359,0.072C0.321,0.049 0.29,0.02 0.265,-0.013C0.239,-0.046 0.219,-0.084 0.206,-0.127C0.192,-0.169 0.185,-0.215 0.185,-0.265L0.185,-0.455Z" style="fill-rule:nonzero;"/>
                    </g>
                    <g transform="matrix(30.2844,0,0,30.2844,1713.21,1459.63)">
                        <path d="M0.513,-0.53C0.513,-0.476 0.498,-0.424 0.469,-0.374C0.439,-0.323 0.392,-0.27 0.327,-0.214L0.206,-0.109C0.203,-0.106 0.199,-0.104 0.195,-0.101C0.191,-0.098 0.187,-0.096 0.183,-0.093C0.178,-0.09 0.173,-0.087 0.168,-0.084L0.168,-0.08C0.179,-0.081 0.189,-0.081 0.199,-0.081C0.208,-0.082 0.218,-0.082 0.228,-0.082L0.52,-0.082L0.52,-0L0.07,-0L0.07,-0.1L0.26,-0.263C0.289,-0.288 0.313,-0.311 0.334,-0.333C0.354,-0.355 0.37,-0.377 0.383,-0.398C0.396,-0.419 0.405,-0.441 0.411,-0.462C0.417,-0.483 0.42,-0.506 0.42,-0.529C0.42,-0.566 0.409,-0.596 0.387,-0.618C0.364,-0.639 0.334,-0.65 0.296,-0.65C0.254,-0.65 0.221,-0.639 0.196,-0.617C0.171,-0.595 0.158,-0.566 0.158,-0.53L0.065,-0.53C0.066,-0.56 0.073,-0.587 0.084,-0.612C0.095,-0.637 0.111,-0.658 0.132,-0.675C0.152,-0.692 0.176,-0.706 0.204,-0.716C0.231,-0.725 0.262,-0.73 0.296,-0.73C0.329,-0.73 0.359,-0.725 0.386,-0.716C0.413,-0.707 0.435,-0.693 0.454,-0.676C0.473,-0.659 0.487,-0.638 0.498,-0.613C0.508,-0.588 0.513,-0.561 0.513,-0.53Z" style="fill-rule:nonzero;"/>
                    </g>
                    <g transform="matrix(30.2844,0,0,30.2844,1731.38,1459.63)">
                        <path d="M0.09,-0.08L0.283,-0.08L0.283,-0.585C0.283,-0.59 0.284,-0.617 0.284,-0.623C0.284,-0.629 0.284,-0.634 0.285,-0.639C0.285,-0.643 0.285,-0.645 0.285,-0.645L0.283,-0.645C0.278,-0.641 0.274,-0.637 0.269,-0.634C0.265,-0.631 0.261,-0.627 0.257,-0.624C0.252,-0.621 0.248,-0.618 0.244,-0.615L0.103,-0.519L0.103,-0.61L0.258,-0.72L0.373,-0.72L0.373,-0.08L0.535,-0.08L0.535,-0L0.09,-0L0.09,-0.08Z" style="fill-rule:nonzero;"/>
                    </g>
                    <g transform="matrix(30.2844,0,0,30.2844,1749.55,1459.63)">
                        <path d="M0.3,-0.342C0.259,-0.342 0.226,-0.33 0.201,-0.305C0.175,-0.28 0.163,-0.246 0.163,-0.205C0.163,-0.164 0.175,-0.131 0.201,-0.105C0.226,-0.078 0.259,-0.065 0.3,-0.065C0.341,-0.065 0.375,-0.078 0.4,-0.105C0.425,-0.131 0.437,-0.164 0.437,-0.205C0.437,-0.246 0.425,-0.28 0.4,-0.305C0.375,-0.33 0.341,-0.342 0.3,-0.342ZM0.3,-0.655C0.262,-0.655 0.232,-0.644 0.211,-0.622C0.189,-0.6 0.178,-0.571 0.178,-0.535C0.178,-0.498 0.189,-0.468 0.212,-0.444C0.234,-0.42 0.263,-0.408 0.3,-0.408C0.337,-0.408 0.366,-0.42 0.389,-0.444C0.411,-0.468 0.422,-0.498 0.422,-0.535C0.422,-0.571 0.411,-0.6 0.39,-0.622C0.368,-0.644 0.338,-0.655 0.3,-0.655ZM0.3,-0.73C0.332,-0.73 0.361,-0.725 0.388,-0.716C0.414,-0.707 0.436,-0.694 0.456,-0.677C0.474,-0.66 0.489,-0.64 0.5,-0.617C0.51,-0.594 0.515,-0.568 0.515,-0.539C0.515,-0.519 0.512,-0.5 0.506,-0.482C0.499,-0.464 0.49,-0.448 0.479,-0.434C0.468,-0.419 0.454,-0.407 0.438,-0.398C0.422,-0.389 0.404,-0.382 0.385,-0.379L0.385,-0.374C0.429,-0.367 0.464,-0.347 0.491,-0.316C0.517,-0.285 0.53,-0.246 0.53,-0.2C0.53,-0.169 0.525,-0.141 0.514,-0.115C0.503,-0.089 0.488,-0.067 0.468,-0.049C0.448,-0.03 0.424,-0.016 0.396,-0.006C0.367,0.005 0.335,0.01 0.3,0.01C0.265,0.01 0.233,0.005 0.205,-0.005C0.176,-0.015 0.152,-0.029 0.132,-0.047C0.112,-0.065 0.097,-0.087 0.086,-0.113C0.075,-0.138 0.07,-0.166 0.07,-0.197C0.07,-0.22 0.074,-0.242 0.081,-0.262C0.088,-0.282 0.097,-0.3 0.11,-0.315C0.123,-0.33 0.138,-0.343 0.156,-0.354C0.173,-0.364 0.193,-0.371 0.215,-0.374L0.215,-0.379C0.196,-0.382 0.178,-0.389 0.162,-0.399C0.146,-0.408 0.132,-0.42 0.121,-0.434C0.11,-0.448 0.101,-0.464 0.095,-0.482C0.088,-0.5 0.085,-0.519 0.085,-0.539C0.085,-0.568 0.09,-0.594 0.101,-0.617C0.111,-0.64 0.126,-0.66 0.145,-0.677C0.164,-0.694 0.186,-0.707 0.213,-0.716C0.239,-0.725 0.268,-0.73 0.3,-0.73Z" style="fill-rule:nonzero;"/>
                    </g>
                    <g transform="matrix(30.2844,0,0,30.2844,1767.72,1459.63)">
                        <path d="M0.3,-0.342C0.259,-0.342 0.226,-0.33 0.201,-0.305C0.175,-0.28 0.163,-0.246 0.163,-0.205C0.163,-0.164 0.175,-0.131 0.201,-0.105C0.226,-0.078 0.259,-0.065 0.3,-0.065C0.341,-0.065 0.375,-0.078 0.4,-0.105C0.425,-0.131 0.437,-0.164 0.437,-0.205C0.437,-0.246 0.425,-0.28 0.4,-0.305C0.375,-0.33 0.341,-0.342 0.3,-0.342ZM0.3,-0.655C0.262,-0.655 0.232,-0.644 0.211,-0.622C0.189,-0.6 0.178,-0.571 0.178,-0.535C0.178,-0.498 0.189,-0.468 0.212,-0.444C0.234,-0.42 0.263,-0.408 0.3,-0.408C0.337,-0.408 0.366,-0.42 0.389,-0.444C0.411,-0.468 0.422,-0.498 0.422,-0.535C0.422,-0.571 0.411,-0.6 0.39,-0.622C0.368,-0.644 0.338,-0.655 0.3,-0.655ZM0.3,-0.73C0.332,-0.73 0.361,-0.725 0.388,-0.716C0.414,-0.707 0.436,-0.694 0.456,-0.677C0.474,-0.66 0.489,-0.64 0.5,-0.617C0.51,-0.594 0.515,-0.568 0.515,-0.539C0.515,-0.519 0.512,-0.5 0.506,-0.482C0.499,-0.464 0.49,-0.448 0.479,-0.434C0.468,-0.419 0.454,-0.407 0.438,-0.398C0.422,-0.389 0.404,-0.382 0.385,-0.379L0.385,-0.374C0.429,-0.367 0.464,-0.347 0.491,-0.316C0.517,-0.285 0.53,-0.246 0.53,-0.2C0.53,-0.169 0.525,-0.141 0.514,-0.115C0.503,-0.089 0.488,-0.067 0.468,-0.049C0.448,-0.03 0.424,-0.016 0.396,-0.006C0.367,0.005 0.335,0.01 0.3,0.01C0.265,0.01 0.233,0.005 0.205,-0.005C0.176,-0.015 0.152,-0.029 0.132,-0.047C0.112,-0.065 0.097,-0.087 0.086,-0.113C0.075,-0.138 0.07,-0.166 0.07,-0.197C0.07,-0.22 0.074,-0.242 0.081,-0.262C0.088,-0.282 0.097,-0.3 0.11,-0.315C0.123,-0.33 0.138,-0.343 0.156,-0.354C0.173,-0.364 0.193,-0.371 0.215,-0.374L0.215,-0.379C0.196,-0.382 0.178,-0.389 0.162,-0.399C0.146,-0.408 0.132,-0.42 0.121,-0.434C0.11,-0.448 0.101,-0.464 0.095,-0.482C0.088,-0.5 0.085,-0.519 0.085,-0.539C0.085,-0.568 0.09,-0.594 0.101,-0.617C0.111,-0.64 0.126,-0.66 0.145,-0.677C0.164,-0.694 0.186,-0.707 0.213,-0.716C0.239,-0.725 0.268,-0.73 0.3,-0.73Z" style="fill-rule:nonzero;"/>
                    </g>
                    <g transform="matrix(30.2844,0,0,30.2844,1785.9,1459.63)">
                        <path d="M0.062,-0.55L0.133,-0.55L0.133,-0.469L0.14,-0.469C0.143,-0.498 0.152,-0.521 0.168,-0.537C0.184,-0.552 0.205,-0.56 0.232,-0.56C0.259,-0.56 0.281,-0.552 0.298,-0.537C0.315,-0.521 0.327,-0.498 0.334,-0.469L0.339,-0.469C0.342,-0.498 0.351,-0.521 0.367,-0.537C0.383,-0.552 0.404,-0.56 0.431,-0.56C0.465,-0.56 0.491,-0.548 0.51,-0.523C0.529,-0.498 0.538,-0.463 0.538,-0.419L0.538,-0L0.46,-0L0.46,-0.419C0.46,-0.442 0.455,-0.46 0.445,-0.473C0.434,-0.485 0.419,-0.491 0.4,-0.491C0.359,-0.491 0.339,-0.465 0.339,-0.414L0.339,-0L0.261,-0L0.261,-0.419C0.261,-0.438 0.257,-0.455 0.248,-0.47C0.239,-0.484 0.223,-0.491 0.201,-0.491C0.181,-0.491 0.165,-0.484 0.154,-0.469C0.145,-0.456 0.14,-0.437 0.14,-0.414L0.14,-0L0.062,-0L0.062,-0.55Z" style="fill-rule:nonzero;"/>
                    </g>
                    <g transform="matrix(30.2844,0,0,30.2844,1804.07,1459.63)">
                        <path d="M0.115,0.036C0.147,0.029 0.176,0.016 0.202,-0.002C0.228,-0.02 0.25,-0.042 0.269,-0.068C0.287,-0.094 0.301,-0.124 0.311,-0.157C0.32,-0.19 0.325,-0.226 0.325,-0.265L0.325,-0.455C0.325,-0.494 0.32,-0.531 0.31,-0.565C0.3,-0.598 0.286,-0.628 0.268,-0.655C0.25,-0.682 0.228,-0.704 0.202,-0.722C0.176,-0.74 0.147,-0.753 0.115,-0.76L0.115,-0.845C0.161,-0.834 0.203,-0.816 0.24,-0.792C0.277,-0.768 0.308,-0.739 0.334,-0.706C0.36,-0.672 0.38,-0.634 0.394,-0.592C0.408,-0.549 0.415,-0.504 0.415,-0.455L0.415,-0.265C0.415,-0.215 0.408,-0.169 0.395,-0.127C0.381,-0.084 0.361,-0.046 0.336,-0.013C0.31,0.02 0.278,0.049 0.242,0.072C0.204,0.095 0.162,0.113 0.115,0.125L0.115,0.036Z" style="fill-rule:nonzero;"/>
                    </g>
                </g>
            </g>
            <g transform="matrix(1,0,0,1,627.236,-40.5515)">
                <g transform="matrix(24.3913,0,0,25,2317.98,1185.17)">
                    <path d="M0.195,-0.72L0.195,-0.082L0.535,-0.082L0.535,-0L0.105,-0L0.105,-0.72L0.195,-0.72Z" style="fill-rule:nonzero;"/>
                </g>
                <g transform="matrix(24.3913,0,0,25,2332.61,1185.17)">
                    <path d="M0.044,-0L0.24,-0.72L0.366,-0.72L0.556,-0L0.46,-0L0.41,-0.203L0.189,-0.203L0.138,-0L0.044,-0ZM0.208,-0.278L0.392,-0.278L0.322,-0.563C0.319,-0.577 0.316,-0.59 0.313,-0.602C0.31,-0.613 0.308,-0.624 0.307,-0.633C0.306,-0.643 0.304,-0.652 0.303,-0.66L0.299,-0.66C0.298,-0.652 0.296,-0.643 0.294,-0.633C0.293,-0.624 0.291,-0.613 0.288,-0.602C0.285,-0.59 0.282,-0.577 0.279,-0.563L0.208,-0.278Z" style="fill-rule:nonzero;"/>
                </g>
                <g transform="matrix(24.3913,0,0,25,2361.88,1185.17)">
                    <path d="M0.045,-0.72L0.555,-0.72L0.555,-0.641L0.346,-0.641L0.346,-0L0.254,-0L0.254,-0.641L0.045,-0.641L0.045,-0.72Z" style="fill-rule:nonzero;"/>
                </g>
                <g transform="matrix(24.3913,0,0,25,2376.52,1185.17)">
                    <path d="M0.18,-0.72L0.18,-0.416L0.42,-0.416L0.42,-0.72L0.51,-0.72L0.51,-0L0.42,-0L0.42,-0.334L0.18,-0.334L0.18,-0L0.09,-0L0.09,-0.72L0.18,-0.72Z" style="fill-rule:nonzero;"/>
                </g>
                <g transform="matrix(24.3913,0,0,25,2391.15,1185.17)">
                    <path d="M0.3,0.01C0.231,0.01 0.178,-0.009 0.141,-0.046C0.104,-0.083 0.085,-0.135 0.085,-0.2L0.085,-0.72L0.175,-0.72L0.175,-0.2C0.175,-0.16 0.186,-0.128 0.207,-0.105C0.228,-0.082 0.259,-0.07 0.3,-0.07C0.34,-0.07 0.371,-0.082 0.393,-0.105C0.414,-0.128 0.425,-0.16 0.425,-0.2L0.425,-0.72L0.515,-0.72L0.515,-0.2C0.515,-0.134 0.496,-0.083 0.459,-0.046C0.422,-0.008 0.369,0.01 0.3,0.01Z" style="fill-rule:nonzero;"/>
                </g>
                <g transform="matrix(24.3913,0,0,25,2405.79,1185.17)">
                    <path d="M0.254,-0.079L0.254,-0.641L0.095,-0.641L0.095,-0.72L0.505,-0.72L0.505,-0.641L0.346,-0.641L0.346,-0.079L0.505,-0.079L0.505,-0L0.095,-0L0.095,-0.079L0.254,-0.079Z" style="fill-rule:nonzero;"/>
                </g>
                <g transform="matrix(24.3913,0,0,25,2420.42,1185.17)">
                    <path d="M0.195,-0.72L0.195,-0.082L0.535,-0.082L0.535,-0L0.105,-0L0.105,-0.72L0.195,-0.72Z" style="fill-rule:nonzero;"/>
                </g>
                <g transform="matrix(24.3913,0,0,25,2435.06,1185.17)">
                    <path d="M0.095,-0L0.095,-0.72L0.52,-0.72L0.52,-0.638L0.185,-0.638L0.185,-0.412L0.485,-0.412L0.485,-0.33L0.185,-0.33L0.185,-0.082L0.52,-0.082L0.52,-0L0.095,-0Z" style="fill-rule:nonzero;"/>
                </g>
            </g>
            <g transform="matrix(1,7.39557e-32,-7.39557e-32,1,558.905,-464.76)">
                <g transform="matrix(1,-7.39557e-32,8.30622e-32,1.12313,-598.602,602.475)">
                    <rect x="1914.47" y="1006.15" width="88.017" height="36.084" style="fill:rgb(255,210,0);"/>
                    <path d="M2002.48,1006.15L2002.48,1042.23L1914.47,1042.23L1914.47,1006.15L2002.48,1006.15ZM2000.19,1008.19L1916.76,1008.19L1916.76,1040.19L2000.19,1040.19L2000.19,1008.19Z"/>
                </g>
                <g transform="matrix(1,-7.39557e-32,7.39557e-32,1,-478.703,697.373)">
                    <g transform="matrix(25,0,0,25,1800.85,1064.4)">
                        <path d="M0.289,-0.08C0.331,-0.08 0.365,-0.093 0.391,-0.119C0.416,-0.144 0.429,-0.178 0.429,-0.22L0.429,-0.501C0.429,-0.543 0.416,-0.577 0.391,-0.602C0.365,-0.627 0.331,-0.64 0.289,-0.64L0.178,-0.64L0.178,-0.08L0.289,-0.08ZM0.088,-0L0.088,-0.72L0.289,-0.72C0.324,-0.72 0.355,-0.715 0.384,-0.704C0.412,-0.693 0.436,-0.679 0.457,-0.66C0.477,-0.641 0.493,-0.618 0.504,-0.591C0.515,-0.564 0.52,-0.534 0.52,-0.501L0.52,-0.22C0.52,-0.187 0.515,-0.157 0.504,-0.13C0.493,-0.103 0.477,-0.08 0.457,-0.061C0.436,-0.042 0.412,-0.027 0.384,-0.016C0.355,-0.005 0.324,-0 0.289,-0L0.088,-0Z" style="fill-rule:nonzero;"/>
                    </g>
                    <g transform="matrix(25,0,0,25,1815.85,1064.4)">
                        <path d="M0.09,-0.08L0.283,-0.08L0.283,-0.585C0.283,-0.59 0.284,-0.617 0.284,-0.623C0.284,-0.629 0.284,-0.634 0.285,-0.639C0.285,-0.643 0.285,-0.645 0.285,-0.645L0.283,-0.645C0.278,-0.641 0.274,-0.637 0.269,-0.634C0.265,-0.631 0.261,-0.627 0.257,-0.624C0.252,-0.621 0.248,-0.618 0.244,-0.615L0.103,-0.519L0.103,-0.61L0.258,-0.72L0.373,-0.72L0.373,-0.08L0.535,-0.08L0.535,-0L0.09,-0L0.09,-0.08Z" style="fill-rule:nonzero;"/>
                    </g>
                    <g transform="matrix(25,0,0,25,1830.85,1064.4)">
                        <path d="M0.25,-0.405C0.25,-0.422 0.255,-0.435 0.264,-0.445C0.273,-0.455 0.285,-0.46 0.3,-0.46C0.315,-0.46 0.328,-0.455 0.337,-0.445C0.346,-0.435 0.35,-0.422 0.35,-0.405L0.35,-0.305C0.35,-0.288 0.346,-0.275 0.337,-0.265C0.328,-0.255 0.315,-0.25 0.3,-0.25C0.285,-0.25 0.273,-0.255 0.264,-0.265C0.255,-0.275 0.25,-0.288 0.25,-0.305L0.25,-0.405ZM0.17,-0.205C0.17,-0.164 0.182,-0.131 0.205,-0.107C0.228,-0.082 0.26,-0.07 0.3,-0.07C0.34,-0.07 0.372,-0.082 0.395,-0.107C0.418,-0.131 0.43,-0.164 0.43,-0.205L0.43,-0.515C0.43,-0.556 0.418,-0.589 0.395,-0.614C0.372,-0.638 0.34,-0.65 0.3,-0.65C0.26,-0.65 0.228,-0.638 0.205,-0.614C0.182,-0.589 0.17,-0.556 0.17,-0.515L0.17,-0.205ZM0.08,-0.205L0.08,-0.515C0.08,-0.548 0.085,-0.577 0.096,-0.604C0.106,-0.631 0.121,-0.653 0.14,-0.672C0.159,-0.691 0.182,-0.705 0.209,-0.715C0.236,-0.725 0.266,-0.73 0.3,-0.73C0.334,-0.73 0.365,-0.725 0.392,-0.715C0.419,-0.705 0.442,-0.691 0.461,-0.672C0.48,-0.653 0.494,-0.631 0.505,-0.604C0.515,-0.577 0.52,-0.548 0.52,-0.515L0.52,-0.205C0.52,-0.172 0.515,-0.143 0.505,-0.117C0.494,-0.09 0.48,-0.068 0.461,-0.049C0.442,-0.03 0.418,-0.016 0.391,-0.006C0.364,0.005 0.333,0.01 0.3,0.01C0.266,0.01 0.236,0.005 0.209,-0.005C0.182,-0.015 0.159,-0.029 0.14,-0.048C0.121,-0.067 0.106,-0.089 0.096,-0.116C0.085,-0.143 0.08,-0.172 0.08,-0.205Z" style="fill-rule:nonzero;"/>
                    </g>
                    <g transform="matrix(25,0,0,25,1845.85,1064.4)">
                        <path d="M0.299,-0.73C0.333,-0.73 0.364,-0.725 0.393,-0.714C0.421,-0.703 0.445,-0.688 0.466,-0.669C0.486,-0.649 0.502,-0.625 0.513,-0.598C0.524,-0.57 0.53,-0.539 0.53,-0.505C0.53,-0.465 0.521,-0.422 0.503,-0.377C0.484,-0.332 0.458,-0.282 0.425,-0.227L0.289,-0L0.18,-0L0.332,-0.24C0.346,-0.262 0.357,-0.28 0.366,-0.293C0.375,-0.306 0.382,-0.316 0.387,-0.323C0.393,-0.331 0.398,-0.337 0.401,-0.34L0.386,-0.34C0.381,-0.329 0.373,-0.32 0.363,-0.312C0.354,-0.305 0.342,-0.298 0.328,-0.293C0.313,-0.287 0.294,-0.284 0.271,-0.284C0.242,-0.284 0.215,-0.289 0.19,-0.3C0.165,-0.311 0.144,-0.326 0.127,-0.345C0.109,-0.364 0.095,-0.388 0.085,-0.415C0.075,-0.442 0.07,-0.472 0.07,-0.505C0.07,-0.538 0.076,-0.569 0.087,-0.597C0.098,-0.624 0.114,-0.648 0.135,-0.668C0.155,-0.687 0.179,-0.703 0.207,-0.714C0.235,-0.724 0.266,-0.73 0.299,-0.73ZM0.16,-0.505C0.16,-0.483 0.164,-0.463 0.171,-0.446C0.178,-0.428 0.187,-0.413 0.2,-0.4C0.212,-0.387 0.227,-0.378 0.244,-0.371C0.261,-0.364 0.279,-0.36 0.299,-0.36C0.34,-0.36 0.374,-0.373 0.401,-0.4C0.427,-0.427 0.44,-0.462 0.44,-0.505C0.44,-0.549 0.427,-0.584 0.401,-0.611C0.375,-0.637 0.341,-0.65 0.299,-0.65C0.279,-0.65 0.261,-0.647 0.244,-0.64C0.227,-0.632 0.212,-0.623 0.2,-0.61C0.187,-0.597 0.178,-0.582 0.171,-0.565C0.164,-0.547 0.16,-0.527 0.16,-0.505Z" style="fill-rule:nonzero;"/>
                    </g>
                    <g transform="matrix(25,0,0,25,1860.85,1064.4)">
                        <path d="M0.25,-0.405C0.25,-0.422 0.255,-0.435 0.264,-0.445C0.273,-0.455 0.285,-0.46 0.3,-0.46C0.315,-0.46 0.328,-0.455 0.337,-0.445C0.346,-0.435 0.35,-0.422 0.35,-0.405L0.35,-0.305C0.35,-0.288 0.346,-0.275 0.337,-0.265C0.328,-0.255 0.315,-0.25 0.3,-0.25C0.285,-0.25 0.273,-0.255 0.264,-0.265C0.255,-0.275 0.25,-0.288 0.25,-0.305L0.25,-0.405ZM0.17,-0.205C0.17,-0.164 0.182,-0.131 0.205,-0.107C0.228,-0.082 0.26,-0.07 0.3,-0.07C0.34,-0.07 0.372,-0.082 0.395,-0.107C0.418,-0.131 0.43,-0.164 0.43,-0.205L0.43,-0.515C0.43,-0.556 0.418,-0.589 0.395,-0.614C0.372,-0.638 0.34,-0.65 0.3,-0.65C0.26,-0.65 0.228,-0.638 0.205,-0.614C0.182,-0.589 0.17,-0.556 0.17,-0.515L0.17,-0.205ZM0.08,-0.205L0.08,-0.515C0.08,-0.548 0.085,-0.577 0.096,-0.604C0.106,-0.631 0.121,-0.653 0.14,-0.672C0.159,-0.691 0.182,-0.705 0.209,-0.715C0.236,-0.725 0.266,-0.73 0.3,-0.73C0.334,-0.73 0.365,-0.725 0.392,-0.715C0.419,-0.705 0.442,-0.691 0.461,-0.672C0.48,-0.653 0.494,-0.631 0.505,-0.604C0.515,-0.577 0.52,-0.548 0.52,-0.515L0.52,-0.205C0.52,-0.172 0.515,-0.143 0.505,-0.117C0.494,-0.09 0.48,-0.068 0.461,-0.049C0.442,-0.03 0.418,-0.016 0.391,-0.006C0.364,0.005 0.333,0.01 0.3,0.01C0.266,0.01 0.236,0.005 0.209,-0.005C0.182,-0.015 0.159,-0.029 0.14,-0.048C0.121,-0.067 0.106,-0.089 0.096,-0.116C0.085,-0.143 0.08,-0.172 0.08,-0.205Z" style="fill-rule:nonzero;"/>
                    </g>
                </g>
            </g>
            <g transform="matrix(1,7.39557e-32,-7.39557e-32,1,1424.17,-571.608)">
                <g transform="matrix(0.853578,-6.3127e-32,8.30622e-32,1.12313,-318.282,602.475)">
                    <rect x="1914.47" y="1006.15" width="88.017" height="36.084" style="fill:rgb(0,112,255);"/>
                </g>
                <g transform="matrix(1,-7.39557e-32,7.39557e-32,1,-478.703,697.373)">
                    <g transform="matrix(25,0,0,25,1800.85,1064.4)">
                        <path d="M0.3,0.01C0.267,0.01 0.237,0.006 0.209,-0.004C0.181,-0.013 0.157,-0.026 0.137,-0.043C0.116,-0.06 0.1,-0.08 0.089,-0.104C0.077,-0.128 0.071,-0.155 0.07,-0.185L0.165,-0.185C0.165,-0.168 0.169,-0.152 0.176,-0.138C0.183,-0.124 0.192,-0.112 0.205,-0.102C0.218,-0.092 0.232,-0.084 0.249,-0.079C0.266,-0.073 0.283,-0.07 0.302,-0.07C0.344,-0.07 0.377,-0.08 0.402,-0.1C0.427,-0.119 0.439,-0.146 0.439,-0.18C0.439,-0.209 0.43,-0.234 0.412,-0.257C0.394,-0.279 0.368,-0.296 0.334,-0.309L0.258,-0.337C0.147,-0.378 0.091,-0.445 0.091,-0.539C0.091,-0.599 0.11,-0.646 0.148,-0.68C0.186,-0.713 0.238,-0.73 0.305,-0.73C0.336,-0.73 0.365,-0.726 0.391,-0.717C0.417,-0.708 0.44,-0.696 0.459,-0.679C0.478,-0.662 0.493,-0.642 0.504,-0.619C0.515,-0.595 0.52,-0.568 0.521,-0.539L0.426,-0.539C0.426,-0.556 0.423,-0.571 0.416,-0.585C0.409,-0.598 0.401,-0.61 0.39,-0.62C0.379,-0.629 0.366,-0.637 0.351,-0.642C0.336,-0.647 0.321,-0.65 0.304,-0.65C0.266,-0.65 0.236,-0.641 0.215,-0.623C0.193,-0.605 0.182,-0.581 0.182,-0.55C0.182,-0.52 0.19,-0.495 0.207,-0.476C0.223,-0.456 0.249,-0.439 0.286,-0.426L0.366,-0.397C0.419,-0.378 0.46,-0.35 0.488,-0.313C0.516,-0.276 0.53,-0.233 0.53,-0.183C0.53,-0.123 0.51,-0.076 0.469,-0.042C0.428,-0.007 0.371,0.01 0.3,0.01Z" style="fill:white;fill-rule:nonzero;"/>
                    </g>
                    <g transform="matrix(25,0,0,25,1815.85,1064.4)">
                        <path d="M0.3,0.01C0.267,0.01 0.237,0.006 0.209,-0.004C0.181,-0.013 0.157,-0.026 0.137,-0.043C0.116,-0.06 0.1,-0.08 0.089,-0.104C0.077,-0.128 0.071,-0.155 0.07,-0.185L0.165,-0.185C0.165,-0.168 0.169,-0.152 0.176,-0.138C0.183,-0.124 0.192,-0.112 0.205,-0.102C0.218,-0.092 0.232,-0.084 0.249,-0.079C0.266,-0.073 0.283,-0.07 0.302,-0.07C0.344,-0.07 0.377,-0.08 0.402,-0.1C0.427,-0.119 0.439,-0.146 0.439,-0.18C0.439,-0.209 0.43,-0.234 0.412,-0.257C0.394,-0.279 0.368,-0.296 0.334,-0.309L0.258,-0.337C0.147,-0.378 0.091,-0.445 0.091,-0.539C0.091,-0.599 0.11,-0.646 0.148,-0.68C0.186,-0.713 0.238,-0.73 0.305,-0.73C0.336,-0.73 0.365,-0.726 0.391,-0.717C0.417,-0.708 0.44,-0.696 0.459,-0.679C0.478,-0.662 0.493,-0.642 0.504,-0.619C0.515,-0.595 0.52,-0.568 0.521,-0.539L0.426,-0.539C0.426,-0.556 0.423,-0.571 0.416,-0.585C0.409,-0.598 0.401,-0.61 0.39,-0.62C0.379,-0.629 0.366,-0.637 0.351,-0.642C0.336,-0.647 0.321,-0.65 0.304,-0.65C0.266,-0.65 0.236,-0.641 0.215,-0.623C0.193,-0.605 0.182,-0.581 0.182,-0.55C0.182,-0.52 0.19,-0.495 0.207,-0.476C0.223,-0.456 0.249,-0.439 0.286,-0.426L0.366,-0.397C0.419,-0.378 0.46,-0.35 0.488,-0.313C0.516,-0.276 0.53,-0.233 0.53,-0.183C0.53,-0.123 0.51,-0.076 0.469,-0.042C0.428,-0.007 0.371,0.01 0.3,0.01Z" style="fill:white;fill-rule:nonzero;"/>
                    </g>
                    <g transform="matrix(25,0,0,25,1830.85,1064.4)">
                        <path d="M0.513,-0.53C0.513,-0.476 0.498,-0.424 0.469,-0.374C0.439,-0.323 0.392,-0.27 0.327,-0.214L0.206,-0.109C0.203,-0.106 0.199,-0.104 0.195,-0.101C0.191,-0.098 0.187,-0.096 0.183,-0.093C0.178,-0.09 0.173,-0.087 0.168,-0.084L0.168,-0.08C0.179,-0.081 0.189,-0.081 0.199,-0.081C0.208,-0.082 0.218,-0.082 0.228,-0.082L0.52,-0.082L0.52,-0L0.07,-0L0.07,-0.1L0.26,-0.263C0.289,-0.288 0.313,-0.311 0.334,-0.333C0.354,-0.355 0.37,-0.377 0.383,-0.398C0.396,-0.419 0.405,-0.441 0.411,-0.462C0.417,-0.483 0.42,-0.506 0.42,-0.529C0.42,-0.566 0.409,-0.596 0.387,-0.618C0.364,-0.639 0.334,-0.65 0.296,-0.65C0.254,-0.65 0.221,-0.639 0.196,-0.617C0.171,-0.595 0.158,-0.566 0.158,-0.53L0.065,-0.53C0.066,-0.56 0.073,-0.587 0.084,-0.612C0.095,-0.637 0.111,-0.658 0.132,-0.675C0.152,-0.692 0.176,-0.706 0.204,-0.716C0.231,-0.725 0.262,-0.73 0.296,-0.73C0.329,-0.73 0.359,-0.725 0.386,-0.716C0.413,-0.707 0.435,-0.693 0.454,-0.676C0.473,-0.659 0.487,-0.638 0.498,-0.613C0.508,-0.588 0.513,-0.561 0.513,-0.53Z" style="fill:white;fill-rule:nonzero;"/>
                    </g>
                    <g transform="matrix(25,0,0,25,1845.85,1064.4)">
                        <path d="M0.301,0.01C0.267,0.01 0.236,0.005 0.208,-0.006C0.179,-0.017 0.155,-0.032 0.135,-0.052C0.114,-0.071 0.098,-0.095 0.087,-0.123C0.076,-0.15 0.07,-0.181 0.07,-0.215C0.07,-0.255 0.079,-0.298 0.098,-0.343C0.116,-0.388 0.142,-0.438 0.175,-0.493L0.311,-0.72L0.42,-0.72L0.268,-0.48C0.255,-0.459 0.244,-0.441 0.235,-0.428C0.226,-0.415 0.218,-0.404 0.213,-0.397C0.207,-0.389 0.202,-0.383 0.199,-0.38L0.214,-0.38C0.219,-0.391 0.227,-0.4 0.237,-0.408C0.246,-0.415 0.258,-0.422 0.273,-0.428C0.288,-0.433 0.306,-0.436 0.329,-0.436C0.358,-0.436 0.385,-0.431 0.41,-0.42C0.435,-0.409 0.456,-0.394 0.474,-0.375C0.491,-0.356 0.505,-0.333 0.515,-0.306C0.525,-0.279 0.53,-0.248 0.53,-0.215C0.53,-0.182 0.524,-0.151 0.513,-0.124C0.502,-0.096 0.486,-0.072 0.466,-0.053C0.445,-0.033 0.421,-0.017 0.393,-0.007C0.365,0.005 0.334,0.01 0.301,0.01ZM0.16,-0.215C0.16,-0.171 0.173,-0.136 0.199,-0.11C0.225,-0.083 0.259,-0.07 0.301,-0.07C0.321,-0.07 0.339,-0.074 0.357,-0.081C0.374,-0.088 0.388,-0.097 0.401,-0.11C0.413,-0.123 0.423,-0.138 0.43,-0.156C0.436,-0.173 0.44,-0.193 0.44,-0.215C0.44,-0.237 0.436,-0.257 0.43,-0.275C0.423,-0.292 0.413,-0.307 0.401,-0.32C0.388,-0.333 0.374,-0.343 0.357,-0.35C0.339,-0.357 0.321,-0.36 0.301,-0.36C0.26,-0.36 0.226,-0.347 0.2,-0.32C0.173,-0.293 0.16,-0.258 0.16,-0.215Z" style="fill:white;fill-rule:nonzero;"/>
                    </g>
                </g>
            </g>
            <g transform="matrix(1,0,0,1,-30,110)">
                <g transform="matrix(41.6667,0,0,41.6667,2643.39,1535.43)">
                    <path d="M0.254,-0.079L0.254,-0.641L0.095,-0.641L0.095,-0.72L0.505,-0.72L0.505,-0.641L0.346,-0.641L0.346,-0.079L0.505,-0.079L0.505,-0L0.095,-0L0.095,-0.079L0.254,-0.079Z" style="fill:rgb(221,221,221);fill-rule:nonzero;"/>
                </g>
                <g transform="matrix(41.6667,0,0,41.6667,2668.39,1535.43)">
                    <path d="M0.045,-0.72L0.555,-0.72L0.555,-0.641L0.346,-0.641L0.346,-0L0.254,-0L0.254,-0.641L0.045,-0.641L0.045,-0.72Z" style="fill:rgb(221,221,221);fill-rule:nonzero;"/>
                </g>
                <g transform="matrix(41.6667,0,0,41.6667,2693.39,1535.43)">
                    <path d="M0.044,-0L0.24,-0.72L0.366,-0.72L0.556,-0L0.46,-0L0.41,-0.203L0.189,-0.203L0.138,-0L0.044,-0ZM0.208,-0.278L0.392,-0.278L0.322,-0.563C0.319,-0.577 0.316,-0.59 0.313,-0.602C0.31,-0.613 0.308,-0.624 0.307,-0.633C0.306,-0.643 0.304,-0.652 0.303,-0.66L0.299,-0.66C0.298,-0.652 0.296,-0.643 0.294,-0.633C0.293,-0.624 0.291,-0.613 0.288,-0.602C0.285,-0.59 0.282,-0.577 0.279,-0.563L0.208,-0.278Z" style="fill:rgb(221,221,221);fill-rule:nonzero;"/>
                </g>
                <g transform="matrix(41.6667,0,0,41.6667,2718.39,1535.43)">
                    <path d="M0.195,-0.72L0.195,-0.082L0.535,-0.082L0.535,-0L0.105,-0L0.105,-0.72L0.195,-0.72Z" style="fill:rgb(221,221,221);fill-rule:nonzero;"/>
                </g>
                <g transform="matrix(41.6667,0,0,41.6667,2743.39,1535.43)">
                    <path d="M0.03,-0.72L0.125,-0.72L0.273,-0.403C0.278,-0.394 0.282,-0.384 0.285,-0.375C0.288,-0.366 0.29,-0.357 0.293,-0.35C0.296,-0.341 0.298,-0.333 0.3,-0.324L0.304,-0.324C0.306,-0.333 0.309,-0.341 0.312,-0.35C0.314,-0.357 0.317,-0.366 0.32,-0.375C0.323,-0.384 0.327,-0.394 0.331,-0.403L0.474,-0.72L0.57,-0.72L0.345,-0.25L0.345,-0L0.255,-0L0.255,-0.25L0.03,-0.72Z" style="fill:rgb(221,221,221);fill-rule:nonzero;"/>
                </g>
            </g>
            <g transform="matrix(1,0,0,1,-372.559,40)">
                <g transform="matrix(41.6667,0,0,41.6667,2643.39,1535.43)">
                    <path d="M0.095,-0.721L0.525,-0.721L0.525,-0.641L0.183,-0.641L0.183,-0.408L0.499,-0.408L0.499,-0.328L0.185,-0.328L0.185,-0L0.095,-0L0.095,-0.721Z" style="fill:rgb(221,221,221);fill-rule:nonzero;"/>
                </g>
                <g transform="matrix(41.6667,0,0,41.6667,2668.39,1535.43)">
                    <path d="M0.32,-0.72C0.353,-0.72 0.382,-0.715 0.409,-0.705C0.436,-0.695 0.459,-0.681 0.478,-0.662C0.497,-0.643 0.511,-0.621 0.522,-0.596C0.532,-0.57 0.537,-0.541 0.537,-0.51C0.537,-0.46 0.524,-0.418 0.499,-0.383C0.473,-0.347 0.438,-0.323 0.394,-0.31L0.547,-0L0.441,-0L0.301,-0.3L0.18,-0.3L0.18,-0L0.09,-0L0.09,-0.72L0.32,-0.72ZM0.18,-0.38L0.32,-0.38C0.358,-0.38 0.388,-0.392 0.411,-0.416C0.433,-0.439 0.444,-0.471 0.444,-0.51C0.444,-0.549 0.433,-0.581 0.41,-0.605C0.387,-0.628 0.357,-0.64 0.32,-0.64L0.18,-0.64L0.18,-0.38Z" style="fill:rgb(221,221,221);fill-rule:nonzero;"/>
                </g>
                <g transform="matrix(41.6667,0,0,41.6667,2693.39,1535.43)">
                    <path d="M0.044,-0L0.24,-0.72L0.366,-0.72L0.556,-0L0.46,-0L0.41,-0.203L0.189,-0.203L0.138,-0L0.044,-0ZM0.208,-0.278L0.392,-0.278L0.322,-0.563C0.319,-0.577 0.316,-0.59 0.313,-0.602C0.31,-0.613 0.308,-0.624 0.307,-0.633C0.306,-0.643 0.304,-0.652 0.303,-0.66L0.299,-0.66C0.298,-0.652 0.296,-0.643 0.294,-0.633C0.293,-0.624 0.291,-0.613 0.288,-0.602C0.285,-0.59 0.282,-0.577 0.279,-0.563L0.208,-0.278Z" style="fill:rgb(221,221,221);fill-rule:nonzero;"/>
                </g>
                <g transform="matrix(41.6667,0,0,41.6667,2718.39,1535.43)">
                    <path d="M0.085,-0.72L0.199,-0.72L0.39,-0.237C0.395,-0.225 0.4,-0.211 0.405,-0.196C0.41,-0.18 0.414,-0.165 0.417,-0.151C0.422,-0.134 0.426,-0.117 0.43,-0.1L0.438,-0.1C0.438,-0.1 0.438,-0.103 0.437,-0.111C0.436,-0.117 0.435,-0.127 0.434,-0.139C0.433,-0.151 0.432,-0.165 0.431,-0.181C0.43,-0.196 0.429,-0.213 0.429,-0.23L0.429,-0.72L0.515,-0.72L0.515,-0L0.401,-0L0.213,-0.484C0.208,-0.499 0.202,-0.515 0.197,-0.531C0.192,-0.547 0.187,-0.562 0.184,-0.575C0.179,-0.59 0.175,-0.606 0.172,-0.621L0.164,-0.621C0.165,-0.61 0.167,-0.598 0.168,-0.585C0.169,-0.574 0.169,-0.56 0.17,-0.545C0.171,-0.529 0.171,-0.511 0.171,-0.492L0.171,-0L0.085,-0L0.085,-0.72Z" style="fill:rgb(221,221,221);fill-rule:nonzero;"/>
                </g>
                <g transform="matrix(41.6667,0,0,41.6667,2743.39,1535.43)">
                    <path d="M0.306,-0.73C0.369,-0.73 0.419,-0.713 0.458,-0.679C0.496,-0.644 0.519,-0.596 0.526,-0.535L0.436,-0.535C0.432,-0.571 0.419,-0.599 0.396,-0.62C0.373,-0.64 0.343,-0.65 0.306,-0.65C0.266,-0.65 0.234,-0.638 0.211,-0.614C0.188,-0.59 0.176,-0.557 0.176,-0.515L0.176,-0.205C0.176,-0.163 0.188,-0.13 0.211,-0.106C0.234,-0.082 0.265,-0.07 0.306,-0.07C0.343,-0.07 0.373,-0.08 0.396,-0.101C0.419,-0.121 0.432,-0.149 0.436,-0.185L0.526,-0.185C0.519,-0.124 0.496,-0.076 0.458,-0.042C0.419,-0.007 0.369,0.01 0.306,0.01C0.272,0.01 0.242,0.005 0.215,-0.005C0.188,-0.015 0.165,-0.029 0.146,-0.048C0.127,-0.067 0.112,-0.089 0.102,-0.116C0.091,-0.143 0.086,-0.172 0.086,-0.205L0.086,-0.515C0.086,-0.548 0.091,-0.577 0.102,-0.604C0.112,-0.631 0.127,-0.653 0.146,-0.672C0.165,-0.691 0.188,-0.705 0.215,-0.715C0.242,-0.725 0.272,-0.73 0.306,-0.73Z" style="fill:rgb(221,221,221);fill-rule:nonzero;"/>
                </g>
                <g transform="matrix(41.6667,0,0,41.6667,2768.39,1535.43)">
                    <path d="M0.095,-0L0.095,-0.72L0.52,-0.72L0.52,-0.638L0.185,-0.638L0.185,-0.412L0.485,-0.412L0.485,-0.33L0.185,-0.33L0.185,-0.082L0.52,-0.082L0.52,-0L0.095,-0Z" style="fill:rgb(221,221,221);fill-rule:nonzero;"/>
                </g>
            </g>
            <g id="DISTANCE" transform="matrix(1.01312,0,0,1.05986,513.936,479.632)">
                <g transform="matrix(1.00077,0,0,0.787597,-140.021,1018.41)">
                    <path d="M319,180L2655.97,180" style="fill:none;stroke:black;stroke-width:2.06px;stroke-linejoin:round;"/>
                </g>
                <g transform="matrix(5.88787e-17,0.919153,-0.823937,4.82264e-17,327.106,847.411)">
                    <path d="M319,180L361.555,180" style="fill:none;stroke:black;stroke-width:2.11px;stroke-linejoin:round;"/>
                </g>
                <g transform="matrix(5.88787e-17,0.919153,-0.823937,4.82264e-17,2666.31,847.411)">
                    <path d="M319,180L361.555,180" style="fill:none;stroke:black;stroke-width:2.11px;stroke-linejoin:round;"/>
                </g>
                <g transform="matrix(0.987051,0,0,0.943518,-211.305,-324.301)">
                    <rect x="1578.25" y="1553.11" width="77.769" height="44.551" style="fill:white;"/>
                </g>
                <g transform="matrix(1.00732,0,0,1.00732,-376.568,-270.672)">
                    <g transform="matrix(24.497,0,0,23.4166,1718.62,1429.35)">
                        <path d="M0.369,-0.72L0.467,-0.72L0.175,-0.275L0.175,-0.235L0.41,-0.235L0.41,-0.41L0.5,-0.41L0.5,-0L0.41,-0L0.41,-0.155L0.085,-0.155L0.085,-0.285L0.369,-0.72Z" style="fill-rule:nonzero;"/>
                    </g>
                    <g transform="matrix(24.497,0,0,23.4166,1733.32,1429.35)">
                        <path d="M0.369,-0.72L0.467,-0.72L0.175,-0.275L0.175,-0.235L0.41,-0.235L0.41,-0.41L0.5,-0.41L0.5,-0L0.41,-0L0.41,-0.155L0.085,-0.155L0.085,-0.285L0.369,-0.72Z" style="fill-rule:nonzero;"/>
                    </g>
                    <g transform="matrix(24.497,0,0,23.4166,1748.02,1429.35)">
                        <path d="M0.09,-0.72L0.18,-0.72L0.18,-0.414L0.295,-0.414L0.459,-0.72L0.565,-0.72L0.374,-0.378L0.575,-0L0.468,-0L0.295,-0.335L0.18,-0.335L0.18,-0L0.09,-0L0.09,-0.72Z" style="fill-rule:nonzero;"/>
                    </g>
                    <g transform="matrix(24.497,0,0,23.4166,1762.72,1429.35)">
                        <path d="M0.075,-0L0.075,-0.72L0.187,-0.72L0.275,-0.476C0.278,-0.469 0.281,-0.46 0.284,-0.451C0.287,-0.441 0.289,-0.432 0.291,-0.424C0.294,-0.414 0.296,-0.404 0.299,-0.395L0.305,-0.395C0.308,-0.404 0.31,-0.414 0.313,-0.424C0.316,-0.432 0.319,-0.441 0.322,-0.451C0.325,-0.46 0.327,-0.469 0.33,-0.476L0.413,-0.72L0.525,-0.72L0.525,-0L0.442,-0L0.442,-0.505C0.442,-0.516 0.442,-0.528 0.443,-0.541C0.443,-0.554 0.444,-0.567 0.445,-0.58C0.446,-0.595 0.446,-0.609 0.447,-0.624L0.441,-0.624C0.437,-0.61 0.433,-0.596 0.429,-0.583C0.426,-0.571 0.422,-0.558 0.418,-0.544C0.413,-0.53 0.409,-0.517 0.405,-0.505L0.343,-0.32L0.259,-0.32L0.197,-0.505C0.193,-0.518 0.189,-0.531 0.184,-0.545C0.179,-0.559 0.175,-0.572 0.172,-0.584C0.168,-0.598 0.164,-0.612 0.16,-0.625L0.155,-0.625C0.156,-0.61 0.156,-0.596 0.157,-0.581C0.157,-0.569 0.157,-0.556 0.158,-0.543C0.158,-0.529 0.158,-0.516 0.158,-0.505L0.158,-0L0.075,-0Z" style="fill-rule:nonzero;"/>
                    </g>
                </g>
            </g>
        </g>
    </g>
</svg>
