<?xml version="1.0" encoding="UTF-8" standalone="no"?><!DOCTYPE svg PUBLIC "-//W3C//DTD SVG 1.1//EN" "http://www.w3.org/Graphics/SVG/1.1/DTD/svg11.dtd"><svg width="985px" height="985px" version="1.1" xmlns="http://www.w3.org/2000/svg" xmlns:xlink="http://www.w3.org/1999/xlink" xml:space="preserve" xmlns:serif="http://www.serif.com/" style="fill-rule:evenodd;clip-rule:evenodd;stroke-linecap:round;stroke-linejoin:round;stroke-miterlimit:1.5;"><g transform="matrix(1,0,0,1,-747.753,-2430.32)"><g transform="matrix(0.539207,0,0,0.539207,706.194,2255.01)"><g transform="matrix(1.22334,0,0,1.22334,-341.982,-212.777)"><circle cx="1089.03" cy="1186.17" r="725.255" style="fill:rgb(170,170,170);stroke:white;stroke-width:42.45px;"/></g><g transform="matrix(1.01493,0,0,1.01493,-115.017,34.4334)"><circle cx="1089.03" cy="1186.17" r="725.255" style="fill:rgb(170,170,170);stroke:white;stroke-width:51.16px;"/></g><g transform="matrix(1,0,0,1,-45.1238,9.0057)"><g transform="matrix(0.996681,0,0,0.906403,13.7966,107.869)"><path d="M1251.5,946.468C1251.5,946.468 1233.04,937.802 1215.71,933.572C1200.84,929.944 1186.2,927.078 1186.2,927.078L1185,991.078L1244.55,989.839L1251.5,946.468Z" style="fill:white;stroke:rgb(221,221,221);stroke-width:18.17px;"/></g><path d="M825.371,1034.12C825.371,1034.12 803.607,1034.07 792.791,1030.95C781.28,1027.63 755.2,1015.17 755.2,1015.17C755.2,1015.17 736.448,1034.58 723.947,1045.87C711.099,1057.49 693.15,1074.11 693.15,1074.11C693.15,1074.11 718.928,1103.05 731.166,1119.13C750.627,1144.7 755.781,1180.25 758.572,1201.68C760.944,1219.89 749.241,1272 742.407,1281.29C729.943,1298.24 721.779,1282.28 702.09,1287.11C689.417,1290.22 681.701,1307.77 690.263,1320.5C698.639,1332.95 706.167,1337.23 723.002,1337.27C731.782,1337.28 753.79,1334.62 762.73,1330.44C781.91,1321.48 799.279,1292.21 802.334,1275.91C805.891,1256.94 815.104,1231.03 812.92,1208.1C810.708,1184.87 809.864,1166.52 802.133,1144.32C798.019,1132.52 781.585,1091.6 781.585,1091.6L830.065,1092.01L825.371,1034.12Z" style="fill:rgb(214,0,0);stroke:rgb(221,221,221);stroke-width:17.31px;"/><path d="M1541.19,931.64C1541.19,931.64 1558.9,952.246 1559.18,967.618C1559.29,973.506 1557.6,988.089 1552.91,996.67C1549,1003.83 1540.9,1011.4 1543.87,1016.02C1547.73,1022.02 1567.59,1048.26 1573.41,1066.67C1577.91,1080.88 1579.7,1121.74 1576.54,1125.09C1570.9,1131.06 1536.09,1140.72 1523.63,1141.83C1502.65,1143.72 1481.71,1122.76 1477.84,1123.53C1473.47,1124.4 1458.91,1149.9 1448.1,1155.07C1439.16,1159.34 1421.67,1160.57 1413.91,1155C1408.33,1150.98 1404.51,1137.36 1409.67,1130.35C1420.75,1115.28 1431.3,1098.98 1428.96,1078.27C1426.71,1058.3 1414.38,1032.01 1396.76,1015.08C1373.35,992.569 1327.11,966.292 1287.6,949.304C1247.77,932.18 1201.39,921.482 1157.81,912.331C1112.8,902.878 1082.79,899.103 1043.95,899.989C1012.07,900.716 946.565,907.599 909.084,913.931C871.603,920.263 833.074,927.649 797.64,941.709C759.145,956.985 716.558,978.171 678.85,1008.36C658.644,1024.54 644.492,1043.24 628.416,1070.72C617.265,1089.77 610.53,1102.73 606.154,1120.37C603.585,1130.72 603.611,1147.75 599.178,1155.01C591.068,1168.29 545.674,1157.68 545.514,1211.98C545.348,1268.45 596.14,1254.05 600.947,1270.52C605.855,1287.34 618.562,1330.65 631.319,1348.29C648.936,1372.65 670.734,1401.51 713.333,1431.94C741.458,1452.03 787.882,1475.39 820.876,1485.69C857.601,1497.15 904.715,1505.29 947.376,1510.36C1018.03,1518.76 1118.19,1528.33 1205.91,1510.15C1244.36,1502.19 1322.68,1463.97 1358.06,1440.97C1388.21,1421.36 1405.23,1398.18 1418.19,1375.13C1428.9,1356.08 1453.79,1328.58 1430.98,1294.11C1421.37,1279.6 1412.1,1268.91 1427.76,1259.88C1441.93,1251.7 1456.82,1263.71 1464.95,1272.49C1474.68,1282.99 1480.95,1298.43 1485.8,1297.35C1489.42,1296.55 1500.57,1276.02 1513.61,1259.37C1525.21,1244.57 1549.98,1231.01 1559.29,1229.31C1570.15,1227.32 1597.87,1238.05 1600.8,1264.08C1604.8,1299.6 1570.82,1299.98 1564.06,1311C1561.81,1314.66 1564.34,1331.31 1562.17,1348.66C1560.49,1362.19 1553.64,1374.95 1553.38,1383.82C1553.24,1388.38 1571.85,1396.79 1576.72,1410.16C1585.2,1433.4 1566.56,1454.45 1566.56,1454.45C1566.56,1454.45 1564.3,1440.85 1552.81,1437.9C1534.35,1433.16 1519.98,1433.14 1503.22,1440.08C1477.67,1450.66 1450.32,1481.26 1413.07,1507.43C1370.03,1537.67 1312.14,1572.94 1258.22,1587.21C1220.19,1597.28 1165.43,1607.3 1126.17,1609.81C1075.22,1613.08 998.395,1613.83 938.794,1605.84C880.787,1598.06 820.337,1581.63 768.568,1560.85C718.806,1540.87 661.898,1506.5 630.318,1485.31C611.698,1472.82 582.276,1462.59 564.039,1455.38C550.968,1450.21 538.135,1445.13 522.102,1457.49C511.354,1465.77 502.724,1473.75 502.724,1473.75C502.724,1473.75 495.065,1455.74 501.306,1430.01C505.85,1411.28 529.524,1406.68 526.391,1402.48C504.595,1373.23 409.818,1254.98 409.198,1213.25C408.703,1179.88 444.11,1145.33 470.033,1109.5C488.343,1084.2 528.817,1038.53 519.833,1027.57C506.4,1011.18 498.2,1007.33 497.212,988.762C496.013,966.21 515.66,948.175 515.66,948.175C515.66,948.175 518.534,961.714 533.777,971.398C549.28,981.247 573.91,980.452 578.411,977.18C594.468,965.51 619.731,948.069 650.125,928.377C688.551,903.481 734.645,877.508 765.573,865.967C801.989,852.379 875.181,836.331 920.38,825.217C945.534,819.032 989.843,812.399 1009.74,804.582C1024.7,798.7 1037.45,788.137 1043.95,788.021C1050.05,787.912 1063.89,799.419 1081.64,804.623C1103.74,811.101 1133.61,820.024 1158.35,825.589C1175.25,829.39 1227.98,845.264 1276.58,864.934C1308.08,877.684 1344.95,891.946 1362.1,901.477C1404.06,924.798 1452.82,962.014 1484.37,965.802C1502.63,967.994 1525.74,968.8 1533.44,950.781C1539.73,936.086 1541.19,931.64 1541.19,931.64Z" style="fill:rgb(16,15,82);stroke:rgb(221,221,221);stroke-width:17.31px;"/><g transform="matrix(0.998475,-0.0552038,0.0527524,0.954137,-64.9776,146.929)"><g transform="matrix(62.2871,40.5038,-35.2217,59.3152,647.728,1434.08)"><path d="M0.734,-0.356C0.734,-0.294 0.723,-0.241 0.7,-0.196C0.677,-0.151 0.646,-0.114 0.609,-0.085C0.571,-0.056 0.528,-0.034 0.481,-0.021C0.434,-0.007 0.386,-0 0.337,-0L0.073,-0L0.073,-0.708L0.329,-0.708C0.379,-0.708 0.428,-0.702 0.477,-0.691C0.526,-0.679 0.569,-0.66 0.607,-0.633C0.645,-0.606 0.676,-0.569 0.699,-0.524C0.722,-0.479 0.734,-0.423 0.734,-0.356ZM0.556,-0.356C0.556,-0.396 0.55,-0.429 0.537,-0.456C0.524,-0.482 0.506,-0.503 0.485,-0.519C0.463,-0.534 0.438,-0.545 0.411,-0.552C0.383,-0.559 0.354,-0.562 0.325,-0.562L0.24,-0.562L0.24,-0.148L0.321,-0.148C0.352,-0.148 0.381,-0.152 0.41,-0.159C0.438,-0.166 0.463,-0.177 0.485,-0.193C0.506,-0.209 0.524,-0.23 0.537,-0.257C0.55,-0.284 0.556,-0.317 0.556,-0.356Z" style="fill:white;fill-rule:nonzero;"/></g><g transform="matrix(63.7598,37.9114,-32.9674,60.7177,714.199,1476.98)"><path d="M0.073,-0L0.073,-0.708L0.549,-0.708L0.549,-0.563L0.238,-0.563L0.238,-0.43L0.532,-0.43L0.532,-0.293L0.238,-0.293L0.238,-0.146L0.567,-0.146L0.567,-0L0.073,-0Z" style="fill:white;fill-rule:nonzero;"/></g><g transform="matrix(70.3473,21.6758,-18.849,66.9908,822.057,1532.13)"><path d="M0.242,-0.562L0.242,-0.416L0.516,-0.416L0.516,-0.275L0.242,-0.275L0.242,-0L0.073,-0L0.073,-0.708L0.539,-0.708L0.539,-0.562L0.242,-0.562Z" style="fill:white;fill-rule:nonzero;"/></g><g transform="matrix(72.0785,14.136,-12.2925,68.6394,890.644,1551.75)"><path d="M0.452,-0L0.299,-0.281L0.241,-0.281L0.241,-0L0.073,-0L0.073,-0.708L0.343,-0.708C0.377,-0.708 0.41,-0.705 0.443,-0.698C0.475,-0.691 0.504,-0.679 0.53,-0.662C0.555,-0.645 0.576,-0.623 0.591,-0.596C0.606,-0.569 0.614,-0.535 0.614,-0.494C0.614,-0.446 0.601,-0.406 0.575,-0.373C0.549,-0.34 0.513,-0.317 0.467,-0.303L0.652,-0L0.452,-0ZM0.445,-0.491C0.445,-0.508 0.442,-0.521 0.435,-0.532C0.428,-0.542 0.419,-0.55 0.408,-0.556C0.397,-0.561 0.384,-0.565 0.371,-0.567C0.357,-0.569 0.344,-0.57 0.331,-0.57L0.24,-0.57L0.24,-0.405L0.321,-0.405C0.335,-0.405 0.349,-0.406 0.364,-0.409C0.379,-0.411 0.392,-0.415 0.404,-0.421C0.416,-0.427 0.426,-0.436 0.434,-0.447C0.441,-0.458 0.445,-0.473 0.445,-0.491Z" style="fill:white;fill-rule:nonzero;"/></g><g transform="matrix(73.2248,-4.17377,3.62947,69.731,1113.71,1572.69)"><path d="M0.553,-0L0.498,-0.139L0.224,-0.139L0.172,-0L-0.014,-0L0.283,-0.708L0.449,-0.708L0.743,-0L0.553,-0ZM0.363,-0.519L0.273,-0.276L0.451,-0.276L0.363,-0.519Z" style="fill:white;fill-rule:nonzero;"/></g><g transform="matrix(72.1173,-13.9171,12.1022,68.6764,1198.3,1566.73)"><path d="M0.523,-0L0.238,-0.463L0.235,-0.463L0.239,-0L0.073,-0L0.073,-0.708L0.268,-0.708L0.552,-0.246L0.555,-0.246L0.551,-0.708L0.717,-0.708L0.717,-0L0.523,-0Z" style="fill:white;fill-rule:nonzero;"/></g><g transform="matrix(67.1896,-30.7479,26.7381,63.9838,1280.68,1547.09)"><path d="M0.696,-0.098C0.665,-0.062 0.626,-0.033 0.58,-0.013C0.534,0.008 0.481,0.019 0.421,0.019C0.366,0.019 0.316,0.01 0.27,-0.008C0.223,-0.026 0.183,-0.052 0.149,-0.085C0.115,-0.118 0.088,-0.157 0.069,-0.203C0.05,-0.249 0.04,-0.3 0.04,-0.355C0.04,-0.412 0.05,-0.463 0.07,-0.509C0.089,-0.555 0.116,-0.594 0.151,-0.627C0.186,-0.659 0.226,-0.684 0.273,-0.701C0.32,-0.718 0.37,-0.727 0.424,-0.727C0.474,-0.727 0.523,-0.718 0.572,-0.701C0.62,-0.683 0.659,-0.657 0.689,-0.623L0.573,-0.507C0.557,-0.529 0.536,-0.545 0.51,-0.556C0.484,-0.567 0.457,-0.572 0.43,-0.572C0.4,-0.572 0.373,-0.567 0.348,-0.556C0.323,-0.545 0.301,-0.529 0.283,-0.51C0.265,-0.491 0.251,-0.468 0.241,-0.442C0.231,-0.415 0.226,-0.386 0.226,-0.355C0.226,-0.323 0.231,-0.294 0.241,-0.267C0.251,-0.24 0.265,-0.218 0.283,-0.199C0.3,-0.18 0.321,-0.165 0.346,-0.154C0.371,-0.143 0.398,-0.138 0.427,-0.138C0.461,-0.138 0.491,-0.145 0.516,-0.158C0.541,-0.171 0.562,-0.189 0.577,-0.21L0.696,-0.098Z" style="fill:white;fill-rule:nonzero;"/></g><g transform="matrix(63.4714,-38.4378,33.4252,60.443,1354.66,1511.79)"><path d="M0.073,-0L0.073,-0.708L0.549,-0.708L0.549,-0.563L0.238,-0.563L0.238,-0.43L0.532,-0.43L0.532,-0.293L0.238,-0.293L0.238,-0.146L0.567,-0.146L0.567,-0L0.073,-0Z" style="fill:white;fill-rule:nonzero;"/></g></g><g transform="matrix(0.969951,0.0109135,-0.0115535,1.02683,57.6089,-8.59031)"><g transform="matrix(48.6861,-54.6332,52.053,41.3905,547.647,1065.1)"><path d="M0.376,-0.562L0.376,-0L0.205,-0L0.205,-0.562L0.005,-0.562L0.005,-0.708L0.576,-0.708L0.576,-0.562L0.376,-0.562Z" style="fill:white;fill-rule:nonzero;"/></g><g transform="matrix(54.5545,-49.4387,47.1039,46.3794,590,1014.17)"><path d="M0.811,-0.357C0.811,-0.301 0.801,-0.25 0.782,-0.204C0.763,-0.157 0.736,-0.118 0.702,-0.085C0.667,-0.052 0.626,-0.026 0.579,-0.008C0.532,0.01 0.48,0.019 0.425,0.019C0.37,0.019 0.319,0.01 0.272,-0.008C0.225,-0.026 0.184,-0.052 0.15,-0.085C0.115,-0.118 0.088,-0.157 0.069,-0.204C0.05,-0.25 0.04,-0.301 0.04,-0.357C0.04,-0.414 0.05,-0.465 0.069,-0.511C0.088,-0.556 0.115,-0.595 0.15,-0.627C0.184,-0.659 0.225,-0.684 0.272,-0.701C0.319,-0.718 0.37,-0.727 0.425,-0.727C0.48,-0.727 0.532,-0.718 0.579,-0.701C0.626,-0.684 0.667,-0.659 0.702,-0.627C0.736,-0.595 0.763,-0.556 0.782,-0.511C0.801,-0.465 0.811,-0.414 0.811,-0.357ZM0.628,-0.357C0.628,-0.388 0.623,-0.416 0.613,-0.443C0.603,-0.47 0.589,-0.493 0.572,-0.512C0.554,-0.531 0.533,-0.546 0.508,-0.557C0.483,-0.568 0.455,-0.573 0.425,-0.573C0.395,-0.573 0.368,-0.568 0.343,-0.557C0.318,-0.546 0.297,-0.531 0.279,-0.512C0.261,-0.493 0.247,-0.47 0.238,-0.443C0.228,-0.416 0.223,-0.388 0.223,-0.357C0.223,-0.325 0.228,-0.296 0.238,-0.269C0.248,-0.242 0.262,-0.218 0.28,-0.199C0.297,-0.18 0.318,-0.165 0.343,-0.154C0.368,-0.142 0.395,-0.137 0.425,-0.137C0.455,-0.137 0.482,-0.142 0.507,-0.154C0.532,-0.165 0.553,-0.18 0.571,-0.199C0.589,-0.218 0.603,-0.242 0.613,-0.269C0.623,-0.296 0.628,-0.325 0.628,-0.357Z" style="fill:white;fill-rule:nonzero;"/></g><g transform="matrix(62.5121,-40.1616,38.2649,53.1446,656.799,960.873)"><path d="M0.673,-0.267C0.673,-0.224 0.666,-0.186 0.652,-0.151C0.637,-0.116 0.617,-0.086 0.59,-0.061C0.563,-0.035 0.531,-0.016 0.494,-0.002C0.456,0.012 0.414,0.019 0.368,0.019C0.321,0.019 0.279,0.012 0.242,-0.002C0.205,-0.016 0.173,-0.035 0.147,-0.061C0.121,-0.086 0.101,-0.116 0.087,-0.151C0.073,-0.186 0.066,-0.224 0.066,-0.267L0.066,-0.708L0.236,-0.708L0.236,-0.281C0.236,-0.262 0.239,-0.243 0.244,-0.226C0.249,-0.209 0.256,-0.193 0.267,-0.18C0.277,-0.166 0.291,-0.155 0.308,-0.147C0.325,-0.139 0.345,-0.135 0.369,-0.135C0.393,-0.135 0.413,-0.139 0.431,-0.147C0.448,-0.155 0.461,-0.166 0.472,-0.18C0.483,-0.193 0.49,-0.209 0.495,-0.226C0.5,-0.243 0.502,-0.262 0.502,-0.281L0.502,-0.708L0.673,-0.708L0.673,-0.267Z" style="fill:white;fill-rule:nonzero;"/></g><g transform="matrix(68.5184,-30.1781,28.7529,58.2509,722.459,921.001)"><path d="M0.452,-0L0.299,-0.281L0.241,-0.281L0.241,-0L0.073,-0L0.073,-0.708L0.343,-0.708C0.377,-0.708 0.41,-0.705 0.443,-0.698C0.475,-0.691 0.504,-0.679 0.53,-0.662C0.555,-0.645 0.576,-0.623 0.591,-0.596C0.606,-0.569 0.614,-0.535 0.614,-0.494C0.614,-0.446 0.601,-0.406 0.575,-0.373C0.549,-0.34 0.513,-0.317 0.467,-0.303L0.652,-0L0.452,-0ZM0.445,-0.491C0.445,-0.508 0.442,-0.521 0.435,-0.532C0.428,-0.542 0.419,-0.55 0.408,-0.556C0.397,-0.561 0.384,-0.565 0.371,-0.567C0.357,-0.569 0.344,-0.57 0.331,-0.57L0.24,-0.57L0.24,-0.405L0.321,-0.405C0.335,-0.405 0.349,-0.406 0.364,-0.409C0.379,-0.411 0.392,-0.415 0.404,-0.421C0.416,-0.427 0.426,-0.436 0.434,-0.447C0.441,-0.458 0.445,-0.473 0.445,-0.491Z" style="fill:white;fill-rule:nonzero;"/></g><g transform="matrix(74.4783,-12.2581,11.6792,63.3177,896.348,870.862)"><rect x="0.073" y="-0.708" width="0.172" height="0.708" style="fill:white;fill-rule:nonzero;"/></g><g transform="matrix(75.256,-6.80931,6.48773,63.9788,951.034,861.363)"><path d="M0.523,-0L0.238,-0.463L0.235,-0.463L0.239,-0L0.073,-0L0.073,-0.708L0.268,-0.708L0.552,-0.246L0.555,-0.246L0.551,-0.708L0.717,-0.708L0.717,-0L0.523,-0Z" style="fill:white;fill-rule:nonzero;"/></g><g transform="matrix(75.5679,2.09491,-1.99597,64.244,1034.96,853.822)"><path d="M0.702,-0.043C0.667,-0.025 0.627,-0.01 0.581,0.001C0.534,0.012 0.484,0.018 0.429,0.018C0.372,0.018 0.32,0.009 0.273,-0.009C0.225,-0.027 0.184,-0.052 0.15,-0.085C0.115,-0.118 0.088,-0.157 0.069,-0.203C0.05,-0.248 0.04,-0.299 0.04,-0.355C0.04,-0.412 0.05,-0.463 0.07,-0.509C0.089,-0.555 0.116,-0.594 0.151,-0.627C0.186,-0.659 0.226,-0.684 0.273,-0.701C0.32,-0.718 0.37,-0.727 0.424,-0.727C0.48,-0.727 0.532,-0.719 0.58,-0.702C0.628,-0.685 0.667,-0.662 0.697,-0.633L0.589,-0.51C0.572,-0.529 0.55,-0.545 0.523,-0.558C0.496,-0.57 0.465,-0.576 0.43,-0.576C0.4,-0.576 0.372,-0.571 0.347,-0.56C0.322,-0.549 0.3,-0.533 0.281,-0.514C0.262,-0.494 0.248,-0.47 0.238,-0.444C0.227,-0.417 0.222,-0.387 0.222,-0.355C0.222,-0.322 0.227,-0.292 0.236,-0.265C0.245,-0.238 0.259,-0.214 0.278,-0.195C0.296,-0.175 0.319,-0.16 0.346,-0.149C0.373,-0.137 0.403,-0.132 0.438,-0.132C0.458,-0.132 0.477,-0.134 0.495,-0.137C0.513,-0.14 0.53,-0.144 0.545,-0.151L0.545,-0.28L0.41,-0.28L0.41,-0.418L0.702,-0.418L0.702,-0.043Z" style="fill:white;fill-rule:nonzero;"/></g><g transform="matrix(72.5063,20.2213,-19.2664,61.6412,1173.21,872.381)"><path d="M0.696,-0.098C0.665,-0.062 0.626,-0.033 0.58,-0.013C0.534,0.008 0.481,0.019 0.421,0.019C0.366,0.019 0.316,0.01 0.27,-0.008C0.223,-0.026 0.183,-0.052 0.149,-0.085C0.115,-0.118 0.088,-0.157 0.069,-0.203C0.05,-0.249 0.04,-0.3 0.04,-0.355C0.04,-0.412 0.05,-0.463 0.07,-0.509C0.089,-0.555 0.116,-0.594 0.151,-0.627C0.186,-0.659 0.226,-0.684 0.273,-0.701C0.32,-0.718 0.37,-0.727 0.424,-0.727C0.474,-0.727 0.523,-0.718 0.572,-0.701C0.62,-0.683 0.659,-0.657 0.689,-0.623L0.573,-0.507C0.557,-0.529 0.536,-0.545 0.51,-0.556C0.484,-0.567 0.457,-0.572 0.43,-0.572C0.4,-0.572 0.373,-0.567 0.348,-0.556C0.323,-0.545 0.301,-0.529 0.283,-0.51C0.265,-0.491 0.251,-0.468 0.241,-0.442C0.231,-0.415 0.226,-0.386 0.226,-0.355C0.226,-0.323 0.231,-0.294 0.241,-0.267C0.251,-0.24 0.265,-0.218 0.283,-0.199C0.3,-0.18 0.321,-0.165 0.346,-0.154C0.371,-0.143 0.398,-0.138 0.427,-0.138C0.461,-0.138 0.491,-0.145 0.516,-0.158C0.541,-0.171 0.562,-0.189 0.577,-0.21L0.696,-0.098Z" style="fill:white;fill-rule:nonzero;"/></g><g transform="matrix(70.1448,26.6361,-25.3782,59.6336,1251.74,895.387)"><path d="M0.073,-0L0.073,-0.708L0.245,-0.708L0.245,-0.149L0.519,-0.149L0.519,-0L0.073,-0Z" style="fill:white;fill-rule:nonzero;"/></g><g transform="matrix(67.4222,32.3061,-30.7804,57.3189,1313.77,920.39)"><path d="M0.673,-0.267C0.673,-0.224 0.666,-0.186 0.652,-0.151C0.637,-0.116 0.617,-0.086 0.59,-0.061C0.563,-0.035 0.531,-0.016 0.494,-0.002C0.456,0.012 0.414,0.019 0.368,0.019C0.321,0.019 0.279,0.012 0.242,-0.002C0.205,-0.016 0.173,-0.035 0.147,-0.061C0.121,-0.086 0.101,-0.116 0.087,-0.151C0.073,-0.186 0.066,-0.224 0.066,-0.267L0.066,-0.708L0.236,-0.708L0.236,-0.281C0.236,-0.262 0.239,-0.243 0.244,-0.226C0.249,-0.209 0.256,-0.193 0.267,-0.18C0.277,-0.166 0.291,-0.155 0.308,-0.147C0.325,-0.139 0.345,-0.135 0.369,-0.135C0.393,-0.135 0.413,-0.139 0.431,-0.147C0.448,-0.155 0.461,-0.166 0.472,-0.18C0.483,-0.193 0.49,-0.209 0.495,-0.226C0.5,-0.243 0.502,-0.262 0.502,-0.281L0.502,-0.708L0.673,-0.708L0.673,-0.267Z" style="fill:white;fill-rule:nonzero;"/></g><g transform="matrix(62.0537,40.791,-38.8646,52.7549,1386.41,958.517)"><path d="M0.625,-0.206C0.625,-0.167 0.617,-0.135 0.602,-0.109C0.587,-0.082 0.566,-0.061 0.541,-0.045C0.516,-0.029 0.487,-0.018 0.455,-0.011C0.422,-0.004 0.389,-0 0.355,-0L0.073,-0L0.073,-0.708L0.355,-0.708C0.382,-0.708 0.41,-0.705 0.439,-0.7C0.468,-0.694 0.494,-0.684 0.517,-0.671C0.54,-0.657 0.559,-0.638 0.574,-0.615C0.589,-0.592 0.596,-0.562 0.596,-0.526C0.596,-0.487 0.585,-0.454 0.564,-0.429C0.543,-0.403 0.515,-0.384 0.48,-0.373L0.48,-0.371C0.5,-0.368 0.519,-0.362 0.537,-0.353C0.554,-0.343 0.57,-0.332 0.583,-0.318C0.596,-0.304 0.606,-0.288 0.614,-0.269C0.621,-0.25 0.625,-0.229 0.625,-0.206ZM0.431,-0.503C0.431,-0.527 0.422,-0.545 0.404,-0.556C0.385,-0.567 0.358,-0.572 0.322,-0.572L0.238,-0.572L0.238,-0.426L0.33,-0.426C0.362,-0.426 0.387,-0.432 0.405,-0.446C0.422,-0.459 0.431,-0.478 0.431,-0.503ZM0.454,-0.222C0.454,-0.251 0.443,-0.272 0.421,-0.283C0.399,-0.294 0.37,-0.3 0.333,-0.3L0.238,-0.3L0.238,-0.138L0.334,-0.138C0.347,-0.138 0.361,-0.139 0.376,-0.142C0.39,-0.144 0.403,-0.148 0.415,-0.154C0.426,-0.16 0.436,-0.169 0.443,-0.18C0.45,-0.191 0.454,-0.205 0.454,-0.222Z" style="fill:white;fill-rule:nonzero;"/></g></g><g transform="matrix(1,0,0,1,13,17)"><path d="M793.963,1610.37C781.819,1627.99 755.592,1634.6 736.029,1639.06C715.237,1643.8 659.203,1643.4 659.203,1643.4C659.203,1643.4 703.012,1668.76 723.097,1672.87C743.181,1676.98 766.766,1676.78 784.709,1671.05C812.01,1662.34 838.853,1648.22 838.853,1648.22C838.853,1648.22 848.079,1687.54 857.669,1703.8C870.793,1726.06 895.555,1764.18 916.073,1784.11C933.968,1801.5 947.294,1809.25 966.557,1817.4C982.753,1824.26 1010.46,1832.38 1027.96,1830.65C1046.36,1828.84 1073.34,1822.3 1081.97,1811.52C1092.89,1797.89 1095.3,1768.73 1072.64,1765.52C1040.77,1761.01 1043.39,1796.27 1021.95,1793.6C1010.53,1792.18 976.539,1769.99 959.986,1754.74C940.322,1736.61 920.181,1706.71 910.901,1683.02C902.911,1662.62 889.866,1612.32 889.551,1610.67C889.212,1608.91 808.697,1589.94 808.697,1589.94C808.697,1589.94 803.261,1596.88 793.963,1610.37Z" style="fill:white;stroke:rgb(221,221,221);stroke-width:17.31px;"/></g><g transform="matrix(1,0,0,1,-1,0)"><path d="M935.681,1031.33C935.681,1031.33 980.749,1014.16 1000,1004.54C1015.74,996.686 1044.95,974.383 1044.95,974.383C1044.95,974.383 1109.95,1013.04 1145.82,1023.52C1181.68,1033.99 1224.56,1038.12 1255.77,1037.66C1281.16,1037.28 1327.99,1016.77 1327.99,1016.77L1377.28,1074.07C1377.28,1074.07 1345.75,1116.85 1336.16,1142.13C1325.43,1170.45 1314.07,1219.68 1312.87,1244C1312.11,1259.3 1319.14,1280.48 1325.93,1288.07C1332.09,1294.95 1349.17,1286.22 1357.25,1289.13C1374.92,1295.5 1375.38,1310.87 1370.6,1321.53C1366.82,1329.97 1350.82,1336.63 1338.78,1338.27C1318.49,1341.01 1301.76,1332.16 1290.22,1321.92C1278.26,1311.32 1272.21,1297.52 1267.15,1279.4C1262.09,1261.28 1263.27,1238.86 1264.35,1220.49C1265.38,1203.12 1270.3,1169.17 1274.19,1152.22C1282.16,1117.55 1289.78,1092.67 1289.78,1092.67L1100.77,1091.11L1099.62,1564.35C1099.62,1564.35 1100.54,1636.55 1134.26,1670.93C1167.25,1704.58 1242.59,1729.88 1242.59,1729.88C1242.59,1729.88 1206.62,1745.92 1179.83,1746.77C1154.9,1747.55 1118.83,1734.98 1100.77,1724.47C1078.53,1711.52 1044.95,1663.66 1044.95,1663.66C1044.95,1663.66 1006.76,1709.3 985.149,1722.7C967.359,1733.73 940.473,1746.13 912.646,1746.77C889.87,1747.28 850.981,1729.88 850.981,1729.88C850.981,1729.88 923.429,1692.94 945.321,1671.96C988.824,1630.28 985.493,1564.74 985.493,1564.74L985.149,1090.95L939.421,1091.15L935.681,1031.33Z" style="fill:rgb(214,0,0);stroke:rgb(204,204,204);stroke-width:19.78px;stroke-linecap:square;"/></g><path d="M916.799,1477.76C921.254,1388.02 920.228,1288.26 920.228,1288.26L1126.12,1292.86C1126.12,1292.86 1159.06,1298.16 1178.88,1318.78C1189.57,1329.89 1196.63,1354.87 1198.05,1366.4C1199.68,1379.61 1197.99,1390.31 1180.12,1392.75C1157.27,1395.88 1150.4,1412.12 1157.27,1429.28C1161.13,1438.93 1173.74,1451.63 1191.83,1450.09C1205.36,1448.93 1230.52,1437.54 1240.4,1424.16C1251.39,1409.28 1258.78,1378.08 1256.07,1354.31C1253.24,1329.5 1233.22,1296.65 1220.29,1280.66C1209.49,1267.28 1186.56,1250.99 1186.56,1250.99C1186.56,1250.99 1213.34,1226.18 1216.23,1212.18C1219.12,1198.18 1220.2,1178.33 1207.81,1165.37C1201.37,1158.65 1185.42,1147.97 1185.42,1147.97C1185.42,1147.97 1183.93,1187.93 1163.05,1201.68C1142.13,1215.46 1113.24,1216.74 1113.24,1216.74L923.399,1217.35C923.399,1217.35 926.543,1078.5 915.467,1014.89C904.717,953.148 885.603,876.665 860.675,840.564C843.664,815.929 814.382,772.932 814.382,772.932L992.11,771.903C992.11,771.903 998.286,719.889 1042.4,719.889C1086.9,718.865 1097.33,772.87 1097.33,772.87L1266.31,772.734L1229.27,823.434L1309.33,848.584C1309.33,848.584 1342.19,815.944 1362.19,807.943C1377.34,801.88 1422.24,788.02 1422.24,788.02C1422.24,788.02 1365.65,755.506 1345.35,737.886C1330.57,725.06 1302.4,684.685 1302.4,684.685C1302.4,684.685 1234.45,714.957 1193.42,719.17C1156.57,722.954 1117.06,708.882 1117.06,708.882C1117.06,708.882 1131.23,676.787 1122.1,655.61C1112.12,632.484 1081.99,613.856 1042.4,613.739C993.48,613.594 968.249,633.716 959.313,651.271C948.336,672.835 966.737,707.566 966.737,707.566C966.737,707.566 920.172,715.952 872.433,713.199C818.859,710.109 767.318,683.801 767.318,683.801C767.318,683.801 744.16,716.946 723.253,739.789C706.278,758.335 659.014,788.81 659.014,788.81C659.014,788.81 737.561,813.801 764.97,842.342C792.697,871.213 820.405,923.548 831.051,969.203C845.516,1031.24 850.128,1132.48 851.76,1214.53C853.404,1297.19 849.98,1396.59 840.347,1462.56L916.799,1477.76Z" style="fill:white;stroke:rgb(221,221,221);stroke-width:17.31px;"/></g></g></g></svg>