<?xml version="1.0" encoding="UTF-8" standalone="no"?>
<!DOCTYPE svg PUBLIC "-//W3C//DTD SVG 1.1//EN" "http://www.w3.org/Graphics/SVG/1.1/DTD/svg11.dtd">
<svg width="100%" height="100%" viewBox="0 0 2087 1198" version="1.1" xmlns="http://www.w3.org/2000/svg" xmlns:xlink="http://www.w3.org/1999/xlink" xml:space="preserve" xmlns:serif="http://www.serif.com/" style="fill-rule:evenodd;clip-rule:evenodd;stroke-linecap:square;stroke-linejoin:round;stroke-miterlimit:1.5;">
    <g transform="matrix(0.834521,0,0,1,4.26326e-13,0)">
        <rect x="0" y="0" width="2500" height="1198" style="fill:rgb(235,235,235);"/>
    </g>
    <g transform="matrix(1,0,0,1,43.1519,-73.4723)">
        <g id="text">
            <g transform="matrix(1,0,0,1,9.08097,0.200714)">
                <g transform="matrix(27,0,0,27,1288.07,234.112)">
                </g>
                <text x="679.162px" y="234.112px" style="font-family:'HelveticaNeue-Bold', 'Helvetica Neue';font-weight:700;font-size:27px;">Mittelallalin 3500 m.ü.M - Saas Fee 1800 m.ü.M</text>
            </g>
            <g transform="matrix(1,0,0,1,-657.742,79.1183)">
                <g transform="matrix(27,0,0,27,766.642,234.112)">
                </g>
                <text x="679.162px" y="234.112px" style="font-family:'HelveticaNeue-Bold', 'Helvetica Neue';font-weight:700;font-size:27px;">m.ü.M</text>
            </g>
            <g transform="matrix(1,0,0,1,-647.886,144.969)">
                <g transform="matrix(27,0,0,27,739.21,234.112)">
                </g>
                <text x="679.162px" y="234.112px" style="font-family:'HelveticaNeue-Bold', 'Helvetica Neue';font-weight:700;font-size:27px;">3500</text>
            </g>
            <g transform="matrix(1,0,0,1,-647.886,238.257)">
                <g transform="matrix(27,0,0,27,739.21,234.112)">
                </g>
                <text x="679.162px" y="234.112px" style="font-family:'HelveticaNeue-Bold', 'Helvetica Neue';font-weight:700;font-size:27px;">3200</text>
            </g>
            <g transform="matrix(1,0,0,1,-647.886,306.611)">
                <g transform="matrix(27,0,0,27,739.21,234.112)">
                </g>
                <text x="679.162px" y="234.112px" style="font-family:'HelveticaNeue-Bold', 'Helvetica Neue';font-weight:700;font-size:27px;">3000</text>
            </g>
            <g transform="matrix(1,0,0,1,-647.968,345.511)">
                <g transform="matrix(27,0,0,27,739.21,234.112)">
                </g>
                <text x="679.162px" y="234.112px" style="font-family:'HelveticaNeue-Bold', 'Helvetica Neue';font-weight:700;font-size:27px;">2900</text>
            </g>
            <g transform="matrix(1,0,0,1,-647.968,424.166)">
                <g transform="matrix(27,0,0,27,739.21,234.112)">
                </g>
                <text x="679.162px" y="234.112px" style="font-family:'HelveticaNeue-Bold', 'Helvetica Neue';font-weight:700;font-size:27px;">2600</text>
            </g>
            <g transform="matrix(1,0,0,1,-647.968,588.627)">
                <g transform="matrix(27,0,0,27,739.21,234.112)">
                </g>
                <text x="679.162px" y="234.112px" style="font-family:'HelveticaNeue-Bold', 'Helvetica Neue';font-weight:700;font-size:27px;">2100</text>
            </g>
            <g transform="matrix(1,0,0,1,-649.399,652.739)">
                <g transform="matrix(27,0,0,27,739.21,234.112)">
                </g>
                <text x="679.162px" y="234.112px" style="font-family:'HelveticaNeue-Bold', 'Helvetica Neue';font-weight:700;font-size:27px;">1900</text>
            </g>
            <g transform="matrix(1,0,0,1,-649.399,703.92)">
                <g transform="matrix(27,0,0,27,739.21,234.112)">
                </g>
                <text x="679.162px" y="234.112px" style="font-family:'HelveticaNeue-Bold', 'Helvetica Neue';font-weight:700;font-size:27px;">1800</text>
            </g>
            <g transform="matrix(1,0,0,1,-505.345,803.099)">
                <g transform="matrix(27,0,0,27,748.66,234.112)">
                </g>
                <text x="679.162px" y="234.112px" style="font-family:'HelveticaNeue-Bold', 'Helvetica Neue';font-weight:700;font-size:27px;">500m</text>
            </g>
            <g transform="matrix(1,0,0,1,-263.25,803.1)">
                <g transform="matrix(27,0,0,27,763.672,234.112)">
                </g>
                <text x="679.162px" y="234.112px" style="font-family:'HelveticaNeue-Bold', 'Helvetica Neue';font-weight:700;font-size:27px;">1000m</text>
            </g>
            <g transform="matrix(1,0,0,1,-48.1482,803.1)">
                <g transform="matrix(27,0,0,27,748.66,234.112)">
                </g>
                <text x="679.162px" y="234.112px" style="font-family:'HelveticaNeue-Bold', 'Helvetica Neue';font-weight:700;font-size:27px;">250m</text>
            </g>
            <g transform="matrix(1,0,0,1,153.748,803.1)">
                <g transform="matrix(27,0,0,27,763.672,234.112)">
                </g>
                <text x="679.162px" y="234.112px" style="font-family:'HelveticaNeue-Bold', 'Helvetica Neue';font-weight:700;font-size:27px;">1150m</text>
            </g>
            <g transform="matrix(1,0,0,1,516.357,803.1)">
                <g transform="matrix(27,0,0,27,763.672,234.112)">
                </g>
                <text x="679.162px" y="234.112px" style="font-family:'HelveticaNeue-Bold', 'Helvetica Neue';font-weight:700;font-size:27px;">1000m</text>
            </g>
            <g transform="matrix(1,0,0,1,777.272,803.1)">
                <g transform="matrix(27,0,0,27,748.66,234.112)">
                </g>
                <text x="679.162px" y="234.112px" style="font-family:'HelveticaNeue-Bold', 'Helvetica Neue';font-weight:700;font-size:27px;">500m</text>
            </g>
            <g transform="matrix(1,0,0,1,1076.44,803.1)">
                <g transform="matrix(27,0,0,27,763.672,234.112)">
                </g>
                <text x="679.162px" y="234.112px" style="font-family:'HelveticaNeue-Bold', 'Helvetica Neue';font-weight:700;font-size:27px;">1300m</text>
            </g>
            <g transform="matrix(1,0,0,1,302.238,867.084)">
                <g transform="matrix(27,0,0,27,763.672,234.112)">
                </g>
                <text x="679.162px" y="234.112px" style="font-family:'HelveticaNeue-Bold', 'Helvetica Neue';font-weight:700;font-size:27px;">5700m</text>
            </g>
            <g transform="matrix(1,0,0,1,-483.335,73.3357)">
                <g transform="matrix(27,0,0,27,904.504,234.112)">
                </g>
                <text x="679.162px" y="234.112px" style="font-family:'HelveticaNeue-Bold', 'Helvetica Neue';font-weight:700;font-size:27px;">Start Mittelallalin</text>
            </g>
            <g transform="matrix(1,0,0,1,-38.2985,137.98)">
                <g transform="matrix(27,0,0,27,873.616,234.112)">
                </g>
                <text x="679.162px" y="234.112px" style="font-family:'HelveticaNeue-Bold', 'Helvetica Neue';font-weight:700;font-size:27px;">Panoramaplatz</text>
            </g>
            <g transform="matrix(1,0,0,1,27.0368,219.91)">
                <g transform="matrix(27,0,0,27,875.155,234.112)">
                </g>
                <text x="679.162px" y="234.112px" style="font-family:'HelveticaNeue-Bold', 'Helvetica Neue';font-weight:700;font-size:27px;">Panoramahang</text>
            </g>
            <g transform="matrix(1,0,0,1,472.97,327.102)">
                <g transform="matrix(27,0,0,27,781.168,234.112)">
                </g>
                <text x="679.162px" y="234.112px" style="font-family:'HelveticaNeue-Bold', 'Helvetica Neue';font-weight:700;font-size:27px;">Maste 4</text>
            </g>
            <g transform="matrix(1,0,0,1,217.337,947.693)">
                <g transform="matrix(27,0,0,27,931.126,234.112)">
                </g>
                <text x="679.162px" y="234.112px" style="font-family:'HelveticaNeue-Bold', 'Helvetica Neue';font-weight:700;font-size:27px;">Horizontale Distanz</text>
            </g>
            <g transform="matrix(1,0,0,1,807.623,506.121)">
                <g transform="matrix(27,0,0,27,854.176,234.112)">
                </g>
                <text x="679.162px" y="234.112px" style="font-family:'HelveticaNeue-Bold', 'Helvetica Neue';font-weight:700;font-size:27px;">Gr<tspan x="709.672px 726.169px " y="234.112px 234.112px ">os</tspan>ser Stein</text>
            </g>
            <g transform="matrix(1,0,0,1,1025.56,586.658)">
                <g transform="matrix(27,0,0,27,909.04,234.112)">
                </g>
                <text x="679.162px" y="234.112px" style="font-family:'HelveticaNeue-Bold', 'Helvetica Neue';font-weight:700;font-size:27px;">Ziel Alpin Expr<tspan x="864.544px 880.042px " y="234.112px 234.112px ">es</tspan>s</text>
            </g>
            <g transform="matrix(0.588674,0,0,0.588674,301.233,95.4247)">
                <g transform="matrix(90.912,0,0,90.912,1631.79,167.192)">
                </g>
                <text x="706.492px" y="167.192px" style="font-family:'HelveticaNeue-Bold', 'Helvetica Neue';font-weight:700;font-size:90.912px;">Glacier Bike Downhill</text>
            </g>
        </g>
    </g>
    <g transform="matrix(1,0,0,1,43.1519,-73.4723)">
        <path id="Axis" d="M128.689,389.366L128.689,947.928L2000,947.928" style="fill:none;stroke:black;stroke-width:5px;"/>
    </g>
    <g transform="matrix(1,0,0,1,-206.848,-23.4723)">
        <g id="lines">
            <g transform="matrix(1,0,0,1,250,-50)">
                <path d="M128.689,1142.53L128.689,947.928" style="fill:none;stroke:black;stroke-width:1px;stroke-linecap:round;"/>
            </g>
            <g transform="matrix(3.39059,0,0,3.39059,107.897,-2781.32)">
                <path d="M128.689,1142.53L128.689,947.928" style="fill:none;stroke:black;stroke-width:0.29px;stroke-linecap:round;"/>
            </g>
            <g transform="matrix(3.39059,0,0,3.39059,438.244,-2781.32)">
                <path d="M128.689,1142.53L128.689,968.543" style="fill:none;stroke:black;stroke-width:0.29px;stroke-linecap:round;"/>
            </g>
            <g transform="matrix(3.39059,0,0,3.39059,521.934,-2781.32)">
                <path d="M128.689,1142.53L128.689,978.418" style="fill:none;stroke:black;stroke-width:0.29px;stroke-linecap:round;"/>
            </g>
            <g transform="matrix(3.39059,0,0,3.39059,899.179,-2781.32)">
                <path d="M128.689,1142.53L128.689,1002.53" style="fill:none;stroke:black;stroke-width:0.29px;stroke-linecap:round;"/>
            </g>
            <g transform="matrix(3.39059,0,0,3.39059,1225.59,-2781.32)">
                <path d="M128.689,1142.53L128.689,1051.24" style="fill:none;stroke:black;stroke-width:0.29px;stroke-linecap:round;"/>
            </g>
            <g transform="matrix(3.39059,0,0,3.39059,1388.71,-2781.32)">
                <path d="M128.689,1142.53L128.689,1070.21" style="fill:none;stroke:black;stroke-width:0.29px;stroke-linecap:round;"/>
            </g>
            <g transform="matrix(1,0,0,1,250,-50)">
                <path d="M0,897.317L1574.82,897.317" style="fill:none;stroke:black;stroke-width:1px;stroke-linecap:round;"/>
            </g>
            <g transform="matrix(1,0,0,1,250,0.610473)">
                <path d="M0,897.317L2000,897.317" style="fill:none;stroke:black;stroke-width:1px;stroke-linecap:round;"/>
            </g>
            <g transform="matrix(1,0,0,1,250,-114.683)">
                <path d="M0,897.317L1411.92,897.317" style="fill:none;stroke:black;stroke-width:1px;stroke-linecap:round;"/>
            </g>
            <g transform="matrix(1,0,0,1,250,-278.671)">
                <path d="M0,897.317L1085.51,897.317" style="fill:none;stroke:black;stroke-width:1px;stroke-linecap:round;"/>
            </g>
            <g transform="matrix(1,0,0,1,250,-361.317)">
                <path d="M0,897.317L708.037,897.317" style="fill:none;stroke:black;stroke-width:1px;stroke-linecap:round;"/>
            </g>
            <g transform="matrix(1,0,0,1,250,-395.501)">
                <path d="M0,897.317L624.578,897.317" style="fill:none;stroke:black;stroke-width:1px;stroke-linecap:round;"/>
            </g>
            <g transform="matrix(1,0,0,1,250,-464.596)">
                <path d="M0,897.317L294.23,897.317" style="fill:none;stroke:black;stroke-width:1px;stroke-linecap:round;"/>
            </g>
            <g transform="matrix(1,0,0,1,250,-559.014)">
                <path d="M0,897.317L127.776,897.317" style="fill:none;stroke:black;stroke-width:1px;stroke-linecap:round;"/>
            </g>
            <g transform="matrix(1,0,0,1,250,-50)">
                <g transform="matrix(1,-0,-0,1,-43.1519,73.4723)">
                    <path d="M186.841,1030.41L171.841,1037.91L186.841,1045.41L186.841,1030.41Z"/>
                    <path d="M2028.15,1030.41L2043.15,1037.91L2028.15,1045.41L2028.15,1030.41Z"/>
                    <path d="M183.841,1037.91L2031.15,1037.91" style="fill:none;stroke:black;stroke-width:1px;stroke-linecap:round;"/>
                </g>
            </g>
            <g transform="matrix(0.0910082,0,0,1,366.978,-114)">
                <g transform="matrix(10.988,-0,-0,1,-1759.51,137.472)">
                    <path d="M182.492,968.588L171.841,973.914L182.492,979.239L182.492,968.588Z"/>
                    <path d="M331.495,968.588L342.146,973.914L331.495,979.239L331.495,968.588Z"/>
                    <path d="M180.362,973.914L333.626,973.914" style="fill:none;stroke:black;stroke-width:0.71px;stroke-linecap:round;"/>
                </g>
            </g>
            <g transform="matrix(0.173987,0,0,1,526.604,-114)">
                <g transform="matrix(5.74755,-0,-0,1,-1837.81,137.472)">
                    <path d="M352.912,968.531L342.146,973.914L352.912,979.297L352.912,968.531Z"/>
                    <path d="M656.964,968.531L667.73,973.914L656.964,979.297L656.964,968.531Z"/>
                    <path d="M350.759,973.914L659.117,973.914" style="fill:none;stroke:black;stroke-width:0.72px;stroke-linecap:round;"/>
                </g>
            </g>
            <g transform="matrix(0.173987,0,0,1,325.906,-843.507)">
                <g transform="matrix(5.74755,-0,-0,1,-684.292,866.979)">
                    <path d="M181.463,292.074L177.698,303.507L189.103,299.66L181.463,292.074Z"/>
                    <path d="M183.766,297.395C198.765,282.289 236.377,244.407 236.377,244.407L455.357,244.407" style="fill:none;stroke:black;stroke-width:0.72px;stroke-linecap:round;"/>
                </g>
            </g>
            <g transform="matrix(0.173987,0,0,1,771.922,-775.049)">
                <g transform="matrix(5.74755,-0,-0,1,-3247.79,798.521)">
                    <path d="M616.971,421.808L616.552,433.837L626.427,426.954L616.971,421.808Z"/>
                    <path d="M620.669,426.272C635.082,399.791 682.393,312.865 682.393,312.865L877.876,312.865" style="fill:none;stroke:black;stroke-width:0.72px;stroke-linecap:round;"/>
                </g>
            </g>
            <g transform="matrix(0.173987,0,0,1,839.842,-693.036)">
                <g transform="matrix(5.74755,-0,-0,1,-3638.17,716.509)">
                    <path d="M717.354,460.792L718.233,472.797L727.309,464.891L717.354,460.792Z"/>
                    <path d="M721.512,464.832C729.685,444.979 750.313,394.877 750.313,394.877L943.724,394.877" style="fill:none;stroke:black;stroke-width:0.72px;stroke-linecap:round;"/>
                </g>
            </g>
            <g transform="matrix(0.173987,0,0,1,1282.47,-590.305)">
                <g transform="matrix(5.74755,-0,-0,1,-6182.21,613.778)">
                    <path d="M1148.28,563.516L1147.51,575.528L1157.58,568.939L1148.28,563.516Z"/>
                    <path d="M1151.85,568.087C1163.2,548.608 1192.94,497.608 1192.94,497.608L1296.86,497.608" style="fill:none;stroke:black;stroke-width:0.72px;stroke-linecap:round;"/>
                </g>
            </g>
            <g transform="matrix(0.173987,0,0,1,1611.76,-410.722)">
                <g transform="matrix(5.74755,-0,-0,1,-8074.78,434.194)">
                    <path d="M1475.7,726.261L1473.13,738.02L1484.08,733.023L1475.7,726.261Z"/>
                    <path d="M1478.54,731.318C1491.3,715.505 1522.23,677.192 1522.23,677.192L1703.49,677.192" style="fill:none;stroke:black;stroke-width:0.72px;stroke-linecap:round;"/>
                </g>
            </g>
            <g transform="matrix(-0.173987,0,0,1,2302.75,-325.454)">
                <g transform="matrix(-5.74755,0,0,1,12046.3,348.926)">
                    <path d="M2032.56,848.535L2043.15,854.243L2041.36,842.341L2032.56,848.535Z"/>
                    <path d="M2038.2,847.199C2023.08,825.712 1978.58,762.46 1978.58,762.46L1748.5,762.46" style="fill:none;stroke:black;stroke-width:0.72px;stroke-linecap:round;"/>
                </g>
            </g>
            <g transform="matrix(0.0447222,0,0,1,868.823,-114)">
                <g transform="matrix(22.3603,-0,-0,1,-14801.9,137.472)">
                    <path d="M678.347,968.605L667.73,973.914L678.347,979.222L678.347,968.605Z"/>
                    <path d="M740.802,968.605L751.419,973.914L740.802,979.222L740.802,968.605Z"/>
                    <path d="M676.223,973.914L742.925,973.914" style="fill:none;stroke:black;stroke-width:0.71px;stroke-linecap:round;"/>
                </g>
            </g>
            <g transform="matrix(0.201594,0,0,1,932.324,-114)">
                <g transform="matrix(4.96045,-0,-0,1,-3598.69,137.472)">
                    <path d="M762.239,968.504L751.419,973.914L762.239,979.324L762.239,968.504Z"/>
                    <path d="M1117.85,968.504L1128.66,973.914L1117.85,979.324L1117.85,968.504Z"/>
                    <path d="M760.075,973.914L1120.01,973.914" style="fill:none;stroke:black;stroke-width:0.72px;stroke-linecap:round;"/>
                </g>
            </g>
            <g transform="matrix(0.174615,0,0,0.866168,1313.04,34.7389)">
                <g transform="matrix(5.72689,-0,-0,1.15451,-6335.05,-13.0075)">
                    <path d="M1138.04,969.228L1128.66,973.914L1138.04,978.6L1138.04,969.228Z"/>
                    <path d="M1446.05,969.228L1455.42,973.914L1446.05,978.6L1446.05,969.228Z"/>
                    <path d="M1136.16,973.914L1447.93,973.914" style="fill:none;stroke:black;stroke-width:0.62px;stroke-linecap:round;"/>
                </g>
            </g>
            <g transform="matrix(0.0869856,0,0,0.866168,1651.08,34.7389)">
                <g transform="matrix(11.4961,-0,-0,1.15451,-16603.1,-13.0075)">
                    <path d="M1464.66,969.297L1455.42,973.914L1464.66,978.53L1464.66,969.297Z"/>
                    <path d="M1608.97,969.297L1618.2,973.914L1608.97,978.53L1608.97,969.297Z"/>
                    <path d="M1462.81,973.914L1610.81,973.914" style="fill:none;stroke:black;stroke-width:0.62px;stroke-linecap:round;"/>
                </g>
            </g>
            <g transform="matrix(0.227088,0,0,0.866168,1795.82,34.7389)">
                <g transform="matrix(4.40359,-0,-0,1.15451,-6997.19,-13.0075)">
                    <path d="M1627.7,969.165L1618.2,973.914L1627.7,978.662L1627.7,969.165Z"/>
                    <path d="M2033.65,969.165L2043.15,973.914L2033.65,978.662L2033.65,969.165Z"/>
                    <path d="M1625.8,973.914L2035.55,973.914" style="fill:none;stroke:black;stroke-width:0.63px;stroke-linecap:round;"/>
                </g>
            </g>
        </g>
    </g>
    <g transform="matrix(1,0,0,1,-79.9006,-157.122)">
        <g id="legend">
            <g id="GLETSCHE" transform="matrix(1,0,0,1,1721.89,72.6097)">
                <path d="M128.689,387.303L184.407,387.06" style="fill:none;stroke:black;stroke-width:5px;"/>
            </g>
            <g id="MORAN" transform="matrix(1,0,0,1,529.257,-150.062)">
                <path d="M1321.33,666.394L1377.04,666.435" style="fill:none;stroke:black;stroke-width:5px;stroke-linecap:butt;stroke-linejoin:bevel;stroke-dasharray:5,5;"/>
            </g>
            <g id="MORAN1" serif:id="MORAN" transform="matrix(1,0,0,1,529.257,-95.2241)">
                <path d="M1321.33,666.394L1377.04,666.435" style="fill:none;stroke:black;stroke-width:5px;stroke-linejoin:bevel;stroke-dasharray:10,10,10,10;"/>
            </g>
            <g transform="matrix(1,0,0,1,1253.3,233.932)">
                <text x="679.162px" y="234.112px" style="font-family:'HelveticaNeue-Bold', 'Helvetica Neue';font-weight:700;font-size:27px;">Gletscher</text>
                <text x="679.162px" y="289.678px" style="font-family:'HelveticaNeue-Bold', 'Helvetica Neue';font-weight:700;font-size:27px;">Moran</text>
                <g transform="matrix(27,0,0,27,735.106,345.244)">
                </g>
                <text x="679.162px" y="345.244px" style="font-family:'HelveticaNeue-Bold', 'Helvetica Neue';font-weight:700;font-size:27px;">W<tspan x="703.111px 718.609px " y="345.244px 345.244px ">eg</tspan></text>
            </g>
        </g>
    </g>
    <g transform="matrix(1,0,0,1,43.1519,-73.4723)">
        <path id="GLETSCHE1" serif:id="GLETSCHE" d="M128.689,387.303L295.475,482.722L625.883,551.817L709,586.007L1085.51,667.859" style="fill:none;stroke:black;stroke-width:5px;"/>
    </g>
    <g transform="matrix(1,0,0,1,43.1519,-73.4723)">
        <path id="MORAN2" serif:id="MORAN" d="M1084.62,667.859L1412.51,833.023" style="fill:none;stroke:black;stroke-width:5px;stroke-linecap:butt;stroke-linejoin:bevel;stroke-dasharray:5,5;"/>
    </g>
    <g transform="matrix(1,0,0,1,43.1519,-73.4723)">
        <path id="WEG" d="M1412.51,833.023L1575.05,898.894L2000,947.928" style="fill:none;stroke:black;stroke-width:5px;stroke-dasharray:10,10,10,10;"/>
    </g>
</svg>
