<?xml version="1.0" encoding="UTF-8" standalone="no"?><!DOCTYPE svg PUBLIC "-//W3C//DTD SVG 1.1//EN" "http://www.w3.org/Graphics/SVG/1.1/DTD/svg11.dtd"><svg width="2126px" height="2953px" version="1.1" xmlns="http://www.w3.org/2000/svg" xmlns:xlink="http://www.w3.org/1999/xlink" xml:space="preserve" xmlns:serif="http://www.serif.com/" style="fill-rule:evenodd;clip-rule:evenodd;stroke-miterlimit:1;"><g transform="matrix(1,0,0,1,-185.276,-354.331)"><g transform="matrix(0.973152,0,0,1.06348,12.8668,-235.041)"><rect x="177.165" y="554.194" width="2184.64" height="2776.51" style="fill:white;"/></g><g transform="matrix(0.912326,0,0,0.912326,-528.436,-161.491)"><g transform="matrix(1.38901,0,0,1.38901,325.421,-470.984)"><path d="M1560.6,2833.26C1561.9,2846.81 1551.96,2858.86 1538.41,2860.16C1524.86,2861.46 1512.81,2851.52 1511.51,2837.97L1505.51,2775.48L1497.88,2699.5C1497.17,2692.53 1499.47,2685.59 1504.19,2680.42L1566.51,2612.07C1567.53,2610.95 1568.66,2609.93 1569.87,2609.01L1612.89,2576.52L1630.88,2535.12L1624.84,2512.3L1554.98,2529.54L1493.57,2550.03C1489.02,2551.54 1484.12,2551.7 1479.49,2550.48L1379.89,2524.27C1377.37,2523.6 1374.97,2522.55 1372.78,2521.13L1300.36,2474.3L1204.43,2440.1C1191.61,2435.52 1184.91,2421.41 1189.49,2408.59C1194.06,2395.76 1208.18,2389.07 1221,2393.64L1319.62,2428.81C1321.42,2429.45 1323.13,2430.3 1324.73,2431.33L1396.25,2477.57L1484.93,2500.91L1540.31,2482.44C1540.94,2482.24 1541.57,2482.05 1542.21,2481.9L1636.58,2458.6C1649.64,2455.38 1662.89,2463.23 1666.33,2476.24L1680.75,2530.79C1682.16,2536.15 1681.73,2541.83 1679.52,2546.92L1655.54,2602.12C1653.85,2606.02 1651.17,2609.41 1647.78,2611.97L1601.41,2646.99C1601.41,2646.99 1548.05,2705.52 1548.05,2705.52L1554.59,2770.6C1554.59,2770.64 1554.6,2770.67 1554.6,2770.71L1560.6,2833.26Z" style="fill:rgb(204,204,204);"/></g><g transform="matrix(1.38901,0,0,1.38901,325.421,-470.984)"><path d="M1188.29,2361.5C1195.83,2372.83 1192.76,2388.15 1181.42,2395.7C1170.1,2403.24 1154.78,2400.16 1147.23,2388.83L1079.39,2286.94C1076.14,2282.05 1074.74,2276.17 1075.43,2270.34L1085.56,2185.69L1047.88,2098.48C1043.83,2089.11 1045.97,2078.22 1053.27,2071.08L1112.88,2012.71L1119.83,1949.45C1120.54,1942.9 1123.85,1936.91 1129.02,1932.82C1129.02,1932.82 1170.49,1899.94 1170.49,1899.94L1161.65,1851.12L1092.1,1845.11C1087.46,1844.71 1083.04,1843.01 1079.33,1840.2L1018.79,1794.36L957.898,1751.48C952.217,1747.47 948.487,1741.26 947.626,1734.37L938.199,1658.82C936.513,1645.32 946.11,1632.99 959.615,1631.3C973.121,1629.61 985.454,1639.21 987.139,1652.72L995.216,1717.43L1047.54,1754.28C1047.77,1754.44 1048,1754.61 1048.23,1754.78L1103.43,1796.59L1184.67,1803.61C1195.76,1804.57 1204.83,1812.83 1206.82,1823.78L1221.66,1905.68C1223.28,1914.63 1219.84,1923.75 1212.71,1929.4C1212.71,1929.4 1167.73,1965.07 1167.73,1965.07L1160.94,2026.86C1160.32,2032.52 1157.75,2037.8 1153.68,2041.78L1099.87,2094.47L1133.48,2172.23C1135.2,2176.23 1135.84,2180.62 1135.33,2184.94L1125.49,2267.18L1188.29,2361.5Z" style="fill:rgb(204,204,204);"/></g><g transform="matrix(1.38901,0,0,1.38901,325.421,-470.984)"><path d="M1029.99,790.135C1034.21,777.197 1048.15,770.124 1061.08,774.349C1074.02,778.575 1081.1,792.509 1076.87,805.447L1046.5,898.436L1082.21,968.549L1173.46,1044.72C1178.28,1048.75 1181.39,1054.46 1182.14,1060.7L1192.4,1145.75L1301.19,1240.3C1309.42,1247.45 1311.97,1259.15 1307.48,1269.08L1278.66,1332.75L1287.82,1381.65C1289.49,1390.6 1286.1,1399.74 1279,1405.43C1271.89,1411.12 1262.23,1412.44 1253.86,1408.85C1253.86,1408.85 1160.49,1368.82 1160.49,1368.82C1160.49,1368.82 1114.48,1403.43 1114.48,1403.43L1139.25,1456.58C1142.8,1464.18 1142.23,1473.07 1137.74,1480.17C1133.26,1487.27 1125.47,1491.59 1117.08,1491.65L1050.86,1492.13L994.305,1502.46C994.305,1502.46 899.948,1527.31 899.948,1527.31L939.682,1609.86C945.585,1622.12 940.421,1636.87 928.157,1642.78C915.894,1648.68 901.145,1643.51 895.242,1631.25L842.546,1521.77C839.353,1515.14 839.29,1507.43 842.374,1500.75C845.458,1494.06 851.366,1489.11 858.484,1487.23L982.66,1454.52C983.272,1454.36 983.89,1454.22 984.512,1454.11L1044.11,1443.23C1045.51,1442.97 1046.93,1442.84 1048.36,1442.83L1078.33,1442.61L1061.34,1406.15C1056.41,1395.59 1059.55,1383.03 1068.86,1376.03L1142.25,1320.82C1149.31,1315.51 1158.67,1314.38 1166.79,1317.86C1166.79,1317.86 1230.84,1345.32 1230.84,1345.32L1228.76,1334.19C1227.83,1329.22 1228.44,1324.09 1230.53,1319.48C1230.53,1319.48 1254.97,1265.48 1254.97,1265.48L1152.88,1176.75C1148.26,1172.74 1145.3,1167.15 1144.57,1161.09L1134.35,1076.32L1046.73,1003.17C1044.17,1001.04 1042.07,998.405 1040.56,995.436L997.905,911.702C994.931,905.864 994.403,899.082 996.437,892.853L1029.99,790.135Z" style="fill:rgb(204,204,204);"/></g><g id="Map" transform="matrix(1.34694,0,0,1.34694,262.15,27.1201)"><g id="borders" transform="matrix(1.70163,0,0,1.70163,346.577,297.004)"><path id="BORDER" d="M779.623,1332.47C780.33,1324.69 771.454,1307.37 770.746,1300.3C770.039,1293.23 769.332,1288.98 768.625,1285.45C767.918,1281.91 765.09,1280.5 765.09,1280.5L761.554,1273.43C761.554,1273.43 762.347,1266.69 763.054,1263.86C763.761,1261.04 771.539,1249.02 771.539,1249.02C771.539,1249.02 772.868,1246.56 777.11,1246.56C781.353,1246.56 794.788,1242.32 791.96,1240.9C789.131,1239.49 788.424,1231 788.424,1231L792.667,1223.93C792.667,1223.93 790.545,1218.27 794.081,1215.44C797.616,1212.62 805.395,1210.5 805.395,1210.5C805.395,1210.5 813.173,1214.03 819.537,1205.55C825.901,1197.06 829.436,1196.35 830.85,1190.7C832.265,1185.04 832.265,1184.33 831.558,1180.09C830.85,1175.85 831.558,1167.36 831.558,1167.36C831.558,1167.36 835.8,1168.78 836.507,1165.95C837.214,1163.12 844.285,1160.29 844.285,1160.29C844.285,1160.29 849.235,1156.05 849.235,1153.22C849.235,1150.39 851.357,1146.15 851.357,1146.15C851.357,1146.15 852.064,1139.08 849.942,1136.25C847.821,1133.42 841.457,1122.11 841.457,1122.11C841.457,1122.11 837.214,1119.99 834.386,1117.16C831.558,1114.33 834.386,1106.55 834.386,1106.55L835.8,1100.89C835.8,1100.89 828.022,1100.19 830.85,1098.07C833.679,1095.94 837.922,1093.12 837.922,1093.12C837.922,1093.12 836.507,1088.87 836.507,1087.11C836.507,1085.34 838.275,1083.92 834.032,1083.92C829.79,1083.92 821.658,1083.57 821.658,1083.57C821.658,1083.57 815.648,1084.28 815.648,1087.81C815.648,1091.35 814.941,1095.24 812.466,1097.01C809.991,1098.77 807.869,1100.54 806.455,1099.48C805.041,1098.42 803.627,1097.36 801.506,1098.07C799.384,1098.77 797.616,1100.89 793.02,1098.42C788.424,1095.94 789.485,1095.94 787.717,1098.77C785.949,1101.6 779.585,1103.02 779.585,1103.02C779.585,1103.02 776.403,1098.42 775.343,1101.25C774.282,1104.08 777.464,1109.03 771.1,1106.55C764.736,1104.08 766.857,1100.54 762.615,1103.72C758.372,1106.9 765.09,1107.96 756.251,1108.67C747.412,1109.38 749.533,1107.26 746.705,1110.44C743.876,1113.62 745.998,1112.91 739.634,1112.21C733.27,1111.5 735.038,1105.84 733.27,1111.5C731.502,1117.16 731.502,1120.69 731.502,1120.69C731.502,1120.69 725.492,1118.22 723.37,1117.16C721.249,1116.1 721.956,1114.33 717.36,1114.33C712.764,1114.33 711.703,1117.51 707.46,1117.51C703.218,1117.51 698.268,1113.62 698.268,1111.5C698.268,1109.38 701.096,1106.2 696.147,1104.08C691.197,1101.95 685.54,1101.25 685.54,1101.25C685.54,1101.25 679.176,1102.31 677.408,1102.31C675.641,1102.31 671.398,1104.43 671.398,1104.43L668.923,1101.25C668.923,1101.25 667.862,1101.95 664.68,1100.19C661.498,1098.42 663.973,1097.71 660.791,1096.65C657.609,1095.59 655.488,1092.41 655.488,1090.29C655.488,1088.17 650.538,1086.05 650.538,1086.05C650.538,1086.05 649.124,1090.29 647.003,1088.17C644.881,1086.05 645.588,1084.28 642.76,1083.57C639.932,1082.86 637.81,1080.03 637.81,1080.03L635.335,1076.5C635.335,1076.5 633.214,1072.26 632.507,1070.84C631.8,1069.43 627.557,1070.13 627.557,1070.13C627.557,1070.13 626.497,1068.72 623.668,1067.66C620.84,1066.6 619.072,1067.66 617.304,1068.72C615.536,1069.78 612.708,1070.84 612.708,1070.84C612.708,1070.84 607.405,1065.18 604.576,1062C601.748,1058.82 595.384,1058.82 595.384,1058.82C595.384,1058.82 594.677,1057.05 592.555,1055.29C590.434,1053.52 586.899,1052.1 585.131,1052.46C583.363,1052.81 583.363,1055.64 580.535,1054.58C577.706,1053.52 578.413,1052.1 575.938,1053.87C573.464,1055.64 572.756,1058.82 571.342,1057.05C569.928,1055.29 565.332,1051.4 565.332,1051.4C565.332,1051.4 563.211,1054.58 559.675,1050.69C556.139,1046.8 554.372,1043.62 554.018,1041.5C553.665,1039.38 554.018,1037.96 554.725,1035.49C555.432,1033.01 556.139,1032.31 554.018,1029.12C551.897,1025.94 557.907,1025.94 552.958,1023.47C548.008,1020.99 545.179,1019.58 545.179,1019.58C545.179,1019.58 542.351,1023.11 542.351,1020.99C542.351,1018.87 544.472,1017.1 542.704,1016.04C540.937,1014.98 540.583,1014.98 538.815,1015.33C537.048,1015.69 537.755,1012.86 538.108,1011.45C538.462,1010.03 541.29,1007.91 538.108,1004.02C534.926,1000.13 535.987,1000.13 531.391,997.656C526.795,995.181 526.795,996.242 526.441,994.828C526.087,993.414 523.613,989.525 523.613,989.525C521.491,987.757 523.613,986.696 522.198,984.221C520.784,981.746 519.37,981.746 519.37,981.746C519.37,981.746 516.895,976.443 513.36,976.797C509.824,977.15 508.41,980.332 509.47,976.089C510.531,971.847 511.238,965.836 511.238,965.836C511.238,965.836 510.885,963.715 511.238,960.18C511.592,956.644 514.067,956.644 512.652,953.816C511.238,950.987 510.885,950.987 511.238,948.159C511.592,945.33 508.41,944.623 511.592,943.563C514.774,942.502 514.774,944.27 516.188,942.502C517.602,940.734 519.016,940.027 519.016,940.027C519.016,940.027 523.966,944.27 525.38,942.148C526.795,940.027 526.087,937.906 527.855,938.613C529.623,939.32 533.159,939.32 533.159,939.32L530.684,935.431C530.684,935.431 530.684,932.249 528.916,931.188C527.148,930.128 524.32,928.006 524.32,928.006C524.32,928.006 521.138,931.188 519.016,924.471C516.895,917.753 514.42,915.278 514.42,915.278C514.42,915.278 508.41,918.46 506.288,911.743C504.167,905.025 506.996,906.086 504.167,904.672C501.339,903.257 504.874,911.743 500.985,902.55C497.096,893.358 496.743,892.297 496.035,888.762C495.328,885.226 495.328,883.812 494.975,881.337C494.621,878.862 492.853,878.155 495.682,876.741C498.51,875.327 501.339,874.266 501.339,870.731C501.339,867.195 502.046,865.427 502.046,865.427C502.046,865.427 505.228,867.549 506.642,866.134C508.056,864.72 512.652,864.72 512.652,864.72C512.652,864.72 515.127,861.538 516.541,861.185C517.956,860.831 518.309,862.245 519.016,860.478C519.723,858.71 524.32,854.467 524.32,854.467C524.32,854.467 527.855,854.821 527.855,851.992L527.855,844.568L530.684,836.789L535.28,831.133C535.28,831.133 530.684,826.89 536.34,827.597C541.997,828.304 542.704,826.183 542.704,826.183C542.704,826.183 542.351,823.001 540.583,823.001C538.815,823.001 537.755,819.819 537.048,818.405C536.34,816.99 536.694,813.101 535.633,811.334C534.573,809.566 528.916,809.919 532.098,807.445C535.28,804.97 537.048,804.263 537.755,801.788C538.462,799.313 537.401,795.777 538.815,794.717C540.23,793.656 539.169,794.009 541.997,793.302C544.826,792.595 549.422,788.706 551.897,787.646C554.372,786.585 553.665,785.878 555.786,787.292C557.907,788.706 569.928,787.292 569.928,787.292C569.928,787.292 575.231,793.302 577.706,793.302C580.181,793.302 586.899,791.535 586.899,790.12C586.899,788.706 587.252,783.756 586.192,781.989C585.131,780.221 582.302,775.978 582.302,773.503C582.302,771.029 577.353,773.503 575.938,771.029C574.524,768.554 567.807,765.018 566.746,762.19C565.685,759.361 565.332,762.19 565.332,757.947C565.332,753.704 564.271,750.876 564.271,750.876C564.271,750.876 566.393,749.815 565.332,746.633C564.271,743.451 562.15,736.027 562.15,736.027C562.15,736.027 560.029,732.491 558.261,731.077C556.493,729.663 554.372,729.309 555.786,727.188C557.2,725.067 560.382,717.288 562.15,715.874C563.918,714.46 562.15,714.106 562.857,712.339C563.564,710.571 564.978,709.51 564.978,709.51C564.978,709.51 563.564,708.803 561.796,707.742C560.029,706.682 558.968,704.914 559.321,701.732C559.675,698.55 559.321,697.843 555.786,697.489C552.25,697.136 553.665,697.843 549.776,696.075C545.886,694.307 541.997,694.661 541.997,694.661C541.997,694.661 538.815,693.247 535.987,690.418C533.159,687.59 525.027,683.701 524.32,686.529C523.613,689.358 519.37,693.6 519.37,693.6L513.713,694.307C513.713,694.307 514.42,695.368 510.178,695.368C505.935,695.368 504.167,693.6 504.167,693.6L498.51,693.954L493.561,689.004C493.561,689.004 491.086,690.418 487.55,687.59C484.015,684.761 482.247,681.226 480.125,680.519C478.004,679.812 475.883,681.226 473.762,676.983C471.64,672.741 473.762,673.801 470.933,670.973C468.105,668.144 463.862,667.437 462.801,665.67C461.741,663.902 462.094,662.134 458.559,662.134L451.841,662.134L443.695,656.649C443.695,656.649 429.427,651.174 431.195,647.992C432.963,644.81 431.902,645.517 432.963,644.81C434.023,644.103 432.963,641.628 432.963,639.86C432.963,638.092 430.255,630.764 432.377,627.582C434.498,624.4 434.852,619.45 434.852,619.45C441.887,610.296 440.656,604.572 442.695,603.48C442.695,603.48 449.366,597.787 448.306,596.373C447.245,594.959 445.477,593.898 443.356,593.898C441.235,593.898 434.871,592.838 434.871,592.838L422.496,592.838C422.496,592.838 419.668,596.373 417.9,591.423C416.132,586.474 414.365,586.827 416.132,584.352C417.9,581.877 421.789,581.524 417.9,578.695C414.011,575.867 405.95,579.463 407.011,574.514C408.072,569.564 399.779,566.357 399.779,564.589C399.779,562.821 388.865,556.26 387.45,554.846C386.036,553.432 382.854,553.078 383.915,550.957C384.975,548.836 382.743,547.982 379.561,546.215C376.379,544.447 377.551,540.351 376.137,538.936C374.722,537.522 373.662,536.815 375.076,535.047C376.49,533.279 375.783,531.512 377.197,529.744C378.612,527.976 389.258,529.269 392.086,530.33C394.915,531.39 404.011,534.416 406.486,533.001C408.961,531.587 420.021,532.38 420.729,529.198C421.436,526.016 422.496,525.309 425.678,524.248C428.86,523.188 432.396,522.834 435.224,522.127C438.053,521.42 434.164,523.541 441.235,524.248C448.306,524.955 450.781,521.773 451.488,520.359C452.195,518.945 452.902,516.47 455.73,515.056C458.559,513.642 460.68,511.874 460.68,511.874L464.923,514.702C464.923,514.702 469.165,516.47 470.933,516.117C472.701,515.763 474.469,518.591 474.469,518.591L480.125,521.066C480.125,521.066 482.954,524.602 485.429,525.662C487.904,526.723 487.197,526.723 487.197,526.723L491.793,527.077L493.914,530.259C493.914,530.259 498.864,529.198 500.278,527.784C501.692,526.37 502.753,526.016 506.288,526.016C509.824,526.016 514.42,524.955 513.713,523.541C513.006,522.127 508.763,523.188 509.47,520.713C510.178,518.238 511.945,516.47 510.531,515.056C509.117,513.642 506.288,514.702 508.41,512.227C510.531,509.753 509.117,506.924 511.945,506.924C514.774,506.924 515.127,506.571 517.602,507.631C520.077,508.692 521.491,508.338 523.259,506.924C528.5,504.5 535.5,505 531.5,498C527.5,491 529.5,486 522.5,483C515.5,480 505,483.5 503,475C501,466.5 498.5,467 504.5,462C510.5,457 518.5,453.5 523.5,450C528.5,446.5 526.5,438.5 538.5,444C550.5,449.5 560.5,455.5 562,459C563.5,462.5 570,468.5 574,466.5C578,464.5 589.389,474.395 596.445,469.447C596.445,469.447 599.273,466.973 600.334,465.205C601.394,463.437 599.98,460.255 603.516,461.316C607.051,462.376 610.233,459.194 610.233,459.194C610.233,459.194 613.062,457.78 610.233,454.245C607.405,450.709 607.405,447.174 608.819,445.759C610.233,444.345 612.708,442.931 611.647,441.517C610.587,440.103 607.405,433.031 604.93,429.849C602.455,426.668 605.637,425.607 604.223,423.839C602.809,422.071 601.041,422.071 600.687,419.95C600.334,417.829 602.455,417.122 602.101,415.707C601.748,414.293 602.809,413.232 604.223,413.232C605.637,413.232 610.587,411.818 610.587,410.404C610.587,408.99 607.051,408.99 609.526,405.101C612.001,401.212 609.172,400.505 612.708,400.505C616.244,400.505 614.122,401.212 617.658,398.03C621.193,394.848 620.486,392.373 620.133,390.252C619.779,388.13 620.84,383.18 622.254,382.12C623.668,381.059 620.84,382.12 624.022,379.645C627.204,377.17 631.446,374.342 630.386,372.22C629.325,370.099 633.921,369.745 630.739,366.917C627.557,364.089 625.436,364.442 621.547,360.907C617.658,357.371 614.829,355.957 611.294,354.189C607.758,352.421 602.809,350.3 602.809,350.3L601.394,343.936C601.394,343.936 598.566,343.229 597.152,339.693C595.737,336.158 595.737,335.451 597.859,332.976C599.98,330.501 596.445,331.915 591.848,329.44C587.252,326.965 586.899,324.844 583.01,326.612C579.12,328.38 573.817,331.562 574.171,329.087C574.524,326.612 574.878,321.662 576.292,319.541C577.706,317.42 575.585,312.823 569.575,313.53C563.564,314.238 561.089,312.47 559.321,311.763C557.554,311.056 555.079,311.763 554.725,308.581C554.372,305.399 557.907,303.984 556.493,301.863C555.079,299.742 554.725,300.449 552.604,295.853C550.483,291.257 551.19,288.428 551.897,285.953C552.604,283.478 552.25,282.418 551.543,278.175C550.836,273.932 550.483,276.054 552.25,272.518C554.018,268.983 555.079,266.154 552.25,264.387C549.422,262.619 549.068,270.043 545.886,259.79C542.704,249.537 549.422,250.244 549.068,246.355C548.715,242.466 544.826,240.345 548.715,237.87C552.604,235.395 554.725,231.152 554.725,231.152C554.725,231.152 552.957,227.263 551.19,226.91C549.422,226.556 545.533,224.789 543.412,223.021C541.29,221.253 536.34,218.425 532.451,220.546C528.562,222.667 524.673,227.971 523.966,225.849C523.259,223.728 519.016,223.374 519.723,220.192C520.431,217.01 519.723,216.657 517.249,215.596C514.774,214.535 514.774,217.01 514.774,212.768C514.774,208.525 517.602,202.868 514.067,204.99C510.531,207.111 511.592,207.464 509.824,207.111C508.056,206.757 500.278,207.818 499.217,206.05C498.157,204.282 497.096,201.808 497.096,201.808C497.096,201.808 493.561,203.929 490.379,197.918C487.197,191.908 484.722,191.555 483.307,190.494C481.893,189.433 481.54,188.019 479.772,183.069C478.004,178.119 476.59,178.119 476.59,178.119L478.711,168.574C478.711,168.574 475.529,171.756 475.176,165.392C474.822,159.028 474.469,158.321 474.115,153.371C473.762,148.421 472.701,146.653 474.115,141.703C475.529,136.754 476.59,136.754 476.944,134.632C477.297,132.511 474.115,126.147 474.822,124.733C475.529,123.319 478.711,119.783 479.772,117.308C480.833,114.833 477.651,113.066 482.247,112.005C486.843,110.944 486.489,110.591 490.732,110.591C494.975,110.591 496.389,115.187 496.743,116.601C497.096,118.015 500.632,123.672 500.985,119.43C501.339,115.187 500.632,105.995 504.874,105.995C509.117,105.995 517.956,109.177 517.956,109.177L526.087,105.287C526.087,105.287 529.269,105.641 530.684,106.348C532.098,107.055 526.087,104.58 532.098,101.045C538.108,97.509 536.694,97.509 539.876,96.095C543.058,94.681 547.301,94.681 550.483,92.206C550.725,92.017 567.103,88.508 580.795,89.727C588.261,90.392 594.16,94.134 597.982,96.73C602.216,99.606 608.22,90.478 612.939,90.344C618.46,90.187 623.709,95.615 627.864,95.466C630.932,95.355 637.303,85.092 643.338,73.94" style="fill:none;fill-rule:nonzero;stroke:rgb(255,0,0);stroke-width:1.99px;stroke-dasharray:3.99,3.99,3.99,3.99;"/></g><g id="roads" transform="matrix(1.70163,0,0,1.70163,346.577,297.004)"><path id="path5227" d="M151.361,317.003C174.518,306.719 188.334,285.005 213.532,277.794C231.482,271.023 268.094,252.533 274.428,279.669C272.271,302.817 266.25,325.449 263.263,348.535C253.767,370.07 268.441,388.271 278.155,406.063C295.825,417.179 290.061,449.052 316.339,447.269C333.986,454.668 343.473,478.945 367.103,476.223C386.653,476.215 417.051,479.149 425.004,498.296C415.942,520.765 433.38,540.212 437.935,561.186C442.87,583.422 473.285,585.481 491.429,580.357C507.463,563.097 523.315,548.472 543.983,537.149C561.075,522.612 586.042,516.021 607.78,522.647C629.568,520.877 653.506,522.133 671.924,534.908C694.473,532.888 715.478,540.519 737.076,547.45C761.52,543.374 783.98,550.41 805.175,562.272C821.914,571.359 825.655,544.926 844.085,543.992C859.687,520.806 888.367,511.629 906.758,490.189C922.523,466.426 957.972,472.886 973.814,449.951C993.961,418.512 1019.12,390.676 1042.12,361.606C1056.31,343.665 1085.31,318.914 1092.58,317.539" style="fill:none;fill-rule:nonzero;stroke:rgb(221,221,221);stroke-width:2px;stroke-linecap:round;stroke-linejoin:round;stroke-miterlimit:4;"/><path id="path5225" d="M77.141,493.222C87.773,484.165 127.83,406.996 136.727,382.049C142.211,360.47 144.649,336.814 151.939,316.645" style="fill:none;fill-rule:nonzero;stroke:rgb(221,221,221);stroke-width:2px;stroke-linecap:round;stroke-linejoin:round;stroke-miterlimit:4;"/><path id="path5223" d="M83.587,854.078C106.176,834.03 136.035,870.04 157.038,864.827C175.311,858.647 189.528,845.915 210.786,854.076C229.608,860.077 248.326,865.701 265.22,876.339C285.047,887.047 304.281,877.372 326.342,878.404C347.503,872.475 354.869,850.412 361.725,831.984C375.486,818.643 397.949,802.767 388.483,780.05C381.604,760.244 372.155,740.141 377.988,718.687C379.846,690.909 401.652,670.731 421.319,654.166C433.434,651.102 450.654,643.121 463.069,626.981C472.05,615.306 474.021,598.21 483.757,583.348" style="fill:none;fill-rule:nonzero;stroke:rgb(221,221,221);stroke-width:2px;stroke-linecap:round;stroke-linejoin:round;stroke-miterlimit:4;"/><path id="path5219" d="M1092.58,418.875C1084.7,417.401 1065.4,408.57 1059.65,405.505C1052.07,401.464 1027.83,393.383 1025.31,388.837C1016.8,372.48 1007.06,364.454 994.409,352.492C975.913,337.36 979.156,325.534 955.85,321.713C942.207,322.735 931.1,318.012 927.021,307.066C914.98,294.851 923.468,274.602 911.317,262.497C905.878,248.035 889.339,245.608 883.114,230.294C879.576,219.78 853.916,201.741 853.35,197.53C852.703,192.32 843.409,156.264 841.79,154.685C826.939,141.386 796.718,156.487 781.343,153.649C769.885,146.477 733.208,158.461 726.432,157.175C714.523,156.136 703.631,158.64 694.531,164.17C684.142,172.789 671.682,167.486 664.185,173.246C647.801,179.081 640.178,186.998 626.163,177.837C619.092,174.807 604.02,164.721 598.97,160.68C593.919,156.639 581.802,148.599 573.216,147.083C561.194,144.302 558.547,154.914 549.467,160.639C540.957,164.273 530.697,177.543 525.305,178.322C520.759,178.827 514.168,191.858 514.168,193.878C502.946,211.379 490.834,216.374 491.944,221.152C492.954,223.677 482.348,233.274 479.822,234.789C477.297,236.304 468.711,238.325 468.711,238.325C468.711,238.325 463.155,241.355 460.124,245.901C457.094,250.446 452.043,258.528 450.023,260.043C448.003,261.558 438.911,271.66 433.355,272.67C427.8,273.68 422.749,274.69 421.739,278.731C420.729,282.771 408.102,280.751 405.576,281.761C403.051,282.771 394.465,286.812 388.909,294.893C377.076,307.542 372.734,319.871 356.786,307.621C352.783,301.015 348.386,300.71 346.583,285.398C346.078,279.842 344.361,275.094 344.361,269.033C344.361,262.972 338.151,255.623 337.997,252.77C337.391,241.557 331.835,233.678 330.825,226.607C329.815,219.536 315.471,200.545 311.935,195.494C308.4,190.443 301.531,213.778 301.531,213.778C301.531,213.778 290.318,222.667 283.247,227.213C276.176,231.759 273.246,247.416 265.165,251.457C257.084,255.497 249.003,263.073 246.477,266.104" style="fill:none;fill-rule:nonzero;stroke:rgb(221,221,221);stroke-width:2px;stroke-linecap:round;stroke-linejoin:round;stroke-miterlimit:4;"/><path id="path5217" d="M310.657,194.363C314.698,190.575 321.229,184.786 322.996,180.998C324.764,177.21 326.279,172.665 327.795,170.139C334.316,161.188 334.507,151.036 340.421,144.885C350.498,134.979 356.362,129.992 362.65,125.233C377.127,124.039 371.924,109.261 379.383,103.015C381.404,101.5 392.965,94.99 397.51,93.979" style="fill:none;fill-rule:nonzero;stroke:rgb(221,221,221);stroke-width:2px;stroke-linecap:round;stroke-linejoin:round;stroke-miterlimit:4;"/><path id="path5215" d="M476.69,236.517C483.762,236.517 477.772,247.017 485.348,247.017C492.924,247.017 496.49,255.497 499.52,259.538C504.705,268.869 505.95,268.922 512.248,280.7C516.99,294.043 522.049,297.381 528.764,302.368C531.795,305.399 535.785,327.42 536.29,329.44C536.795,331.461 535.482,338.936 538.512,342.976C541.543,347.017 540.432,355.502 544.977,359.038C549.523,362.573 560.13,371.16 560.13,373.685C560.13,376.21 569.221,389.847 569.221,389.847C569.221,389.847 562.15,414.091 557.604,417.122C553.059,420.152 548.513,424.698 540.937,426.213C533.361,427.728 527.805,431.264 523.259,434.294C518.713,437.325 522.249,436.314 514.673,437.83C507.097,439.345 502.551,439.85 496.49,444.901C490.429,449.952 481.843,455.002 479.822,456.518C477.802,458.033 474.267,453.487 471.741,459.548C469.216,465.609 467.196,471.67 458.609,477.226C450.023,482.781 443.457,486.317 437.901,485.307C432.345,484.297 428.81,482.781 427.8,484.802C426.789,486.822 422.749,491.368 422.749,491.368" style="fill:none;fill-rule:nonzero;stroke:rgb(221,221,221);stroke-width:2px;stroke-linecap:round;stroke-linejoin:round;stroke-miterlimit:4;"/><g transform="matrix(0.436195,0,0,0.436195,55.2178,-88.0183)"><path d="M1673.1,2389.61C1710.56,2394.71 1754.86,2410.8 1792.12,2405.72C1829.37,2400.65 1870.78,2357.89 1903.29,2359.99C1935.81,2362.09 1954.85,2414.96 1987.21,2418.32C2019.56,2421.69 2067.92,2383.37 2097.41,2380.16C2120.4,2377.66 2148.16,2403.37 2164.15,2399.1C2180.14,2394.83 2203.91,2381.08 2224.91,2382.2C2250.52,2383.56 2294.97,2404.66 2317.85,2407.26C2332.87,2408.97 2378.21,2398.07 2378.21,2398.07" style="fill:none;stroke:rgb(221,221,221);stroke-width:4.11px;"/></g><g transform="matrix(0.504741,0,0,0.504741,-49.7522,-298.164)"><path d="M2262.59,1914.28C2262.59,1914.28 2161.42,1891.07 2147.81,1902.83C2104.38,1912.79 2059.71,1908.77 2027.85,1873.44C1998.77,1834.76 1951.18,1818.05 1903.95,1819.2C1864.11,1817.61 1821.58,1819.21 1789.19,1791.76C1759.31,1773.86 1735.44,1718.28 1716.13,1711.48C1727.67,1750.86 1735.21,1792 1723.59,1832.6C1715.31,1873.54 1723.55,1915.67 1722.81,1957.15C1728.68,1996.23 1702.95,2041.75 1742.18,2070.8C1750.83,2109.64 1759.01,2154.03 1743.22,2192.1C1723.01,2218.91 1753.13,2263 1713.23,2283.68C1698.5,2322.21 1666.93,2355.45 1671.12,2399.04C1661.36,2438.87 1666.8,2476.46 1633.82,2508.01C1613.51,2522.36 1609.25,2551.22 1597.49,2574.94C1590.28,2589.49 1600.86,2602.14 1609.79,2614.35C1624.79,2629.11 1649.01,2627.89 1661.6,2650.23C1670.54,2666.1 1685.9,2681.31 1694.42,2697.93C1704.87,2715.37 1697.78,2756.46 1703.26,2762.14C1713.29,2772.53 1700,2816.25 1711.87,2837.63C1718.9,2857.76 1722.12,2883.14 1715.59,2893C1704.13,2910.31 1696.52,2937.21 1688.24,2946.7C1679.81,2960.22 1674.43,2978.56 1659.41,2987.22C1637.77,2999.7 1630.27,3027.89 1623.46,3050.11C1612.52,3084.12 1601.9,3106.54 1587.3,3103.55C1582.56,3102.58 1563.24,3104.72 1540.39,3112.21C1523.32,3124 1512.59,3149.04 1496.43,3160.45C1484.64,3168.76 1479.79,3183.96 1471.04,3194.27C1454.84,3213.26 1447.55,3235.22 1440,3257.92C1436.29,3269.04 1405.64,3264.88 1385.03,3269.75C1375.41,3272.02 1364.24,3281.76 1351.68,3287.52C1313.61,3305.01 1262.86,3327.09 1204.4,3324.53C1157.94,3322.5 1090.01,3317.67 1073.14,3277.26C1068.51,3266.16 1046.37,3279.59 1050.03,3273.97C1058.65,3264.44 1078.52,3272.57 1081.66,3258.18C1066.43,3267.42 1044.05,3259.69 1045.04,3239.93C1033.59,3244.92 1015.13,3255.93 1006.91,3237.43C994.968,3226.7 976.926,3226.74 964.842,3215.67C954.17,3212.69 967.115,3201.18 953.733,3199.36C938.288,3194.7 913.968,3224.1 908.21,3197.87C899.518,3184.23 895.626,3160.69 873.829,3164.72C862.415,3164.66 872.594,3147.55 859.322,3144.54C845.348,3136.53 828.042,3132.99 820.87,3117.59C804.195,3119.86 784.612,3108.99 779.973,3093.53C776.685,3091.57 769.911,3097.36 765.546,3089.87C758.982,3088.23 758.384,3099.53 750.124,3091.93C740.853,3081.69 736.357,3067.36 724.08,3061.42C722.225,3043.26 709.938,3030.6 698.566,3017.53C691.983,3005.05 680.192,2996.79 671.023,2986.53C658.594,2979.2 630.028,2989.21 632.483,2965.86C618.386,2954.26 616.809,2930.11 595.2,2928.92C584.208,2932.98 588.115,2917.74 576.854,2921.26C543.898,2924.35 557.512,2915.21 547.227,2892.03C555.747,2882.81 543.862,2873.93 548.824,2863.43C534.664,2857.17 524.458,2874.27 514.353,2883.91C500.293,2898.58 478.511,2904.57 460.604,2912.92C444.72,2911.32 428.276,2886.57 411.151,2886.63C406.963,2885.93 402.974,2884.53 398.936,2883.28" style="fill:none;stroke:rgb(221,221,221);stroke-width:3.75px;stroke-linecap:round;stroke-linejoin:round;stroke-miterlimit:4;"/></g></g><g id="Seas" transform="matrix(1.50229,0,0,1.65263,-4802.71,-9016.4)"><path d="M3732.77,7151.57L3975.02,7106.44C4004.87,7095.53 4034.79,7106.37 4047.19,7093.32C4063.43,7082.87 4087.64,7074.19 4105.13,7065.53C4120.93,7057.72 4135.99,7047.62 4152.17,7041.39C4168.27,7035.19 4185.64,7032.99 4202.19,7028.14C4221.6,7022.45 4245.25,7005.7 4268.63,7007.25C4294.3,7008.95 4329.53,7011.35 4338.05,6991.82C4347.42,6970.35 4396.43,6988.76 4412.81,6962.34C4435.91,6949.7 4467.01,6961.64 4488.65,6942.15C4505.69,6935.46 4522.48,6938.76 4536.92,6922.87C4550.44,6903.17 4574.41,6897.87 4589.21,6879.4C4611.47,6868.49 4617.29,6846.4 4633.1,6828.71C4636.42,6800.14 4664.87,6791.24 4664.84,6763.22C4665.64,6734.25 4664.84,7151.49 4664.84,7151.49L3732.77,7151.57Z" style="fill:rgb(242,242,242);"/></g><g id="french-fortifications" serif:id="french fortifications" transform="matrix(1.70163,0,0,1.70163,346.577,297.004)"><g transform="matrix(1.13664,0,0,1.13664,-736.946,-2282.81)"><g transform="matrix(1.10282,0,0,1,-127.959,0)"><g transform="matrix(17.5308,0,0,17.5308,1268.82,3184.52)"></g><text x="1244.47px" y="3184.52px" style="font-family:'HelveticaNeue', 'Helvetica Neue';font-size:17.531px;">-X-</text></g></g><g transform="matrix(1.13664,0,0,1.13664,-714.606,-2297.26)"><g transform="matrix(1.10282,0,0,1,-127.959,0)"><g transform="matrix(17.5308,0,0,17.5308,1268.82,3184.52)"></g><text x="1244.47px" y="3184.52px" style="font-family:'HelveticaNeue', 'Helvetica Neue';font-size:17.531px;">-X-</text></g></g><g transform="matrix(1.13664,0,0,1.13664,-695.147,-2297.26)"><g transform="matrix(1.10282,0,0,1,-127.959,0)"><g transform="matrix(17.5308,0,0,17.5308,1268.82,3184.52)"></g><text x="1244.47px" y="3184.52px" style="font-family:'HelveticaNeue', 'Helvetica Neue';font-size:17.531px;">-X-</text></g></g><g transform="matrix(1.13664,0,0,1.13664,-705.047,-2314.74)"><g transform="matrix(1.10282,0,0,1,-127.959,0)"><g transform="matrix(17.5308,0,0,17.5308,1268.82,3184.52)"></g><text x="1244.47px" y="3184.52px" style="font-family:'HelveticaNeue', 'Helvetica Neue';font-size:17.531px;">-X-</text></g></g><g transform="matrix(1.13664,0,0,1.13664,-693.459,-2332.43)"><g transform="matrix(1.10282,0,0,1,-127.959,0)"><g transform="matrix(17.5308,0,0,17.5308,1268.82,3184.52)"></g><text x="1244.47px" y="3184.52px" style="font-family:'HelveticaNeue', 'Helvetica Neue';font-size:17.531px;">-X-</text></g></g><g transform="matrix(1.13664,0,0,1.13664,-727.389,-2362.18)"><g transform="matrix(1.10282,0,0,1,-127.959,0)"><g transform="matrix(17.5308,0,0,17.5308,1268.82,3184.52)"></g><text x="1244.47px" y="3184.52px" style="font-family:'HelveticaNeue', 'Helvetica Neue';font-size:17.531px;">-X-</text></g></g><g transform="matrix(1.13664,0,0,1.13664,-693.853,-2372.15)"><g transform="matrix(1.10282,0,0,1,-127.959,0)"><g transform="matrix(17.5308,0,0,17.5308,1268.82,3184.52)"></g><text x="1244.47px" y="3184.52px" style="font-family:'HelveticaNeue', 'Helvetica Neue';font-size:17.531px;">-X-</text></g></g><g transform="matrix(1.13664,0,0,1.13664,-691.482,-2394.47)"><g transform="matrix(1.10282,0,0,1,-127.959,0)"><g transform="matrix(17.5308,0,0,17.5308,1268.82,3184.52)"></g><text x="1244.47px" y="3184.52px" style="font-family:'HelveticaNeue', 'Helvetica Neue';font-size:17.531px;">-X-</text></g></g><g transform="matrix(1.13664,0,0,1.13664,-700.206,-2422.76)"><g transform="matrix(1.10282,0,0,1,-127.959,0)"><g transform="matrix(17.5308,0,0,17.5308,1268.82,3184.52)"></g><text x="1244.47px" y="3184.52px" style="font-family:'HelveticaNeue', 'Helvetica Neue';font-size:17.531px;">-X-</text></g></g><g transform="matrix(1.13664,0,0,1.13664,-697.527,-2443.37)"><g transform="matrix(1.10282,0,0,1,-127.959,0)"><g transform="matrix(17.5308,0,0,17.5308,1268.82,3184.52)"></g><text x="1244.47px" y="3184.52px" style="font-family:'HelveticaNeue', 'Helvetica Neue';font-size:17.531px;">-X-</text></g></g><g transform="matrix(1.13664,0,0,1.13664,-733.434,-2456.42)"><g transform="matrix(1.10282,0,0,1,-127.959,0)"><g transform="matrix(17.5308,0,0,17.5308,1268.82,3184.52)"></g><text x="1244.47px" y="3184.52px" style="font-family:'HelveticaNeue', 'Helvetica Neue';font-size:17.531px;">-X-</text></g></g><g transform="matrix(1.13664,0,0,1.13664,-759.364,-2475.61)"><g transform="matrix(1.10282,0,0,1,-127.959,0)"><g transform="matrix(17.5308,0,0,17.5308,1268.82,3184.52)"></g><text x="1244.47px" y="3184.52px" style="font-family:'HelveticaNeue', 'Helvetica Neue';font-size:17.531px;">-X-</text></g></g><g transform="matrix(1.13664,0,0,1.13664,-780.529,-2475.61)"><g transform="matrix(1.10282,0,0,1,-127.959,0)"><g transform="matrix(17.5308,0,0,17.5308,1268.82,3184.52)"></g><text x="1244.47px" y="3184.52px" style="font-family:'HelveticaNeue', 'Helvetica Neue';font-size:17.531px;">-X-</text></g></g><g transform="matrix(1.13664,0,0,1.13664,-802.758,-2475.61)"><g transform="matrix(1.10282,0,0,1,-127.959,0)"><g transform="matrix(17.5308,0,0,17.5308,1268.82,3184.52)"></g><text x="1244.47px" y="3184.52px" style="font-family:'HelveticaNeue', 'Helvetica Neue';font-size:17.531px;">-X-</text></g></g><g transform="matrix(1.13664,0,0,1.13664,-948.71,-2592.29)"><g transform="matrix(1.10282,0,0,1,-127.959,0)"><g transform="matrix(17.5308,0,0,17.5308,1268.82,3184.52)"></g><text x="1244.47px" y="3184.52px" style="font-family:'HelveticaNeue', 'Helvetica Neue';font-size:17.531px;">-X-</text></g></g><g transform="matrix(1.13664,0,0,1.13664,-949.108,-2647.39)"><g transform="matrix(1.10282,0,0,1,-127.959,0)"><g transform="matrix(17.5308,0,0,17.5308,1268.82,3184.52)"></g><text x="1244.47px" y="3184.52px" style="font-family:'HelveticaNeue', 'Helvetica Neue';font-size:17.531px;">-X-</text></g></g><g transform="matrix(1.13664,0,0,1.13664,-948.71,-2669.15)"><g transform="matrix(1.10282,0,0,1,-127.959,0)"><g transform="matrix(17.5308,0,0,17.5308,1268.82,3184.52)"></g><text x="1244.47px" y="3184.52px" style="font-family:'HelveticaNeue', 'Helvetica Neue';font-size:17.531px;">-X-</text></g></g><g transform="matrix(1.13664,0,0,1.13664,-949.108,-2690.74)"><g transform="matrix(1.10282,0,0,1,-127.959,0)"><g transform="matrix(17.5308,0,0,17.5308,1268.82,3184.52)"></g><text x="1244.47px" y="3184.52px" style="font-family:'HelveticaNeue', 'Helvetica Neue';font-size:17.531px;">-X-</text></g></g><g transform="matrix(1.13664,0,0,1.13664,-991.462,-2923.68)"><g transform="matrix(1.10282,0,0,1,-127.959,0)"><g transform="matrix(17.5308,0,0,17.5308,1268.82,3184.52)"></g><text x="1244.47px" y="3184.52px" style="font-family:'HelveticaNeue', 'Helvetica Neue';font-size:17.531px;">-X-</text></g></g><g transform="matrix(1.13664,0,0,1.13664,-1016.47,-2934.87)"><g transform="matrix(1.10282,0,0,1,-127.959,0)"><g transform="matrix(17.5308,0,0,17.5308,1268.82,3184.52)"></g><text x="1244.47px" y="3184.52px" style="font-family:'HelveticaNeue', 'Helvetica Neue';font-size:17.531px;">-X-</text></g></g><g transform="matrix(1.13664,0,0,1.13664,-1027.54,-2979.37)"><g transform="matrix(1.10282,0,0,1,-127.959,0)"><g transform="matrix(17.5308,0,0,17.5308,1268.82,3184.52)"></g><text x="1244.47px" y="3184.52px" style="font-family:'HelveticaNeue', 'Helvetica Neue';font-size:17.531px;">-X-</text></g></g><g transform="matrix(1.13664,0,0,1.13664,-1016.47,-3095.84)"><g transform="matrix(1.10282,0,0,1,-127.959,0)"><g transform="matrix(17.5308,0,0,17.5308,1268.82,3184.52)"></g><text x="1244.47px" y="3184.52px" style="font-family:'HelveticaNeue', 'Helvetica Neue';font-size:17.531px;">-X-</text></g></g><g transform="matrix(1.13664,0,0,1.13664,-1041.22,-3102.3)"><g transform="matrix(1.10282,0,0,1,-127.959,0)"><g transform="matrix(17.5308,0,0,17.5308,1268.82,3184.52)"></g><text x="1244.47px" y="3184.52px" style="font-family:'HelveticaNeue', 'Helvetica Neue';font-size:17.531px;">-X-</text></g></g><g transform="matrix(1.13664,0,0,1.13664,-986.086,-3117.86)"><g transform="matrix(1.10282,0,0,1,-127.959,0)"><g transform="matrix(17.5308,0,0,17.5308,1268.82,3184.52)"></g><text x="1244.47px" y="3184.52px" style="font-family:'HelveticaNeue', 'Helvetica Neue';font-size:17.531px;">-X-</text></g></g><g transform="matrix(1.13664,0,0,1.13664,-989.722,-3140.51)"><g transform="matrix(1.10282,0,0,1,-127.959,0)"><g transform="matrix(17.5308,0,0,17.5308,1268.82,3184.52)"></g><text x="1244.47px" y="3184.52px" style="font-family:'HelveticaNeue', 'Helvetica Neue';font-size:17.531px;">-X-</text></g></g><g transform="matrix(1.13664,0,0,1.13664,-1024.67,-3149.97)"><g transform="matrix(1.10282,0,0,1,-127.959,0)"><g transform="matrix(17.5308,0,0,17.5308,1268.82,3184.52)"></g><text x="1244.47px" y="3184.52px" style="font-family:'HelveticaNeue', 'Helvetica Neue';font-size:17.531px;">-X-</text></g></g><g transform="matrix(1.13664,0,0,1.13664,-965.013,-3394.54)"><g transform="matrix(1.10282,0,0,1,-127.959,0)"><g transform="matrix(17.5308,0,0,17.5308,1268.82,3184.52)"></g><text x="1244.47px" y="3184.52px" style="font-family:'HelveticaNeue', 'Helvetica Neue';font-size:17.531px;">-X-</text></g></g><g transform="matrix(1.13664,0,0,1.13664,-924.326,-3379.02)"><g transform="matrix(1.10282,0,0,1,-127.959,0)"><g transform="matrix(17.5308,0,0,17.5308,1268.82,3184.52)"></g><text x="1244.47px" y="3184.52px" style="font-family:'HelveticaNeue', 'Helvetica Neue';font-size:17.531px;">-X-</text></g></g></g></g><g id="cities-countries" serif:id="cities countries" transform="matrix(1.86761,0,0,1.86761,1118.87,604.416)"><g id="path369854-1" transform="matrix(1.59019,0,0,1.59019,-768.146,-1441.52)"><path d="M674.5,1354.64C674.498,1358.87 671.016,1362.35 666.786,1362.35C662.555,1362.35 659.074,1358.87 659.071,1354.64C659.071,1354.64 659.071,1354.64 659.071,1354.63C659.071,1350.4 662.554,1346.92 666.786,1346.92C671.018,1346.92 674.5,1350.4 674.5,1354.63C674.5,1354.64 674.5,1354.64 674.5,1354.64Z" style="fill:white;stroke:black;stroke-width:1.5px;stroke-miterlimit:4;"/></g><g transform="matrix(1,0,0,1,171.6,720.836)"><g transform="matrix(19.589,0,0,19.589,101.922,0)"></g><text x="0px" y="0px" style="font-family:'HelveticaNeue', 'Helvetica Neue';font-size:19.589px;">BRIANÇON</text></g><g id="path369854-11" serif:id="path369854-1" transform="matrix(1.58998,0,0,1.58998,-472.062,-590.515)"><path d="M674.5,1354.64C674.498,1358.87 671.016,1362.35 666.786,1362.35C662.555,1362.35 659.074,1358.87 659.071,1354.64C659.071,1354.64 659.071,1354.64 659.071,1354.63C659.071,1350.4 662.554,1346.92 666.786,1346.92C671.018,1346.92 674.5,1350.4 674.5,1354.63C674.5,1354.64 674.5,1354.64 674.5,1354.64Z" style="fill:white;stroke:black;stroke-width:1.5px;stroke-miterlimit:4;"/></g><g transform="matrix(1,0,0,1,521.949,1571.43)"><g transform="matrix(19.589,0,0,19.589,45.329,0)"></g><text x="0px" y="0px" style="font-family:'HelveticaNeue', 'Helvetica Neue';font-size:19.589px;">NICE</text></g><g transform="matrix(1,0,0,1,850.96,1271.34)"><g transform="matrix(19.589,0,0,19.589,139.689,0)"></g><text x="0px" y="0px" style="font-family:'HelveticaNeue', 'Helvetica Neue';font-size:19.589px;">COL DE TENDE</text></g><g transform="matrix(1,0,0,1,488.951,1043.36)"><g transform="matrix(19.589,0,0,19.589,153.833,0)"></g><text x="0px" y="0px" style="font-family:'HelveticaNeue', 'Helvetica Neue';font-size:19.589px;">COL DE LARCHE</text></g><g transform="matrix(1,0,0,1,115.8,1094.38)"><g transform="matrix(19.589,0,0,19.589,191.933,0)"></g><text x="0px" y="0px" style="font-family:'HelveticaNeue', 'Helvetica Neue';font-size:19.589px;">COL DE RESTEFOND</text></g><g transform="matrix(1,0,0,1,394.798,673.852)"><g transform="matrix(19.589,0,0,19.589,224.216,0)"></g><text x="0px" y="0px" style="font-family:'HelveticaNeue', 'Helvetica Neue';font-size:19.589px;">COL DE MONTGENEVRE</text></g><g transform="matrix(1,0,0,1,465.346,507.412)"><g transform="matrix(19.589,0,0,19.589,199.553,0)"></g><text x="0px" y="0px" style="font-family:'HelveticaNeue', 'Helvetica Neue';font-size:19.589px;">COL DU MONT CENIS</text></g><g id="path369854-12" serif:id="path369854-1" transform="matrix(1.57919,0,0,1.57919,-1167.08,-1628.83)"><path d="M674.5,1354.64C674.498,1358.87 671.016,1362.35 666.786,1362.35C662.555,1362.35 659.074,1358.87 659.071,1354.64C659.071,1354.64 659.071,1354.64 659.071,1354.63C659.071,1350.4 662.554,1346.92 666.786,1346.92C671.018,1346.92 674.5,1350.4 674.5,1354.63C674.5,1354.64 674.5,1354.64 674.5,1354.64Z" style="fill:white;stroke:black;stroke-width:1.5px;stroke-miterlimit:4;"/></g><g transform="matrix(1,0,0,1,-94.8715,516.92)"><g transform="matrix(19.589,0,0,19.589,105.565,0)"></g><text x="0px" y="0px" style="font-family:'HelveticaNeue', 'Helvetica Neue';font-size:19.589px;">GRENOBLE</text></g><g id="path369854-13" serif:id="path369854-1" transform="matrix(1.57919,0,0,1.57919,-785.288,-1870.54)"><path d="M674.5,1354.64C674.498,1358.87 671.016,1362.35 666.786,1362.35C662.555,1362.35 659.074,1358.87 659.071,1354.64C659.071,1354.64 659.071,1354.64 659.071,1354.63C659.071,1350.4 662.554,1346.92 666.786,1346.92C671.018,1346.92 674.5,1350.4 674.5,1354.63C674.5,1354.64 674.5,1354.64 674.5,1354.64Z" style="fill:white;stroke:black;stroke-width:1.5px;stroke-miterlimit:4;"/></g><g transform="matrix(1,0,0,1,47.384,276.642)"><g transform="matrix(19.589,0,0,19.589,194.068,0)"></g><text x="0px" y="0px" style="font-family:'HelveticaNeue', 'Helvetica Neue';font-size:19.589px;">BOURG ST MAURICE</text></g><g id="use5381" transform="matrix(1.58141,0,0,1.58141,-264.239,-1548.25)"><path d="M674.5,1354.64C674.498,1358.87 671.016,1362.35 666.786,1362.35C662.555,1362.35 659.074,1358.87 659.071,1354.64C659.071,1354.64 659.071,1354.64 659.071,1354.63C659.071,1350.4 662.554,1346.92 666.786,1346.92C671.018,1346.92 674.5,1350.4 674.5,1354.63C674.5,1354.64 674.5,1354.64 674.5,1354.64Z" style="fill:white;stroke:black;stroke-width:1.5px;stroke-miterlimit:4;"/></g><g transform="matrix(1,0,0,1,819.844,604.912)"><g transform="matrix(19.589,0,0,19.589,58.0227,0)"></g><text x="0px" y="0px" style="font-family:'HelveticaNeue', 'Helvetica Neue';font-size:19.589px;">TURIN</text></g><g transform="matrix(0.605166,0,0,0.605166,-534.641,-707.425)"><g transform="matrix(32.3696,0,0,32.3696,2087.47,1429.35)"></g><text x="1607.92px" y="1429.35px" style="font-family:'HelveticaNeue', 'Helvetica Neue';font-size:32.37px;">COL DU PETIT SAINT<tspan x="1921.45px 1934.04px " y="1429.35px 1429.35px ">-B</tspan>ERNARD</text></g><g transform="matrix(1.88144,8.50214e-20,8.50842e-20,1.88422,735.026,949.976)"><g transform="matrix(38.9353,0,0,38.9353,96.6374,0)"></g><text x="0px" y="0px" style="font-family:'HelveticaNeue', 'Helvetica Neue';font-size:38.935px;">IT<tspan x="28.851px 54.081px 71.407px " y="0px 0px 0px ">ALY</tspan></text></g><g transform="matrix(1.64548,7.43585e-20,7.44134e-20,1.64791,-127.11,130.197)"><g transform="matrix(44.5186,0,0,44.5186,176.382,0)"></g><text x="0px" y="0px" style="font-family:'HelveticaNeue', 'Helvetica Neue';font-size:44.519px;">FRANCE</text></g></g></g><g id="KEY" transform="matrix(1.13182,0,0,1.13182,345.393,1492.87)"><g transform="matrix(0.488658,0,0,2.22328,-139.28,-4967.29)"><rect x="276.62" y="2613.09" width="921.875" height="150.293" style="fill:white;stroke:rgb(243,241,241);stroke-width:1.49px;stroke-linecap:square;"/></g><g transform="matrix(1,0,0,0.999263,-3906.18,-3803.76)"><g transform="matrix(0.999263,0,0,1,2.99105,0)"><g transform="matrix(36.8409,0,0,36.8409,4193.57,4778.83)"></g><text x="4055.9px" y="4778.83px" style="font-family:'HelveticaNeue', 'Helvetica Neue';font-size:36.841px;">O<tspan x="4083.53px 4103.64px 4121.69px 4133.59px 4153.01px 4173.79px " y="4778.83px 4778.83px 4778.83px 4778.83px 4778.83px 4778.83px ">uvrage</tspan></text></g></g><g transform="matrix(2.17151,0,0,2.17151,-2667.31,-5945.95)"><g transform="matrix(1.10282,0,0,1,-127.959,0)"><g transform="matrix(16.2576,0,0,16.2576,1267.06,3184.52)"></g><text x="1244.47px" y="3184.52px" style="font-family:'HelveticaNeue', 'Helvetica Neue';font-size:16.258px;">-X-</text></g></g><g id="path5588" transform="matrix(8.90618e-17,-1.36362,3.56235,2.15201e-16,-1262.13,1895.02)"><path d="M626.111,385.39C640.061,383.716 621.149,377.771 623.606,375.602C625.791,373.675 631.988,373.753 632.01,371.37C632.05,366.926 621.173,368.886 619.858,361.752" style="fill:none;fill-rule:nonzero;stroke:rgb(255,0,0);stroke-width:2.5px;stroke-linejoin:round;stroke-miterlimit:4;stroke-dasharray:2.5,2.5,2.5,0;"/></g><g transform="matrix(1,0,0,0.999263,-3903.68,-3725.22)"><g transform="matrix(0.999263,0,0,1,2.99105,0)"><g transform="matrix(36.8409,0,0,36.8409,4165.94,4778.83)"></g><text x="4055.9px" y="4778.83px" style="font-family:'HelveticaNeue', 'Helvetica Neue';font-size:36.841px;">B<tspan x="4080.76px 4101.54px 4112.78px 4134.26px 4153.67px " y="4778.83px 4778.83px 4778.83px 4778.83px 4778.83px ">order</tspan></text></g></g><g transform="matrix(1,0,0,0.999263,-3903.68,-3649.91)"><g transform="matrix(0.999263,0,0,1,2.99105,0)"><g transform="matrix(36.8409,0,0,36.8409,4128.4,4778.83)"></g><g transform="matrix(36.8409,0,0,36.8409,4139.15,4778.83)"></g><g transform="matrix(36.8409,0,0,36.8409,4299.05,4778.83)"></g><text x="4055.9px" y="4778.83px" style="font-family:'HelveticaNeue', 'Helvetica Neue';font-size:36.841px;">F<tspan x="4076.67px 4097.45px 4109.35px 4120.59px 4128.4px 4147.11px 4166.53px 4188.01px 4197.88px 4215.93px 4235.35px 4254.76px 4266px 4286.78px " y="4778.83px 4778.83px 4778.83px 4778.83px 4778.83px 4778.83px 4778.83px 4778.83px 4778.83px 4778.83px 4778.83px 4778.83px 4778.83px 4778.83px ">ortiﬁed sector</tspan></text></g></g><g transform="matrix(1.7113,0,0,1.7113,-7422,-7369.64)"><path d="M4353.52,4828.85C4353.52,4828.85 4371.28,4817.4 4378.66,4817.4C4386.05,4817.4 4397.84,4828.85 4397.84,4828.85" style="fill:none;stroke:rgb(221,221,221);stroke-width:2.04px;stroke-linejoin:bevel;stroke-miterlimit:1.5;"/></g><g transform="matrix(1.18458e-17,0.193456,-0.193456,1.18458e-17,485.833,893.94)"><path d="M1201.95,2334.09C1216.52,2352.7 1213.25,2379.63 1194.64,2394.2C1176.04,2408.77 1149.11,2405.5 1134.53,2386.9L1066.21,2299.68C1059.23,2290.76 1056.06,2279.43 1057.41,2268.19L1066.95,2188.4L1031.21,2105.68C1024.18,2089.41 1027.9,2070.5 1040.56,2058.1L1095.54,2004.28L1101.78,1947.47C1103.03,1936.1 1108.77,1925.7 1117.74,1918.59L1170.79,1876.53C1189.31,1861.85 1216.26,1864.96 1230.94,1883.48C1245.62,1902 1242.51,1928.95 1223.99,1943.63L1184.95,1974.59L1178.99,2028.84C1177.91,2038.67 1173.45,2047.83 1166.38,2054.76L1121.49,2098.71L1150.14,2165.03C1153.14,2171.97 1154.25,2179.59 1153.35,2187.1L1144.54,2260.8L1201.95,2334.09Z" style="fill:rgb(204,204,204);"/></g><g transform="matrix(1,0,0,0.999263,-3899.8,-3872.55)"><g transform="matrix(0.999263,0,0,1,2.99105,0)"><g transform="matrix(36.8409,0,0,36.8409,4142.8,4778.83)"></g><text x="4055.9px" y="4778.83px" style="font-family:'HelveticaNeue', 'Helvetica Neue';font-size:36.841px;">R<tspan x="4080.76px 4101.54px 4120.96px " y="4778.83px 4778.83px 4778.83px ">oad</tspan></text></g></g></g><g transform="matrix(0.92225,0,0,0.92157,-2409.27,-3576.36)"><g transform="matrix(0.999263,0,0,1,2.72513,0)"><text x="3695.31px" y="6811.02px" style="font-family:'HelveticaNeue', 'Helvetica Neue';font-size:49.734px;">FOR<tspan x="3794.82px 3823.37px " y="6811.02px 6811.02px ">TI</tspan>FIED SECTOR</text></g><g transform="matrix(0.999263,0,0,1,2.72513,0)"><g transform="matrix(49.734,0,0,49.734,4328.07,6860.11)"></g><text x="3695.31px" y="6860.11px" style="font-family:'HelveticaNeue', 'Helvetica Neue';font-size:49.734px;">OF THE ALPES-MARITIMES</text></g></g><g transform="matrix(0.943126,-1.31144e-32,6.5572e-33,0.94243,-2762.97,-4523.16)"><g transform="matrix(0.999263,0,0,1,2.72513,0)"><text x="3695.31px" y="6811.02px" style="font-family:'HelveticaNeue', 'Helvetica Neue';font-size:48.633px;">FOR<tspan x="3792.62px 3820.54px " y="6811.02px 6811.02px ">TI</tspan>FIED SECTOR</text></g><g transform="matrix(0.999263,0,0,1,2.72513,0)"><g transform="matrix(48.6331,0,0,48.6331,4124.88,6860.11)"></g><text x="3695.31px" y="6860.11px" style="font-family:'HelveticaNeue', 'Helvetica Neue';font-size:48.633px;">OF THE DAUPHINE</text></g></g><g transform="matrix(1.06397,0,0,1.06318,-3132.61,-6247.42)"><g transform="matrix(0.999263,0,0,1,2.72513,0)"><text x="3695.31px" y="6811.02px" style="font-family:'HelveticaNeue', 'Helvetica Neue';font-size:43.11px;">FOR<tspan x="3781.57px 3806.31px " y="6811.02px 6811.02px ">TI</tspan>FIED SECTOR</text></g><g transform="matrix(0.999263,0,0,1,2.72513,0)"><g transform="matrix(43.1096,0,0,43.1096,3999.92,6860.11)"></g><text x="3695.31px" y="6860.11px" style="font-family:'HelveticaNeue', 'Helvetica Neue';font-size:43.11px;">OF THE SA<tspan x="3912.88px 3939.22px " y="6860.11px 6860.11px ">VO</tspan>Y</text></g></g></g></svg>