<?xml version="1.0" encoding="UTF-8" standalone="no"?>
<!DOCTYPE svg PUBLIC "-//W3C//DTD SVG 1.1//EN" "http://www.w3.org/Graphics/SVG/1.1/DTD/svg11.dtd">
<svg width="100%" height="100%" viewBox="0 0 2800 2800" version="1.1" xmlns="http://www.w3.org/2000/svg" xmlns:xlink="http://www.w3.org/1999/xlink" xml:space="preserve" xmlns:serif="http://www.serif.com/" style="fill-rule:evenodd;clip-rule:evenodd;stroke-linejoin:round;stroke-miterlimit:2;;fill:#aaa">
    <g id="POPULATION" transform="matrix(4.79424,0,0,4.79424,-160,-100)">
        <g>
            <g>
                <g transform="matrix(1,0,0,1,0,-250.25)">
                    <g>
                        <path d="M313,542L313,334C311.693,334 310.386,334.012 309.08,334.037L313,542Z" style="fill:rgb(137,144,153);fill-rule:nonzero;"/>
                    </g>
                </g>
                <g transform="matrix(1,0,0,1,0,-246.212)">
                    <g>
                        <path d="M306,539.963L302.08,332C256.374,332.862 212.226,348.756 176.46,377.226L306,539.963Z" style="fill:rgb(102,109,116);fill-rule:nonzero;"/>
                    </g>
                </g>
                <g transform="matrix(1,0,0,1,0,-180.987)">
                    <g>
                        <path d="M294,484.737L164.46,322C117.388,359.47 88.846,415.486 86.201,475.592L294,484.737Z" style="fill:rgb(50,50,50);fill-rule:nonzero;"/>
                    </g>
                </g>
                <g transform="matrix(1,0,0,1,8.34334,18.6744)">
                    <g>
                        <path d="M292,295.076L84.201,285.931C83.684,297.688 84.165,309.469 85.64,321.145L292,295.076Z" style="fill:rgb(141,147,159);fill-rule:nonzero;"/>
                    </g>
                </g>
                <g transform="matrix(1,0,0,1,0,228.55)">
                    <g>
                        <path d="M297,98.201L90.64,124.27C101.214,207.971 161.299,276.994 242.745,299L297,98.201Z" style="fill:rgb(29,29,30);fill-rule:nonzero;"/>
                    </g>
                </g>
                <g transform="matrix(-0.260841,0.965382,0.965382,0.260841,324.655,-4.33562)">
                    <g>
                        <path d="M321.204,88.181L529.204,88.181C529.204,203.056 436.08,296.181 321.204,296.181C296.746,296.181 272.479,291.867 249.519,283.438L321.204,88.181Z" style="fill:rgb(167,171,175);fill-rule:nonzero;"/>
                    </g>
                </g>
                <g transform="matrix(1,0,0,1,-10.4292,-24.1302)">
                    <g>
                        <path d="M333,337.175L540.196,318.902C540.081,317.6 539.954,316.299 539.815,315L333,337.175Z" style="fill:rgb(121,128,137);fill-rule:nonzero;"/>
                    </g>
                </g>
                <g transform="matrix(1,0,0,1,0,-238.25)">
                    <g>
                        <path d="M327,536L533.815,513.825C522.483,408.139 433.292,328 327,328L327,536Z" style="fill:rgb(82,88,95);fill-rule:nonzero;"/>
                    </g>
                </g>
            </g>
        </g>
        <g transform="matrix(1,0,0,1,285.35,58.531)">
            <g>
                <text x="0px" y="0px" style="font-family:'HelveticaNeue-Bold', 'Helvetica Neue';font-weight:700;font-size:13px;">Monaco</text>
            </g>
        </g>
        <g transform="matrix(1,0,0,1,294.97,74.154)">
            <g>
                <text x="0px" y="0px" style="font-family:'HelveticaNeue-Bold', 'Helvetica Neue';font-weight:700;font-size:13px;">0.3%</text>
            </g>
        </g>
        <g transform="matrix(1,0,0,1,230.509,159.159)">
            <g>
                <text x="0px" y="0px" style="font-family:'HelveticaNeue-Bold', 'Helvetica Neue';font-weight:700;font-size:13px;fill:white;">Germany</text>
            </g>
        </g>
        <g transform="matrix(1,0,0,1,239.401,174.782)">
            <g>
                <text x="0px" y="0px" style="font-family:'HelveticaNeue-Bold', 'Helvetica Neue';font-weight:700;font-size:13px;fill:white;">10.4%</text>
            </g>
        </g>
        <g transform="matrix(1,0,0,1,133.961,237.41)">
            <g>
                <text x="0px" y="0px" style="font-family:'HelveticaNeue-Bold', 'Helvetica Neue';font-weight:700;font-size:13px;fill:white;">Switzerland</text>
            </g>
        </g>
        <g transform="matrix(1,0,0,1,151.153,253.033)">
            <g>
                <text x="0px" y="0px" style="font-family:'HelveticaNeue-Bold', 'Helvetica Neue';font-weight:700;font-size:13px;fill:white;">13.6%</text>
            </g>
        </g>
        <g transform="matrix(1,0,0,1,37.6955,318.908)">
            <g>
                <text x="0px" y="0px" style="font-family:'HelveticaNeue-Bold', 'Helvetica Neue';font-weight:700;font-size:13px;">Slovenia</text>
            </g>
        </g>
        <g transform="matrix(1,0,0,1,48.4015,334.531)">
            <g>
                <text x="0px" y="0px" style="font-family:'HelveticaNeue-Bold', 'Helvetica Neue';font-weight:700;font-size:13px;">2.7%</text>
            </g>
        </g>
        <g transform="matrix(1,0,0,1,170.754,415.117)">
            <g>
                <text x="0px" y="0px" style="font-family:'HelveticaNeue-Bold', 'Helvetica Neue';font-weight:700;font-size:13px;fill:white;">France</text>
            </g>
        </g>
        <g transform="matrix(1,0,0,1,173.036,430.74)">
            <g>
                <text x="0px" y="0px" style="font-family:'HelveticaNeue-Bold', 'Helvetica Neue';font-weight:700;font-size:13px;fill:white;">18.8%</text>
            </g>
        </g>
        <g transform="matrix(1,0,0,1,402.658,432.704)">
            <g>
                <text x="0px" y="0px" style="font-family:'HelveticaNeue-Bold', 'Helvetica Neue';font-weight:700;font-size:13px;fill:white;">Italy</text>
            </g>
        </g>
        <g transform="matrix(1,0,0,1,396.495,448.327)">
            <g>
                <text x="0px" y="0px" style="font-family:'HelveticaNeue-Bold', 'Helvetica Neue';font-weight:700;font-size:13px;fill:white;">30.6%</text>
            </g>
        </g>
        <g transform="matrix(1,0,0,1,529.619,287.952)">
            <g>
                <text x="0px" y="0px" style="font-family:'HelveticaNeue-Bold', 'Helvetica Neue';font-weight:700;font-size:13px;">Liechtenstein</text>
            </g>
        </g>
        <g transform="matrix(1,0,0,1,555.846,303.575)">
            <g>
                <text x="0px" y="0px" style="font-family:'HelveticaNeue-Bold', 'Helvetica Neue';font-weight:700;font-size:13px;">0.3%</text>
            </g>
        </g>
        <g transform="matrix(1,0,0,1,397.799,191.029)">
            <g>
                <text x="0px" y="0px" style="font-family:'HelveticaNeue-Bold', 'Helvetica Neue';font-weight:700;font-size:13px;fill:white;">Austria</text>
            </g>
        </g>
        <g transform="matrix(1,0,0,1,400.672,206.652)">
            <g>
                <text x="0px" y="0px" style="font-family:'HelveticaNeue-Bold', 'Helvetica Neue';font-weight:700;font-size:13px;fill:white;">23.3%</text>
            </g>
        </g>
    </g>
</svg>
