<?xml version="1.0" encoding="UTF-8" standalone="no"?>
<!DOCTYPE svg PUBLIC "-//W3C//DTD SVG 1.1//EN" "http://www.w3.org/Graphics/SVG/1.1/DTD/svg11.dtd">
<svg width="100%" height="100%" viewBox="0 0 1852 751" version="1.1" xmlns="http://www.w3.org/2000/svg" xmlns:xlink="http://www.w3.org/1999/xlink" xml:space="preserve" xmlns:serif="http://www.serif.com/" style="fill-rule:evenodd;clip-rule:evenodd;stroke-linecap:square;stroke-linejoin:bevel;stroke-miterlimit:1.5;">
    <g transform="matrix(1,0,0,1,-276.613,-946.33)">
        <g id="nufenen" transform="matrix(0.932708,0,0,0.932708,139.711,-952.39)">
            <g transform="matrix(0.961506,0,0,0.321124,-156.818,1668.2)">
                <path d="M408.878,2753.45L729.697,2594.61L1023.76,2331.44L1394.06,1996.33L1445.96,1971.84L1542.29,2048.63L1991.96,2502.16L2313.17,2711.64L2313.17,3480.89L408.878,3480.89L408.878,2753.45Z" style="fill:rgb(226,226,226);"/>
            </g>
            <g transform="matrix(0.961506,0,0,0.321124,-156.818,1667.06)">
                <path d="M411.387,2753.45L729.697,2594.61L1023.76,2331.44L1392.02,2001.67L1445.96,1975.17L1542.29,2051.97L1991.96,2502.16L2312.05,2711.64" style="fill:none;stroke:rgb(227,6,19);stroke-width:6.23px;"/>
            </g>
            <g transform="matrix(1,0,0,1,1233.64,2840.55)">
                <text x="-33.29px" y="0px" style="font-family:'HelveticaNeue', 'Helvetica Neue';font-size:26.804px;">23km</text>
            </g>
            <g transform="matrix(1,0,0,1,2066.49,2840.55)">
                <text x="-33.29px" y="0px" style="font-family:'HelveticaNeue', 'Helvetica Neue';font-size:26.804px;">38km</text>
            </g>
            <g transform="matrix(1,-2.44929e-16,2.44929e-16,1,-285.503,-32.5432)">
                <text x="470.492px" y="2088px" style="font-family:'Helvetica';font-size:26.804px;fill:rgb(29,29,27);">AIROLO</text>
                <text x="480.157px" y="2114.8px" style="font-family:'Helvetica';font-size:26.804px;fill:rgb(29,29,27);">1175m</text>
            </g>
            <g transform="matrix(1,-2.44929e-16,2.44929e-16,1,717.922,-31.8179)">
                <text x="410.91px" y="2088px" style="font-family:'Helvetica';font-size:26.804px;fill:rgb(29,29,27);">NUFENEN PASS</text>
                <text x="474.189px" y="2114.8px" style="font-family:'Helvetica';font-size:26.804px;fill:rgb(29,29,27);">2478m</text>
            </g>
            <g transform="matrix(1,-2.44929e-16,2.44929e-16,1,1595.33,-31.9804)">
                <text x="401.225px" y="2088px" style="font-family:'Helvetica';font-size:26.804px;fill:rgb(29,29,27);">ULRICHEN</text>
                <text x="428.755px" y="2114.8px" style="font-family:'Helvetica';font-size:26.804px;fill:rgb(29,29,27);">1346m</text>
            </g>
            <g transform="matrix(2.27344e-17,0.371282,-0.319935,1.95904e-17,2140.01,2018.59)">
                <path d="M236.22,2834.65L2066.93,2834.65" style="fill:none;stroke:rgb(29,29,27);stroke-opacity:0.2;stroke-width:6.45px;stroke-linecap:round;stroke-linejoin:round;"/>
            </g>
        </g>
        <g id="V" transform="matrix(0.931565,0,0,0.931565,175.935,-954.1)">
            <g transform="matrix(1,0,0,1,169.907,2799.12)">
                <text x="-18.906px" y="0px" style="font-family:'HelveticaNeue', 'Helvetica Neue';font-size:26.837px;">0m</text>
            </g>
            <g transform="matrix(1,0,0,1,155.065,2699.12)">
                <text x="-33.828px" y="0px" style="font-family:'HelveticaNeue', 'Helvetica Neue';font-size:26.837px;">500m</text>
            </g>
            <g transform="matrix(1,0,0,1,148.718,2599.2)">
                <text x="-41.288px" y="0px" style="font-family:'HelveticaNeue', 'Helvetica Neue';font-size:26.837px;">1000m</text>
            </g>
            <g transform="matrix(1,0,0,1,148.718,2499.34)">
                <text x="-41.288px" y="0px" style="font-family:'HelveticaNeue', 'Helvetica Neue';font-size:26.837px;">1500m</text>
            </g>
            <g transform="matrix(1,0,0,1,148.718,2399.34)">
                <text x="-41.288px" y="0px" style="font-family:'HelveticaNeue', 'Helvetica Neue';font-size:26.837px;">2000m</text>
            </g>
            <g transform="matrix(1,0,0,1,148.718,2298.78)">
                <text x="-41.288px" y="0px" style="font-family:'HelveticaNeue', 'Helvetica Neue';font-size:26.837px;">2500m</text>
            </g>
            <g transform="matrix(1,0,0,1,148.718,2198.74)">
                <text x="-41.288px" y="0px" style="font-family:'HelveticaNeue', 'Helvetica Neue';font-size:26.837px;">3000m</text>
            </g>
        </g>
        <g id="H">
            <g transform="matrix(0.931565,0,0,0.931565,361.277,1697.02)">
                <text x="-25.87px" y="0px" style="font-family:'HelveticaNeue', 'Helvetica Neue';font-size:26.837px;">0km</text>
            </g>
            <g transform="matrix(0.933154,0,0,0.931565,140.455,-1088.84)">
                <path d="M236.22,2834.65L2066.93,2834.65" style="fill:none;stroke:rgb(170,170,170);stroke-width:2.24px;stroke-linecap:butt;stroke-linejoin:miter;stroke-dasharray:2.24,2.24,2.24,2.24;"/>
            </g>
            <g transform="matrix(0.933154,0,0,0.931565,140.455,-1181.99)">
                <path d="M236.22,2834.65L2066.93,2834.65" style="fill:none;stroke:rgb(170,170,170);stroke-width:2.24px;stroke-linecap:butt;stroke-linejoin:miter;stroke-dasharray:2.24,2.24,2.24,2.24;"/>
            </g>
            <g transform="matrix(0.933154,0,0,0.931565,140.455,-1275.15)">
                <path d="M236.22,2834.65L2066.93,2834.65" style="fill:none;stroke:rgb(170,170,170);stroke-width:2.24px;stroke-linecap:butt;stroke-linejoin:miter;stroke-dasharray:2.24,2.24,2.24,2.24;"/>
            </g>
            <g transform="matrix(0.933154,0,0,0.931565,140.455,-1368.3)">
                <path d="M236.22,2834.65L2066.93,2834.65" style="fill:none;stroke:rgb(170,170,170);stroke-width:2.24px;stroke-linecap:butt;stroke-linejoin:miter;stroke-dasharray:2.24,2.24,2.24,2.24;"/>
            </g>
            <g transform="matrix(0.933154,0,0,0.931565,140.455,-1461.78)">
                <path d="M236.22,2834.65L2066.93,2834.65" style="fill:none;stroke:rgb(170,170,170);stroke-width:2.24px;stroke-linecap:butt;stroke-linejoin:miter;stroke-dasharray:2.24,2.24,2.24,2.24;"/>
            </g>
            <g transform="matrix(0.933154,0,0,0.931565,140.455,-1554.93)">
                <path d="M236.22,2834.65L2066.93,2834.65" style="fill:none;stroke:rgb(170,170,170);stroke-width:2.24px;stroke-linecap:butt;stroke-linejoin:miter;stroke-dasharray:2.24,2.24,2.24,2.24;"/>
            </g>
        </g>
        <g id="Axis">
            <g transform="matrix(0.931565,0,0,0.931565,140.83,-995.679)">
                <path d="M234.336,2834.65L2069.08,2834.65" style="fill:none;stroke:rgb(170,170,170);stroke-width:2.24px;stroke-linejoin:round;"/>
            </g>
            <g transform="matrix(2.12046e-17,0.344217,-0.298406,1.81623e-17,1205.01,933.958)">
                <path d="M236.22,2834.65L2064.04,2834.65" style="fill:none;stroke:rgb(170,170,170);stroke-width:6.47px;stroke-linecap:butt;stroke-linejoin:round;"/>
            </g>
            <g transform="matrix(2.12046e-17,0.344217,-0.298406,1.81623e-17,2914.18,934.952)">
                <path d="M236.22,2834.65L2061.15,2834.65" style="fill:none;stroke:rgb(170,170,170);stroke-width:6.47px;stroke-linecap:butt;stroke-linejoin:round;"/>
            </g>
        </g>
    </g>
</svg>
