<?xml version="1.0" encoding="UTF-8" standalone="no"?>
<!DOCTYPE svg PUBLIC "-//W3C//DTD SVG 1.1//EN" "http://www.w3.org/Graphics/SVG/1.1/DTD/svg11.dtd">
<svg width="100%" height="100%" viewBox="0 0 1903 756" version="1.1" xmlns="http://www.w3.org/2000/svg" xmlns:xlink="http://www.w3.org/1999/xlink" xml:space="preserve" xmlns:serif="http://www.serif.com/" style="fill-rule:evenodd;clip-rule:evenodd;stroke-linecap:square;stroke-linejoin:bevel;stroke-miterlimit:1.5;">
    <g transform="matrix(1,0,0,1,-276.613,-942.95)">
        <g id="bernardino" transform="matrix(0.932708,0,0,0.932708,139.711,-952.39)">
            <g transform="matrix(0.961506,0,0,0.321124,-156.818,1668.2)">
                <path d="M408.919,2454.22L845.007,2312.5L1318.59,2192.19L1369.69,2205.55L1640.6,2532.79L1898.91,2699.26L2312.05,3058.66L2312.77,3480.89L408.878,3480.89L408.919,2454.22Z" style="fill:rgb(226,226,226);"/>
            </g>
            <g transform="matrix(0.961506,0,0,0.321124,-156.818,1667.06)">
                <path d="M408.878,2449.62L844.981,2315.29L1317.27,2199.08L1370.02,2205.76L1644.89,2543.38L1899.53,2699.59C1899.53,2699.59 2309.1,3062.2 2310.94,3062.2" style="fill:none;stroke:rgb(227,6,19);stroke-width:6.23px;"/>
            </g>
            <g transform="matrix(0.997414,0,0,0.997414,1111.46,2840.55)">
                <text x="-25.839px" y="0px" style="font-family:'HelveticaNeue', 'Helvetica Neue';font-size:26.804px;">9km</text>
            </g>
            <g transform="matrix(1,0,0,1,2066.49,2841.61)">
                <text x="-33.29px" y="0px" style="font-family:'HelveticaNeue', 'Helvetica Neue';font-size:26.804px;">17km</text>
            </g>
            <g transform="matrix(1,-2.44929e-16,2.44929e-16,1,-285.398,-32.5432)">
                <text x="439.232px" y="2088px" style="font-family:'Helvetica';font-size:26.804px;fill:rgb(29,29,27);">HINTERREIN</text>
                <text x="480.157px" y="2114.8px" style="font-family:'Helvetica';font-size:26.804px;fill:rgb(29,29,27);">1624m</text>
            </g>
            <g transform="matrix(0.997414,-2.44296e-16,2.44296e-16,0.997414,577.773,-30.7674)">
                <text x="380.149px" y="2088px" style="font-family:'Helvetica';font-size:26.873px;fill:rgb(29,29,27);">SAN BERNARDINO</text>
                <text x="629.498px" y="2088px" style="font-family:'HelveticaNeue', 'Helvetica Neue';font-size:26.804px;fill:rgb(29,29,27);">P<tspan x="644.883px 662.252px " y="2088px 2088px ">AS</tspan>S</text>
                <text x="497.332px" y="2115.55px" style="font-family:'HelveticaNeue', 'Helvetica Neue';font-size:26.804px;fill:rgb(29,29,27);">2066</text>
                <text x="556.943px" y="2115.55px" style="font-family:'HelveticaNeue', 'Helvetica Neue';font-size:26.804px;fill:rgb(29,29,27);">m</text>
            </g>
            <g transform="matrix(1,-2.44929e-16,2.44929e-16,1,1597.24,-31.9804)">
                <text x="349.096px" y="2088px" style="font-family:'Helvetica';font-size:26.804px;fill:rgb(29,29,27);">SAN BERNARDINO</text>
                <text x="436.208px" y="2114.8px" style="font-family:'Helvetica';font-size:26.804px;fill:rgb(29,29,27);">769m</text>
            </g>
            <g transform="matrix(2.2559e-17,0.368416,-0.317466,1.94392e-17,2010.91,2018.66)">
                <path d="M236.22,2834.65L2066.93,2834.65" style="fill:none;stroke:rgb(29,29,27);stroke-opacity:0.2;stroke-width:6.5px;stroke-linecap:round;stroke-linejoin:round;"/>
            </g>
        </g>
        <g id="V" transform="matrix(0.931565,0,0,0.931565,175.935,-954.1)">
            <g transform="matrix(1,0,0,1,169.907,2799.12)">
                <text x="-18.906px" y="0px" style="font-family:'HelveticaNeue', 'Helvetica Neue';font-size:26.837px;">0m</text>
            </g>
            <g transform="matrix(1,0,0,1,155.065,2699.12)">
                <text x="-33.828px" y="0px" style="font-family:'HelveticaNeue', 'Helvetica Neue';font-size:26.837px;">500m</text>
            </g>
            <g transform="matrix(1,0,0,1,148.718,2599.2)">
                <text x="-41.288px" y="0px" style="font-family:'HelveticaNeue', 'Helvetica Neue';font-size:26.837px;">1000m</text>
            </g>
            <g transform="matrix(1,0,0,1,148.718,2499.34)">
                <text x="-41.288px" y="0px" style="font-family:'HelveticaNeue', 'Helvetica Neue';font-size:26.837px;">1500m</text>
            </g>
            <g transform="matrix(1,0,0,1,148.718,2399.34)">
                <text x="-41.288px" y="0px" style="font-family:'HelveticaNeue', 'Helvetica Neue';font-size:26.837px;">2000m</text>
            </g>
            <g transform="matrix(1,0,0,1,148.718,2298.78)">
                <text x="-41.288px" y="0px" style="font-family:'HelveticaNeue', 'Helvetica Neue';font-size:26.837px;">2500m</text>
            </g>
            <g transform="matrix(1,0,0,1,148.718,2198.74)">
                <text x="-41.288px" y="0px" style="font-family:'HelveticaNeue', 'Helvetica Neue';font-size:26.837px;">3000m</text>
            </g>
        </g>
        <g id="H">
            <g transform="matrix(0.931565,0,0,0.931565,361.277,1697.02)">
                <text x="-25.87px" y="0px" style="font-family:'HelveticaNeue', 'Helvetica Neue';font-size:26.837px;">0km</text>
            </g>
            <g transform="matrix(0.933154,0,0,0.931565,140.455,-1088.84)">
                <path d="M236.22,2834.65L2066.93,2834.65" style="fill:none;stroke:rgb(170,170,170);stroke-width:2.24px;stroke-linecap:butt;stroke-linejoin:miter;stroke-dasharray:2.24,2.24,2.24,2.24;"/>
            </g>
            <g transform="matrix(0.933154,0,0,0.931565,140.455,-1181.99)">
                <path d="M236.22,2834.65L2066.93,2834.65" style="fill:none;stroke:rgb(170,170,170);stroke-width:2.24px;stroke-linecap:butt;stroke-linejoin:miter;stroke-dasharray:2.24,2.24,2.24,2.24;"/>
            </g>
            <g transform="matrix(0.933154,0,0,0.931565,140.455,-1275.15)">
                <path d="M236.22,2834.65L2066.93,2834.65" style="fill:none;stroke:rgb(170,170,170);stroke-width:2.24px;stroke-linecap:butt;stroke-linejoin:miter;stroke-dasharray:2.24,2.24,2.24,2.24;"/>
            </g>
            <g transform="matrix(0.933154,0,0,0.931565,140.455,-1368.3)">
                <path d="M236.22,2834.65L2066.93,2834.65" style="fill:none;stroke:rgb(170,170,170);stroke-width:2.24px;stroke-linecap:butt;stroke-linejoin:miter;stroke-dasharray:2.24,2.24,2.24,2.24;"/>
            </g>
            <g transform="matrix(0.933154,0,0,0.931565,140.455,-1461.78)">
                <path d="M236.22,2834.65L2066.93,2834.65" style="fill:none;stroke:rgb(170,170,170);stroke-width:2.24px;stroke-linecap:butt;stroke-linejoin:miter;stroke-dasharray:2.24,2.24,2.24,2.24;"/>
            </g>
            <g transform="matrix(0.933154,0,0,0.931565,140.455,-1554.93)">
                <path d="M236.22,2834.65L2066.93,2834.65" style="fill:none;stroke:rgb(170,170,170);stroke-width:2.24px;stroke-linecap:butt;stroke-linejoin:miter;stroke-dasharray:2.24,2.24,2.24,2.24;"/>
            </g>
        </g>
        <g id="Axis">
            <g transform="matrix(0.931565,0,0,0.931565,140.83,-995.679)">
                <path d="M234.336,2834.65L2069.08,2834.65" style="fill:none;stroke:rgb(170,170,170);stroke-width:2.24px;stroke-linejoin:round;"/>
            </g>
            <g transform="matrix(2.12046e-17,0.344217,-0.298406,1.81623e-17,1205.01,933.958)">
                <path d="M236.22,2834.65L2064.04,2834.65" style="fill:none;stroke:rgb(170,170,170);stroke-width:6.47px;stroke-linecap:butt;stroke-linejoin:round;"/>
            </g>
            <g transform="matrix(2.12046e-17,0.344217,-0.298406,1.81623e-17,2914.18,934.952)">
                <path d="M236.22,2834.65L2061.15,2834.65" style="fill:none;stroke:rgb(170,170,170);stroke-width:6.47px;stroke-linecap:butt;stroke-linejoin:round;"/>
            </g>
        </g>
    </g>
</svg>
