<?xml version="1.0" encoding="UTF-8" standalone="no"?>
<!DOCTYPE svg PUBLIC "-//W3C//DTD SVG 1.1//EN" "http://www.w3.org/Graphics/SVG/1.1/DTD/svg11.dtd">
<svg width="100%" height="100%" viewBox="0 0 3852 2464" version="1.1" xmlns="http://www.w3.org/2000/svg" xmlns:xlink="http://www.w3.org/1999/xlink" xml:space="preserve" xmlns:serif="http://www.serif.com/" style="fill-rule:evenodd;clip-rule:evenodd;stroke-linecap:square;stroke-miterlimit:1.5;">
    <g transform="matrix(1,0,0,1,-142.889,-68.3913)">
        <g>
            <g id="LAKE-GVA" serif:id="LAKE GVA" transform="matrix(1.48755,0,0,1.48755,-1677.72,-1206.79)">
                <path d="M1411.77,2002.74C1411.77,2002.74 1441.84,2001.94 1448.95,2000.38C1456.06,1998.83 1482.37,1984.38 1482.37,1984.38L1497.12,1963.51L1518.62,1961.42L1540.8,1962.19L1563.24,1960.06L1591.5,1968.11L1615.28,1973.17L1629.79,1981.74L1649.77,1985.48L1679.72,1995.2L1714.83,2016.68L1731.07,2026.02L1746.68,2035.53C1746.68,2035.53 1750.87,2042.39 1744.77,2045.78C1738.66,2049.18 1733.22,2055.29 1733.22,2055.29L1711.32,2057.57L1693.35,2063.7L1664.93,2057.59L1629.74,2048.27L1603.82,2045.42L1565.28,2050.04L1536.67,2050.9L1522.82,2056.05L1507.51,2050.2L1495.21,2055L1487.51,2072.08L1471.96,2081.56L1450.22,2085.87L1444.36,2096.18C1444.36,2096.18 1438.55,2102.28 1432.33,2100.52C1426.11,2098.76 1415.31,2099.09 1413.82,2094.09C1412.33,2089.1 1415.69,2077.91 1407.81,2078.24C1399.93,2078.56 1390.27,2081.86 1390.27,2081.86L1372.95,2098.61L1361.09,2119.57L1352.83,2140.76L1339.39,2158.5L1325.76,2183.49L1297.64,2224.46L1281.67,2214.88L1281.67,2200.3L1305.24,2154.12L1316.85,2121.28L1339.22,2081.11L1361.22,2057.81L1374.51,2056.76L1384.97,2028.79L1411.77,2002.74Z" style="fill:rgb(177,220,236);"/>
            </g>
            <g transform="matrix(1.48755,0,0,1.48755,-1621.96,-1232.93)">
                <path d="M1440.55,1762.55C1440.55,1762.55 1452.62,1762.11 1456.55,1758.92C1460.47,1755.74 1472.37,1742.82 1472.37,1742.82L1475.15,1730.38L1461.03,1715.29L1465.43,1707.6L1466.82,1688.03L1475.37,1680.53L1479.15,1646.9L1461.81,1615.41L1496.66,1570.51L1501.96,1575.15L1552.49,1560.64L1566.03,1560.58L1579.84,1550.26L1586.72,1533.92L1613.26,1521.39L1624.31,1509.87L1609.59,1498.62L1616.66,1492.48L1614.73,1485.58L1639.52,1477.23L1635.67,1465.77L1664.33,1450.03L1702.77,1416.52L1693.03,1410.07L1711.63,1400.76L1716.05,1386.19L1757.93,1349.2L1750.48,1315.78L1779.6,1307.74L1791.98,1294.99L1790.92,1283.6L1809.76,1281.87L1818.12,1267.43L1813.1,1264.69L1811.86,1252.28L1803,1250.63L1801.04,1244.86L1793.37,1243.16L1770.85,1251.89L1739.59,1256.73L1726.76,1253.27L1713.8,1258.07L1715.43,1243.61L1734.01,1231.2L1733.84,1216.78L1749.65,1213.22L1748.72,1192.31L1762.13,1189.87L1765.41,1180.65L1782.59,1174.19L1774.44,1141.07L1796.08,1132.99L1824.16,1143.32L1856.22,1132.91L1875.51,1142.97L1896.94,1141.1L1890.35,1147.31L1880.93,1183.84L1895.22,1190.42L1914.04,1186.28L1923.52,1198.34L1923.72,1203.3L1943.3,1191.8L1972.12,1185.98L2000.83,1193.59L2023.06,1181.86L2026.47,1173.21L2037.62,1168.93L2043.2,1160.23L2036.06,1153.46L2022.66,1153.01L2029.02,1138.47L2049.4,1150.79L2060.58,1150.56L2073.24,1133.66L2068.28,1121.08L2078.82,1122.35L2086.69,1112.45L2079.78,1106.63L2068.46,1111.15L2068.01,1102.16L2099.63,1081.32L2107.69,1071.91L2115.73,1071.37L2119.08,1061.09L2127.05,1063.84L2128.79,1071.52L2137.38,1071.01L2151.13,1054.24L2167.17,1057.74L2166.71,1064.54L2175.7,1076.86L2169.76,1080.67L2143.81,1085.63L2167.92,1106.9L2236.2,1087.55L2251.27,1060.81L2264.35,1066.09L2281.85,1062.02L2296.72,1066.74L2299.03,1083.23L2305.74,1095.77L2323.82,1097.43L2329.45,1087.7L2363.19,1093.25L2391.55,1082.27L2404.89,1085.95L2415.55,1066.32L2430.29,1064.67L2430.73,1058.73L2462.43,1036.84L2472.83,1034.45L2479.17,1047.36L2500.84,1040.4L2518.62,1043.3L2521.98,1062.05L2544.29,1076.75L2568.56,1080.91L2578.51,1070.71L2600.14,1076.67L2620.66,1071.59L2613.08,1049.87L2626.03,1038.47L2648.21,1021.78L2674.3,1050.71L2694.52,1042.07L2709.78,1007.92L2681.42,999.197L2654.18,1000.39L2637.76,1012.61L2619.57,1018.61L2616.52,1004.17L2583.1,986.972L2591.5,978.618L2583.51,965.702L2608.7,947.647L2610.72,925.475L2635.26,903.68L2647.41,906.656L2668.63,896.473L2673.5,900.441L2676.72,877.329L2699.99,882.237L2704.39,905.116L2711.2,916.677L2723.88,883.514L2739.42,894.346L2744.27,915.724L2760.15,914.272L2772.27,922.92L2760.81,942.643L2769.06,971.885L2804.35,984.92L2793.89,950.228L2821.4,945.565L2849.91,964.88L2853.34,1006.14L2878.45,1001.73L3013.16,997.066L3124.41,1068.29L3177.32,1152.78L3243.44,1139.06L3259.41,1164.01L3270.24,1162.56L3295.71,1177.8L3287.38,1210.36L3245.54,1301.04L3209.43,1355.13L3215.24,1479.35L3187.32,1502.62L3231.47,1503.02L3242.48,1513.02L3264.69,1506.41L3278.62,1512.77L3309.8,1505.2L3330.92,1517.79L3366.79,1524.11L3387.43,1538.33L3418.99,1538.2L3428.4,1563.57L3417.33,1596.05L3436.85,1616.56L3472.23,1625.71L3505.48,1643.27L3530.14,1668.14L3555.46,1683.95L3597.08,1671.18L3616.54,1667.91L3627.74,1611.01L3668.82,1614.9L3671.01,1590.98L3689.02,1560.92L3715.06,1555.38L3731.82,1583.67L3766.3,1608.61L3756.88,1659.73L3744.34,1705.35L3734.17,1731.55L3739.84,1762.72L3719.54,1774.14L3727.42,1793.78L3710.61,1817.94L3773.27,1874.36L3758.7,1953.02L3715.84,1932.2L3657.79,1935.78L3645.63,1909.75L3631.92,1910.8L3627.36,1889.32L3633.81,1879L3627.56,1856.13L3609.76,1874.34L3591.07,1869.29L3560.51,1879.28L3542.91,1879.05L3548.58,1901.3L3540.38,1950.99L3536.15,1988.33L3532.27,2031.58L3569.37,2027.57L3589.66,2047.11L3577.38,2066.96L3561.57,2072.97L3550.66,2098.07L3574.17,2138.69L3588.2,2167.64L3567.82,2193L3542.96,2191.75L3526.43,2202.66L3510.68,2189.86L3521.48,2178.78L3521.11,2158.89L3486.89,2144.74L3485.49,2122.97L3476.86,2116.58L3487.89,2088.02L3463.81,2076.57L3441.76,2077.64L3411.18,2083.4L3362.65,2109.96L3336.33,2095.73L3328.59,2116.33L3327.1,2140.28L3305.41,2134.88L3283.12,2143.72L3247.52,2138.6L3211.93,2106.48L3201.48,2080.9L3180.72,2074.96L3180.63,2035.1L3177.05,1983.6L3181.67,1964.78L3146.68,2001.68L3126.29,1956.38L3081.37,1974.85L3077.6,2004.12L3062.08,2026.11L3079.55,2049.72L3081.38,2085.95L3090.57,2106.61L3082.14,2137.98L3061.29,2170.58L3059.72,2189.41L3035.82,2212.65L3018.58,2241.95L2999.78,2255.62L2963.92,2293.05L2961.06,2329.13L2924.85,2340.94L2935.7,2385.05L2915.2,2400.24L2928.96,2417.54L2932.07,2434.51L2956.53,2450.86L2970.98,2463.66L2954.74,2481.16L2936.36,2528.17L2918.62,2527.28L2916.4,2511.95L2895.67,2511.01L2871.04,2514.97L2879.12,2475.25L2871.75,2450.05L2859.37,2416.17L2819.75,2388.89L2801.01,2389.21L2815.47,2353.8L2836.67,2325.31L2813.7,2297.88L2801.57,2303.74L2776.59,2287.5L2754.15,2300.37L2721.71,2280.18L2702.6,2282.98L2693.02,2256.34L2668.67,2226.66L2654.76,2202.58L2617.5,2188.68L2604.5,2177.07L2610.72,2164.98L2596.24,2133.7L2610.3,2113.36L2615.64,2090.54L2621.37,2077.88L2614.69,2062.28L2618.74,2041.13L2611.3,2029.68L2617.1,2017.86L2605.16,2005.01L2575.69,2015.01L2558.7,2010.26L2540.26,2029.43L2524.2,2033.98L2516.95,2045.34L2530.92,2053.67L2529.06,2072.6L2505.05,2081.46L2499.61,2094.34L2479.17,2108.88L2469.89,2131.13L2443.86,2139.2L2424.67,2135.55L2401.83,2167.13L2412.97,2178.33L2430.47,2196.31L2444.2,2236.73L2432.15,2258.91L2418.21,2275.9L2414.19,2285.96L2370.98,2300.35L2368.04,2337.75L2358.41,2354.32L2359.95,2369.91L2350.13,2375.88L2344.41,2382.34L2298.93,2381.73L2282.72,2401.62L2282.63,2440.99L2273.4,2449.19L2250.5,2441.28L2235.51,2444.33L2207.4,2429.41L2197.03,2442.63L2183.57,2423.64L2162.53,2403.7L2130.03,2405.74L2123.69,2391.23L2108.72,2393.03L2103.19,2408.56L2085.64,2403.87L2076.25,2432.81L2066.36,2439.95L2016.08,2456.17L2001.81,2463.05L1979.27,2452.06L1964.73,2454.46L1949.85,2445.07L1929.6,2469.94L1903.97,2474.68L1895.03,2493.24L1873.06,2482.88L1843.97,2496.91L1825.63,2463.92L1809.31,2436.41L1797.38,2412.4L1789.37,2384.18L1763.68,2365.32L1752.4,2339.78L1742.85,2330.78L1717.65,2345.72L1708.54,2338.25L1716.3,2306.81L1721.73,2278.76L1690.32,2270.32L1669.04,2264.78L1675.69,2232.45L1670.63,2212.46L1700.49,2176.14L1703.1,2142.67L1678.32,2119.68L1661.87,2108.41L1653.38,2090.97L1670.51,2068.55L1678.84,2030.75L1598.61,2005.75L1513.13,2006.18L1450.33,2041.72L1402.37,2047.72L1341.13,2117.06L1356.49,2138.07L1351.84,2153.92L1363.61,2174.76L1383.54,2169.93L1381.4,2195.86L1352.92,2219.22L1329.54,2239.6L1323.27,2258.85L1285.2,2261.87L1257.29,2248.92L1236.52,2267.65L1214.74,2264.05L1188.94,2269.69L1200.27,2235.75L1196.18,2205L1232.35,2181.6L1241.09,2187.62L1249.08,2176.29L1269.32,2179.09L1284.15,2173.6L1274.4,2144.15L1283.53,2119.02L1311.59,2078.44L1303.9,2067.25L1297.99,2070.32L1249.5,2037.06L1259.74,2014.95L1254.93,1999.67L1301.17,1931.73L1278.67,1904.8L1378.57,1807.41L1425.15,1786.14L1440.55,1762.55Z" style="fill:none;stroke:rgb(29,29,27);stroke-width:2.8px;"/>
            </g>
           
            <g transform="matrix(1,0,0,1,-314.826,-159.606)">
                <circle cx="4198.11" cy="1807.38" r="25.285"/>
            </g>
            <g transform="matrix(1,0,0,1,-376.299,-309.46)">
                <circle cx="4198.11" cy="1807.38" r="25.285"/>
            </g>
            <g transform="matrix(1,0,0,1,-537.813,51.5117)">
                <circle cx="4198.11" cy="1807.38" r="25.285"/>
            </g>
            <g transform="matrix(1,0,0,1,-872.381,-28.0253)">
                <circle cx="4198.11" cy="1807.38" r="25.285"/>
            </g>
            <g transform="matrix(1,0,0,1,-884.665,-98.1577)">
                <circle cx="4198.11" cy="1807.38" r="25.285"/>
            </g>
            <g transform="matrix(1,0,0,1,-1201.67,-128.158)">
                <circle cx="4198.11" cy="1807.38" r="25.285"/>
            </g>
            <g transform="matrix(1,0,0,1,-1634.72,-348.119)">
                <circle cx="4198.11" cy="1807.38" r="25.285"/>
            </g>
            <g transform="matrix(1,0,0,1,-2009.32,-435.563)">
                <circle cx="4198.11" cy="1807.38" r="25.285"/>
            </g>
            <g transform="matrix(1,0,0,1,-1745.26,-588.337)">
                <circle cx="4198.11" cy="1807.38" r="25.285"/>
            </g>
            <g transform="matrix(1,0,0,1,-2097.02,-305.55)">
                <circle cx="4198.11" cy="1807.38" r="25.285"/>
            </g>
            <g transform="matrix(1,0,0,1,-1968.75,-214.954)">
                <circle cx="4198.11" cy="1807.38" r="25.285"/>
            </g>
            <g transform="matrix(1,0,0,1,-1829.81,-155.385)">
                <circle cx="4198.11" cy="1807.38" r="25.285"/>
            </g>
            <g transform="matrix(1,0,0,1,-1934.81,-94.3847)">
                <circle cx="4198.11" cy="1807.38" r="25.285"/>
            </g>
            <g transform="matrix(1,0,0,1,-1495.98,-203.874)">
                <circle cx="4198.11" cy="1807.38" r="25.285"/>
            </g>
            <g transform="matrix(1,0,0,1,-1291.9,-36.8156)">
                <circle cx="4198.11" cy="1807.38" r="25.285"/>
            </g>
            <g transform="matrix(1,0,0,1,-2191.71,244.617)">
                <circle cx="4198.11" cy="1807.38" r="25.285"/>
            </g>
            <g transform="matrix(1,0,0,1,-3093.43,-40.8156)">
                <circle cx="4198.11" cy="1807.38" r="25.285"/>
            </g>
            <g transform="matrix(1,0,0,1,-2968.51,-284.818)">
                <circle cx="4198.11" cy="1807.38" r="25.285"/>
            </g>
            <g transform="matrix(1,0,0,1,-3059.3,75.2401)">
                <circle cx="4198.11" cy="1807.38" r="25.285"/>
            </g>

            <g transform="matrix(1,0,0,1,-3109.3,145.24)">
                <circle cx="4198.11" cy="1807.38" r="25.285"/>
            </g>
            <g transform="matrix(1,0,0,1,-3817.77,-204.874)">
                <circle cx="4198.11" cy="1807.38" r="25.285"/>
            </g>
            <g transform="matrix(1,0,0,1,-3080.58,631.461)">
                <circle cx="4198.11" cy="1807.38" r="25.285"/>
            </g>
            <g transform="matrix(1,0,0,1,-3224.04,456.995)">
                <circle cx="4198.11" cy="1807.38" r="25.285"/>
            </g>
            <g transform="matrix(1,0,0,1,-3304.04,286.995)">
                <circle cx="4198.11" cy="1807.38" r="25.285"/>
            </g>
            <g transform="matrix(1,0,0,1,-3131.15,507.564)">
                <circle cx="4198.11" cy="1807.38" r="25.285"/>
            </g>
            <g transform="matrix(1,0,0,1,-784.354,-180.081)">
                <circle cx="4198.11" cy="1807.38" r="25.285"/>
            </g>
            <g transform="matrix(1,0,0,1,-680.201,-410.278)">
                <circle cx="4198.11" cy="1807.38" r="25.285"/>
            </g>
            <g id="INTERLAKEN" transform="matrix(1,0,0,1,-237.936,-203.115)">
                <g transform="matrix(0.999848,0,0,0.999956,-39.9939,9.99956)">
                    <path d="M2078.89,1571.58C2078.89,1571.58 2152.32,1534.03 2183.39,1508.94C2187.06,1505.97 2206.94,1490.51 2210.64,1489.09C2221.36,1484.99 2233.47,1483.17 2233.47,1483.17L2255.02,1486.98L2262.2,1494.68L2201.17,1525.5L2168.43,1548.78L2157.2,1556.21L2125.73,1562.8L2084.94,1581.94" style="fill:rgb(177,220,236);"/>
                </g>
                <g transform="matrix(0.956189,0,0,0.816366,89.3657,296.801)">
                    <path d="M2038.53,1593.44L2021.1,1605.18L2009.37,1596.53L1977.79,1615.87L1933.86,1586.38L1898.79,1562.29L1869.98,1525.89L1860.01,1506.17L1865.29,1476.36L1906.11,1517.25L1940.81,1538.01L1954.52,1559.1L1968.15,1576.86L1988.58,1574.61C1997.09,1571.89 2016.88,1574.71 2016.88,1574.71" style="fill:rgb(177,220,236);"/>
                </g>
            </g>
            <g id="LAKE-ZURICH" serif:id="LAKE ZURICH" transform="matrix(1.48755,0,0,1.48755,-1669.59,-1275.34)">
                <path d="M2660.44,1249.22L2655.87,1265.88L2672.84,1301.88L2695.6,1339.78L2738.23,1363.81L2760.23,1384.94L2805.41,1383.28L2831.88,1393.36L2846.04,1382.07L2860.83,1382.94L2885.66,1376.69L2880.86,1367.27L2858.8,1371.87L2827.78,1370.19L2815.73,1367.46L2809.2,1356.37L2785.49,1356.54L2745.13,1345.37L2722.31,1333.5L2705.58,1323.14L2689.67,1297.83L2670.12,1262.33L2660.44,1249.22Z" style="fill:rgb(177,220,236);"/>
            </g>
        </g>
    </g>
</svg>
