<?xml version="1.0" encoding="UTF-8" standalone="no"?>
<!DOCTYPE svg PUBLIC "-//W3C//DTD SVG 1.1//EN" "http://www.w3.org/Graphics/SVG/1.1/DTD/svg11.dtd">
<svg width="100%" height="100%" viewBox="0 0 2022 1028" version="1.1" xmlns="http://www.w3.org/2000/svg" xmlns:xlink="http://www.w3.org/1999/xlink" xml:space="preserve" xmlns:serif="http://www.serif.com/" style="fill-rule:evenodd;clip-rule:evenodd;stroke-linecap:square;stroke-linejoin:round;stroke-miterlimit:1.5;">
    <g transform="matrix(1,0,0,1,-42.6519,-81.2526)">
        <g id="text" transform="matrix(1,0,0,1,43.1519,-73.4723)">
            <g transform="matrix(1,0,0,1,9.08097,0.200714)">
                <g transform="matrix(27,0,0,27,1288.07,234.112)">
                </g>
                <text x="679.162px" y="234.112px" style="font-family:'HelveticaNeue-Bold', 'Helvetica Neue';font-weight:700;font-size:27px;">Mittelallalin 3500 m.ü.M - Saas Fee 1800 m.ü.M</text>
            </g>
            <g transform="matrix(1,0,0,1,-657.742,79.1183)">
                <g transform="matrix(27,0,0,27,766.642,234.112)">
                </g>
                <text x="679.162px" y="234.112px" style="font-family:'HelveticaNeue-Bold', 'Helvetica Neue';font-weight:700;font-size:27px;">m.ü.M</text>
            </g>
            <g transform="matrix(1,0,0,1,-647.886,144.969)">
                <g transform="matrix(27,0,0,27,739.21,234.112)">
                </g>
                <text x="679.162px" y="234.112px" style="font-family:'HelveticaNeue-Bold', 'Helvetica Neue';font-weight:700;font-size:27px;">3500</text>
            </g>
            <g transform="matrix(1,0,0,1,-647.886,238.257)">
                <g transform="matrix(27,0,0,27,739.21,234.112)">
                </g>
                <text x="679.162px" y="234.112px" style="font-family:'HelveticaNeue-Bold', 'Helvetica Neue';font-weight:700;font-size:27px;">3200</text>
            </g>
            <g transform="matrix(1,0,0,1,-647.886,306.611)">
                <g transform="matrix(27,0,0,27,739.21,234.112)">
                </g>
                <text x="679.162px" y="234.112px" style="font-family:'HelveticaNeue-Bold', 'Helvetica Neue';font-weight:700;font-size:27px;">3000</text>
            </g>
            <g transform="matrix(1,0,0,1,-647.968,345.511)">
                <g transform="matrix(27,0,0,27,739.21,234.112)">
                </g>
                <text x="679.162px" y="234.112px" style="font-family:'HelveticaNeue-Bold', 'Helvetica Neue';font-weight:700;font-size:27px;">2900</text>
            </g>
            <g transform="matrix(1,0,0,1,-647.968,424.166)">
                <g transform="matrix(27,0,0,27,739.21,234.112)">
                </g>
                <text x="679.162px" y="234.112px" style="font-family:'HelveticaNeue-Bold', 'Helvetica Neue';font-weight:700;font-size:27px;">2600</text>
            </g>
            <g transform="matrix(1,0,0,1,-647.968,588.627)">
                <g transform="matrix(27,0,0,27,739.21,234.112)">
                </g>
                <text x="679.162px" y="234.112px" style="font-family:'HelveticaNeue-Bold', 'Helvetica Neue';font-weight:700;font-size:27px;">2100</text>
            </g>
            <g transform="matrix(1,0,0,1,-649.399,652.739)">
                <g transform="matrix(27,0,0,27,739.21,234.112)">
                </g>
                <text x="679.162px" y="234.112px" style="font-family:'HelveticaNeue-Bold', 'Helvetica Neue';font-weight:700;font-size:27px;">1900</text>
            </g>
            <g transform="matrix(1,0,0,1,-649.399,703.92)">
                <g transform="matrix(27,0,0,27,739.21,234.112)">
                </g>
                <text x="679.162px" y="234.112px" style="font-family:'HelveticaNeue-Bold', 'Helvetica Neue';font-weight:700;font-size:27px;">1800</text>
            </g>
            <g transform="matrix(1,0,0,1,-505.345,803.099)">
                <g transform="matrix(27,0,0,27,748.66,234.112)">
                </g>
                <text x="679.162px" y="234.112px" style="font-family:'HelveticaNeue-Bold', 'Helvetica Neue';font-weight:700;font-size:27px;">500m</text>
            </g>
            <g transform="matrix(1,0,0,1,-263.25,803.1)">
                <g transform="matrix(27,0,0,27,763.672,234.112)">
                </g>
                <text x="679.162px" y="234.112px" style="font-family:'HelveticaNeue-Bold', 'Helvetica Neue';font-weight:700;font-size:27px;">1000m</text>
            </g>
            <g transform="matrix(1,0,0,1,-48.1482,803.1)">
                <g transform="matrix(27,0,0,27,748.66,234.112)">
                </g>
                <text x="679.162px" y="234.112px" style="font-family:'HelveticaNeue-Bold', 'Helvetica Neue';font-weight:700;font-size:27px;">250m</text>
            </g>
            <g transform="matrix(1,0,0,1,153.748,803.1)">
                <g transform="matrix(27,0,0,27,763.672,234.112)">
                </g>
                <text x="679.162px" y="234.112px" style="font-family:'HelveticaNeue-Bold', 'Helvetica Neue';font-weight:700;font-size:27px;">1150m</text>
            </g>
            <g transform="matrix(1,0,0,1,516.357,803.1)">
                <g transform="matrix(27,0,0,27,763.672,234.112)">
                </g>
                <text x="679.162px" y="234.112px" style="font-family:'HelveticaNeue-Bold', 'Helvetica Neue';font-weight:700;font-size:27px;">1000m</text>
            </g>
            <g transform="matrix(1,0,0,1,777.272,803.1)">
                <g transform="matrix(27,0,0,27,748.66,234.112)">
                </g>
                <text x="679.162px" y="234.112px" style="font-family:'HelveticaNeue-Bold', 'Helvetica Neue';font-weight:700;font-size:27px;">500m</text>
            </g>
            <g transform="matrix(1,0,0,1,1076.44,803.1)">
                <g transform="matrix(27,0,0,27,763.672,234.112)">
                </g>
                <text x="679.162px" y="234.112px" style="font-family:'HelveticaNeue-Bold', 'Helvetica Neue';font-weight:700;font-size:27px;">1300m</text>
            </g>
            <g transform="matrix(1,0,0,1,302.238,867.084)">
                <g transform="matrix(27,0,0,27,763.672,234.112)">
                </g>
                <text x="679.162px" y="234.112px" style="font-family:'HelveticaNeue-Bold', 'Helvetica Neue';font-weight:700;font-size:27px;">5700m</text>
            </g>
            <g transform="matrix(1,0,0,1,-483.335,73.3357)">
                <g transform="matrix(27,0,0,27,904.504,234.112)">
                </g>
                <text x="679.162px" y="234.112px" style="font-family:'HelveticaNeue-Bold', 'Helvetica Neue';font-weight:700;font-size:27px;">Start Mittelallalin</text>
            </g>
            <g transform="matrix(1,0,0,1,-38.2985,137.98)">
                <g transform="matrix(27,0,0,27,873.616,234.112)">
                </g>
                <text x="679.162px" y="234.112px" style="font-family:'HelveticaNeue-Bold', 'Helvetica Neue';font-weight:700;font-size:27px;">Panoramaplatz</text>
            </g>
            <g transform="matrix(1,0,0,1,27.0368,219.91)">
                <g transform="matrix(27,0,0,27,875.155,234.112)">
                </g>
                <text x="679.162px" y="234.112px" style="font-family:'HelveticaNeue-Bold', 'Helvetica Neue';font-weight:700;font-size:27px;">Panoramahang</text>
            </g>
            <g transform="matrix(1,0,0,1,472.97,327.102)">
                <g transform="matrix(27,0,0,27,781.168,234.112)">
                </g>
                <text x="679.162px" y="234.112px" style="font-family:'HelveticaNeue-Bold', 'Helvetica Neue';font-weight:700;font-size:27px;">Maste 4</text>
            </g>
            <g transform="matrix(1,0,0,1,217.337,947.693)">
                <g transform="matrix(27,0,0,27,931.126,234.112)">
                </g>
                <text x="679.162px" y="234.112px" style="font-family:'HelveticaNeue-Bold', 'Helvetica Neue';font-weight:700;font-size:27px;">Horizontale Distanz</text>
            </g>
            <g transform="matrix(1,0,0,1,807.623,506.121)">
                <g transform="matrix(27,0,0,27,854.176,234.112)">
                </g>
                <text x="679.162px" y="234.112px" style="font-family:'HelveticaNeue-Bold', 'Helvetica Neue';font-weight:700;font-size:27px;">Gr<tspan x="709.672px 726.169px " y="234.112px 234.112px ">os</tspan>ser Stein</text>
            </g>
            <g transform="matrix(1,0,0,1,1025.56,586.658)">
                <g transform="matrix(27,0,0,27,909.04,234.112)">
                </g>
                <text x="679.162px" y="234.112px" style="font-family:'HelveticaNeue-Bold', 'Helvetica Neue';font-weight:700;font-size:27px;">Ziel Alpin Expr<tspan x="864.544px 880.042px " y="234.112px 234.112px ">es</tspan>s</text>
            </g>
            <g transform="matrix(0.588674,0,0,0.588674,301.233,95.4247)">
                <g transform="matrix(90.912,0,0,90.912,1631.79,167.192)">
                </g>
                <text x="706.492px" y="167.192px" style="font-family:'HelveticaNeue-Bold', 'Helvetica Neue';font-weight:700;font-size:90.912px;">Glacier Bike Downhill</text>
            </g>
        </g>
        <g id="Axis" transform="matrix(1,0,0,1,43.1519,-73.4723)">
            <path d="M128.689,389.366L128.689,947.928L2000,947.928" style="fill:none;stroke:#000;stroke-width:5px;"/>
        </g>
        <g id="lines" transform="matrix(1,0,0,1,-206.848,-23.4723)">
            <g transform="matrix(1,0,0,1,250,-50)">
                <path d="M128.689,1142.53L128.689,947.928" style="fill:none;stroke:#000;stroke-width:1px;stroke-linecap:round;"/>
            </g>
            <g transform="matrix(3.39059,0,0,3.39059,107.897,-2781.32)">
                <path d="M128.689,1142.53L128.689,947.928" style="fill:none;stroke:#000;stroke-width:0.29px;stroke-linecap:round;"/>
            </g>
            <g transform="matrix(3.39059,0,0,3.39059,438.244,-2781.32)">
                <path d="M128.689,1142.53L128.689,968.543" style="fill:none;stroke:#000;stroke-width:0.29px;stroke-linecap:round;"/>
            </g>
            <g transform="matrix(3.39059,0,0,3.39059,521.934,-2781.32)">
                <path d="M128.689,1142.53L128.689,978.418" style="fill:none;stroke:#000;stroke-width:0.29px;stroke-linecap:round;"/>
            </g>
            <g transform="matrix(3.39059,0,0,3.39059,899.179,-2781.32)">
                <path d="M128.689,1142.53L128.689,1002.53" style="fill:none;stroke:#000;stroke-width:0.29px;stroke-linecap:round;"/>
            </g>
            <g transform="matrix(3.39059,0,0,3.39059,1225.59,-2781.32)">
                <path d="M128.689,1142.53L128.689,1051.24" style="fill:none;stroke:#000;stroke-width:0.29px;stroke-linecap:round;"/>
            </g>
            <g transform="matrix(3.39059,0,0,3.39059,1388.71,-2781.32)">
                <path d="M128.689,1142.53L128.689,1070.21" style="fill:none;stroke:#000;stroke-width:0.29px;stroke-linecap:round;"/>
            </g>
            <g transform="matrix(1,0,0,1,250,-50)">
                <path d="M0,897.317L1574.82,897.317" style="fill:none;stroke:#000;stroke-width:1px;stroke-linecap:round;"/>
            </g>
            <g transform="matrix(1,0,0,1,250,0.610473)">
                <path d="M0,897.317L2000,897.317" style="fill:none;stroke:#000;stroke-width:1px;stroke-linecap:round;"/>
            </g>
            <g transform="matrix(1,0,0,1,250,-114.683)">
                <path d="M0,897.317L1411.92,897.317" style="fill:none;stroke:#000;stroke-width:1px;stroke-linecap:round;"/>
            </g>
            <g transform="matrix(1,0,0,1,250,-278.671)">
                <path d="M0,897.317L1085.51,897.317" style="fill:none;stroke:#000;stroke-width:1px;stroke-linecap:round;"/>
            </g>
            <g transform="matrix(1,0,0,1,250,-361.317)">
                <path d="M0,897.317L708.037,897.317" style="fill:none;stroke:#000;stroke-width:1px;stroke-linecap:round;"/>
            </g>
            <g transform="matrix(1,0,0,1,250,-395.501)">
                <path d="M0,897.317L624.578,897.317" style="fill:none;stroke:#000;stroke-width:1px;stroke-linecap:round;"/>
            </g>
            <g transform="matrix(1,0,0,1,250,-464.596)">
                <path d="M0,897.317L294.23,897.317" style="fill:none;stroke:#000;stroke-width:1px;stroke-linecap:round;"/>
            </g>
            <g transform="matrix(1,0,0,1,250,-559.014)">
                <path d="M0,897.317L127.776,897.317" style="fill:none;stroke:#000;stroke-width:1px;stroke-linecap:round;"/>
            </g>
            <g transform="matrix(1,0,0,1,250,-50)">
                <g transform="matrix(1,-0,-0,1,-0.5,154.725)">
                    <path d="M144.189,949.161L129.189,956.661L144.189,964.161L144.189,949.161Z"/>
                    <path d="M1985.5,949.161L2000.5,956.661L1985.5,964.161L1985.5,949.161Z"/>
                    <path d="M141.189,956.661L1988.5,956.661" style="fill:none;stroke:#000;stroke-width:1px;stroke-linecap:round;"/>
                </g>
            </g>
            <g transform="matrix(0.0910082,0,0,1,366.978,-114)">
                <g transform="matrix(10.988,-0,-0,1,-1290.85,218.725)">
                    <path d="M139.84,887.336L129.189,892.661L139.84,897.986L139.84,887.336Z"/>
                    <path d="M288.844,887.336L299.494,892.661L288.844,897.986L288.844,887.336Z"/>
                    <path d="M137.71,892.661L290.974,892.661" style="fill:none;stroke:#000;stroke-width:0.71px;stroke-linecap:round;"/>
                </g>
            </g>
            <g transform="matrix(0.173987,0,0,1,526.604,-114)">
                <g transform="matrix(5.74755,-0,-0,1,-1592.67,218.725)">
                    <path d="M310.26,887.278L299.494,892.661L310.26,898.044L310.26,887.278Z"/>
                    <path d="M614.312,887.278L625.078,892.661L614.312,898.044L614.312,887.278Z"/>
                    <path d="M308.107,892.661L616.465,892.661" style="fill:none;stroke:#000;stroke-width:0.72px;stroke-linecap:round;"/>
                </g>
            </g>
            <g transform="matrix(0.173987,0,0,1,325.906,-843.507)">
                <g transform="matrix(5.74755,-0,-0,1,-439.148,948.231)">
                    <path d="M138.811,210.822L135.046,222.254L146.451,218.407L138.811,210.822Z"/>
                    <path d="M141.114,216.142C156.113,201.036 193.725,163.155 193.725,163.155L412.705,163.155" style="fill:none;stroke:#000;stroke-width:0.72px;stroke-linecap:round;"/>
                </g>
            </g>
            <g transform="matrix(0.173987,0,0,1,771.922,-775.049)">
                <g transform="matrix(5.74755,-0,-0,1,-3002.65,879.773)">
                    <path d="M574.319,340.555L573.9,352.584L583.775,345.702L574.319,340.555Z"/>
                    <path d="M578.018,345.019C592.43,318.539 639.741,231.612 639.741,231.612L835.224,231.612" style="fill:none;stroke:#000;stroke-width:0.72px;stroke-linecap:round;"/>
                </g>
            </g>
            <g transform="matrix(0.173987,0,0,1,839.842,-693.036)">
                <g transform="matrix(5.74755,-0,-0,1,-3393.02,797.761)">
                    <path d="M674.702,379.54L675.581,391.544L684.657,383.638L674.702,379.54Z"/>
                    <path d="M678.86,383.58C687.034,363.727 707.661,313.625 707.661,313.625L901.072,313.625" style="fill:none;stroke:#000;stroke-width:0.72px;stroke-linecap:round;"/>
                </g>
            </g>
            <g transform="matrix(0.173987,0,0,1,1282.47,-590.305)">
                <g transform="matrix(5.74755,-0,-0,1,-5937.06,695.03)">
                    <path d="M1105.63,482.263L1104.86,494.275L1114.93,487.686L1105.63,482.263Z"/>
                    <path d="M1109.19,486.835C1120.55,467.355 1150.29,416.356 1150.29,416.356L1254.21,416.356" style="fill:none;stroke:#000;stroke-width:0.72px;stroke-linecap:round;"/>
                </g>
            </g>
            <g transform="matrix(0.173987,0,0,1,1611.76,-410.722)">
                <g transform="matrix(5.74755,-0,-0,1,-7829.64,515.447)">
                    <path d="M1433.05,645.009L1430.48,656.767L1441.43,651.771L1433.05,645.009Z"/>
                    <path d="M1435.89,650.065C1448.65,634.253 1479.58,595.939 1479.58,595.939L1660.84,595.939" style="fill:none;stroke:#000;stroke-width:0.72px;stroke-linecap:round;"/>
                </g>
            </g>
            <g transform="matrix(-0.173987,0,0,1,2302.75,-325.454)">
                <g transform="matrix(-5.74755,0,0,1,11801.1,430.179)">
                    <path d="M1989.9,767.283L2000.5,772.991L1998.71,761.088L1989.9,767.283Z"/>
                    <path d="M1995.54,765.946C1980.43,744.46 1935.93,681.207 1935.93,681.207L1705.85,681.207" style="fill:none;stroke:#000;stroke-width:0.72px;stroke-linecap:round;"/>
                </g>
            </g>
            <g transform="matrix(0.0447222,0,0,1,868.823,-114)">
                <g transform="matrix(22.3603,-0,-0,1,-13848.2,218.725)">
                    <path d="M635.695,887.352L625.078,892.661L635.695,897.97L635.695,887.352Z"/>
                    <path d="M698.15,887.352L708.767,892.661L698.15,897.97L698.15,887.352Z"/>
                    <path d="M633.572,892.661L700.273,892.661" style="fill:none;stroke:#000;stroke-width:0.71px;stroke-linecap:round;"/>
                </g>
            </g>
            <g transform="matrix(0.201594,0,0,1,932.324,-114)">
                <g transform="matrix(4.96045,-0,-0,1,-3387.12,218.725)">
                    <path d="M719.587,887.251L708.767,892.661L719.587,898.071L719.587,887.251Z"/>
                    <path d="M1075.19,887.251L1086.01,892.661L1075.19,898.071L1075.19,887.251Z"/>
                    <path d="M717.423,892.661L1077.36,892.661" style="fill:none;stroke:#000;stroke-width:0.72px;stroke-linecap:round;"/>
                </g>
            </g>
            <g transform="matrix(0.174615,0,0,0.866168,1313.04,34.7389)">
                <g transform="matrix(5.72689,-0,-0,1.15451,-6090.79,80.7995)">
                    <path d="M1095.38,887.975L1086.01,892.661L1095.38,897.347L1095.38,887.975Z"/>
                    <path d="M1403.4,887.975L1412.77,892.661L1403.4,897.347L1403.4,887.975Z"/>
                    <path d="M1093.51,892.661L1405.27,892.661" style="fill:none;stroke:#000;stroke-width:0.62px;stroke-linecap:round;"/>
                </g>
            </g>
            <g transform="matrix(0.0869856,0,0,0.866168,1651.08,34.7389)">
                <g transform="matrix(11.4961,-0,-0,1.15451,-16112.7,80.7995)">
                    <path d="M1422.01,888.044L1412.77,892.661L1422.01,897.278L1422.01,888.044Z"/>
                    <path d="M1566.32,888.044L1575.55,892.661L1566.32,897.278L1566.32,888.044Z"/>
                    <path d="M1420.16,892.661L1568.16,892.661" style="fill:none;stroke:#000;stroke-width:0.62px;stroke-linecap:round;"/>
                </g>
            </g>
            <g transform="matrix(0.227088,0,0,0.866168,1795.82,34.7389)">
                <g transform="matrix(4.40359,-0,-0,1.15451,-6809.37,80.7995)">
                    <path d="M1585.05,887.912L1575.55,892.661L1585.05,897.41L1585.05,887.912Z"/>
                    <path d="M1991,887.912L2000.5,892.661L1991,897.41L1991,887.912Z"/>
                    <path d="M1583.15,892.661L1992.9,892.661" style="fill:none;stroke:#000;stroke-width:0.63px;stroke-linecap:round;"/>
                </g>
            </g>
        </g>
        <g id="legend" transform="matrix(1,0,0,1,-79.9006,-157.122)">
            <g id="GLETSCHE" transform="matrix(1,0,0,1,1721.89,72.6097)">
                <path d="M128.689,387.303L184.407,387.06" style="fill:none;stroke:#000;stroke-width:5px;"/>
            </g>
            <g id="MORAN" transform="matrix(1,0,0,1,529.257,-150.062)">
                <path d="M1321.33,666.394L1377.04,666.435" style="fill:none;stroke:#000;stroke-width:5px;stroke-linecap:butt;stroke-linejoin:bevel;stroke-dasharray:5,5;"/>
            </g>
            <g id="MORAN1" serif:id="MORAN" transform="matrix(1,0,0,1,529.257,-95.2241)">
                <path d="M1321.33,666.394L1377.04,666.435" style="fill:none;stroke:#000;stroke-width:5px;stroke-linejoin:bevel;stroke-dasharray:10,10,10,10;"/>
            </g>
            <g transform="matrix(1,0,0,1,1253.3,233.932)">
                <text x="679.162px" y="234.112px" style="font-family:'HelveticaNeue-Bold', 'Helvetica Neue';font-weight:700;font-size:27px;">Gletscher</text>
                <text x="679.162px" y="289.678px" style="font-family:'HelveticaNeue-Bold', 'Helvetica Neue';font-weight:700;font-size:27px;">Moran</text>
                <g transform="matrix(27,0,0,27,735.106,345.244)">
                </g>
                <text x="679.162px" y="345.244px" style="font-family:'HelveticaNeue-Bold', 'Helvetica Neue';font-weight:700;font-size:27px;">W<tspan x="703.111px 718.609px " y="345.244px 345.244px ">eg</tspan></text>
            </g>
        </g>
        <g id="GLETSCHE1" serif:id="GLETSCHE" transform="matrix(1,0,0,1,43.1519,-73.4723)">
            <path d="M128.689,387.303L295.475,482.722L625.883,551.817L709,586.007L1085.51,667.859" style="fill:none;stroke:#000;stroke-width:5px;"/>
        </g>
        <g id="MORAN2" serif:id="MORAN" transform="matrix(1,0,0,1,43.1519,-73.4723)">
            <path d="M1084.62,667.859L1412.51,833.023" style="fill:none;stroke:#000;stroke-width:5px;stroke-linecap:butt;stroke-linejoin:bevel;stroke-dasharray:5,5;"/>
        </g>
        <g id="WEG" transform="matrix(1,0,0,1,43.1519,-73.4723)">
            <path d="M1412.51,833.023L1575.05,898.894L2000,947.928" style="fill:none;stroke:#000;stroke-width:5px;stroke-dasharray:10,10,10,10;"/>
        </g>
    </g>
</svg>
