<?xml version="1.0" encoding="UTF-8" standalone="no"?>
<!DOCTYPE svg PUBLIC "-//W3C//DTD SVG 1.1//EN" "http://www.w3.org/Graphics/SVG/1.1/DTD/svg11.dtd">
<svg width="100%" height="100%" viewBox="0 0 2560 900" version="1.1" xmlns="http://www.w3.org/2000/svg" xmlns:xlink="http://www.w3.org/1999/xlink" xml:space="preserve" xmlns:serif="http://www.serif.com/" style="fill-rule:evenodd;clip-rule:evenodd;stroke-linejoin:round;stroke-miterlimit:2;">
    <g transform="matrix(0.722757,0,0,0.722757,564.111,-479.121)">
        <g transform="matrix(5.13254,0,0,7.63129,-320.538,-888.228)">
            <rect x="-94.741" y="108.804" width="694.741" height="467.259" style="fill:rgb(148,148,86);"/>
        </g>
        <g transform="matrix(5.94298,0,0,5.94298,-806.802,-57.9144)">
            <path d="M58.324,300L36.029,316.344L15.435,325.862L4.426,339.6L-19.554,85.352L24.132,79.768L33.611,60.516L36.454,33.738L12.863,47.616L0,45.47L0,0L111.323,0L126.454,42.676L182.644,32.164L170.369,8.744L203.54,16.316L209.345,-5.502L255.135,0L262.49,25.766L230.053,28.908L247.116,50.486L258.117,42.676L271.299,85.352L290,110.284L319.207,132.421L352.893,155.208L317.66,179.49L342.909,207.651L401.57,201.73L414.636,156.828C414.636,156.828 421.425,131.288 413.261,132.421C405.098,133.553 369.583,114.353 369.583,114.353L352.893,120.7L329.697,97.641L352.893,42.676L340.049,30.574L300,59.814L308.238,22.9L310.013,0L460.837,0L450.336,13.389L463.019,28.478L478.419,32.342L537.664,33.037L517.63,0L600,0L600,98.298L569.681,69.431L537.664,97.25L559.976,147.21L572.698,179.49L573.292,204.078L572.253,233.967L575.586,269.283L600,218.026L600,309.146L586.086,322.93L600,449.453L600,600L10.366,600L5.165,589.991L0,594.293L0,499.178L23.433,516.25L54.22,518.517L67.785,536.624L93.429,538.839L122.543,525.691L109.79,511.189L141.339,494.817L147.869,483.178L49.832,462.882L41.495,400.267L-8.873,432.871L-7.236,374.888L62.05,382.416L67.785,347.448L93.429,337.717L135.569,378.394L179.594,400.267L37.889,336.581L151.488,309.146L161.741,285.286L141.339,224.789L216.008,232.354L256.824,218.026L215.889,204.29L221.918,177.855L283.166,184.597L280.778,132.421L254.962,124.576L185.25,132.421L152.789,132.421L100.937,122.218L67.785,111.411L50.606,115.812L36.336,157.075L23.237,171.844L93.429,205.619L36.472,209.354L60.861,218.026L36.892,250.768L0,236.804L9.677,274.683L105.422,265.585L102.376,300L58.324,300ZM308.339,309.146L275.695,309.146L256.969,326.075L279.416,375.363L287.277,394.985L241.728,431.909L238.432,498.058L217.971,498.192C217.971,498.192 204.069,481.257 197.733,481.4C191.396,481.543 172.597,485.971 172.597,485.971L187.587,523.189L219.524,534.723L225.18,530.72L267.187,548.306L388.865,539.934C388.865,539.934 382.291,510.741 374.646,501.794C367.002,492.847 343.394,466.311 343.394,466.311L327.408,471.891C327.408,471.891 307.133,468.252 300,462.892C292.867,457.532 291.918,441.687 291.918,441.687L334.209,373.298L316.542,353.98L333.154,327.479L308.339,309.146ZM393.785,367.394L409.6,426.416L441.169,473.498L432.147,526.178L482.931,570.854L499.355,530.77L531.156,535.759C531.156,535.759 490.462,465.733 486.096,461.169C481.73,456.605 465.427,429.081 465.427,429.081L513.561,403.584L561.837,403.584L516.809,346.788L485.742,336.49L391.923,353.355L393.785,367.394ZM416.483,218.026L374.646,233.425L374.646,249.913L438.338,266.166L479.51,290.314L486.769,242.34L537.664,274.342L546.573,222.181L522.466,218.026L504.374,176.428L482.039,133.66L441.96,193.363L426.565,231.983L416.483,218.026Z" style="fill:rgb(91,95,36);"/>
        </g>
        <g transform="matrix(5.94298,0,0,5.94298,-806.802,-57.9144)">
            <path d="M172.597,118.78L163.146,164.704L191.802,207.872L219.938,157.808L299.535,140.43L273.688,128.833L247.116,106.737L236.902,75.292L221.979,77.158L215.411,115.824L172.597,118.78Z"/>
        </g>
        <g transform="matrix(5.94298,0,0,5.94298,1318.83,1279.96)">
            <path d="M172.632,84.028L213.386,135.994L177.735,157.946L117.657,195.44L121.923,210.797L188.932,200.628L242.328,268.846L242.328,102.388L189.357,72.13L172.632,84.028Z"/>
        </g>
        <g transform="matrix(5.94298,0,0,5.94298,-806.802,-57.9144)">
            <path d="M527.707,158.554L556.289,185.842L600,207.905L611.654,158.438L606.314,115.45L546.573,116.09L527.707,158.554Z"/>
        </g>
        <g transform="matrix(5.94298,0,0,5.94298,-806.802,-57.9144)">
            <path d="M135.569,300L129.29,239.043L108.208,224.446L86.868,236.395L68.095,218.026L61.682,199.365L64.629,172.467L47.315,162.159L19.833,191.013L6.381,232.793L33.235,255.676L55.993,245.849L101.906,281.112L99.194,300L135.569,300Z"/>
        </g>
        <g transform="matrix(5.94298,0,0,5.94298,-806.802,-57.9144)">
            <path d="M317.145,270.431L326.629,243.438L388.865,288.912L403.35,313.202L428.399,272.441L460.837,358.712L388.865,403.696L374.646,338.054L322.995,345.367L345.978,300L317.145,270.431Z"/>
        </g>
        <g transform="matrix(5.94298,0,0,5.94298,-747.372,1.51544)">
            <path d="M270.731,108.26L317.145,99.889L370.779,89.303L434.413,105.45L432.147,126.429L485.379,183.68L444.598,233.057L410.033,160.658L364.562,158.243L294.715,197.182L300,128.746L270.731,108.26Z" style="fill:rgb(61,65,38);"/>
        </g>
        <g transform="matrix(5.94298,0,0,5.94298,-806.802,-57.9144)">
            <path d="M355.016,93.171L335.24,56.851L410.033,52.539L443.884,47.3L482.172,94.996L495.379,118.011L447.755,157.234L435.839,172.467L414.115,151.026L423.281,121.29L437.708,98.173L420.76,82.414L360.735,80.773L355.016,93.171Z"/>
        </g>
        <g transform="matrix(5.94298,0,0,5.94298,-806.802,-57.9144)">
            <path d="M0,75.292L84.449,125.888L135.569,144.531L135.569,196.937L106.628,195.856L108.282,162.159L60.008,145.893L6.381,162.159L15.561,131.381L0,75.292Z" style="fill:rgb(61,65,38);"/>
        </g>
        <g transform="matrix(5.94298,0,0,5.94298,-806.802,-57.9144)">
            <path d="M145.319,392.469L161.741,358.201L193.226,321.791L179.645,267.897L197.733,218.026L218.819,277.386L300,225.87L352.893,298.397L280.731,297.249L241.965,309.501L245.1,345.582L197.594,343.248L180.437,358.898L162.91,434.059L145.319,392.469Z" style="fill:rgb(61,65,38);"/>
        </g>
        <g transform="matrix(1.38359,0,0,1.38359,-787.853,-2330.02)">
            <g transform="matrix(1.16763,0,0,1.16763,-74.4641,-500.438)">
                <g transform="matrix(114.43,0,0,114.43,352.002,2660.1)">
                    <path d="M0.493,-0.561C0.472,-0.578 0.45,-0.591 0.429,-0.6C0.408,-0.608 0.387,-0.612 0.367,-0.612C0.342,-0.612 0.321,-0.606 0.305,-0.594C0.289,-0.582 0.281,-0.566 0.281,-0.547C0.281,-0.534 0.285,-0.523 0.293,-0.514C0.301,-0.505 0.312,-0.498 0.325,-0.492C0.338,-0.485 0.352,-0.48 0.369,-0.475C0.385,-0.47 0.401,-0.465 0.417,-0.46C0.481,-0.439 0.528,-0.41 0.558,-0.375C0.587,-0.339 0.602,-0.292 0.602,-0.235C0.602,-0.196 0.596,-0.161 0.583,-0.13C0.57,-0.099 0.551,-0.072 0.526,-0.05C0.501,-0.027 0.47,-0.01 0.434,0.003C0.397,0.015 0.356,0.021 0.31,0.021C0.215,0.021 0.126,-0.007 0.045,-0.064L0.129,-0.222C0.158,-0.196 0.187,-0.177 0.216,-0.164C0.245,-0.151 0.273,-0.145 0.301,-0.145C0.333,-0.145 0.357,-0.152 0.373,-0.167C0.388,-0.182 0.396,-0.198 0.396,-0.217C0.396,-0.228 0.394,-0.238 0.39,-0.247C0.386,-0.255 0.379,-0.263 0.37,-0.27C0.361,-0.277 0.349,-0.283 0.334,-0.289C0.319,-0.295 0.3,-0.302 0.279,-0.309C0.254,-0.317 0.229,-0.326 0.205,-0.336C0.18,-0.345 0.159,-0.358 0.14,-0.374C0.121,-0.39 0.105,-0.41 0.094,-0.435C0.082,-0.459 0.076,-0.49 0.076,-0.527C0.076,-0.564 0.082,-0.598 0.095,-0.629C0.107,-0.659 0.124,-0.685 0.147,-0.707C0.169,-0.728 0.196,-0.745 0.229,-0.757C0.261,-0.769 0.297,-0.775 0.337,-0.775C0.374,-0.775 0.413,-0.77 0.454,-0.76C0.495,-0.749 0.534,-0.734 0.571,-0.714L0.493,-0.561Z" style="fill:white;fill-rule:nonzero;"/>
                </g>
                <g transform="matrix(114.43,0,0,114.43,423.355,2660.1)">
                    <path d="M0.282,-0.754L0.282,-0.344C0.282,-0.322 0.283,-0.3 0.285,-0.277C0.287,-0.254 0.292,-0.233 0.3,-0.214C0.308,-0.195 0.321,-0.18 0.339,-0.169C0.357,-0.157 0.383,-0.151 0.415,-0.151C0.448,-0.151 0.458,-0.157 0.476,-0.169C0.494,-0.18 0.507,-0.195 0.516,-0.214C0.524,-0.233 0.529,-0.254 0.531,-0.277C0.533,-0.3 0.534,-0.322 0.534,-0.344L0.534,-0.754L0.729,-0.754L0.729,-0.317C0.729,-0.2 0.702,-0.114 0.648,-0.06C0.594,-0.006 0.527,0.021 0.415,0.021C0.304,0.021 0.221,-0.006 0.167,-0.06C0.113,-0.114 0.086,-0.2 0.086,-0.317L0.086,-0.754L0.282,-0.754Z" style="fill:white;fill-rule:nonzero;"/>
                </g>
                <g transform="matrix(114.43,0,0,114.43,514.046,2660.1)">
                    <path d="M0.275,-0.408L0.34,-0.408C0.412,-0.408 0.448,-0.439 0.448,-0.502C0.448,-0.565 0.412,-0.596 0.34,-0.596L0.275,-0.596L0.275,-0.408ZM0.275,-0L0.079,-0L0.079,-0.754L0.391,-0.754C0.476,-0.754 0.541,-0.732 0.586,-0.688C0.631,-0.644 0.653,-0.582 0.653,-0.502C0.653,-0.422 0.631,-0.36 0.586,-0.316C0.541,-0.272 0.476,-0.25 0.391,-0.25L0.275,-0.25L0.275,-0Z" style="fill:white;fill-rule:nonzero;"/>
                </g>
                <g transform="matrix(114.43,0,0,114.43,590.773,2660.1)">
                    <path d="M0.508,-0.588L0.275,-0.588L0.275,-0.462L0.495,-0.462L0.495,-0.296L0.275,-0.296L0.275,-0.166L0.508,-0.166L0.508,-0L0.079,-0L0.079,-0.754L0.508,-0.754L0.508,-0.588Z" style="fill:white;fill-rule:nonzero;"/>
                </g>
                <g transform="matrix(114.43,0,0,114.43,655.141,2660.1)">
                    <path d="M0.275,-0.417L0.312,-0.417C0.351,-0.417 0.38,-0.425 0.401,-0.441C0.422,-0.457 0.432,-0.48 0.432,-0.51C0.432,-0.54 0.422,-0.563 0.401,-0.579C0.38,-0.595 0.351,-0.603 0.312,-0.603L0.275,-0.603L0.275,-0.417ZM0.706,-0L0.462,-0L0.275,-0.29L0.275,-0L0.079,-0L0.079,-0.754L0.384,-0.754C0.426,-0.754 0.463,-0.748 0.494,-0.736C0.525,-0.723 0.551,-0.706 0.572,-0.685C0.592,-0.664 0.607,-0.639 0.618,-0.611C0.628,-0.583 0.633,-0.553 0.633,-0.521C0.633,-0.464 0.619,-0.417 0.592,-0.382C0.564,-0.346 0.523,-0.322 0.469,-0.309L0.706,-0Z" style="fill:white;fill-rule:nonzero;"/>
                </g>
            </g>
            <g transform="matrix(1.16763,0,0,1.16763,-161.622,-995.886)">
                <g transform="matrix(114.43,0,0,114.43,497.486,3186.1)">
                    <path d="M0.489,-0.28L0.401,-0.531L0.313,-0.28L0.489,-0.28ZM0.541,-0.131L0.261,-0.131L0.216,-0L0.007,-0L0.294,-0.754L0.508,-0.754L0.795,-0L0.586,-0L0.541,-0.131Z" style="fill:white;fill-rule:nonzero;"/>
                </g>
                <g transform="matrix(114.43,0,0,114.43,589.259,3186.1)">
                    <path d="M0.275,-0.754L0.275,-0.166L0.51,-0.166L0.51,-0L0.079,-0L0.079,-0.754L0.275,-0.754Z" style="fill:white;fill-rule:nonzero;"/>
                </g>
                <g transform="matrix(114.43,0,0,114.43,651.849,3186.1)">
                    <path d="M0.275,-0.408L0.34,-0.408C0.412,-0.408 0.448,-0.439 0.448,-0.502C0.448,-0.565 0.412,-0.596 0.34,-0.596L0.275,-0.596L0.275,-0.408ZM0.275,-0L0.079,-0L0.079,-0.754L0.391,-0.754C0.476,-0.754 0.541,-0.732 0.586,-0.688C0.631,-0.644 0.653,-0.582 0.653,-0.502C0.653,-0.422 0.631,-0.36 0.586,-0.316C0.541,-0.272 0.476,-0.25 0.391,-0.25L0.275,-0.25L0.275,-0Z" style="fill:white;fill-rule:nonzero;"/>
                </g>
                <g transform="matrix(114.43,0,0,114.43,729.432,3186.1)">
                    <rect x="0.079" y="-0.754" width="0.196" height="0.754" style="fill:white;fill-rule:nonzero;"/>
                </g>
                <g transform="matrix(114.43,0,0,114.43,766.515,3186.1)">
                    <path d="M0.086,0L0.086,-0.754L0.275,-0.754L0.607,-0.293L0.607,-0.754L0.8,-0.754L0.8,0L0.607,0L0.275,-0.461L0.275,-0L0.086,0Z" style="fill:white;fill-rule:nonzero;"/>
                </g>
                <g transform="matrix(114.43,0,0,114.43,864.765,3186.1)">
                    <path d="M0.508,-0.588L0.275,-0.588L0.275,-0.462L0.495,-0.462L0.495,-0.296L0.275,-0.296L0.275,-0.166L0.508,-0.166L0.508,-0L0.079,-0L0.079,-0.754L0.508,-0.754L0.508,-0.588Z" style="fill:white;fill-rule:nonzero;"/>
                </g>
            </g>
        </g>
    </g>
</svg>
