<?xml version="1.0" encoding="UTF-8" standalone="no"?><!DOCTYPE svg PUBLIC "-//W3C//DTD SVG 1.1//EN" "http://www.w3.org/Graphics/SVG/1.1/DTD/svg11.dtd"><svg width="100%" height="100%" viewBox="0 0 657 188" version="1.1" xmlns="http://www.w3.org/2000/svg" xmlns:xlink="http://www.w3.org/1999/xlink" xml:space="preserve" xmlns:serif="http://www.serif.com/" style="fill-rule:evenodd;clip-rule:evenodd;stroke-linejoin:round;stroke-miterlimit:2;"><g><g id="SUPER"><path d="M324.464,6.939c6.835,6.114 9.976,15.616 9.976,20.28l0,19.426c0,3.853 -1.571,4.672 -4.715,4.71c-5.195,0.062 -13.381,-0.015 -15.973,-0c-3.179,0.019 -5.353,2.034 -8.095,4.939c-3.516,3.723 -9.239,10.642 -16.152,10.642c-9.638,-0 -10.997,-0.022 -22.141,-0c-6.865,0.013 -12.567,-6.32 -14.585,-10.003c-2.719,-4.963 -5.316,-5.578 -8.348,-5.578l-4.214,-0l0,38.44c0,0 -6.738,0.003 -11.783,-0.001c-2.209,-0.002 -3.511,-1.528 -3.511,-3.508c0,-10.688 -0.005,-65.31 0,-66.792c0.01,-2.51 1.214,-3.614 3.546,-3.661c2.68,-0.054 8.038,0.069 11.748,0.031c2.891,-0.03 8.987,0.306 12.562,-4.702c5.257,-7.362 9.213,-11.022 15.42,-11.011c14.48,0.026 32.217,0 42.59,0c1.88,0 9.074,2.671 13.675,6.788Zm-14.279,9.898c-1.997,-0.008 -69.968,0.055 -69.968,0.055l0,33.816l79.407,0c-0,0 0.036,-15.759 0.069,-21.588c0.038,-6.665 -3.517,-12.258 -9.508,-12.283Z" style="fill:#000000;"/><path d="M529.925,66.748c0,0 -29.464,0.017 -39.906,0.037c-6.864,0.013 -12.566,-6.32 -14.584,-10.003c-2.719,-4.963 -5.316,-5.578 -8.349,-5.578l-4.213,-0l-0,38.44c-0,0 -6.739,0.003 -11.783,-0.001c-2.209,-0.002 -3.511,-1.528 -3.511,-3.508c-0,-10.688 -0.006,-65.31 -0,-66.792c0.009,-2.51 1.214,-3.615 3.546,-3.661c2.68,-0.054 8.038,0.068 11.748,0.031c2.891,-0.03 8.986,0.306 12.562,-4.702c5.256,-7.362 9.212,-11.022 15.419,-11.011c14.48,0.025 30.407,0.043 40.828,0c5.26,-0.022 10.837,2.671 15.438,6.788c6.834,6.114 8.213,15.616 8.213,20.28l0,19.426c0,3.853 -1.571,4.633 -4.715,4.659c-6.218,0.051 -9.807,-0 -9.807,-0l16.988,38.492c-0,0 -9.018,0.015 -11.994,0.013c-2.378,-0.002 -4.075,-0.076 -5.573,-2.286c-2.562,-3.782 -10.307,-20.624 -10.307,-20.624Zm1.153,-50.062c-1.996,-0.009 -68.205,0.055 -68.205,0.055l-0,33.816l77.644,0c0,0 0.036,-15.759 0.069,-21.588c0.038,-6.665 -3.517,-12.259 -9.508,-12.283Z" style="fill:#000000;"/><path d="M203.364,72.886l0,-57.189c0,0 8.769,-0.002 13.814,0.003c2.208,0.002 3.511,1.527 3.511,3.508c-0,10.688 0.005,49.801 -0,51.283c-0.01,2.51 -1.214,3.462 -3.546,3.462c-3.456,-0 -10.323,-0.008 -13.779,-0.008c-2.891,0 -8.718,-0.306 -12.294,4.701c-5.256,7.362 -9.212,11.022 -15.419,11.011c-17.155,-0.03 -19.299,0 -33.779,0c-4.139,0 -12.598,-2.67 -17.2,-6.787c-6.834,-6.115 -9.976,-13.275 -9.976,-20.809l0,-58.524c0,-2.2 1.158,-3.525 3.613,-3.525c2.845,0 10.276,-0.025 13.488,0c0.044,0.048 0.04,28.357 0.04,28.357c0,-0 -0.033,29.361 -0.04,30.626c-0.042,7.519 3.097,13.866 8.917,13.891c1.996,0.009 62.65,0 62.65,0Z" style="fill:#000000;"/><path d="M107.005,0.177c-10.931,0 -44.828,0.025 -60.086,0c-6.541,-0.01 -12.028,3.518 -17.567,10.615c-3.768,4.828 -10.099,4.949 -13.145,4.924c-3.909,-0.031 -8.904,0.06 -11.728,0.088c-1.929,0.02 -3.242,1.067 -4.143,4.04c-0.417,1.377 -0.328,3.548 -0.328,5.914c-0,2.257 -0.139,5.861 0.879,7.626c1.393,2.412 2.047,2.914 3.592,2.929c3.593,0.037 11.905,-0.073 16.199,-0.073c4.294,-0 7.473,1.273 10.829,6.978c4.228,7.186 13.286,8.489 13.286,8.489l45.89,-0c2.167,-0 3.524,1.469 3.524,3.637l0,17.754l-81.815,-0c-2.488,-0 -3.525,1.036 -3.525,3.524l0,13.199c0,0 45.769,-0.032 58.575,0c6.262,0.016 10.237,-0.641 16.214,-9.485c3.861,-5.714 5.27,-6.433 10.551,-6.433l12.798,-0c1.975,-0 3.517,-1.455 3.524,-3.525c0.019,-4.954 0.003,-12.336 -0.01,-18.671c-0.014,-7.573 -6.062,-16.566 -16.056,-16.566l-78.256,-0l-0,-18.325l94.322,-0.005c0,0 0,-8.422 0,-13.109c0,-2.322 -1.202,-3.525 -3.524,-3.525Z" style="fill:#000000;"/><path d="M439.798,0.001c-12.157,0.019 -38.18,0.019 -53.664,0.039c-6.531,0.009 -12.049,3.416 -17.567,10.53c-3.941,5.082 -10.099,5.302 -13.145,5.277c-3.909,-0.032 -10.489,0.072 -13.314,0.088c-2.58,0.014 -3.432,0.85 -3.438,3.511c-0.003,1.438 0.028,49.741 0,52.655c-0.023,2.426 1.128,3.343 4.23,3.342c2.766,-0.001 8.415,-0.051 12.557,-0.011c4.381,0.042 7.657,-0.37 13.072,5.518c6.217,6.761 11.025,8.839 17.628,8.826c22.862,-0.046 45.264,0.025 53.571,0.02c2.806,-0.002 3.647,-1.434 3.671,-3.532c0.02,-1.768 0.018,-11.798 0.018,-11.798l-87.96,-0l-0.056,-21.784c-0,0 55.63,-0.007 71.369,0c2.443,0.001 3.519,-0.863 3.549,-3.321c0.034,-2.751 0,-10.763 0,-10.763l-74.862,0.027l-0.035,-21.791l87.995,-0.026c0,-0 0.02,-8.564 0,-13.251c-0.01,-2.344 -1.11,-3.56 -3.619,-3.556Z" style="fill:#000000;"/></g><g id="ALPINE"><path d="M432.955,97.353l0,89.772c0,0 -8.391,0.005 -15.113,0c-3.614,-0.002 -5.402,-3.656 -5.384,-6.21c0.093,-13.048 0.408,-74.423 0.426,-79.084c0.014,-3.656 2.177,-4.454 5.239,-4.478c3.572,-0.028 14.832,-0 14.832,-0Z" style="fill:#000000;"/><path d="M240.135,97.353l-0,74.328l47.25,0.085c-0,0 0.027,9.127 -0,11.754c-0.029,2.791 -1.16,3.578 -3.525,3.607c-3.568,0.045 -2.788,0.058 -16.597,0c-7.693,-0.032 -11.65,-2.52 -17.774,-9.003c-2.296,-2.429 -6.095,-5.43 -13.219,-5.42c-5.077,0.008 -3.707,-0.003 -7.604,0c-2.666,0.003 -3.738,-1.519 -3.745,-3.484c-0.022,-5.621 0.036,-57.934 -0,-67.389c-0.014,-3.656 2.254,-4.454 5.316,-4.478c3.572,-0.028 9.898,-0 9.898,-0Z" style="fill:#000000;"/><path d="M653.245,97.19c-12.157,0.019 -41.705,0.019 -57.189,0.039c-6.531,0.009 -12.049,3.416 -17.567,10.53c-3.941,5.082 -10.099,5.302 -13.145,5.277c-3.909,-0.032 -10.489,0.072 -13.313,0.088c-2.581,0.014 -3.432,0.85 -3.438,3.511c-0.004,1.438 0.027,49.741 -0,52.655c-0.023,2.426 1.128,3.343 4.23,3.342c2.766,-0.001 8.414,-0.051 12.556,-0.011c4.382,0.043 7.658,-0.37 13.072,5.519c6.217,6.76 11.025,8.838 17.629,8.825c22.861,-0.046 48.788,0.025 57.095,0.02c2.807,-0.002 3.647,-1.434 3.671,-3.532c0.02,-1.768 0.018,-11.798 0.018,-11.798l-91.485,-0l-0.056,-21.784c0,0 57.393,-0.007 73.132,0c2.443,0.001 3.519,-0.863 3.549,-3.321c0.034,-2.751 -0,-10.763 -0,-10.763l-76.625,0.027l-0.035,-21.79l91.52,-0.027c0,-0 0.02,-8.564 0,-13.251c-0.01,-2.344 -1.11,-3.56 -3.619,-3.556Z" style="fill:#000000;"/><path d="M394.188,104.128c6.835,6.114 9.976,15.616 9.976,20.28l0,19.426c0,3.853 -1.571,4.672 -4.715,4.71c-5.195,0.062 -13.382,-0.015 -15.973,-0c-3.18,0.019 -5.353,2.034 -8.095,4.939c-3.516,3.723 -9.239,10.642 -16.152,10.642c-9.638,-0 -10.997,-0.022 -22.141,-0c-6.865,0.013 -12.567,-6.32 -14.585,-10.003c-2.719,-4.963 -5.316,-5.578 -8.349,-5.578l-4.213,-0l0,38.44c0,0 -6.738,0.003 -11.783,-0.001c-2.209,-0.002 -3.511,-1.528 -3.511,-3.508c0,-10.688 -0.005,-65.31 0,-66.791c0.01,-2.511 1.214,-3.615 3.546,-3.662c2.68,-0.054 8.038,0.069 11.748,0.031c2.891,-0.03 8.987,0.306 12.562,-4.702c5.257,-7.362 9.212,-11.022 15.419,-11.011c14.481,0.026 32.218,0 42.591,0c1.88,0 9.074,2.671 13.675,6.788Zm-14.279,9.898c-1.997,-0.008 -69.968,0.055 -69.968,0.055l0,33.816l79.407,0c-0,0 0.036,-15.759 0.069,-21.588c0.038,-6.665 -3.517,-12.258 -9.508,-12.283Z" style="fill:#000000;"/><path d="M207.357,104.128c6.834,6.114 10.256,14.783 10.256,20.28c-0,5.998 -0.003,47.691 -0,59.145c0,2.016 -1.292,3.514 -3.524,3.523c-3.267,0.013 -12.395,-0 -12.395,-0l0,-39.043c0,0 -6.013,0.001 -6.283,0c-0.685,0 -2.709,2.545 -5.452,5.45c-3.516,3.723 -8.005,10.994 -14.918,10.994c-10.341,0 -14.71,0 -23.727,0c-6.865,0 -11.373,-7.272 -14.226,-10.355c-2.984,-3.225 -4.341,-6.089 -6.632,-6.089l-6.202,0l-0,39.043c-0,-0 -6.838,0.004 -11.883,-0c-2.111,-0.002 -3.5,-1.456 -3.498,-3.512c0.011,-10.266 -0.004,-64.341 0,-65.823c0.01,-3.168 1.134,-4.712 4.251,-4.719c2.681,-0.006 7.42,0.038 11.13,-0c2.891,-0.03 8.9,0.337 12.475,-4.671c5.257,-7.362 9.212,-11.022 15.419,-11.011c14.481,0.026 30.891,0 41.264,0c2.239,0 9.343,2.671 13.945,6.788Zm-14.279,9.898c-5.756,0.011 -68.824,0.045 -68.824,0.045l-0,33.091l77.44,0c0,0 -0.028,-15.024 0,-20.853c0.038,-7.667 -3.549,-12.293 -8.616,-12.283Z" style="fill:#000000;"/><path d="M458.46,114.281l0,72.697c0,0 -8.769,0.002 -13.813,-0.002c-2.209,-0.002 -3.511,-1.528 -3.511,-3.508c-0,-10.688 -0.006,-65.31 -0,-66.792c0.009,-2.51 1.213,-3.462 3.546,-3.462c3.456,0 10.322,0.008 13.778,0.008c2.891,-0 8.718,0.306 12.294,-4.702c5.256,-7.362 9.212,-11.021 15.419,-11.011c17.155,0.03 15.774,0 30.254,0c4.14,0 12.599,2.671 17.2,6.788c6.835,6.114 9.976,13.275 9.976,20.809l0,58.524c0,2.2 -1.158,3.524 -3.612,3.524c-2.846,0 -10.277,0.026 -13.488,0c-0.045,-0.047 -0.041,-28.356 -0.041,-28.356c0,0 0.033,-29.361 0.041,-30.626c0.042,-7.519 -3.098,-13.866 -8.917,-13.891c-1.997,-0.009 -59.126,-0 -59.126,-0Z" style="fill:#000000;"/></g></g></svg>