<?xml version="1.0" standalone="no"?>
<!DOCTYPE svg PUBLIC "-//W3C//DTD SVG 20010904//EN"
 "http://www.w3.org/TR/2001/REC-SVG-20010904/DTD/svg10.dtd">
<svg version="1.0" xmlns="http://www.w3.org/2000/svg"
 width="700.000000pt" height="700.000000pt" viewBox="0 0 700.000000 700.000000"
 preserveAspectRatio="xMidYMid meet">
<metadata>
Created by potrace 1.14, written by Peter Selinger 2001-2017
</metadata>
<g transform="translate(0.000000,700.000000) scale(0.100000,-0.100000)"
fill="#000000" stroke="none">
<path d="M1025 4526 c-120 -38 -191 -116 -213 -232 -21 -117 10 -215 85 -268
24 -17 90 -47 146 -68 115 -42 147 -63 160 -102 19 -57 -28 -105 -108 -110
-53 -3 -135 27 -189 68 l-34 26 -14 -23 c-20 -32 -88 -164 -88 -171 0 -13 84
-58 155 -81 118 -40 264 -37 366 7 54 23 117 85 147 142 21 43 26 65 26 136 2
155 -56 228 -229 290 -143 52 -152 57 -164 92 -12 35 2 68 38 88 48 25 156 6
202 -36 19 -17 13 -26 90 126 33 63 37 58 -74 97 -85 30 -237 39 -302 19z"/>
<path d="M1619 4512 c-13 -2 -15 -46 -14 -325 1 -333 7 -391 46 -468 60 -120
162 -173 349 -183 163 -8 291 50 356 160 51 88 56 123 58 482 2 330 2 332 -18
333 -104 5 -219 2 -222 -6 -2 -5 -4 -152 -6 -325 -3 -294 -4 -317 -23 -349
-33 -57 -68 -76 -135 -75 -98 1 -146 54 -155 167 -2 23 -4 166 -4 317 l-1 275
-108 0 c-60 0 -115 -1 -123 -3z"/>
<path d="M2607 4508 c-9 -5 -12 -132 -12 -477 l0 -470 125 2 124 2 0 156 0
155 101 1 c200 3 292 47 347 168 33 73 33 228 0 301 -31 68 -84 117 -157 144
-55 20 -79 22 -288 24 -126 0 -234 -2 -240 -6z m396 -209 c76 -32 75 -173 -1
-207 -30 -13 -136 -22 -150 -13 -11 8 -11 224 0 232 13 9 120 0 151 -12z"/>
<path d="M3464 4512 l-22 -3 2 -472 1 -472 270 0 269 0 1 90 c1 50 -1 96 -3
103 -3 9 -42 12 -148 12 l-144 0 0 83 0 83 128 -1 c70 -1 132 0 138 2 17 6 17
203 1 204 -7 1 -64 3 -127 4 -63 1 -121 3 -128 4 -10 1 -12 21 -10 78 l3 78
135 1 c74 0 140 2 146 2 12 2 13 187 1 199 -7 7 -468 11 -513 5z"/>
<path d="M4159 4509 c-6 -3 -9 -198 -8 -476 l2 -471 123 0 124 0 2 179 3 179
115 -179 115 -179 152 0 c84 0 153 1 153 3 0 1 -65 87 -145 191 -80 104 -145
192 -145 195 0 4 12 9 28 12 45 10 107 57 137 106 27 43 29 53 30 146 0 113
-17 160 -82 221 -69 65 -120 76 -371 77 -123 1 -228 -1 -233 -4z m379 -206
c40 -19 61 -56 57 -102 -6 -74 -54 -111 -144 -111 l-51 0 0 113 c0 63 2 116 5
119 10 9 100 -4 133 -19z"/>
<path d="M1916 3390 l-58 -5 -19 -50 c-11 -27 -30 -79 -43 -115 -18 -49 -250
-657 -291 -763 -7 -16 2 -17 126 -15 l133 3 19 55 c10 30 23 66 28 80 l9 25
177 0 176 0 27 -80 27 -80 131 -3 c73 -1 132 0 132 3 0 6 -117 319 -135 360
-7 17 -43 111 -80 210 -37 99 -71 189 -76 200 -4 11 -22 54 -38 95 l-29 75
-78 5 c-44 3 -105 3 -138 0z m149 -475 l42 -121 -108 -1 c-60 0 -109 2 -109 6
0 3 23 73 52 155 l52 150 14 -35 c8 -19 33 -88 57 -154z"/>
<path d="M3353 3392 l-63 -3 1 -474 0 -475 124 0 124 0 3 157 3 158 90 1 c172
2 254 28 314 101 60 73 84 210 55 319 -28 109 -86 167 -205 203 -34 11 -319
19 -446 13z m372 -233 c51 -51 36 -164 -25 -189 -15 -6 -57 -12 -92 -13 l-63
-2 -3 119 -3 118 81 -3 c70 -4 83 -7 105 -30z"/>
<path d="M4641 3390 l-75 -5 0 -463 c-1 -255 2 -468 5 -473 3 -6 56 -8 120 -7
l114 3 0 283 c0 155 2 282 5 282 3 0 97 -129 209 -285 l205 -285 123 0 123 0
0 475 0 475 -123 0 -123 0 1 -285 c0 -157 -2 -285 -5 -285 -3 1 -27 33 -55 72
-27 39 -64 89 -80 112 -17 23 -86 119 -154 214 -68 94 -128 172 -134 173 -60
3 -92 3 -156 -1z"/>
<path d="M2603 2918 l2 -473 270 -3 271 -2 0 105 1 105 -148 0 -149 0 0 370 0
370 -124 0 -125 0 2 -472z"/>
<path d="M4150 2915 l0 -475 123 0 123 0 0 475 0 475 -123 0 -123 0 0 -475z"/>
<path d="M5641 2915 l0 -475 272 2 271 3 1 103 0 102 -147 0 -148 0 0 80 c0
44 3 80 8 81 4 0 66 1 137 2 l130 2 2 103 c1 72 -2 102 -10 103 -7 0 -69 1
-139 2 l-128 1 0 78 0 78 53 1 c28 0 93 0 143 0 107 -1 101 -8 99 119 l-2 85
-271 3 -271 2 0 -475z"/>
</g>
</svg>
