<?xml version="1.0" standalone="no"?>
<!DOCTYPE svg PUBLIC "-//W3C//DTD SVG 20010904//EN"
 "http://www.w3.org/TR/2001/REC-SVG-20010904/DTD/svg10.dtd">
<svg version="1.0" xmlns="http://www.w3.org/2000/svg"
 width="387.000000pt" height="387.000000pt" viewBox="0 0 387.000000 387.000000"
 preserveAspectRatio="xMidYMid meet">
<metadata>
Created by potrace 1.11, written by Peter Selinger 2001-2013
</metadata>
<g transform="translate(0.000000,387.000000) scale(0.100000,-0.100000)"
fill="#000000" stroke="none">
<path d="M469 3830 c-1 -3 -2 -618 -3 -1367 -1 -901 2 -1364 9 -1367 5 -2 145
-104 310 -225 165 -122 356 -262 425 -313 69 -50 157 -114 195 -143 304 -227
529 -386 538 -382 7 3 157 112 334 244 177 131 498 368 713 528 215 159 395
296 399 305 6 11 8 2669 2 2715 -1 10 -2920 15 -2922 5z m2836 -1384 l0 -1300
-410 -303 c-439 -324 -748 -553 -873 -646 -42 -31 -83 -56 -89 -55 -7 2 -276
196 -599 433 -322 237 -629 462 -682 501 l-97 70 -2 1290 c-1 709 0 1294 1
1300 3 8 399 10 1378 10 l1373 -1 0 -1299z"/>
<path d="M650 2686 l0 -960 52 49 c29 28 55 52 58 55 3 3 52 48 110 100 58 52
107 97 110 100 3 3 50 46 105 95 54 50 122 111 150 137 27 26 52 48 55 48 3 0
54 -68 114 -150 86 -117 113 -147 121 -138 7 7 41 49 76 93 35 44 69 87 76 95
7 8 62 78 123 155 61 77 117 146 124 153 13 13 13 13 404 -488 80 -102 148
-189 152 -193 4 -4 38 16 76 46 38 29 108 83 156 120 48 37 89 67 93 67 5 0
318 -264 378 -318 l27 -26 0 961 0 961 -1280 -1 -1280 0 0 -961z"/>
<path d="M1819 2133 c-57 -69 -150 -182 -205 -249 l-101 -123 -104 131 c-57
73 -107 136 -111 142 -5 8 -116 -81 -178 -144 -8 -8 -53 -49 -100 -90 -46 -41
-109 -98 -138 -126 l-55 -50 552 -318 c318 -183 558 -315 567 -312 8 3 153 83
322 177 169 95 324 181 345 191 20 11 37 24 37 28 0 4 -28 32 -62 61 -34 30
-66 59 -72 64 -29 26 -103 83 -123 93 -36 19 -52 15 -155 -44 -137 -78 -194
-83 -219 -16 -12 32 8 73 71 142 114 124 107 163 -43 267 -25 17 -53 43 -62
56 -18 28 -46 153 -47 210 0 20 -4 37 -8 37 -4 0 -54 -57 -111 -127z"/>
<path d="M2785 1800 c-25 -75 -26 -129 -4 -172 21 -41 61 -88 75 -88 5 0 32
15 59 33 28 17 62 38 75 45 35 18 76 50 70 55 -3 2 -54 39 -115 83 -60 43
-111 82 -113 86 -10 22 -32 2 -47 -42z"/>
<path d="M1195 1143 l-18 -63 -65 0 -65 0 44 -31 c24 -17 48 -35 52 -39 5 -4
-1 -33 -12 -64 -11 -31 -18 -56 -15 -56 2 0 26 15 51 34 l48 35 47 -35 c53
-38 59 -31 31 37 -16 42 -16 42 10 61 14 10 36 27 49 38 l23 19 -61 1 -60 0
-21 63 -20 62 -18 -62z"/>
<path d="M2636 1136 l-17 -56 -62 0 -62 -1 27 -20 c76 -57 73 -50 55 -104 -10
-27 -17 -53 -17 -58 0 -5 22 7 49 27 l48 36 39 -28 c64 -46 64 -46 53 -12 -5
16 -13 44 -18 60 -8 26 -7 32 12 41 11 7 30 20 41 30 11 11 25 20 30 21 6 1
-18 4 -53 7 l-64 6 -16 47 c-9 26 -19 49 -23 53 -3 4 -13 -19 -22 -49z"/>
<path d="M1906 762 l-29 -89 -88 1 c-49 1 -89 -2 -89 -5 0 -3 26 -25 58 -47
85 -60 84 -56 56 -141 -30 -91 -30 -98 -1 -77 12 9 45 32 74 52 l51 36 70 -51
c38 -28 72 -51 75 -51 2 0 -8 37 -24 82 -15 45 -26 85 -23 89 2 4 33 29 69 55
36 26 63 50 60 52 -3 3 -42 6 -87 6 l-83 1 -26 75 c-14 41 -27 81 -30 88 -2 8
-17 -26 -33 -76z"/>
</g>
</svg>
