<?xml version="1.0" standalone="no"?>
<!DOCTYPE svg PUBLIC "-//W3C//DTD SVG 20010904//EN"
 "http://www.w3.org/TR/2001/REC-SVG-20010904/DTD/svg10.dtd">
<svg version="1.0" xmlns="http://www.w3.org/2000/svg"
 width="900.000000pt" height="900.000000pt" viewBox="0 0 900.000000 900.000000"
 preserveAspectRatio="xMidYMid meet">
<metadata>
Created by potrace 1.11, written by Peter Selinger 2001-2013
</metadata>
<g transform="translate(0.000000,900.000000) scale(0.100000,-0.100000)"
fill="#000000" stroke="none">
<path d="M0 4500 l0 -4500 4500 0 4500 0 0 4500 0 4500 -4500 0 -4500 0 0
-4500z m3275 3455 c170 -36 327 -156 398 -305 34 -73 67 -192 67 -245 l0 -25
-182 2 -183 3 -7 48 c-22 156 -123 224 -316 215 -71 -4 -108 -10 -137 -26 -83
-43 -126 -114 -126 -213 -1 -71 6 -94 38 -137 53 -70 116 -95 349 -137 291
-53 421 -117 514 -257 64 -96 85 -179 84 -328 -1 -105 -5 -137 -27 -202 -75
-231 -268 -367 -568 -399 -200 -22 -408 17 -536 101 -152 100 -237 249 -268
473 l-6 47 180 0 181 0 6 -27 c35 -164 97 -233 232 -262 114 -24 264 -6 339
40 18 12 46 42 61 67 24 43 27 56 27 144 0 91 -2 99 -30 140 -47 68 -126 101
-315 133 -85 14 -186 35 -225 46 -208 62 -343 188 -390 366 -21 78 -20 244 0
324 53 203 215 355 437 410 93 23 304 25 403 4z m1145 -662 c0 -362 5 -691 10
-730 24 -185 137 -283 325 -283 153 0 257 64 307 188 l23 57 3 713 3 712 189
0 190 0 0 -713 c0 -678 -1 -718 -20 -791 -39 -153 -140 -298 -268 -383 -219
-145 -549 -159 -792 -32 -184 96 -311 275 -339 482 -12 86 -16 1419 -4 1430 3
4 89 7 190 7 l183 0 0 -657z m2210 -338 l0 -165 -400 0 -400 0 0 165 0 165
400 0 400 0 0 -165z m-3242 -1180 c229 -46 396 -201 452 -421 25 -97 27 -269
4 -358 -42 -164 -145 -292 -294 -364 -125 -61 -198 -72 -470 -72 l-230 0 0
-375 0 -375 -190 0 -190 0 0 990 0 990 420 0 c338 0 436 -3 498 -15z m1922
-150 l0 -165 -445 0 -445 0 2 -242 3 -243 378 -3 377 -2 -2 -163 -3 -162 -377
-3 -378 -2 0 -250 0 -250 443 -2 442 -3 3 -162 2 -163 -635 0 -635 0 0 990 0
990 635 0 635 0 0 -165z m1320 -825 l0 -170 -397 2 -398 3 -3 155 c-1 85 0
160 2 167 4 10 87 13 401 13 l395 0 0 -170z m-3205 -1183 c225 -64 377 -216
420 -422 28 -134 15 -293 -33 -405 -44 -101 -158 -216 -255 -256 l-45 -18 214
-428 c118 -235 214 -430 214 -433 0 -3 -98 -5 -218 -5 l-217 0 -189 405 -190
405 -138 0 -138 0 0 -405 0 -405 -190 0 -190 0 0 996 0 995 448 -3 c384 -4
455 -7 507 -21z m1113 -1759 l-3 -203 -202 -3 -203 -2 0 205 0 205 205 0 205
0 -2 -202z m-1747 -593 c44 -121 79 -223 79 -227 0 -5 -22 -8 -49 -8 l-49 0
-11 45 -11 46 -77 -3 -77 -3 -17 -44 c-16 -43 -17 -44 -60 -44 -31 0 -44 4
-43 14 1 8 36 112 79 232 l78 218 40 -3 39 -3 79 -220z m219 35 l0 -190 101 0
100 0 -3 -41 -3 -40 -145 0 -145 0 -3 230 -2 231 50 0 50 0 0 -190z m515 170
c85 -53 85 -190 0 -246 -16 -11 -54 -19 -100 -22 l-74 -5 -3 -85 -3 -85 -40 0
-40 0 -3 231 -2 232 116 0 c99 0 121 -3 149 -20z m215 -208 c0 -126 -2 -231
-4 -233 -3 -2 -25 -3 -50 -1 l-46 4 0 229 0 229 50 0 50 0 0 -228z m247 99
c40 -68 77 -129 82 -134 5 -5 9 43 9 125 l1 133 46 3 45 3 -2 -232 -3 -232
-44 -1 -43 -1 -82 137 -81 137 -5 -137 c-3 -75 -8 -136 -12 -134 -5 1 -24 2
-43 2 l-35 0 0 231 0 230 47 -3 47 -3 73 -124z m553 89 l0 -40 -100 0 -100 0
0 -55 0 -55 85 0 85 0 0 -40 0 -40 -85 0 -85 0 0 -55 0 -55 101 0 100 0 -3
-41 -3 -40 -145 0 -145 0 -3 230 -2 231 150 0 150 0 0 -40z"/>
<path d="M2850 5174 l0 -286 213 4 c272 7 324 24 384 126 26 43 28 55 28 152
0 92 -3 111 -25 154 -14 27 -42 62 -64 78 -68 49 -119 58 -338 58 l-198 0 0
-286z"/>
<path d="M2850 3040 l0 -270 168 0 c191 0 286 11 342 40 157 80 158 370 1 458
-53 30 -148 42 -343 42 l-168 0 0 -270z"/>
<path d="M2668 1345 c-6 -9 -48 -143 -48 -151 0 -2 23 -4 50 -4 28 0 50 3 50
8 0 23 -47 155 -52 147z"/>
<path d="M3352 1348 l3 -63 54 0 c44 1 57 5 73 25 13 16 17 32 13 49 -11 43
-24 51 -87 51 l-59 0 3 -62z"/>
</g>
</svg>
