<?xml version="1.0" standalone="no"?>
<!DOCTYPE svg PUBLIC "-//W3C//DTD SVG 20010904//EN"
 "http://www.w3.org/TR/2001/REC-SVG-20010904/DTD/svg10.dtd">
<svg version="1.0" xmlns="http://www.w3.org/2000/svg"
 width="1563.000000pt" height="1563.000000pt" viewBox="0 0 1563.000000 1563.000000"
 preserveAspectRatio="xMidYMid meet">
<metadata>
Created by potrace 1.14, written by Peter Selinger 2001-2017
</metadata>
<g transform="translate(0.000000,1563.000000) scale(0.100000,-0.100000)"
fill="#000000" stroke="none">
<path d="M0 7815 l0 -7815 7815 0 7815 0 0 7815 0 7815 -7815 0 -7815 0 0
-7815z m3360 2075 c90 -19 207 -58 286 -95 l74 -34 -97 -190 -98 -189 -30 19
c-158 105 -329 132 -432 68 -103 -64 -96 -196 14 -257 22 -12 114 -47 203 -77
307 -104 433 -207 492 -398 29 -94 31 -270 4 -367 -47 -170 -150 -296 -308
-373 -145 -71 -202 -82 -413 -81 -163 0 -189 3 -278 27 -54 15 -128 41 -165
57 -88 40 -212 111 -212 122 0 12 201 388 207 388 3 0 35 -22 72 -49 128 -95
238 -135 366 -134 62 0 91 5 128 23 116 55 142 200 50 280 -43 38 -75 52 -279
125 -85 30 -176 66 -202 79 -117 59 -200 152 -243 271 -26 73 -31 257 -10 345
63 260 276 437 551 458 97 8 239 0 320 -18z m1212 -662 c3 -628 4 -633 26
-694 30 -80 70 -127 140 -161 51 -25 68 -28 157 -28 97 0 102 1 153 34 65 41
95 80 124 157 22 58 23 65 26 692 l3 632 244 0 245 0 0 -622 c0 -512 -3 -640
-15 -718 -31 -191 -95 -320 -208 -426 -132 -124 -268 -172 -504 -181 -318 -12
-528 50 -679 201 -102 102 -155 212 -191 401 -12 64 -16 202 -20 702 -2 343
-2 627 2 633 4 6 96 10 250 10 l244 0 3 -632z m2503 609 c105 -30 199 -83 263
-147 114 -115 163 -251 163 -455 1 -215 -46 -350 -161 -466 -74 -76 -154 -120
-269 -151 -62 -17 -116 -21 -298 -25 l-223 -5 0 -314 0 -314 -245 0 -245 0 0
951 0 950 478 -3 c413 -4 485 -6 537 -21z m1755 -182 l0 -205 -292 -2 -293 -3
0 -160 0 -160 278 -3 277 -2 0 -205 0 -205 -277 -2 -278 -3 -2 -162 -2 -163
295 0 294 0 0 -210 0 -210 -540 0 -540 0 0 950 0 950 540 0 540 0 0 -205z
m1360 169 c156 -55 250 -136 315 -268 62 -126 80 -281 50 -426 -39 -184 -150
-305 -340 -371 -27 -9 -49 -22 -48 -27 2 -6 121 -165 266 -354 145 -189 276
-360 291 -381 l29 -37 -308 2 -307 3 -232 359 -231 359 -3 -361 -2 -362 -250
0 -250 0 0 951 0 950 468 -3 467 -3 85 -31z m-4705 -3150 c198 -520 361 -949
363 -954 2 -5 -115 -8 -260 -7 l-263 2 -56 165 -56 165 -355 3 -356 2 -57
-170 -58 -170 -259 0 -260 1 5 22 c3 16 626 1657 708 1865 l9 22 267 0 268 0
360 -946z m1075 201 l0 -745 300 0 300 0 -2 -207 -3 -208 -542 -3 -543 -2 0
955 0 955 245 0 245 0 0 -745z m1903 717 c166 -46 292 -140 360 -271 58 -109
71 -175 71 -346 0 -135 -3 -158 -27 -231 -63 -191 -195 -315 -392 -370 -46
-13 -116 -18 -292 -21 l-233 -5 -1 -291 c-1 -161 -2 -303 -2 -317 l-2 -25
-245 0 -245 0 -3 940 c-1 517 0 946 3 953 4 11 87 13 468 10 433 -4 467 -6
540 -26z m1197 -927 l0 -955 -245 0 -245 0 0 955 0 955 245 0 245 0 0 -955z
m1236 373 l419 -583 3 583 2 582 240 0 240 0 0 -955 0 -956 -240 1 -239 1
-418 581 -418 580 -5 -578 -5 -579 -235 0 -235 0 -3 953 -2 952 238 0 238 0
420 -582z m2342 370 l2 -208 -295 0 -295 0 0 -160 0 -160 275 0 275 0 0 -210
0 -210 -275 0 -275 0 0 -165 0 -165 295 0 295 0 -2 -207 -3 -208 -534 -3
c-421 -2 -536 0 -543 10 -9 15 -10 1882 -1 1892 4 3 248 5 542 4 l536 -3 3
-207z"/>
<path d="M6550 9232 l0 -242 118 0 c175 0 251 29 294 113 26 51 34 147 18 207
-15 55 -78 120 -135 138 -22 7 -97 15 -167 19 l-128 6 0 -241z"/>
<path d="M9670 9245 l0 -238 104 5 c90 4 112 9 162 34 102 51 144 137 123 249
-14 73 -48 118 -116 151 -50 25 -72 29 -165 33 l-108 3 0 -237z"/>
<path d="M4744 6738 l-110 -313 220 -3 c120 -1 220 -1 222 0 3 4 -202 593
-214 615 -6 9 -46 -92 -118 -299z"/>
<path d="M7950 6979 l0 -242 128 6 c70 2 143 10 162 17 95 34 142 106 142 219
0 81 -22 141 -68 180 -50 44 -119 61 -251 61 l-113 0 0 -241z"/>
</g>
</svg>
