<?xml version="1.0" encoding="UTF-8" standalone="no"?>
<!DOCTYPE svg PUBLIC "-//W3C//DTD SVG 1.1//EN" "http://www.w3.org/Graphics/SVG/1.1/DTD/svg11.dtd">
<svg width="100%" height="100%" viewBox="0 0 1563 1563" version="1.1" xmlns="http://www.w3.org/2000/svg" xmlns:xlink="http://www.w3.org/1999/xlink" xml:space="preserve" xmlns:serif="http://www.serif.com/" style="fill-rule:evenodd;clip-rule:evenodd;stroke-linejoin:round;stroke-miterlimit:2;">
    <g transform="matrix(0.1,0,0,-0.1,0,1563)">
        <g transform="matrix(-1.34982e-15,-22.0442,22.0442,-1.34982e-15,-28651.7,21076.2)">
            <rect x="247.056" y="1299.73" width="709.029" height="709.029" style="fill:url(#_Linear1);"/>
        </g>
        <g transform="matrix(18.9122,0,0,-18.9122,-4085.78,57235.4)">
            <g transform="matrix(1.16763,0,0,1.16763,-74.4641,-500.438)">
                <g transform="matrix(114.43,0,0,114.43,352.002,2660.1)">
                    <path d="M0.493,-0.561C0.472,-0.578 0.45,-0.591 0.429,-0.6C0.408,-0.608 0.387,-0.612 0.367,-0.612C0.342,-0.612 0.321,-0.606 0.305,-0.594C0.289,-0.582 0.281,-0.566 0.281,-0.547C0.281,-0.534 0.285,-0.523 0.293,-0.514C0.301,-0.505 0.312,-0.498 0.325,-0.492C0.338,-0.485 0.352,-0.48 0.369,-0.475C0.385,-0.47 0.401,-0.465 0.417,-0.46C0.481,-0.439 0.528,-0.41 0.558,-0.375C0.587,-0.339 0.602,-0.292 0.602,-0.235C0.602,-0.196 0.596,-0.161 0.583,-0.13C0.57,-0.099 0.551,-0.072 0.526,-0.05C0.501,-0.027 0.47,-0.01 0.434,0.003C0.397,0.015 0.356,0.021 0.31,0.021C0.215,0.021 0.126,-0.007 0.045,-0.064L0.129,-0.222C0.158,-0.196 0.187,-0.177 0.216,-0.164C0.245,-0.151 0.273,-0.145 0.301,-0.145C0.333,-0.145 0.357,-0.152 0.373,-0.167C0.388,-0.182 0.396,-0.198 0.396,-0.217C0.396,-0.228 0.394,-0.238 0.39,-0.247C0.386,-0.255 0.379,-0.263 0.37,-0.27C0.361,-0.277 0.349,-0.283 0.334,-0.289C0.319,-0.295 0.3,-0.302 0.279,-0.309C0.254,-0.317 0.229,-0.326 0.205,-0.336C0.18,-0.345 0.159,-0.358 0.14,-0.374C0.121,-0.39 0.105,-0.41 0.094,-0.435C0.082,-0.459 0.076,-0.49 0.076,-0.527C0.076,-0.564 0.082,-0.598 0.095,-0.629C0.107,-0.659 0.124,-0.685 0.147,-0.707C0.169,-0.728 0.196,-0.745 0.229,-0.757C0.261,-0.769 0.297,-0.775 0.337,-0.775C0.374,-0.775 0.413,-0.77 0.454,-0.76C0.495,-0.749 0.534,-0.734 0.571,-0.714L0.493,-0.561Z" style="fill:white;fill-rule:nonzero;"/>
                </g>
                <g transform="matrix(114.43,0,0,114.43,423.355,2660.1)">
                    <path d="M0.282,-0.754L0.282,-0.344C0.282,-0.322 0.283,-0.3 0.285,-0.277C0.287,-0.254 0.292,-0.233 0.3,-0.214C0.308,-0.195 0.321,-0.18 0.339,-0.169C0.357,-0.157 0.383,-0.151 0.415,-0.151C0.448,-0.151 0.458,-0.157 0.476,-0.169C0.494,-0.18 0.507,-0.195 0.516,-0.214C0.524,-0.233 0.529,-0.254 0.531,-0.277C0.533,-0.3 0.534,-0.322 0.534,-0.344L0.534,-0.754L0.729,-0.754L0.729,-0.317C0.729,-0.2 0.702,-0.114 0.648,-0.06C0.594,-0.006 0.527,0.021 0.415,0.021C0.304,0.021 0.221,-0.006 0.167,-0.06C0.113,-0.114 0.086,-0.2 0.086,-0.317L0.086,-0.754L0.282,-0.754Z" style="fill:white;fill-rule:nonzero;"/>
                </g>
                <g transform="matrix(114.43,0,0,114.43,514.046,2660.1)">
                    <path d="M0.275,-0.408L0.34,-0.408C0.412,-0.408 0.448,-0.439 0.448,-0.502C0.448,-0.565 0.412,-0.596 0.34,-0.596L0.275,-0.596L0.275,-0.408ZM0.275,-0L0.079,-0L0.079,-0.754L0.391,-0.754C0.476,-0.754 0.541,-0.732 0.586,-0.688C0.631,-0.644 0.653,-0.582 0.653,-0.502C0.653,-0.422 0.631,-0.36 0.586,-0.316C0.541,-0.272 0.476,-0.25 0.391,-0.25L0.275,-0.25L0.275,-0Z" style="fill:white;fill-rule:nonzero;"/>
                </g>
                <g transform="matrix(114.43,0,0,114.43,590.773,2660.1)">
                    <path d="M0.508,-0.588L0.275,-0.588L0.275,-0.462L0.495,-0.462L0.495,-0.296L0.275,-0.296L0.275,-0.166L0.508,-0.166L0.508,-0L0.079,-0L0.079,-0.754L0.508,-0.754L0.508,-0.588Z" style="fill:white;fill-rule:nonzero;"/>
                </g>
                <g transform="matrix(114.43,0,0,114.43,655.141,2660.1)">
                    <path d="M0.275,-0.417L0.312,-0.417C0.351,-0.417 0.38,-0.425 0.401,-0.441C0.422,-0.457 0.432,-0.48 0.432,-0.51C0.432,-0.54 0.422,-0.563 0.401,-0.579C0.38,-0.595 0.351,-0.603 0.312,-0.603L0.275,-0.603L0.275,-0.417ZM0.706,-0L0.462,-0L0.275,-0.29L0.275,-0L0.079,-0L0.079,-0.754L0.384,-0.754C0.426,-0.754 0.463,-0.748 0.494,-0.736C0.525,-0.723 0.551,-0.706 0.572,-0.685C0.592,-0.664 0.607,-0.639 0.618,-0.611C0.628,-0.583 0.633,-0.553 0.633,-0.521C0.633,-0.464 0.619,-0.417 0.592,-0.382C0.564,-0.346 0.523,-0.322 0.469,-0.309L0.706,-0Z" style="fill:white;fill-rule:nonzero;"/>
                </g>
            </g>
            <g transform="matrix(1.16763,0,0,1.16763,-161.622,-995.886)">
                <g transform="matrix(114.43,0,0,114.43,497.486,3186.1)">
                    <path d="M0.489,-0.28L0.401,-0.531L0.313,-0.28L0.489,-0.28ZM0.541,-0.131L0.261,-0.131L0.216,-0L0.007,-0L0.294,-0.754L0.508,-0.754L0.795,-0L0.586,-0L0.541,-0.131Z" style="fill:white;fill-rule:nonzero;"/>
                </g>
                <g transform="matrix(114.43,0,0,114.43,589.259,3186.1)">
                    <path d="M0.275,-0.754L0.275,-0.166L0.51,-0.166L0.51,-0L0.079,-0L0.079,-0.754L0.275,-0.754Z" style="fill:white;fill-rule:nonzero;"/>
                </g>
                <g transform="matrix(114.43,0,0,114.43,651.849,3186.1)">
                    <path d="M0.275,-0.408L0.34,-0.408C0.412,-0.408 0.448,-0.439 0.448,-0.502C0.448,-0.565 0.412,-0.596 0.34,-0.596L0.275,-0.596L0.275,-0.408ZM0.275,-0L0.079,-0L0.079,-0.754L0.391,-0.754C0.476,-0.754 0.541,-0.732 0.586,-0.688C0.631,-0.644 0.653,-0.582 0.653,-0.502C0.653,-0.422 0.631,-0.36 0.586,-0.316C0.541,-0.272 0.476,-0.25 0.391,-0.25L0.275,-0.25L0.275,-0Z" style="fill:white;fill-rule:nonzero;"/>
                </g>
                <g transform="matrix(114.43,0,0,114.43,729.432,3186.1)">
                    <rect x="0.079" y="-0.754" width="0.196" height="0.754" style="fill:white;fill-rule:nonzero;"/>
                </g>
                <g transform="matrix(114.43,0,0,114.43,766.515,3186.1)">
                    <path d="M0.086,0L0.086,-0.754L0.275,-0.754L0.607,-0.293L0.607,-0.754L0.8,-0.754L0.8,0L0.607,0L0.275,-0.461L0.275,-0L0.086,0Z" style="fill:white;fill-rule:nonzero;"/>
                </g>
                <g transform="matrix(114.43,0,0,114.43,864.765,3186.1)">
                    <path d="M0.508,-0.588L0.275,-0.588L0.275,-0.462L0.495,-0.462L0.495,-0.296L0.275,-0.296L0.275,-0.166L0.508,-0.166L0.508,-0L0.079,-0L0.079,-0.754L0.508,-0.754L0.508,-0.588Z" style="fill:white;fill-rule:nonzero;"/>
                </g>
            </g>
        </g>
    </g>
    <defs>
        <linearGradient id="_Linear1" x1="0" y1="0" x2="1" y2="0" gradientUnits="userSpaceOnUse" gradientTransform="matrix(779.3,-753.897,-753.897,-779.3,216.65,2008.76)"><stop offset="0" style="stop-color:rgb(255,0,0);stop-opacity:1"/><stop offset="0.58" style="stop-color:rgb(80,0,104);stop-opacity:1"/><stop offset="1" style="stop-color:rgb(0,0,152);stop-opacity:1"/></linearGradient>
    </defs>
</svg>
