<?xml version="1.0" encoding="UTF-8" standalone="no"?>
<!DOCTYPE svg PUBLIC "-//W3C//DTD SVG 1.1//EN" "http://www.w3.org/Graphics/SVG/1.1/DTD/svg11.dtd">
<svg width="100%" height="100%" viewBox="0 0 779 86" version="1.1" xmlns="http://www.w3.org/2000/svg" xmlns:xlink="http://www.w3.org/1999/xlink" xml:space="preserve" xmlns:serif="http://www.serif.com/" style="fill-rule:evenodd;clip-rule:evenodd;stroke-linejoin:round;stroke-miterlimit:2;">
    <g transform="matrix(1,0,0,1,-61.6002,-389.811)">
        <g transform="matrix(0.758099,0,0,0.758099,-42.476,152.212)">
            <path d="M201.001,343.85C197.967,341.385 194.933,339.56 191.899,338.375C188.865,337.189 185.926,336.597 183.081,336.597C179.478,336.597 176.539,337.45 174.263,339.157C171.988,340.863 170.85,343.092 170.85,345.841C170.85,347.737 171.419,349.302 172.557,350.535C173.694,351.767 175.188,352.834 177.037,353.734C178.886,354.635 180.971,355.417 183.294,356.081C185.617,356.745 187.917,357.456 190.192,358.214C199.294,361.249 205.955,365.302 210.174,370.374C214.394,375.447 216.503,382.06 216.503,390.214C216.503,395.714 215.579,400.691 213.73,405.148C211.881,409.604 209.179,413.42 205.623,416.596C202.068,419.773 197.706,422.238 192.539,423.992C187.371,425.746 181.517,426.623 174.974,426.623C161.416,426.623 148.853,422.593 137.286,414.534L149.232,392.063C153.404,395.761 157.529,398.511 161.606,400.312C165.683,402.113 169.712,403.014 173.694,403.014C178.246,403.014 181.635,401.971 183.863,399.885C186.091,397.799 187.206,395.429 187.206,392.774C187.206,391.162 186.921,389.764 186.352,388.579C185.783,387.394 184.835,386.303 183.508,385.308C182.18,384.312 180.45,383.388 178.317,382.534C176.183,381.681 173.6,380.733 170.566,379.69C166.963,378.552 163.431,377.296 159.97,375.921C156.509,374.546 153.428,372.721 150.726,370.446C148.024,368.17 145.843,365.302 144.184,361.841C142.524,358.38 141.695,353.995 141.695,348.686C141.695,343.376 142.572,338.564 144.326,334.25C146.08,329.936 148.545,326.238 151.721,323.157C154.898,320.075 158.785,317.681 163.383,315.975C167.982,314.268 173.126,313.415 178.814,313.415C184.124,313.415 189.671,314.15 195.454,315.619C201.238,317.089 206.785,319.246 212.094,322.09L201.001,343.85Z" style="fill-rule:nonzero;"/>
            <path d="M258.316,316.401L258.316,374.712C258.316,377.841 258.435,381.041 258.672,384.312C258.909,387.583 259.62,390.546 260.805,393.201C261.99,395.856 263.863,398.013 266.423,399.672C268.983,401.331 272.586,402.161 277.232,402.161C281.878,402.161 285.457,401.331 287.969,399.672C290.482,398.013 292.355,395.856 293.587,393.201C294.82,390.546 295.555,387.583 295.792,384.312C296.029,381.041 296.147,377.841 296.147,374.712L296.147,316.401L323.88,316.401L323.88,378.552C323.88,395.239 320.064,407.423 312.431,415.103C304.799,422.783 293.066,426.623 277.232,426.623C261.398,426.623 249.641,422.783 241.961,415.103C234.281,407.423 230.441,395.239 230.441,378.552L230.441,316.401L258.316,316.401Z" style="fill-rule:nonzero;"/>
            <path d="M370.671,365.61L379.916,365.61C390.155,365.61 395.275,361.154 395.275,352.241C395.275,343.329 390.155,338.872 379.916,338.872L370.671,338.872L370.671,365.61ZM370.671,423.636L342.796,423.636L342.796,316.401L387.169,316.401C399.21,316.401 408.431,319.53 414.831,325.788C421.231,332.046 424.431,340.863 424.431,352.241C424.431,363.619 421.231,372.437 414.831,378.694C408.431,384.952 399.21,388.081 387.169,388.081L370.671,388.081L370.671,423.636Z" style="fill-rule:nonzero;"/>
            <path d="M496.679,340.01L463.542,340.01L463.542,357.93L494.83,357.93L494.83,381.539L463.542,381.539L463.542,400.028L496.679,400.028L496.679,423.636L435.666,423.636L435.666,316.401L496.679,316.401L496.679,340.01Z" style="fill-rule:nonzero;"/>
            <path d="M541.052,364.33L546.315,364.33C551.814,364.33 556.033,363.192 558.972,360.917C561.912,358.641 563.381,355.37 563.381,351.103C563.381,346.837 561.912,343.566 558.972,341.29C556.033,339.015 551.814,337.877 546.315,337.877L541.052,337.877L541.052,364.33ZM602.35,423.636L567.648,423.636L541.052,382.392L541.052,423.636L513.177,423.636L513.177,316.401L556.555,316.401C562.528,316.401 567.743,317.278 572.199,319.032C576.655,320.787 580.329,323.181 583.221,326.215C586.113,329.249 588.294,332.757 589.763,336.739C591.233,340.721 591.968,344.988 591.968,349.539C591.968,357.693 590,364.306 586.066,369.379C582.131,374.451 576.323,377.888 568.643,379.69L602.35,423.636Z" style="fill-rule:nonzero;"/>
            <path d="M713.567,383.814L701.052,348.117L688.536,383.814L713.567,383.814ZM720.963,405.005L681.141,405.005L674.741,423.636L645.016,423.636L685.834,316.401L716.269,316.401L757.087,423.636L727.363,423.636L720.963,405.005Z" style="fill-rule:nonzero;"/>
            <path d="M793.638,316.401L793.638,400.028L827.06,400.028L827.06,423.636L765.762,423.636L765.762,316.401L793.638,316.401Z" style="fill-rule:nonzero;"/>
            <path d="M865.744,365.61L874.988,365.61C885.228,365.61 890.348,361.154 890.348,352.241C890.348,343.329 885.228,338.872 874.988,338.872L865.744,338.872L865.744,365.61ZM865.744,423.636L837.869,423.636L837.869,316.401L882.242,316.401C894.283,316.401 903.504,319.53 909.904,325.788C916.304,332.046 919.504,340.863 919.504,352.241C919.504,363.619 916.304,372.437 909.904,378.694C903.504,384.952 894.283,388.081 882.242,388.081L865.744,388.081L865.744,423.636Z" style="fill-rule:nonzero;"/>
            <rect x="930.739" y="316.401" width="27.875" height="107.235" style="fill-rule:nonzero;"/>
            <path d="M977.53,423.636L977.53,316.401L1005.4,316.401L1056.89,381.965L1056.89,316.401L1084.62,316.401L1084.62,423.636L1056.89,423.636L1005.4,358.072L1005.4,423.636L977.53,423.636Z" style="fill-rule:nonzero;"/>
            <path d="M1164.55,340.01L1131.41,340.01L1131.41,357.93L1162.7,357.93L1162.7,381.539L1131.41,381.539L1131.41,400.028L1164.55,400.028L1164.55,423.636L1103.54,423.636L1103.54,316.401L1164.55,316.401L1164.55,340.01Z" style="fill-rule:nonzero;"/>
        </g>
    </g>
</svg>
